<svg xmlns="http://www.w3.org/2000/svg" xmlns:xlink="http://www.w3.org/1999/xlink" contentStyleType="text/css" data-diagram-type="DESCRIPTION" height="952px" preserveAspectRatio="none" style="width:1073px;height:952px;background:#FFFFFF;" version="1.1" viewBox="0 0 1073 952" width="1073px" zoomAndPan="magnify"><defs/><g><!--cluster Aplicaci? Client (Web)--><g id="cluster_Aplicaci&#243; Client (Web)"><path d="M8.5,6.602 L160.7975,6.602 A3.75,3.75 0 0 1 163.2975,9.102 L170.2975,31.6699 L1063.5,31.6699 A2.5,2.5 0 0 1 1066,34.1699 L1066,797.102 A2.5,2.5 0 0 1 1063.5,799.602 L8.5,799.602 A2.5,2.5 0 0 1 6,797.102 L6,9.102 A2.5,2.5 0 0 1 8.5,6.602 " fill="transparent" style="stroke:#000000;stroke-width:1.5;"/><line style="stroke:#000000;stroke-width:1.5;" x1="6" x2="170.2975" y1="31.6699" y2="31.6699"/><text fill="#000000" font-family="sans-serif" font-size="14" font-weight="bold" lengthAdjust="spacing" textLength="151.2975" x="10" y="23.5679">Aplicaci&#243; Client (Web)</text></g><!--cluster Interf?cie--><g id="cluster_Interf&#237;cie"><path d="M370.5,198.602 L436.2778,198.602 A3.75,3.75 0 0 1 438.7778,201.102 L445.7778,223.6699 L1039.5,223.6699 A2.5,2.5 0 0 1 1042,226.1699 L1042,627.102 A2.5,2.5 0 0 1 1039.5,629.602 L370.5,629.602 A2.5,2.5 0 0 1 368,627.102 L368,201.102 A2.5,2.5 0 0 1 370.5,198.602 " fill="transparent" style="stroke:#000000;stroke-width:1.5;"/><line style="stroke:#000000;stroke-width:1.5;" x1="368" x2="445.7778" y1="223.6699" y2="223.6699"/><text fill="#000000" font-family="sans-serif" font-size="14" font-weight="bold" lengthAdjust="spacing" textLength="64.7778" x="372" y="215.5679">Interf&#237;cie</text></g><!--cluster Gesti? d'estat--><g id="cluster_Gesti&#243; d'estat"><path d="M857.5,52.602 L954.9456,52.602 A3.75,3.75 0 0 1 957.4456,55.102 L964.4456,77.6699 L1023.5,77.6699 A2.5,2.5 0 0 1 1026,80.1699 L1026,172.102 A2.5,2.5 0 0 1 1023.5,174.602 L857.5,174.602 A2.5,2.5 0 0 1 855,172.102 L855,55.102 A2.5,2.5 0 0 1 857.5,52.602 " fill="transparent" style="stroke:#000000;stroke-width:1.5;"/><line style="stroke:#000000;stroke-width:1.5;" x1="855" x2="964.4456" y1="77.6699" y2="77.6699"/><text fill="#000000" font-family="sans-serif" font-size="14" font-weight="bold" lengthAdjust="spacing" textLength="96.4456" x="859" y="69.5679">Gesti&#243; d'estat</text></g><!--cluster Acc?s a serveis--><g id="cluster_Acc&#233;s a serveis"><path d="M402,653.602 L507.0756,653.602 A3.75,3.75 0 0 1 509.5756,656.102 L516.5756,678.6699 L566,678.6699 A2.5,2.5 0 0 1 568.5,681.1699 L568.5,773.102 A2.5,2.5 0 0 1 566,775.602 L402,775.602 A2.5,2.5 0 0 1 399.5,773.102 L399.5,656.102 A2.5,2.5 0 0 1 402,653.602 " fill="transparent" style="stroke:#000000;stroke-width:1.5;"/><line style="stroke:#000000;stroke-width:1.5;" x1="399.5" x2="516.5756" y1="678.6699" y2="678.6699"/><text fill="#000000" font-family="sans-serif" font-size="14" font-weight="bold" lengthAdjust="spacing" textLength="104.0756" x="403.5" y="670.5679">Acc&#233;s a serveis</text></g><!--cluster Servidor (API)--><g id="cluster_Servidor (API)"><path d="M878,823.602 L974.4937,823.602 A3.75,3.75 0 0 1 976.9937,826.102 L983.9937,848.6699 L1003,848.6699 A2.5,2.5 0 0 1 1005.5,851.1699 L1005.5,943.102 A2.5,2.5 0 0 1 1003,945.602 L878,945.602 A2.5,2.5 0 0 1 875.5,943.102 L875.5,826.102 A2.5,2.5 0 0 1 878,823.602 " fill="transparent" style="stroke:#000000;stroke-width:1.5;"/><line style="stroke:#000000;stroke-width:1.5;" x1="875.5" x2="983.9937" y1="848.6699" y2="848.6699"/><text fill="#000000" font-family="sans-serif" font-size="14" font-weight="bold" lengthAdjust="spacing" textLength="95.4937" x="879.5" y="840.5679">Servidor (API)</text></g><!--entity main.js--><g id="elem_main.js"><rect fill="#F1F1F1" height="68.1358" rx="2.5" ry="2.5" style="stroke:#181818;stroke-width:0.5;" width="116.9697" x="22" y="442.602"/><rect fill="#F1F1F1" height="10" style="stroke:#181818;stroke-width:0.5;" width="15" x="118.9697" y="447.602"/><rect fill="#F1F1F1" height="2" style="stroke:#181818;stroke-width:0.5;" width="4" x="116.9697" y="449.602"/><rect fill="#F1F1F1" height="2" style="stroke:#181818;stroke-width:0.5;" width="4" x="116.9697" y="453.602"/><text fill="#000000" font-family="sans-serif" font-size="14" font-style="italic" lengthAdjust="spacing" textLength="74.9697" x="38" y="477.5679">&#171;JavaScript&#187;</text><text fill="#000000" font-family="sans-serif" font-size="14" lengthAdjust="spacing" textLength="47.2778" x="51.846" y="496.6358">main.js</text></g><!--entity PizzaCard--><g id="elem_PizzaCard"><rect fill="#F1F1F1" height="68.1358" rx="2.5" ry="2.5" style="stroke:#181818;stroke-width:0.5;" width="154.6156" x="406.5" y="545.602"/><rect fill="#F1F1F1" height="10" style="stroke:#181818;stroke-width:0.5;" width="15" x="541.1156" y="550.602"/><rect fill="#F1F1F1" height="2" style="stroke:#181818;stroke-width:0.5;" width="4" x="539.1156" y="552.602"/><rect fill="#F1F1F1" height="2" style="stroke:#181818;stroke-width:0.5;" width="4" x="539.1156" y="556.602"/><text fill="#000000" font-family="sans-serif" font-size="14" font-style="italic" lengthAdjust="spacing" textLength="112.6156" x="422.5" y="580.5679">&#171;WebComponent&#187;</text><text fill="#000000" font-family="sans-serif" font-size="14" lengthAdjust="spacing" textLength="64.1898" x="446.7129" y="599.6358">PizzaCard</text></g><!--entity EntrantCard--><g id="elem_EntrantCard"><rect fill="#F1F1F1" height="68.1358" rx="2.5" ry="2.5" style="stroke:#181818;stroke-width:0.5;" width="154.6156" x="406.5" y="442.602"/><rect fill="#F1F1F1" height="10" style="stroke:#181818;stroke-width:0.5;" width="15" x="541.1156" y="447.602"/><rect fill="#F1F1F1" height="2" style="stroke:#181818;stroke-width:0.5;" width="4" x="539.1156" y="449.602"/><rect fill="#F1F1F1" height="2" style="stroke:#181818;stroke-width:0.5;" width="4" x="539.1156" y="453.602"/><text fill="#000000" font-family="sans-serif" font-size="14" font-style="italic" lengthAdjust="spacing" textLength="112.6156" x="422.5" y="477.5679">&#171;WebComponent&#187;</text><text fill="#000000" font-family="sans-serif" font-size="14" lengthAdjust="spacing" textLength="79.9257" x="438.8449" y="496.6358">EntrantCard</text></g><!--entity CarretComponent--><g id="elem_CarretComponent"><rect fill="#F1F1F1" height="68.1358" rx="2.5" ry="2.5" style="stroke:#181818;stroke-width:0.5;" width="158.9576" x="404.5" y="339.602"/><rect fill="#F1F1F1" height="10" style="stroke:#181818;stroke-width:0.5;" width="15" x="543.4576" y="344.602"/><rect fill="#F1F1F1" height="2" style="stroke:#181818;stroke-width:0.5;" width="4" x="541.4576" y="346.602"/><rect fill="#F1F1F1" height="2" style="stroke:#181818;stroke-width:0.5;" width="4" x="541.4576" y="350.602"/><text fill="#000000" font-family="sans-serif" font-size="14" font-style="italic" lengthAdjust="spacing" textLength="112.6156" x="422.671" y="374.5679">&#171;WebComponent&#187;</text><text fill="#000000" font-family="sans-serif" font-size="14" lengthAdjust="spacing" textLength="118.9576" x="419.5" y="393.6358">CarretComponent</text></g><!--entity CarretStatusComponent--><g id="elem_CarretStatusComponent"><rect fill="#F1F1F1" height="68.1358" rx="2.5" ry="2.5" style="stroke:#181818;stroke-width:0.5;" width="199.9634" x="384" y="236.602"/><rect fill="#F1F1F1" height="10" style="stroke:#181818;stroke-width:0.5;" width="15" x="563.9634" y="241.602"/><rect fill="#F1F1F1" height="2" style="stroke:#181818;stroke-width:0.5;" width="4" x="561.9634" y="243.602"/><rect fill="#F1F1F1" height="2" style="stroke:#181818;stroke-width:0.5;" width="4" x="561.9634" y="247.602"/><text fill="#000000" font-family="sans-serif" font-size="14" font-style="italic" lengthAdjust="spacing" textLength="112.6156" x="422.6739" y="271.5679">&#171;WebComponent&#187;</text><text fill="#000000" font-family="sans-serif" font-size="14" lengthAdjust="spacing" textLength="159.9634" x="399" y="290.6358">CarretStatusComponent</text></g><!--entity CounterComponent--><g id="elem_CounterComponent"><rect fill="#F1F1F1" height="68.1358" rx="2.5" ry="2.5" style="stroke:#181818;stroke-width:0.5;" width="171.0955" x="855" y="442.602"/><rect fill="#F1F1F1" height="10" style="stroke:#181818;stroke-width:0.5;" width="15" x="1006.0955" y="447.602"/><rect fill="#F1F1F1" height="2" style="stroke:#181818;stroke-width:0.5;" width="4" x="1004.0955" y="449.602"/><rect fill="#F1F1F1" height="2" style="stroke:#181818;stroke-width:0.5;" width="4" x="1004.0955" y="453.602"/><text fill="#000000" font-family="sans-serif" font-size="14" font-style="italic" lengthAdjust="spacing" textLength="112.6156" x="879.2399" y="477.5679">&#171;WebComponent&#187;</text><text fill="#000000" font-family="sans-serif" font-size="14" lengthAdjust="spacing" textLength="131.0955" x="870" y="496.6358">CounterComponent</text></g><!--entity Carret--><g id="elem_Carret"><rect fill="#F1F1F1" height="68.1358" rx="2.5" ry="2.5" style="stroke:#181818;stroke-width:0.5;" width="139.1316" x="871" y="90.602"/><rect fill="#F1F1F1" height="10" style="stroke:#181818;stroke-width:0.5;" width="15" x="990.1316" y="95.602"/><rect fill="#F1F1F1" height="2" style="stroke:#181818;stroke-width:0.5;" width="4" x="988.1316" y="97.602"/><rect fill="#F1F1F1" height="2" style="stroke:#181818;stroke-width:0.5;" width="4" x="988.1316" y="101.602"/><text fill="#000000" font-family="sans-serif" font-size="14" font-style="italic" lengthAdjust="spacing" textLength="97.1316" x="887" y="125.5679">&#171;Gesti&#243; d'estat&#187;</text><text fill="#000000" font-family="sans-serif" font-size="14" lengthAdjust="spacing" textLength="41.2159" x="914.9579" y="144.6358">Carret</text></g><!--entity PizzeriaService--><g id="elem_PizzeriaService"><rect fill="#F1F1F1" height="68.1358" rx="2.5" ry="2.5" style="stroke:#181818;stroke-width:0.5;" width="137.0896" x="415.5" y="691.602"/><rect fill="#F1F1F1" height="10" style="stroke:#181818;stroke-width:0.5;" width="15" x="532.5896" y="696.602"/><rect fill="#F1F1F1" height="2" style="stroke:#181818;stroke-width:0.5;" width="4" x="530.5896" y="698.602"/><rect fill="#F1F1F1" height="2" style="stroke:#181818;stroke-width:0.5;" width="4" x="530.5896" y="702.602"/><text fill="#000000" font-family="sans-serif" font-size="14" font-style="italic" lengthAdjust="spacing" textLength="50.1198" x="453.9849" y="726.5679">&#171;Servei&#187;</text><text fill="#000000" font-family="sans-serif" font-size="14" lengthAdjust="spacing" textLength="97.0896" x="430.5" y="745.6358">PizzeriaService</text></g><!--entity API REST--><g id="elem_API REST"><rect fill="#F1F1F1" height="68.1358" rx="2.5" ry="2.5" style="stroke:#181818;stroke-width:0.5;" width="97.7638" x="891.5" y="861.602"/><rect fill="#F1F1F1" height="10" style="stroke:#181818;stroke-width:0.5;" width="15" x="969.2638" y="866.602"/><rect fill="#F1F1F1" height="2" style="stroke:#181818;stroke-width:0.5;" width="4" x="967.2638" y="868.602"/><rect fill="#F1F1F1" height="2" style="stroke:#181818;stroke-width:0.5;" width="4" x="967.2638" y="872.602"/><text fill="#000000" font-family="sans-serif" font-size="14" font-style="italic" lengthAdjust="spacing" textLength="44.8418" x="912.961" y="896.5679">&#171;HTTP&#187;</text><text fill="#000000" font-family="sans-serif" font-size="14" lengthAdjust="spacing" textLength="57.7638" x="906.5" y="915.6358">API REST</text></g><!--link main.js to PizzeriaService--><g id="link_main.js_PizzeriaService"><path d="M108.08,510.822 C124.23,530.062 146.11,553.562 169,570.602 C246.54,628.322 343.315,671.9139 409.745,698.3439 " fill="transparent" id="main.js-to-PizzeriaService" style="stroke:#181818;stroke-width:1;"/><polygon fill="#181818" points="415.32,700.562,408.4363,693.5182,410.6742,698.7136,405.4788,700.9515,415.32,700.562" style="stroke:#181818;stroke-width:1;"/><text fill="#000000" font-family="sans-serif" font-size="13" lengthAdjust="spacing" textLength="181.1032" x="170" y="566.499">getAllPizzes(), getAllEntrants()</text></g><!--link PizzeriaService to API REST--><g id="link_PizzeriaService_API REST"><path d="M552.55,750.872 C645.41,785.602 804.5703,845.1299 885.8403,875.5299 " fill="transparent" id="PizzeriaService-to-API REST" style="stroke:#181818;stroke-width:1;"/><polygon fill="#181818" points="891.46,877.632,884.4319,870.7323,886.7769,875.8802,881.629,878.2253,891.46,877.632" style="stroke:#181818;stroke-width:1;"/><text fill="#000000" font-family="sans-serif" font-size="13" lengthAdjust="spacing" textLength="161.7851" x="639" y="772.499">GET /api/pizzeria/products</text></g><!--link main.js to PizzaCard--><g id="link_main.js_PizzaCard"><path d="M139.03,491.362 C209.28,509.382 322.5481,538.4414 400.5281,558.4414 " fill="transparent" id="main.js-to-PizzaCard" style="stroke:#181818;stroke-width:1;"/><polygon fill="#181818" points="406.34,559.932,398.6159,553.8215,401.4968,558.6898,396.6284,561.5707,406.34,559.932" style="stroke:#181818;stroke-width:1;"/></g><!--link main.js to EntrantCard--><g id="link_main.js_EntrantCard"><path d="M139.03,476.602 C209.28,476.602 322.36,476.602 400.34,476.602 " fill="transparent" id="main.js-to-EntrantCard" style="stroke:#181818;stroke-width:1;"/><polygon fill="#181818" points="406.34,476.602,397.34,472.602,401.34,476.602,397.34,480.602,406.34,476.602" style="stroke:#181818;stroke-width:1;"/></g><!--link main.js to CarretComponent--><g id="link_main.js_CarretComponent"><path d="M139.03,461.842 C208.63,443.992 320.3482,415.3228 398.3582,395.3128 " fill="transparent" id="main.js-to-CarretComponent" style="stroke:#181818;stroke-width:1;"/><polygon fill="#181818" points="404.17,393.822,394.4584,392.1836,399.3268,395.0643,396.4461,399.9327,404.17,393.822" style="stroke:#181818;stroke-width:1;"/></g><!--link main.js to CarretStatusComponent--><g id="link_main.js_CarretStatusComponent"><path d="M135.77,442.332 C146.7,435.652 158.15,428.812 169,422.602 C252.35,374.912 273.11,362.482 360,321.602 C372.13,315.892 379.5631,312.5108 392.3331,307.0508 " fill="transparent" id="main.js-to-CarretStatusComponent" style="stroke:#181818;stroke-width:1;"/><polygon fill="#181818" points="397.85,304.692,388.0021,304.5523,393.2526,306.6577,391.1472,311.9081,397.85,304.692" style="stroke:#181818;stroke-width:1;"/></g><!--link PizzaCard to CounterComponent--><g id="link_PizzaCard_CounterComponent"><path d="M561.69,562.732 C630.64,547.492 734.66,524.352 825,503.602 C834.65,501.382 838.9179,500.4094 848.9579,498.0594 " fill="transparent" id="PizzaCard-to-CounterComponent" style="stroke:#181818;stroke-width:1;"/><polygon fill="#181818" points="854.8,496.692,845.1252,494.8484,849.9316,497.8315,846.9485,502.6379,854.8,496.692" style="stroke:#181818;stroke-width:1;"/><text fill="#000000" font-family="sans-serif" font-size="13" lengthAdjust="spacing" textLength="106.9901" x="666.5" y="499.499">Cont&#233; comptador</text></g><!--link EntrantCard to CounterComponent--><g id="link_EntrantCard_CounterComponent"><path d="M561.59,476.602 C642.79,476.602 764.72,476.602 848.87,476.602 " fill="transparent" id="EntrantCard-to-CounterComponent" style="stroke:#181818;stroke-width:1;"/><polygon fill="#181818" points="854.87,476.602,845.87,472.602,849.87,476.602,845.87,480.602,854.87,476.602" style="stroke:#181818;stroke-width:1;"/><text fill="#000000" font-family="sans-serif" font-size="13" lengthAdjust="spacing" textLength="106.9901" x="666.5" y="472.499">Cont&#233; comptador</text></g><!--link CounterComponent to Carret--><g id="link_CounterComponent_Carret"><path d="M940.5,442.532 C940.5,375.242 940.5,231.992 940.5,164.692 " fill="transparent" id="CounterComponent-to-Carret" style="stroke:#181818;stroke-width:1;"/><polygon fill="#181818" points="940.5,158.692,936.5,167.692,940.5,163.692,944.5,167.692,940.5,158.692" style="stroke:#181818;stroke-width:1;"/><text fill="#000000" font-family="sans-serif" font-size="13" lengthAdjust="spacing" textLength="138.8661" x="859" y="305.999">Afig/Elimina productes</text></g><!--link Carret to CarretComponent--><g id="link_Carret_CarretComponent"><path d="M900.57,158.832 C882.61,176.062 862,198.052 847,220.602 C833.33,241.152 843.44,255.182 825,271.602 C805.15,289.272 663.4891,327.9406 569.3891,352.2606 " fill="transparent" id="Carret-to-CarretComponent" style="stroke:#181818;stroke-width:1;"/><polygon fill="#181818" points="563.58,353.762,573.2946,355.3827,568.4209,352.5108,571.2928,347.6372,563.58,353.762" style="stroke:#181818;stroke-width:1;"/><text fill="#000000" font-family="sans-serif" font-size="13" lengthAdjust="spacing" textLength="177.0731" x="631" y="267.499">Proporciona dades del carret</text></g><!--link CarretComponent to Carret--><g id="link_CarretComponent_Carret"><path d="M563.69,398.242 C640,416.782 754.31,429.592 825,367.602 C874.67,324.042 817.81,279.862 847,220.602 C858.56,197.142 873.5186,179.7488 891.5686,163.1088 " fill="transparent" id="CarretComponent-to-Carret" style="stroke:#181818;stroke-width:1;"/><polygon fill="#181818" points="895.98,159.042,886.6516,162.2013,892.3038,162.431,892.0741,168.0832,895.98,159.042" style="stroke:#181818;stroke-width:1;"/><text fill="#000000" font-family="sans-serif" font-size="13" lengthAdjust="spacing" textLength="190.2942" x="624.5" y="363.499">Escolta l'event carretActualitzat</text></g><!--link Carret to CarretStatusComponent--><g id="link_Carret_CarretStatusComponent"><path d="M888.74,158.732 C869.44,170.512 846.83,182.912 825,191.602 C781.79,208.802 674.0377,232.5767 589.9677,249.8167 " fill="transparent" id="Carret-to-CarretStatusComponent" style="stroke:#181818;stroke-width:1;"/><polygon fill="#181818" points="584.09,251.022,593.7101,253.1325,588.9881,250.0175,592.103,245.2955,584.09,251.022" style="stroke:#181818;stroke-width:1;"/><text fill="#000000" font-family="sans-serif" font-size="13" lengthAdjust="spacing" textLength="209.0532" x="615" y="187.499">Proporciona informaci&#243; del resum</text></g><!--link CarretStatusComponent to Carret--><g id="link_CarretStatusComponent_Carret"><path d="M517.8,236.382 C542.08,213.272 577.21,184.232 614,168.602 C697.58,133.092 797.141,124.8525 864.981,123.6025 " fill="transparent" id="CarretStatusComponent-to-Carret" style="stroke:#181818;stroke-width:1;"/><polygon fill="#181818" points="870.98,123.492,861.9078,119.6585,865.9808,123.5841,862.0552,127.6571,870.98,123.492" style="stroke:#181818;stroke-width:1;"/><text fill="#000000" font-family="sans-serif" font-size="13" lengthAdjust="spacing" textLength="190.2942" x="624.5" y="122.499">Escolta l'event carretActualitzat</text></g><!--SRC=[bLIzRjim4Dxv50Slje6cteF0W62eIJePbO7ELufshw58WJmPXOiyK8PEVGI_M4b9TcJQQMDEql7xkVjqa5Ph1hRWQFETeIId99CrGjGedt2ZO9JLcYHAsl-1XIPb62PVrRVf27u90U4SWO-6bLllVqjIyHBw8srLMnDveoNjThX0LuxWxYw8B0vNy_abU6xOeU7t4mBIAJw2hY4LZDpuQwcsYJF_Z_MS17MlFCSuot5uG7uZhAwlA9dWtr3DfDo_U43mocqL-Nzy0-K8Yu0YgQ9-qH9EPGUC2iby_E4ZyZDkiP2EwjZ4ys19MhNIEfXaoyVfmNeW4ihm9IzMKULXjLfs_35yqitFC1Z57576BHEz7zpSp27f5cvXepZJkgtxoVH3_zwlIgY8b19b1lQtS9-lO8OrpUeUEQkTBHl9NfnvjzjwKXqivKazsRqBTycA2N4qw439CeLE5zRm_gMDaJ6aAmRcx-Q8Cz1hIm6VhMapopLLP13w85H8eWTS62sGbixMridmeq0eiLGUIgL1jhXpPZ9umYUpjgxgVZ1HnIdVL2BrFEavzz9gHj1ZjOsNdN4ckK5DlCD33wdnbI9_0G00]--></g></svg>