<svg xmlns="http://www.w3.org/2000/svg" xmlns:xlink="http://www.w3.org/1999/xlink" contentStyleType="text/css" data-diagram-type="CLASS" height="673px" preserveAspectRatio="none" style="width:880px;height:673px;background:#FFFFFF;" version="1.1" viewBox="0 0 880 673" width="880px" zoomAndPan="magnify"><defs/><g><!--class Producte--><g id="elem_Producte"><rect codeLine="4" fill="#F1F1F1" height="124.2717" id="Producte" rx="2.5" ry="2.5" style="stroke:#181818;stroke-width:0.5;" width="117.0136" x="136.5" y="376"/><ellipse cx="162.9119" cy="392" fill="#ADD1B2" rx="11" ry="11" style="stroke:#181818;stroke-width:1;"/><path d="M165.8807,397.6406 Q165.3026,397.9375 164.6619,398.0781 Q164.0213,398.2344 163.3182,398.2344 Q160.8182,398.2344 159.4901,396.5938 Q158.1776,394.9375 158.1776,391.8125 Q158.1776,388.6875 159.4901,387.0313 Q160.8182,385.375 163.3182,385.375 Q164.0213,385.375 164.6619,385.5313 Q165.3182,385.6875 165.8807,385.9844 L165.8807,388.7031 Q165.2557,388.125 164.6619,387.8594 Q164.0682,387.5781 163.4432,387.5781 Q162.0994,387.5781 161.4119,388.6563 Q160.7244,389.7188 160.7244,391.8125 Q160.7244,393.9063 161.4119,394.9844 Q162.0994,396.0469 163.4432,396.0469 Q164.0682,396.0469 164.6619,395.7813 Q165.2557,395.5 165.8807,394.9219 L165.8807,397.6406 Z " fill="#000000"/><text fill="#000000" font-family="sans-serif" font-size="14" lengthAdjust="spacing" textLength="59.6538" x="179.4479" y="397.432">Producte</text><line style="stroke:#181818;stroke-width:0.5;" x1="137.5" x2="252.5136" y1="408" y2="408"/><rect fill="transparent" height="6" style="stroke:#C82930;stroke-width:1;" width="6" x="144.5" y="420.034"/><text fill="#000000" font-family="sans-serif" font-size="14" lengthAdjust="spacing" textLength="72.2957" x="156.5" y="426.9659">id: number</text><rect fill="transparent" height="6" style="stroke:#C82930;stroke-width:1;" width="6" x="144.5" y="439.1019"/><text fill="#000000" font-family="sans-serif" font-size="14" lengthAdjust="spacing" textLength="76.0197" x="156.5" y="446.0339">nom: string</text><rect fill="transparent" height="6" style="stroke:#C82930;stroke-width:1;" width="6" x="144.5" y="458.1698"/><text fill="#000000" font-family="sans-serif" font-size="14" lengthAdjust="spacing" textLength="91.0136" x="156.5" y="465.1018">preu: number</text><rect fill="transparent" height="6" style="stroke:#C82930;stroke-width:1;" width="6" x="144.5" y="477.2377"/><text fill="#000000" font-family="sans-serif" font-size="14" lengthAdjust="spacing" textLength="71.1197" x="156.5" y="484.1697">img: string</text><line style="stroke:#181818;stroke-width:0.5;" x1="137.5" x2="252.5136" y1="492.2717" y2="492.2717"/></g><!--class Pizza--><g id="elem_Pizza"><rect codeLine="11" fill="#F1F1F1" height="105.2038" id="Pizza" rx="2.5" ry="2.5" style="stroke:#181818;stroke-width:0.5;" width="165.1315" x="33.5" y="561"/><ellipse cx="95.2678" cy="577" fill="#ADD1B2" rx="11" ry="11" style="stroke:#181818;stroke-width:1;"/><path d="M98.2365,582.6406 Q97.6584,582.9375 97.0178,583.0781 Q96.3772,583.2344 95.674,583.2344 Q93.174,583.2344 91.8459,581.5938 Q90.5334,579.9375 90.5334,576.8125 Q90.5334,573.6875 91.8459,572.0313 Q93.174,570.375 95.674,570.375 Q96.3772,570.375 97.0178,570.5313 Q97.674,570.6875 98.2365,570.9844 L98.2365,573.7031 Q97.6115,573.125 97.0178,572.8594 Q96.424,572.5781 95.799,572.5781 Q94.4553,572.5781 93.7678,573.6563 Q93.0803,574.7188 93.0803,576.8125 Q93.0803,578.9063 93.7678,579.9844 Q94.4553,581.0469 95.799,581.0469 Q96.424,581.0469 97.0178,580.7813 Q97.6115,580.5 98.2365,579.9219 L98.2365,582.6406 Z " fill="#000000"/><text fill="#000000" font-family="sans-serif" font-size="14" lengthAdjust="spacing" textLength="33.0959" x="115.7678" y="582.432">Pizza</text><line style="stroke:#181818;stroke-width:0.5;" x1="34.5" x2="197.6315" y1="593" y2="593"/><rect fill="transparent" height="6" style="stroke:#C82930;stroke-width:1;" width="6" x="41.5" y="605.034"/><text fill="#000000" font-family="sans-serif" font-size="14" lengthAdjust="spacing" textLength="75.7397" x="53.5" y="611.9659">desc: string</text><rect fill="transparent" height="6" style="stroke:#C82930;stroke-width:1;" width="6" x="41.5" y="624.1019"/><text fill="#000000" font-family="sans-serif" font-size="14" lengthAdjust="spacing" textLength="139.1315" x="53.5" y="631.0339">vegetariana: boolean</text><rect fill="transparent" height="6" style="stroke:#C82930;stroke-width:1;" width="6" x="41.5" y="643.1698"/><text fill="#000000" font-family="sans-serif" font-size="14" lengthAdjust="spacing" textLength="112.0276" x="53.5" y="650.1018">alergens: string[]</text><line style="stroke:#181818;stroke-width:0.5;" x1="34.5" x2="197.6315" y1="658.2038" y2="658.2038"/></g><!--class Entrant--><g id="elem_Entrant"><rect codeLine="17" fill="#F1F1F1" height="48" id="Entrant" rx="2.5" ry="2.5" style="stroke:#181818;stroke-width:0.5;" width="80.8318" x="233.5" y="589.5"/><ellipse cx="248.5" cy="605.5" fill="#ADD1B2" rx="11" ry="11" style="stroke:#181818;stroke-width:1;"/><path d="M251.4688,611.1406 Q250.8906,611.4375 250.25,611.5781 Q249.6094,611.7344 248.9063,611.7344 Q246.4063,611.7344 245.0781,610.0938 Q243.7656,608.4375 243.7656,605.3125 Q243.7656,602.1875 245.0781,600.5313 Q246.4063,598.875 248.9063,598.875 Q249.6094,598.875 250.25,599.0313 Q250.9063,599.1875 251.4688,599.4844 L251.4688,602.2031 Q250.8438,601.625 250.25,601.3594 Q249.6563,601.0781 249.0313,601.0781 Q247.6875,601.0781 247,602.1563 Q246.3125,603.2188 246.3125,605.3125 Q246.3125,607.4063 247,608.4844 Q247.6875,609.5469 249.0313,609.5469 Q249.6563,609.5469 250.25,609.2813 Q250.8438,609 251.4688,608.4219 L251.4688,611.1406 Z " fill="#000000"/><text fill="#000000" font-family="sans-serif" font-size="14" lengthAdjust="spacing" textLength="48.8318" x="262.5" y="610.932">Entrant</text><line style="stroke:#181818;stroke-width:0.5;" x1="234.5" x2="313.3318" y1="621.5" y2="621.5"/><line style="stroke:#181818;stroke-width:0.5;" x1="234.5" x2="313.3318" y1="629.5" y2="629.5"/></g><!--class Carret--><g id="elem_Carret"><rect codeLine="24" fill="#F1F1F1" height="143.3396" id="Carret" rx="2.5" ry="2.5" style="stroke:#181818;stroke-width:0.5;" width="376.0267" x="7" y="154"/><ellipse cx="170.1554" cy="170" fill="#ADD1B2" rx="11" ry="11" style="stroke:#181818;stroke-width:1;"/><path d="M173.1242,175.6406 Q172.5461,175.9375 171.9054,176.0781 Q171.2648,176.2344 170.5617,176.2344 Q168.0617,176.2344 166.7336,174.5938 Q165.4211,172.9375 165.4211,169.8125 Q165.4211,166.6875 166.7336,165.0313 Q168.0617,163.375 170.5617,163.375 Q171.2648,163.375 171.9054,163.5313 Q172.5617,163.6875 173.1242,163.9844 L173.1242,166.7031 Q172.4992,166.125 171.9054,165.8594 Q171.3117,165.5781 170.6867,165.5781 Q169.3429,165.5781 168.6554,166.6563 Q167.9679,167.7188 167.9679,169.8125 Q167.9679,171.9063 168.6554,172.9844 Q169.3429,174.0469 170.6867,174.0469 Q171.3117,174.0469 171.9054,173.7813 Q172.4992,173.5 173.1242,172.9219 L173.1242,175.6406 Z " fill="#000000"/><text fill="#000000" font-family="sans-serif" font-size="14" lengthAdjust="spacing" textLength="41.2159" x="190.6554" y="175.432">Carret</text><line style="stroke:#181818;stroke-width:0.5;" x1="8" x2="382.0267" y1="186" y2="186"/><rect fill="transparent" height="6" style="stroke:#C82930;stroke-width:1;" width="6" x="15" y="198.034"/><text fill="#000000" font-family="sans-serif" font-size="14" lengthAdjust="spacing" textLength="350.0267" x="27" y="204.9659">elements: { producte: Producte, quantitat: number }[]</text><line style="stroke:#181818;stroke-width:0.5;" x1="8" x2="382.0267" y1="213.0679" y2="213.0679"/><ellipse cx="18" cy="228.1019" fill="#84BE84" rx="3" ry="3" style="stroke:#038048;stroke-width:1;"/><text fill="#000000" font-family="sans-serif" font-size="14" lengthAdjust="spacing" textLength="217.4752" x="27" y="232.0339">afegirProducte(p: Producte): void</text><ellipse cx="18" cy="247.1698" fill="#84BE84" rx="3" ry="3" style="stroke:#038048;stroke-width:1;"/><text fill="#000000" font-family="sans-serif" font-size="14" lengthAdjust="spacing" textLength="233.0151" x="27" y="251.1018">eliminarProducte(p: Producte): void</text><ellipse cx="18" cy="266.2377" fill="#84BE84" rx="3" ry="3" style="stroke:#038048;stroke-width:1;"/><text fill="#000000" font-family="sans-serif" font-size="14" lengthAdjust="spacing" textLength="214.7732" x="27" y="270.1697">calcularQuantitatTotal(): number</text><ellipse cx="18" cy="285.3056" fill="#84BE84" rx="3" ry="3" style="stroke:#038048;stroke-width:1;"/><text fill="#000000" font-family="sans-serif" font-size="14" lengthAdjust="spacing" textLength="182.8533" x="27" y="289.2376">calcularPreuTotal(): number</text></g><!--class PizzeriaService--><g id="elem_PizzeriaService"><rect codeLine="35" fill="#F1F1F1" height="86.1358" id="PizzeriaService" rx="2.5" ry="2.5" style="stroke:#181818;stroke-width:0.5;" width="193.1034" x="429.5" y="7"/><ellipse cx="473.3062" cy="23" fill="#ADD1B2" rx="11" ry="11" style="stroke:#181818;stroke-width:1;"/><path d="M476.2749,28.6406 Q475.6968,28.9375 475.0562,29.0781 Q474.4156,29.2344 473.7124,29.2344 Q471.2124,29.2344 469.8843,27.5938 Q468.5718,25.9375 468.5718,22.8125 Q468.5718,19.6875 469.8843,18.0313 Q471.2124,16.375 473.7124,16.375 Q474.4156,16.375 475.0562,16.5313 Q475.7124,16.6875 476.2749,16.9844 L476.2749,19.7031 Q475.6499,19.125 475.0562,18.8594 Q474.4624,18.5781 473.8374,18.5781 Q472.4937,18.5781 471.8062,19.6563 Q471.1187,20.7188 471.1187,22.8125 Q471.1187,24.9063 471.8062,25.9844 Q472.4937,27.0469 473.8374,27.0469 Q474.4624,27.0469 475.0562,26.7813 Q475.6499,26.5 476.2749,25.9219 L476.2749,28.6406 Z " fill="#000000"/><text fill="#000000" font-family="sans-serif" font-size="14" lengthAdjust="spacing" textLength="97.0896" x="493.7076" y="28.432">PizzeriaService</text><line style="stroke:#181818;stroke-width:0.5;" x1="430.5" x2="621.6034" y1="39" y2="39"/><line style="stroke:#181818;stroke-width:0.5;" x1="430.5" x2="621.6034" y1="47" y2="47"/><ellipse cx="440.5" cy="62.034" fill="#84BE84" rx="3" ry="3" style="stroke:#038048;stroke-width:1;"/><text fill="#000000" font-family="sans-serif" font-size="14" lengthAdjust="spacing" textLength="135.6735" x="449.5" y="65.9659">getAllPizzes(): Pizza[]</text><ellipse cx="440.5" cy="81.1019" fill="#84BE84" rx="3" ry="3" style="stroke:#038048;stroke-width:1;"/><text fill="#000000" font-family="sans-serif" font-size="14" lengthAdjust="spacing" textLength="167.1034" x="449.5" y="85.0339">getAllEntrants(): Entrant[]</text></g><!--class CardComponent--><g id="elem_CardComponent"><rect codeLine="41" fill="#F1F1F1" height="67.0679" id="CardComponent" rx="2.5" ry="2.5" style="stroke:#181818;stroke-width:0.5;" width="140.8356" x="657.5" y="16.5"/><ellipse cx="672.5" cy="32.5" fill="#ADD1B2" rx="11" ry="11" style="stroke:#181818;stroke-width:1;"/><path d="M675.4688,38.1406 Q674.8906,38.4375 674.25,38.5781 Q673.6094,38.7344 672.9063,38.7344 Q670.4063,38.7344 669.0781,37.0938 Q667.7656,35.4375 667.7656,32.3125 Q667.7656,29.1875 669.0781,27.5313 Q670.4063,25.875 672.9063,25.875 Q673.6094,25.875 674.25,26.0313 Q674.9063,26.1875 675.4688,26.4844 L675.4688,29.2031 Q674.8438,28.625 674.25,28.3594 Q673.6563,28.0781 673.0313,28.0781 Q671.6875,28.0781 671,29.1563 Q670.3125,30.2188 670.3125,32.3125 Q670.3125,34.4063 671,35.4844 Q671.6875,36.5469 673.0313,36.5469 Q673.6563,36.5469 674.25,36.2813 Q674.8438,36 675.4688,35.4219 L675.4688,38.1406 Z " fill="#000000"/><text fill="#000000" font-family="sans-serif" font-size="14" lengthAdjust="spacing" textLength="108.8356" x="686.5" y="37.932">CardComponent</text><line style="stroke:#181818;stroke-width:0.5;" x1="658.5" x2="797.3356" y1="48.5" y2="48.5"/><line style="stroke:#181818;stroke-width:0.5;" x1="658.5" x2="797.3356" y1="56.5" y2="56.5"/><ellipse cx="668.5" cy="71.534" fill="#84BE84" rx="3" ry="3" style="stroke:#038048;stroke-width:1;"/><text fill="#000000" font-family="sans-serif" font-size="14" lengthAdjust="spacing" textLength="88.2137" x="677.5" y="75.4659">render(): void</text></g><!--class PizzaCard--><g id="elem_PizzaCard"><rect codeLine="45" fill="#F1F1F1" height="67.0679" id="PizzaCard" rx="2.5" ry="2.5" style="stroke:#181818;stroke-width:0.5;" width="114.2137" x="610" y="192"/><ellipse cx="633.1108" cy="208" fill="#ADD1B2" rx="11" ry="11" style="stroke:#181818;stroke-width:1;"/><path d="M636.0795,213.6406 Q635.5014,213.9375 634.8608,214.0781 Q634.2201,214.2344 633.517,214.2344 Q631.017,214.2344 629.6889,212.5938 Q628.3764,210.9375 628.3764,207.8125 Q628.3764,204.6875 629.6889,203.0313 Q631.017,201.375 633.517,201.375 Q634.2201,201.375 634.8608,201.5313 Q635.517,201.6875 636.0795,201.9844 L636.0795,204.7031 Q635.4545,204.125 634.8608,203.8594 Q634.267,203.5781 633.642,203.5781 Q632.2983,203.5781 631.6108,204.6563 Q630.9233,205.7188 630.9233,207.8125 Q630.9233,209.9063 631.6108,210.9844 Q632.2983,212.0469 633.642,212.0469 Q634.267,212.0469 634.8608,211.7813 Q635.4545,211.5 636.0795,210.9219 L636.0795,213.6406 Z " fill="#000000"/><text fill="#000000" font-family="sans-serif" font-size="14" lengthAdjust="spacing" textLength="64.1898" x="648.9131" y="213.432">PizzaCard</text><line style="stroke:#181818;stroke-width:0.5;" x1="611" x2="723.2137" y1="224" y2="224"/><line style="stroke:#181818;stroke-width:0.5;" x1="611" x2="723.2137" y1="232" y2="232"/><ellipse cx="621" cy="247.034" fill="#84BE84" rx="3" ry="3" style="stroke:#038048;stroke-width:1;"/><text fill="#000000" font-family="sans-serif" font-size="14" lengthAdjust="spacing" textLength="88.2137" x="630" y="250.9659">render(): void</text></g><!--class EntrantCard--><g id="elem_EntrantCard"><rect codeLine="49" fill="#F1F1F1" height="67.0679" id="EntrantCard" rx="2.5" ry="2.5" style="stroke:#181818;stroke-width:0.5;" width="114.2137" x="759" y="192"/><ellipse cx="775.0296" cy="208" fill="#ADD1B2" rx="11" ry="11" style="stroke:#181818;stroke-width:1;"/><path d="M777.9983,213.6406 Q777.4202,213.9375 776.7796,214.0781 Q776.139,214.2344 775.4358,214.2344 Q772.9358,214.2344 771.6077,212.5938 Q770.2952,210.9375 770.2952,207.8125 Q770.2952,204.6875 771.6077,203.0313 Q772.9358,201.375 775.4358,201.375 Q776.139,201.375 776.7796,201.5313 Q777.4358,201.6875 777.9983,201.9844 L777.9983,204.7031 Q777.3733,204.125 776.7796,203.8594 Q776.1858,203.5781 775.5608,203.5781 Q774.2171,203.5781 773.5296,204.6563 Q772.8421,205.7188 772.8421,207.8125 Q772.8421,209.9063 773.5296,210.9844 Q774.2171,212.0469 775.5608,212.0469 Q776.1858,212.0469 776.7796,211.7813 Q777.3733,211.5 777.9983,210.9219 L777.9983,213.6406 Z " fill="#000000"/><text fill="#000000" font-family="sans-serif" font-size="14" lengthAdjust="spacing" textLength="79.9257" x="789.2584" y="213.432">EntrantCard</text><line style="stroke:#181818;stroke-width:0.5;" x1="760" x2="872.2137" y1="224" y2="224"/><line style="stroke:#181818;stroke-width:0.5;" x1="760" x2="872.2137" y1="232" y2="232"/><ellipse cx="770" cy="247.034" fill="#84BE84" rx="3" ry="3" style="stroke:#038048;stroke-width:1;"/><text fill="#000000" font-family="sans-serif" font-size="14" lengthAdjust="spacing" textLength="88.2137" x="779" y="250.9659">render(): void</text></g><!--class CounterComponent--><g id="elem_CounterComponent"><rect codeLine="56" fill="#F1F1F1" height="67.0679" id="CounterComponent" rx="2.5" ry="2.5" style="stroke:#181818;stroke-width:0.5;" width="163.0955" x="660.5" y="404.5"/><ellipse cx="675.5" cy="420.5" fill="#ADD1B2" rx="11" ry="11" style="stroke:#181818;stroke-width:1;"/><path d="M678.4688,426.1406 Q677.8906,426.4375 677.25,426.5781 Q676.6094,426.7344 675.9063,426.7344 Q673.4063,426.7344 672.0781,425.0938 Q670.7656,423.4375 670.7656,420.3125 Q670.7656,417.1875 672.0781,415.5313 Q673.4063,413.875 675.9063,413.875 Q676.6094,413.875 677.25,414.0313 Q677.9063,414.1875 678.4688,414.4844 L678.4688,417.2031 Q677.8438,416.625 677.25,416.3594 Q676.6563,416.0781 676.0313,416.0781 Q674.6875,416.0781 674,417.1563 Q673.3125,418.2188 673.3125,420.3125 Q673.3125,422.4063 674,423.4844 Q674.6875,424.5469 676.0313,424.5469 Q676.6563,424.5469 677.25,424.2813 Q677.8438,424 678.4688,423.4219 L678.4688,426.1406 Z " fill="#000000"/><text fill="#000000" font-family="sans-serif" font-size="14" lengthAdjust="spacing" textLength="131.0955" x="689.5" y="425.932">CounterComponent</text><line style="stroke:#181818;stroke-width:0.5;" x1="661.5" x2="822.5955" y1="436.5" y2="436.5"/><line style="stroke:#181818;stroke-width:0.5;" x1="661.5" x2="822.5955" y1="444.5" y2="444.5"/><ellipse cx="671.5" cy="459.534" fill="#84BE84" rx="3" ry="3" style="stroke:#038048;stroke-width:1;"/><text fill="#000000" font-family="sans-serif" font-size="14" lengthAdjust="spacing" textLength="90.2717" x="680.5" y="463.4659">update(): void</text></g><!--class CarretComponent--><g id="elem_CarretComponent"><rect codeLine="60" fill="#F1F1F1" height="86.1358" id="CarretComponent" rx="2.5" ry="2.5" style="stroke:#181818;stroke-width:0.5;" width="150.9576" x="15.5" y="7"/><ellipse cx="30.5" cy="23" fill="#ADD1B2" rx="11" ry="11" style="stroke:#181818;stroke-width:1;"/><path d="M33.4688,28.6406 Q32.8906,28.9375 32.25,29.0781 Q31.6094,29.2344 30.9063,29.2344 Q28.4063,29.2344 27.0781,27.5938 Q25.7656,25.9375 25.7656,22.8125 Q25.7656,19.6875 27.0781,18.0313 Q28.4063,16.375 30.9063,16.375 Q31.6094,16.375 32.25,16.5313 Q32.9063,16.6875 33.4688,16.9844 L33.4688,19.7031 Q32.8438,19.125 32.25,18.8594 Q31.6563,18.5781 31.0313,18.5781 Q29.6875,18.5781 29,19.6563 Q28.3125,20.7188 28.3125,22.8125 Q28.3125,24.9063 29,25.9844 Q29.6875,27.0469 31.0313,27.0469 Q31.6563,27.0469 32.25,26.7813 Q32.8438,26.5 33.4688,25.9219 L33.4688,28.6406 Z " fill="#000000"/><text fill="#000000" font-family="sans-serif" font-size="14" lengthAdjust="spacing" textLength="118.9576" x="44.5" y="28.432">CarretComponent</text><line style="stroke:#181818;stroke-width:0.5;" x1="16.5" x2="165.4576" y1="39" y2="39"/><line style="stroke:#181818;stroke-width:0.5;" x1="16.5" x2="165.4576" y1="47" y2="47"/><ellipse cx="26.5" cy="62.034" fill="#84BE84" rx="3" ry="3" style="stroke:#038048;stroke-width:1;"/><text fill="#000000" font-family="sans-serif" font-size="14" lengthAdjust="spacing" textLength="88.2137" x="35.5" y="65.9659">render(): void</text><ellipse cx="26.5" cy="81.1019" fill="#84BE84" rx="3" ry="3" style="stroke:#038048;stroke-width:1;"/><text fill="#000000" font-family="sans-serif" font-size="14" lengthAdjust="spacing" textLength="90.2717" x="35.5" y="85.0339">update(): void</text></g><!--class CarretStatusComponent--><g id="elem_CarretStatusComponent"><rect codeLine="65" fill="#F1F1F1" height="67.0679" id="CarretStatusComponent" rx="2.5" ry="2.5" style="stroke:#181818;stroke-width:0.5;" width="191.9634" x="202" y="16.5"/><ellipse cx="217" cy="32.5" fill="#ADD1B2" rx="11" ry="11" style="stroke:#181818;stroke-width:1;"/><path d="M219.9688,38.1406 Q219.3906,38.4375 218.75,38.5781 Q218.1094,38.7344 217.4063,38.7344 Q214.9063,38.7344 213.5781,37.0938 Q212.2656,35.4375 212.2656,32.3125 Q212.2656,29.1875 213.5781,27.5313 Q214.9063,25.875 217.4063,25.875 Q218.1094,25.875 218.75,26.0313 Q219.4063,26.1875 219.9688,26.4844 L219.9688,29.2031 Q219.3438,28.625 218.75,28.3594 Q218.1563,28.0781 217.5313,28.0781 Q216.1875,28.0781 215.5,29.1563 Q214.8125,30.2188 214.8125,32.3125 Q214.8125,34.4063 215.5,35.4844 Q216.1875,36.5469 217.5313,36.5469 Q218.1563,36.5469 218.75,36.2813 Q219.3438,36 219.9688,35.4219 L219.9688,38.1406 Z " fill="#000000"/><text fill="#000000" font-family="sans-serif" font-size="14" lengthAdjust="spacing" textLength="159.9634" x="231" y="37.932">CarretStatusComponent</text><line style="stroke:#181818;stroke-width:0.5;" x1="203" x2="392.9634" y1="48.5" y2="48.5"/><line style="stroke:#181818;stroke-width:0.5;" x1="203" x2="392.9634" y1="56.5" y2="56.5"/><ellipse cx="213" cy="71.534" fill="#84BE84" rx="3" ry="3" style="stroke:#038048;stroke-width:1;"/><text fill="#000000" font-family="sans-serif" font-size="14" lengthAdjust="spacing" textLength="90.2717" x="222" y="75.4659">update(): void</text></g><!--reverse link Producte to Pizza--><g id="link_Producte_Pizza"><path codeLine="20" d="M159.6878,516.5504 C150.6678,536.3504 148.22,541.73 139.55,560.78 " fill="transparent" id="Producte-backto-Pizza" style="stroke:#181818;stroke-width:1;"/><polygon fill="transparent" points="167.15,500.17,154.2277,514.063,165.148,519.0377,167.15,500.17" style="stroke:#181818;stroke-width:1;"/></g><!--reverse link Producte to Entrant--><g id="link_Producte_Entrant"><path codeLine="21" d="M230.3101,516.5513 C244.3501,547.3813 253.08,566.56 263.42,589.27 " fill="transparent" id="Producte-backto-Entrant" style="stroke:#181818;stroke-width:1;"/><polygon fill="transparent" points="222.85,500.17,224.8496,519.038,235.7705,514.0646,222.85,500.17" style="stroke:#181818;stroke-width:1;"/></g><!--reverse link Carret to Producte--><g id="link_Carret_Producte"><path codeLine="32" d="M195,309.18 C195,334.62 195,351.09 195,375.67 " fill="transparent" id="Carret-backto-Producte" style="stroke:#181818;stroke-width:1;"/><polygon fill="transparent" points="195,297.18,191,303.18,195,309.18,199,303.18,195,297.18" style="stroke:#181818;stroke-width:1;"/><text fill="#000000" font-family="sans-serif" font-size="13" lengthAdjust="spacing" textLength="99.2941" x="196" y="341.897">cont&#233; productes</text></g><!--reverse link CardComponent to PizzaCard--><g id="link_CardComponent_PizzaCard"><path codeLine="53" d="M710.5602,100.6112 C699.6902,131.5312 689.41,160.75 678.53,191.72 " fill="transparent" id="CardComponent-backto-PizzaCard" style="stroke:#181818;stroke-width:1;"/><polygon fill="transparent" points="716.53,83.63,704.8998,98.6213,716.2206,102.6011,716.53,83.63" style="stroke:#181818;stroke-width:1;"/></g><!--reverse link CardComponent to EntrantCard--><g id="link_CardComponent_EntrantCard"><path codeLine="54" d="M752.6952,99.6816 C768.3852,130.6016 783.66,160.75 799.37,191.72 " fill="transparent" id="CardComponent-backto-EntrantCard" style="stroke:#181818;stroke-width:1;"/><polygon fill="transparent" points="744.55,83.63,747.3447,102.3967,758.0458,96.9666,744.55,83.63" style="stroke:#181818;stroke-width:1;"/></g><!--link PizzaCard to CounterComponent--><g id="link_PizzaCard_CounterComponent"><path codeLine="70" d="M678.72,259.39 C692.81,298.94 714.2965,359.2479 728.3465,398.6879 " fill="transparent" id="PizzaCard-to-CounterComponent" style="stroke:#181818;stroke-width:1;"/><polygon fill="#181818" points="730.36,404.34,731.1078,394.5196,728.6821,399.6299,723.5717,397.2042,730.36,404.34" style="stroke:#181818;stroke-width:1;"/></g><!--link EntrantCard to CounterComponent--><g id="link_EntrantCard_CounterComponent"><path codeLine="71" d="M804.44,259.39 C790.54,298.94 769.3405,359.2398 755.4705,398.6798 " fill="transparent" id="EntrantCard-to-CounterComponent" style="stroke:#181818;stroke-width:1;"/><polygon fill="#181818" points="753.48,404.34,760.2393,397.1767,755.1388,399.6232,752.6923,394.5227,753.48,404.34" style="stroke:#181818;stroke-width:1;"/></g><!--link CarretComponent to Carret--><g id="link_CarretComponent_Carret"><path codeLine="72" d="M116.44,93.44 C127.33,111.6 137.2452,128.1537 149.5152,148.6237 " fill="transparent" id="CarretComponent-to-Carret" style="stroke:#181818;stroke-width:1;"/><polygon fill="#181818" points="152.6,153.77,151.4037,143.9941,150.0294,149.4814,144.542,148.1071,152.6,153.77" style="stroke:#181818;stroke-width:1;"/></g><!--link CarretStatusComponent to Carret--><g id="link_CarretStatusComponent_Carret"><path codeLine="73" d="M278.63,83.63 C266.86,103.46 254.4236,124.4111 239.9636,148.7611 " fill="transparent" id="CarretStatusComponent-to-Carret" style="stroke:#181818;stroke-width:1;"/><polygon fill="#181818" points="236.9,153.92,244.9346,148.224,239.453,149.6209,238.0561,144.1392,236.9,153.92" style="stroke:#181818;stroke-width:1;"/></g><!--SRC=[ZLFDRi8m3BxtANm3nFe2rJHfOhllxpRjO1AlYfGcB4cP1EE1TjuZy69pQTAMWWGzjVRdp_RtkHDue4zbb53xFv04bPMaFRzfaBRYH2OqUWzFpifQ189j1lpae6G1fgwMv6B0sAe07vmoPOoi7DKZaAhA3hJB4hVQRB0ZbkJ5Y6XD9GLq2WqMiBHM4vgOGask9EDJnVj7p_jeWaCJc9b3tGAtFtdUjXp58ZpB9iUQQ5YWSnGYQ_lHZKkQAZA11zZomYrVqSbr0ryrSwg08Ia1EvwngPq3VbAfNC9ELttTh82rLJBYI2ks0gz02jIYrkYUKzSt6r1FPqSszB0dTcYCOAtYYhOHAabKWB0cx7-x9Vs9KE39hKdvWQt4fhroL8bqENDWB- -rFcHzq_VWHQT9curU7FBnlNLsx8tdiQgLDOq5y4tBtYIvI8ckioCZoKsJPCS7s9HSHCPPBc2Fk_S7ryJF9GUigT72rYQGEzsXNada2pYPhFNiuixNaBpotTJ-cjOJU26DGbdZWP6E1cvalQfvVdUoK3QKyYnWlD41rFw9v-SS0Fu1]--></g></svg>