<svg xmlns="http://www.w3.org/2000/svg" xmlns:xlink="http://www.w3.org/1999/xlink" contentStyleType="text/css" data-diagram-type="DESCRIPTION" height="200px" preserveAspectRatio="none" style="width:674px;height:200px;background:#FFFFFF;" version="1.1" viewBox="0 0 674 200" width="674px" zoomAndPan="magnify"><defs/><g><!--entity client--><g id="elem_client"><ellipse cx="358.3369" cy="14" fill="#F1F1F1" rx="8" ry="8" style="stroke:#181818;stroke-width:0.5;"/><path d="M358.3369,22 L358.3369,49 M345.3369,30 L371.3369,30 M358.3369,49 L345.3369,64 M358.3369,49 L371.3369,64 " fill="transparent" style="stroke:#181818;stroke-width:0.5;"/><text fill="#000000" font-family="sans-serif" font-size="14" lengthAdjust="spacing" textLength="37.6738" x="339.5" y="80.4659">Client</text></g><g id="elem_U3"><ellipse cx="108.5051" cy="169.401" fill="#F1F1F1" rx="102.5051" ry="22.901" style="stroke:#181818;stroke-width:0.5;"/><text fill="#000000" font-family="sans-serif" font-size="14" lengthAdjust="spacing" textLength="160.9294" x="25.0404" y="174.134">Afegir producte al carret</text></g><g id="elem_U4"><ellipse cx="358.3254" cy="169.3651" fill="#F1F1F1" rx="112.3254" ry="24.8651" style="stroke:#181818;stroke-width:0.5;"/><text fill="#000000" font-family="sans-serif" font-size="14" lengthAdjust="spacing" textLength="183.9173" x="263.3668" y="174.0981">Eliminar producte del carret</text></g><g id="elem_U5"><ellipse cx="587.5446" cy="169.6089" fill="#F1F1F1" rx="81.0446" ry="18.6089" style="stroke:#181818;stroke-width:0.5;"/><text fill="#000000" font-family="sans-serif" font-size="14" lengthAdjust="spacing" textLength="106.3576" x="531.3658" y="174.3419">Consultar carret</text></g><!--link client to U3--><g id="link_client_U3"><path d="M339.3,55.41 C298.94,75.19 209.9078,118.8097 155.1578,145.6397 " fill="transparent" id="client-to-U3" style="stroke:#181818;stroke-width:1;"/><polygon fill="#181818" points="149.77,148.28,159.612,147.9115,154.2599,146.0798,156.0916,140.7277,149.77,148.28" style="stroke:#181818;stroke-width:1;"/></g><!--link client to U4--><g id="link_client_U4"><path d="M358.5,84.76 C358.5,104.25 358.5,121.26 358.5,138.22 " fill="transparent" id="client-to-U4" style="stroke:#181818;stroke-width:1;"/><polygon fill="#181818" points="358.5,144.22,362.5,135.22,358.5,139.22,354.5,135.22,358.5,144.22" style="stroke:#181818;stroke-width:1;"/></g><!--link client to U5--><g id="link_client_U5"><path d="M377.63,56.23 C417.4,77.51 503.9995,123.8298 551.9095,149.4598 " fill="transparent" id="client-to-U5" style="stroke:#181818;stroke-width:1;"/><polygon fill="#181818" points="557.2,152.29,551.151,144.5176,552.7912,149.9315,547.3774,151.5717,557.2,152.29" style="stroke:#181818;stroke-width:1;"/></g><!--SRC=[LSvB2e0m30JGVKuHkkzAtGeY7i43X1YbK5j9s_lxMrXtC_0OXZX7HJDw9o4Rf8JyH82IX2a9cc6LpIaU6fV2MP0yCgdAo-VcavDtkmjKsKN-kFtm64CgFb-w1Xt0Um2jxU_nkhM_ri49]--></g></svg>