<svg xmlns="http://www.w3.org/2000/svg" xmlns:xlink="http://www.w3.org/1999/xlink" contentStyleType="text/css" data-diagram-type="CLASS" height="525px" preserveAspectRatio="none" style="width:273px;height:525px;background:#FFFFFF;" version="1.1" viewBox="0 0 273 525" width="273px" zoomAndPan="magnify"><defs/><g><!--class Producte--><g id="elem_Producte"><rect codeLine="2" fill="#F1F1F1" height="105.2038" id="Producte" rx="2.5" ry="2.5" style="stroke:#181818;stroke-width:0.5;" width="117.0136" x="78" y="413"/><ellipse cx="104.4119" cy="429" fill="#ADD1B2" rx="11" ry="11" style="stroke:#181818;stroke-width:1;"/><path d="M107.3807,434.6406 Q106.8026,434.9375 106.1619,435.0781 Q105.5213,435.2344 104.8182,435.2344 Q102.3182,435.2344 100.9901,433.5938 Q99.6776,431.9375 99.6776,428.8125 Q99.6776,425.6875 100.9901,424.0313 Q102.3182,422.375 104.8182,422.375 Q105.5213,422.375 106.1619,422.5313 Q106.8182,422.6875 107.3807,422.9844 L107.3807,425.7031 Q106.7557,425.125 106.1619,424.8594 Q105.5682,424.5781 104.9432,424.5781 Q103.5994,424.5781 102.9119,425.6563 Q102.2244,426.7188 102.2244,428.8125 Q102.2244,430.9063 102.9119,431.9844 Q103.5994,433.0469 104.9432,433.0469 Q105.5682,433.0469 106.1619,432.7813 Q106.7557,432.5 107.3807,431.9219 L107.3807,434.6406 Z " fill="#000000"/><text fill="#000000" font-family="sans-serif" font-size="14" lengthAdjust="spacing" textLength="59.6538" x="120.9479" y="434.432">Producte</text><line style="stroke:#181818;stroke-width:0.5;" x1="79" x2="194.0136" y1="445" y2="445"/><rect fill="transparent" height="6" style="stroke:#C82930;stroke-width:1;" width="6" x="86" y="457.034"/><text fill="#000000" font-family="sans-serif" font-size="14" lengthAdjust="spacing" textLength="72.2957" x="98" y="463.9659">id: number</text><rect fill="transparent" height="6" style="stroke:#C82930;stroke-width:1;" width="6" x="86" y="476.1019"/><text fill="#000000" font-family="sans-serif" font-size="14" lengthAdjust="spacing" textLength="76.0197" x="98" y="483.0339">nom: string</text><rect fill="transparent" height="6" style="stroke:#C82930;stroke-width:1;" width="6" x="86" y="495.1698"/><text fill="#000000" font-family="sans-serif" font-size="14" lengthAdjust="spacing" textLength="91.0136" x="98" y="502.1018">preu: number</text><line style="stroke:#181818;stroke-width:0.5;" x1="79" x2="194.0136" y1="510.2038" y2="510.2038"/></g><!--class Carret--><g id="elem_Carret"><rect codeLine="8" fill="#F1F1F1" height="143.3396" id="Carret" rx="2.5" ry="2.5" style="stroke:#181818;stroke-width:0.5;" width="259.0991" x="7" y="191"/><ellipse cx="111.6916" cy="207" fill="#ADD1B2" rx="11" ry="11" style="stroke:#181818;stroke-width:1;"/><path d="M114.6604,212.6406 Q114.0822,212.9375 113.4416,213.0781 Q112.801,213.2344 112.0979,213.2344 Q109.5979,213.2344 108.2697,211.5938 Q106.9572,209.9375 106.9572,206.8125 Q106.9572,203.6875 108.2697,202.0313 Q109.5979,200.375 112.0979,200.375 Q112.801,200.375 113.4416,200.5313 Q114.0979,200.6875 114.6604,200.9844 L114.6604,203.7031 Q114.0354,203.125 113.4416,202.8594 Q112.8479,202.5781 112.2229,202.5781 Q110.8791,202.5781 110.1916,203.6563 Q109.5041,204.7188 109.5041,206.8125 Q109.5041,208.9063 110.1916,209.9844 Q110.8791,211.0469 112.2229,211.0469 Q112.8479,211.0469 113.4416,210.7813 Q114.0354,210.5 114.6604,209.9219 L114.6604,212.6406 Z " fill="#000000"/><text fill="#000000" font-family="sans-serif" font-size="14" lengthAdjust="spacing" textLength="41.2159" x="132.1916" y="212.432">Carret</text><line style="stroke:#181818;stroke-width:0.5;" x1="8" x2="265.0991" y1="223" y2="223"/><rect fill="transparent" height="6" style="stroke:#C82930;stroke-width:1;" width="6" x="15" y="235.034"/><text fill="#000000" font-family="sans-serif" font-size="14" lengthAdjust="spacing" textLength="233.0991" x="27" y="241.9659">elements: Map&lt;Producte, number&gt;</text><line style="stroke:#181818;stroke-width:0.5;" x1="8" x2="265.0991" y1="250.0679" y2="250.0679"/><ellipse cx="18" cy="265.1019" fill="#84BE84" rx="3" ry="3" style="stroke:#038048;stroke-width:1;"/><text fill="#000000" font-family="sans-serif" font-size="14" lengthAdjust="spacing" textLength="217.4752" x="27" y="269.0339">afegirProducte(p: Producte): void</text><ellipse cx="18" cy="284.1698" fill="#84BE84" rx="3" ry="3" style="stroke:#038048;stroke-width:1;"/><text fill="#000000" font-family="sans-serif" font-size="14" lengthAdjust="spacing" textLength="233.0151" x="27" y="288.1018">eliminarProducte(p: Producte): void</text><ellipse cx="18" cy="303.2377" fill="#84BE84" rx="3" ry="3" style="stroke:#038048;stroke-width:1;"/><text fill="#000000" font-family="sans-serif" font-size="14" lengthAdjust="spacing" textLength="163.9674" x="27" y="307.1697">QuantitatTotal(): number</text><ellipse cx="18" cy="322.3056" fill="#84BE84" rx="3" ry="3" style="stroke:#038048;stroke-width:1;"/><text fill="#000000" font-family="sans-serif" font-size="14" lengthAdjust="spacing" textLength="182.8533" x="27" y="326.2376">calcularPreuTotal(): number</text></g><!--class CarretComponent--><g id="elem_CarretComponent"><rect codeLine="16" fill="#F1F1F1" height="105.2038" id="CarretComponent" rx="2.5" ry="2.5" style="stroke:#181818;stroke-width:0.5;" width="164.0675" x="54.5" y="7"/><ellipse cx="75.3995" cy="23" fill="#ADD1B2" rx="11" ry="11" style="stroke:#181818;stroke-width:1;"/><path d="M78.3682,28.6406 Q77.7901,28.9375 77.1495,29.0781 Q76.5088,29.2344 75.8057,29.2344 Q73.3057,29.2344 71.9776,27.5938 Q70.6651,25.9375 70.6651,22.8125 Q70.6651,19.6875 71.9776,18.0313 Q73.3057,16.375 75.8057,16.375 Q76.5088,16.375 77.1495,16.5313 Q77.8057,16.6875 78.3682,16.9844 L78.3682,19.7031 Q77.7432,19.125 77.1495,18.8594 Q76.5557,18.5781 75.9307,18.5781 Q74.587,18.5781 73.8995,19.6563 Q73.212,20.7188 73.212,22.8125 Q73.212,24.9063 73.8995,25.9844 Q74.587,27.0469 75.9307,27.0469 Q76.5557,27.0469 77.1495,26.7813 Q77.7432,26.5 78.3682,25.9219 L78.3682,28.6406 Z " fill="#000000"/><text fill="#000000" font-family="sans-serif" font-size="14" lengthAdjust="spacing" textLength="118.9576" x="90.7105" y="28.432">CarretComponent</text><line style="stroke:#181818;stroke-width:0.5;" x1="55.5" x2="217.5675" y1="39" y2="39"/><line style="stroke:#181818;stroke-width:0.5;" x1="55.5" x2="217.5675" y1="47" y2="47"/><ellipse cx="65.5" cy="62.034" fill="#84BE84" rx="3" ry="3" style="stroke:#038048;stroke-width:1;"/><text fill="#000000" font-family="sans-serif" font-size="14" lengthAdjust="spacing" textLength="88.2137" x="74.5" y="65.9659">render(): void</text><ellipse cx="65.5" cy="81.1019" fill="#84BE84" rx="3" ry="3" style="stroke:#038048;stroke-width:1;"/><text fill="#000000" font-family="sans-serif" font-size="14" lengthAdjust="spacing" textLength="138.0675" x="74.5" y="85.0339">actualitzaVista(): void</text><ellipse cx="65.5" cy="100.1698" fill="#84BE84" rx="3" ry="3" style="stroke:#038048;stroke-width:1;"/><text fill="#000000" font-family="sans-serif" font-size="14" lengthAdjust="spacing" textLength="129.1075" x="74.5" y="104.1018">mostrarTotal(): void</text></g><!--link CarretComponent to Carret--><g id="link_CarretComponent_Carret"><path codeLine="22" d="M136.5,112 C136.5,135.96 136.5,158.84 136.5,184.81 " fill="transparent" id="CarretComponent-to-Carret" style="stroke:#181818;stroke-width:1;"/><polygon fill="#181818" points="136.5,190.81,140.5,181.81,136.5,185.81,132.5,181.81,136.5,190.81" style="stroke:#181818;stroke-width:1;"/><text fill="#000000" font-family="sans-serif" font-size="13" lengthAdjust="spacing" textLength="112.9831" x="137.5" y="156.897">mostra informaci&#243;</text></g><!--link Carret to Producte--><g id="link_Carret_Producte"><path codeLine="23" d="M136.5,334.08 C136.5,359.99 136.5,382.81 136.5,406.76 " fill="transparent" id="Carret-to-Producte" style="stroke:#181818;stroke-width:1;"/><polygon fill="#181818" points="136.5,412.76,140.5,403.76,136.5,407.76,132.5,403.76,136.5,412.76" style="stroke:#181818;stroke-width:1;"/><text fill="#000000" font-family="sans-serif" font-size="13" lengthAdjust="spacing" textLength="99.2941" x="137.5" y="378.897">cont&#233; productes</text></g><!--SRC=[ZP51JiGm34NtFOMN7PLU84ApcJKII8YzIJqZIubJEGuB40TYpH7cOfIIHfgkoFBxsJ_VzW5pXaTDK_56yD71yaRWoO6K-4fQ1KdHGJPbkLHbLYeD-kmwlquweIfPcqE18ebb1myutsysTxNjk583u9akh5krdrtxqC71M-AfSXGuik0_oAU2Ocnepyamz8URD0Du3Bw4tq5KziGkoYd5EScIeMOQG4acqlxM4BqL36pl-CBPS5UDQLaTQhDQIulHtc8SZzi6NMq2bdFIY9wltvLViNOo1pw9NR-MW_mf-GS0]--></g></svg>