<svg xmlns="http://www.w3.org/2000/svg" xmlns:xlink="http://www.w3.org/1999/xlink" contentStyleType="text/css" data-diagram-type="DESCRIPTION" height="453px" preserveAspectRatio="none" style="width:661px;height:453px;background:#FFFFFF;" version="1.1" viewBox="0 0 661 453" width="661px" zoomAndPan="magnify"><defs/><g><!--cluster Aplicaci? Client (Web)--><g id="cluster_Aplicaci&#243; Client (Web)"><path d="M8.5,6.602 L160.7975,6.602 A3.75,3.75 0 0 1 163.2975,9.102 L170.2975,31.6699 L497.5,31.6699 A2.5,2.5 0 0 1 500,34.1699 L500,444.102 A2.5,2.5 0 0 1 497.5,446.602 L8.5,446.602 A2.5,2.5 0 0 1 6,444.102 L6,9.102 A2.5,2.5 0 0 1 8.5,6.602 " fill="transparent" style="stroke:#000000;stroke-width:1.5;"/><line style="stroke:#000000;stroke-width:1.5;" x1="6" x2="170.2975" y1="31.6699" y2="31.6699"/><text fill="#000000" font-family="sans-serif" font-size="14" font-weight="bold" lengthAdjust="spacing" textLength="151.2975" x="10" y="23.5679">Aplicaci&#243; Client (Web)</text></g><!--cluster Servidor (API)--><g id="cluster_Servidor (API)"><path d="M526.5,324.602 L622.9937,324.602 A3.75,3.75 0 0 1 625.4937,327.102 L632.4937,349.6699 L651.5,349.6699 A2.5,2.5 0 0 1 654,352.1699 L654,444.102 A2.5,2.5 0 0 1 651.5,446.602 L526.5,446.602 A2.5,2.5 0 0 1 524,444.102 L524,327.102 A2.5,2.5 0 0 1 526.5,324.602 " fill="transparent" style="stroke:#000000;stroke-width:1.5;"/><line style="stroke:#000000;stroke-width:1.5;" x1="524" x2="632.4937" y1="349.6699" y2="349.6699"/><text fill="#000000" font-family="sans-serif" font-size="14" font-weight="bold" lengthAdjust="spacing" textLength="95.4937" x="528" y="341.5679">Servidor (API)</text></g><!--entity main.js--><g id="elem_main.js"><rect fill="#F1F1F1" height="68.1358" rx="2.5" ry="2.5" style="stroke:#181818;stroke-width:0.5;" width="116.9697" x="212.5" y="44.602"/><rect fill="#F1F1F1" height="10" style="stroke:#181818;stroke-width:0.5;" width="15" x="309.4697" y="49.602"/><rect fill="#F1F1F1" height="2" style="stroke:#181818;stroke-width:0.5;" width="4" x="307.4697" y="51.602"/><rect fill="#F1F1F1" height="2" style="stroke:#181818;stroke-width:0.5;" width="4" x="307.4697" y="55.602"/><text fill="#000000" font-family="sans-serif" font-size="14" font-style="italic" lengthAdjust="spacing" textLength="74.9697" x="228.5" y="79.5679">&#171;JavaScript&#187;</text><text fill="#000000" font-family="sans-serif" font-size="14" lengthAdjust="spacing" textLength="47.2778" x="242.346" y="98.6358">main.js</text></g><!--entity PizzeriaService--><g id="elem_PizzeriaService"><rect fill="#F1F1F1" height="68.1358" rx="2.5" ry="2.5" style="stroke:#181818;stroke-width:0.5;" width="137.0896" x="271.5" y="191.602"/><rect fill="#F1F1F1" height="10" style="stroke:#181818;stroke-width:0.5;" width="15" x="388.5896" y="196.602"/><rect fill="#F1F1F1" height="2" style="stroke:#181818;stroke-width:0.5;" width="4" x="386.5896" y="198.602"/><rect fill="#F1F1F1" height="2" style="stroke:#181818;stroke-width:0.5;" width="4" x="386.5896" y="202.602"/><text fill="#000000" font-family="sans-serif" font-size="14" font-style="italic" lengthAdjust="spacing" textLength="50.1198" x="309.9849" y="226.5679">&#171;Servei&#187;</text><text fill="#000000" font-family="sans-serif" font-size="14" lengthAdjust="spacing" textLength="97.0896" x="286.5" y="245.6358">PizzeriaService</text></g><!--entity Carret--><g id="elem_Carret"><rect fill="#F1F1F1" height="68.1358" rx="2.5" ry="2.5" style="stroke:#181818;stroke-width:0.5;" width="139.1316" x="22.5" y="191.602"/><rect fill="#F1F1F1" height="10" style="stroke:#181818;stroke-width:0.5;" width="15" x="141.6316" y="196.602"/><rect fill="#F1F1F1" height="2" style="stroke:#181818;stroke-width:0.5;" width="4" x="139.6316" y="198.602"/><rect fill="#F1F1F1" height="2" style="stroke:#181818;stroke-width:0.5;" width="4" x="139.6316" y="202.602"/><text fill="#000000" font-family="sans-serif" font-size="14" font-style="italic" lengthAdjust="spacing" textLength="97.1316" x="38.5" y="226.5679">&#171;Gesti&#243; d'estat&#187;</text><text fill="#000000" font-family="sans-serif" font-size="14" lengthAdjust="spacing" textLength="41.2159" x="66.4579" y="245.6358">Carret</text></g><!--entity CarretComponent--><g id="elem_CarretComponent"><rect fill="#F1F1F1" height="68.1358" rx="2.5" ry="2.5" style="stroke:#181818;stroke-width:0.5;" width="158.9576" x="86.5" y="362.602"/><rect fill="#F1F1F1" height="10" style="stroke:#181818;stroke-width:0.5;" width="15" x="225.4576" y="367.602"/><rect fill="#F1F1F1" height="2" style="stroke:#181818;stroke-width:0.5;" width="4" x="223.4576" y="369.602"/><rect fill="#F1F1F1" height="2" style="stroke:#181818;stroke-width:0.5;" width="4" x="223.4576" y="373.602"/><text fill="#000000" font-family="sans-serif" font-size="14" font-style="italic" lengthAdjust="spacing" textLength="112.6156" x="104.671" y="397.5679">&#171;WebComponent&#187;</text><text fill="#000000" font-family="sans-serif" font-size="14" lengthAdjust="spacing" textLength="118.9576" x="101.5" y="416.6358">CarretComponent</text></g><!--entity ProducteCard--><g id="elem_ProducteCard"><rect fill="#F1F1F1" height="68.1358" rx="2.5" ry="2.5" style="stroke:#181818;stroke-width:0.5;" width="154.6156" x="22.5" y="44.602"/><rect fill="#F1F1F1" height="10" style="stroke:#181818;stroke-width:0.5;" width="15" x="157.1156" y="49.602"/><rect fill="#F1F1F1" height="2" style="stroke:#181818;stroke-width:0.5;" width="4" x="155.1156" y="51.602"/><rect fill="#F1F1F1" height="2" style="stroke:#181818;stroke-width:0.5;" width="4" x="155.1156" y="55.602"/><text fill="#000000" font-family="sans-serif" font-size="14" font-style="italic" lengthAdjust="spacing" textLength="112.6156" x="38.5" y="79.5679">&#171;WebComponent&#187;</text><text fill="#000000" font-family="sans-serif" font-size="14" lengthAdjust="spacing" textLength="90.7477" x="49.434" y="98.6358">ProducteCard</text></g><!--entity API REST--><g id="elem_API REST"><rect fill="#F1F1F1" height="68.1358" rx="2.5" ry="2.5" style="stroke:#181818;stroke-width:0.5;" width="97.7638" x="540" y="362.602"/><rect fill="#F1F1F1" height="10" style="stroke:#181818;stroke-width:0.5;" width="15" x="617.7638" y="367.602"/><rect fill="#F1F1F1" height="2" style="stroke:#181818;stroke-width:0.5;" width="4" x="615.7638" y="369.602"/><rect fill="#F1F1F1" height="2" style="stroke:#181818;stroke-width:0.5;" width="4" x="615.7638" y="373.602"/><text fill="#000000" font-family="sans-serif" font-size="14" font-style="italic" lengthAdjust="spacing" textLength="44.8418" x="561.461" y="397.5679">&#171;HTTP&#187;</text><text fill="#000000" font-family="sans-serif" font-size="14" lengthAdjust="spacing" textLength="57.7638" x="555" y="416.6358">API REST</text></g><!--link main.js to PizzeriaService--><g id="link_main.js_PizzeriaService"><path d="M286.83,112.872 C298.05,136.442 310.4622,162.534 321.6622,186.074 " fill="transparent" id="main.js-to-PizzeriaService" style="stroke:#181818;stroke-width:1;"/><polygon fill="#181818" points="324.24,191.492,323.9853,181.6464,322.0918,186.977,316.7613,185.0835,324.24,191.492" style="stroke:#181818;stroke-width:1;"/><text fill="#000000" font-family="sans-serif" font-size="13" lengthAdjust="spacing" textLength="230.6332" x="311" y="157.499">Crida a getAllPizzes() i getAllEntrants()</text></g><!--link Carret to CarretComponent--><g id="link_Carret_CarretComponent"><path d="M73.71,259.752 C67.74,275.012 64.19,293.132 71,308.602 C80.37,329.892 93.172,344.4356 110.572,358.7156 " fill="transparent" id="Carret-to-CarretComponent" style="stroke:#181818;stroke-width:1;"/><polygon fill="#181818" points="115.21,362.522,110.7905,353.7204,111.345,359.35,105.7153,359.9044,115.21,362.522" style="stroke:#181818;stroke-width:1;"/><text fill="#000000" font-family="sans-serif" font-size="13" lengthAdjust="spacing" textLength="115.3361" x="72" y="304.499">Proporciona dades</text></g><!--link CarretComponent to Carret--><g id="link_CarretComponent_Carret"><path d="M185.99,362.432 C196.34,340.672 204.45,312.162 192,289.602 C184.86,276.672 178.7281,269.4873 166.5581,260.8773 " fill="transparent" id="CarretComponent-to-Carret" style="stroke:#181818;stroke-width:1;"/><polygon fill="#181818" points="161.66,257.412,166.697,265.8754,165.7418,260.2997,171.3174,259.3445,161.66,257.412" style="stroke:#181818;stroke-width:1;"/><text fill="#000000" font-family="sans-serif" font-size="13" lengthAdjust="spacing" textLength="166.9331" x="199" y="304.499">Mostra la informaci&#243; actual</text></g><!--link ProducteCard to Carret--><g id="link_ProducteCard_Carret"><path d="M69.91,112.722 C63.4,121.782 57.44,132.042 54,142.602 C48.6,159.162 51.8868,171.6612 60.8968,186.3112 " fill="transparent" id="ProducteCard-to-Carret" style="stroke:#181818;stroke-width:1;"/><polygon fill="#181818" points="64.04,191.422,62.7324,181.6603,61.4206,187.163,55.918,185.8513,64.04,191.422" style="stroke:#181818;stroke-width:1;"/><text fill="#000000" font-family="sans-serif" font-size="13" lengthAdjust="spacing" textLength="153.9981" x="55" y="157.499">Modifica l'estat del carret</text></g><!--link PizzeriaService to API REST--><g id="link_PizzeriaService_API REST"><path d="M406.15,259.702 C435.75,275.542 470.54,295.612 500,316.602 C519.18,330.272 534.5295,343.3533 550.5295,358.1833 " fill="transparent" id="PizzeriaService-to-API REST" style="stroke:#181818;stroke-width:1;"/><polygon fill="#181818" points="554.93,362.262,551.0484,353.2103,551.2629,358.8631,545.6101,359.0776,554.93,362.262" style="stroke:#181818;stroke-width:1;"/><text fill="#000000" font-family="sans-serif" font-size="13" lengthAdjust="spacing" textLength="161.7851" x="488" y="304.499">GET /api/pizzeria/products</text></g><!--SRC=[TL91JiCm4Bpx5QjSI0-bzwgAL4LH0Gaf8f4uB_QsMd1jot5xAE9LF86FOISjL27uj1xFh7V6TYZVS4UGhPrcYPA_Fg7KJ2P0_amlimpU1SGbxTvPa-1iZsnkNxiCLgi7F68ZFRjG56DQpQSJUSQ6_94b9NegYVzII_IUGc9ig0jf17KJ2mp_KSiBa3Hnp9_zn1ZUgeCC58LgWlqXXBj4q4-gh8TyNTzFEOymF5LDc_hSjMqzwCzvm7nUmCWqBA7qh10GTXJMMlVdNJu3FWEL2HvDY90OhFLjHYvZcsZ3MI_P6WI5YZenvlpg8ltHTh4lQ0GsM-ltmyEY30VKuZgIiKpnDdu3q4F-e4Y3x4_5s5eINYMoX4tLmW8TBzoPkN33HTqt]--></g></svg>