<svg xmlns="http://www.w3.org/2000/svg" xmlns:xlink="http://www.w3.org/1999/xlink" contentStyleType="text/css" data-diagram-type="SEQUENCE" height="394px" preserveAspectRatio="none" style="width:482px;height:394px;background:#FFFFFF;" version="1.1" viewBox="0 0 482 394" width="482px" zoomAndPan="magnify"><defs/><g><g><title>Client</title><rect fill="transparent" height="226.9421" width="8" x="22.8369" y="84.0679"/><line style="stroke:#181818;stroke-width:0.5;stroke-dasharray:5.0,5.0;" x1="26" x2="26" y1="84.0679" y2="311.01"/></g><g><title>Sistema</title><rect fill="transparent" height="226.9421" width="8" x="87.6227" y="84.0679"/><line style="stroke:#181818;stroke-width:0.5;stroke-dasharray:5.0,5.0;" x1="90.6738" x2="90.6738" y1="84.0679" y2="311.01"/></g><g><title>Carret</title><rect fill="transparent" height="226.9421" width="8" x="158.1796" y="84.0679"/><line style="stroke:#181818;stroke-width:0.5;stroke-dasharray:5.0,5.0;" x1="161.5717" x2="161.5717" y1="84.0679" y2="311.01"/></g><g><title>CarretComponent</title><rect fill="transparent" height="226.9421" width="8" x="291.0127" y="84.0679"/><line style="stroke:#181818;stroke-width:0.5;stroke-dasharray:5.0,5.0;" x1="294.5339" x2="294.5339" y1="84.0679" y2="311.01"/></g><g><title>ProducteCard</title><rect fill="transparent" height="226.9421" width="8" x="419.8653" y="84.0679"/><line style="stroke:#181818;stroke-width:0.5;stroke-dasharray:5.0,5.0;" x1="423.4915" x2="423.4915" y1="84.0679" y2="311.01"/></g><text fill="#000000" font-family="sans-serif" font-size="14" lengthAdjust="spacing" textLength="37.6738" x="5" y="79.9659">Client</text><ellipse cx="26.8369" cy="13.5" fill="#E2E2F0" rx="8" ry="8" style="stroke:#181818;stroke-width:0.5;"/><path d="M26.8369,21.5 L26.8369,48.5 M13.8369,29.5 L39.8369,29.5 M26.8369,48.5 L13.8369,63.5 M26.8369,48.5 L39.8369,63.5 " fill="transparent" style="stroke:#181818;stroke-width:0.5;"/><text fill="#000000" font-family="sans-serif" font-size="14" lengthAdjust="spacing" textLength="37.6738" x="5" y="324.976">Client</text><ellipse cx="26.8369" cy="337.5779" fill="#E2E2F0" rx="8" ry="8" style="stroke:#181818;stroke-width:0.5;"/><path d="M26.8369,345.5779 L26.8369,372.5779 M13.8369,353.5779 L39.8369,353.5779 M26.8369,372.5779 L13.8369,387.5779 M26.8369,372.5779 L39.8369,387.5779 " fill="transparent" style="stroke:#181818;stroke-width:0.5;"/><rect fill="#E2E2F0" height="33.0679" rx="2.5" ry="2.5" style="stroke:#181818;stroke-width:0.5;" width="65.8978" x="58.6738" y="50"/><text fill="#000000" font-family="sans-serif" font-size="14" lengthAdjust="spacing" textLength="51.8978" x="65.6738" y="71.9659">Sistema</text><rect fill="#E2E2F0" height="33.0679" rx="2.5" ry="2.5" style="stroke:#181818;stroke-width:0.5;" width="65.8978" x="58.6738" y="310.01"/><text fill="#000000" font-family="sans-serif" font-size="14" lengthAdjust="spacing" textLength="51.8978" x="65.6738" y="331.976">Sistema</text><rect fill="#E2E2F0" height="33.0679" rx="2.5" ry="2.5" style="stroke:#181818;stroke-width:0.5;" width="55.2159" x="134.5717" y="50"/><text fill="#000000" font-family="sans-serif" font-size="14" lengthAdjust="spacing" textLength="41.2159" x="141.5717" y="71.9659">Carret</text><rect fill="#E2E2F0" height="33.0679" rx="2.5" ry="2.5" style="stroke:#181818;stroke-width:0.5;" width="55.2159" x="134.5717" y="310.01"/><text fill="#000000" font-family="sans-serif" font-size="14" lengthAdjust="spacing" textLength="41.2159" x="141.5717" y="331.976">Carret</text><rect fill="#E2E2F0" height="33.0679" rx="2.5" ry="2.5" style="stroke:#181818;stroke-width:0.5;" width="132.9576" x="228.5339" y="50"/><text fill="#000000" font-family="sans-serif" font-size="14" lengthAdjust="spacing" textLength="118.9576" x="235.5339" y="71.9659">CarretComponent</text><rect fill="#E2E2F0" height="33.0679" rx="2.5" ry="2.5" style="stroke:#181818;stroke-width:0.5;" width="132.9576" x="228.5339" y="310.01"/><text fill="#000000" font-family="sans-serif" font-size="14" lengthAdjust="spacing" textLength="118.9576" x="235.5339" y="331.976">CarretComponent</text><rect fill="#E2E2F0" height="33.0679" rx="2.5" ry="2.5" style="stroke:#181818;stroke-width:0.5;" width="104.7477" x="371.4915" y="50"/><text fill="#000000" font-family="sans-serif" font-size="14" lengthAdjust="spacing" textLength="90.7477" x="378.4915" y="71.9659">ProducteCard</text><rect fill="#E2E2F0" height="33.0679" rx="2.5" ry="2.5" style="stroke:#181818;stroke-width:0.5;" width="104.7477" x="371.4915" y="310.01"/><text fill="#000000" font-family="sans-serif" font-size="14" lengthAdjust="spacing" textLength="90.7477" x="378.4915" y="331.976">ProducteCard</text><polygon fill="#181818" points="411.8653,113.7739,421.8653,117.7739,411.8653,121.7739,415.8653,117.7739" style="stroke:#181818;stroke-width:1;"/><line style="stroke:#181818;stroke-width:1;" x1="26.8369" x2="417.8653" y1="117.7739" y2="117.7739"/><text fill="#000000" font-family="sans-serif" font-size="13" lengthAdjust="spacing" textLength="174.4082" x="33.8369" y="111.9649">Clic en (+) o (-) d'un producte</text><polygon fill="#181818" points="173.1796,180.892,163.1796,184.892,173.1796,188.892,169.1796,184.892" style="stroke:#181818;stroke-width:1;"/><line style="stroke:#181818;stroke-width:1;" x1="167.1796" x2="422.8653" y1="184.892" y2="184.892"/><text fill="#000000" font-family="sans-serif" font-size="13" lengthAdjust="spacing" textLength="187.4602" x="179.1796" y="143.6709">Modifica directament el carret:</text><text fill="#000000" font-family="sans-serif" font-size="13" lengthAdjust="spacing" textLength="154.5311" x="179.1796" y="161.377">afegirProducte(producte)</text><text fill="#000000" font-family="sans-serif" font-size="13" lengthAdjust="spacing" textLength="180.2062" x="179.1796" y="179.083">o eliminarProducte(producte)</text><line style="stroke:#181818;stroke-width:1;" x1="162.1796" x2="204.1796" y1="216.598" y2="216.598"/><line style="stroke:#181818;stroke-width:1;" x1="204.1796" x2="204.1796" y1="216.598" y2="229.598"/><line style="stroke:#181818;stroke-width:1;" x1="163.1796" x2="204.1796" y1="229.598" y2="229.598"/><polygon fill="#181818" points="173.1796,225.598,163.1796,229.598,173.1796,233.598,169.1796,229.598" style="stroke:#181818;stroke-width:1;"/><text fill="#000000" font-family="sans-serif" font-size="13" lengthAdjust="spacing" textLength="118.8331" x="169.1796" y="210.789">Actualitza quantitat</text><polygon fill="#181818" points="283.0127,257.304,293.0127,261.304,283.0127,265.304,287.0127,261.304" style="stroke:#181818;stroke-width:1;"/><line style="stroke:#181818;stroke-width:1;" x1="91.6227" x2="289.0127" y1="261.304" y2="261.304"/><text fill="#000000" font-family="sans-serif" font-size="13" lengthAdjust="spacing" textLength="152.6591" x="98.6227" y="255.495">Actualitza vista del carret</text><line style="stroke:#181818;stroke-width:1;" x1="27.8369" x2="37.8369" y1="293.01" y2="289.01"/><line style="stroke:#181818;stroke-width:1;" x1="27.8369" x2="37.8369" y1="293.01" y2="297.01"/><line style="stroke:#181818;stroke-width:1;stroke-dasharray:2.0,2.0;" x1="26.8369" x2="294.0127" y1="293.01" y2="293.01"/><text fill="#000000" font-family="sans-serif" font-size="13" lengthAdjust="spacing" textLength="149.3441" x="43.8369" y="287.201">Mostra carret actualitzat</text><!--SRC=[RP6nYiCm38PtFuN8qeGZBz0XK38N3cxj8cor268xvyWTxkbFTfkqWOxM_qd-BAELcA0P9wOW3U02UQ5aPap2bcSC0iqFBq8UQ-gHmpuTCILwj5gjVmh7wESOjWjuptodwB8LKjPLO7uKojcOeWFzy5w48wYl1GhGVdKGeUqxS8SSLeZCEwtDHKoxpj7nbIs2uqHMqAiIq5HYjJnU0bxfncaLQjTn7Ln2L90z1_mGcph_TS_9IiQ9vG_XD-iRML1CsLnXCk-9ksvNZJODeq3V3qFzY2gzIC9d2BWroZy0]--></g></svg>