<svg xmlns="http://www.w3.org/2000/svg" xmlns:xlink="http://www.w3.org/1999/xlink" contentStyleType="text/css" data-diagram-type="DESCRIPTION" height="544px" preserveAspectRatio="none" style="width:591px;height:544px;background:#FFFFFF;" version="1.1" viewBox="0 0 591 544" width="591px" zoomAndPan="magnify"><defs/><g><!--cluster Funcionalitat Client--><g id="cluster_Funcionalitat Client"><path d="M93.5,6.602 L232.1615,6.602 A3.75,3.75 0 0 1 234.6615,9.102 L241.6615,31.6699 L291.5,31.6699 A2.5,2.5 0 0 1 294,34.1699 L294,255.102 A2.5,2.5 0 0 1 291.5,257.602 L93.5,257.602 A2.5,2.5 0 0 1 91,255.102 L91,9.102 A2.5,2.5 0 0 1 93.5,6.602 " fill="transparent" style="stroke:#000000;stroke-width:1.5;"/><line style="stroke:#000000;stroke-width:1.5;" x1="91" x2="241.6615" y1="31.6699" y2="31.6699"/><text fill="#000000" font-family="sans-serif" font-size="14" font-weight="bold" lengthAdjust="spacing" textLength="137.6615" x="95" y="23.5679">Funcionalitat Client</text></g><!--cluster Funcionalitat Encarregat--><g id="cluster_Funcionalitat Encarregat"><path d="M104.5,370.602 L279.2253,370.602 A3.75,3.75 0 0 1 281.7253,373.102 L288.7253,395.6699 L581.5,395.6699 A2.5,2.5 0 0 1 584,398.1699 L584,535.102 A2.5,2.5 0 0 1 581.5,537.602 L104.5,537.602 A2.5,2.5 0 0 1 102,535.102 L102,373.102 A2.5,2.5 0 0 1 104.5,370.602 " fill="transparent" style="stroke:#000000;stroke-width:1.5;"/><line style="stroke:#000000;stroke-width:1.5;" x1="102" x2="288.7253" y1="395.6699" y2="395.6699"/><text fill="#000000" font-family="sans-serif" font-size="14" font-weight="bold" lengthAdjust="spacing" textLength="173.7253" x="106" y="387.5679">Funcionalitat Encarregat</text></g><g id="elem_AP"><ellipse cx="192.6413" cy="223.5302" fill="#F1F1F1" rx="75.1413" ry="17.4283" style="stroke:#181818;stroke-width:0.5;"/><text fill="#000000" font-family="sans-serif" font-size="14" lengthAdjust="spacing" textLength="89.2777" x="145.0024" y="228.2632">Afig Producte</text></g><g id="elem_RE"><ellipse cx="192.2519" cy="151.5524" fill="#F1F1F1" rx="85.2519" ry="19.4504" style="stroke:#181818;stroke-width:0.5;"/><text fill="#000000" font-family="sans-serif" font-size="14" lengthAdjust="spacing" textLength="117.7815" x="130.3611" y="156.2853">Realitzar Enc&#224;rrec</text></g><g id="elem_VU"><ellipse cx="192.4095" cy="61.618" fill="#F1F1F1" rx="68.4095" ry="17.016" style="stroke:#181818;stroke-width:0.5;"/><text fill="#000000" font-family="sans-serif" font-size="14" lengthAdjust="spacing" textLength="76.9857" x="150.9167" y="66.3509">Valid usuari</text></g><g id="elem_PE"><ellipse cx="482.6582" cy="428.6336" fill="#F1F1F1" rx="85.6582" ry="19.5316" style="stroke:#181818;stroke-width:0.5;"/><text fill="#000000" font-family="sans-serif" font-size="14" lengthAdjust="spacing" textLength="118.8596" x="420.2284" y="433.3666">Preparar Enc&#224;rrec</text></g><g id="elem_EC"><ellipse cx="192.6351" cy="427.429" fill="#F1F1F1" rx="74.6351" ry="17.327" style="stroke:#181818;stroke-width:0.5;"/><text fill="#000000" font-family="sans-serif" font-size="14" lengthAdjust="spacing" textLength="87.7377" x="145.7663" y="432.162">Enviar correu</text></g><g id="elem_ES"><ellipse cx="192.5208" cy="497.5964" fill="#F1F1F1" rx="65.0208" ry="16.9944" style="stroke:#181818;stroke-width:0.5;"/><text fill="#000000" font-family="sans-serif" font-size="14" lengthAdjust="spacing" textLength="72.5057" x="153.2679" y="502.3293">Enviar SMS</text></g><!--entity C--><g id="elem_C"><ellipse cx="24.8369" cy="192.602" fill="#F1F1F1" rx="8" ry="8" style="stroke:#181818;stroke-width:0.5;"/><path d="M24.8369,200.602 L24.8369,227.602 M11.8369,208.602 L37.8369,208.602 M24.8369,227.602 L11.8369,242.602 M24.8369,227.602 L37.8369,242.602 " fill="transparent" style="stroke:#181818;stroke-width:0.5;"/><text fill="#000000" font-family="sans-serif" font-size="14" lengthAdjust="spacing" textLength="37.6738" x="6" y="259.0679">Client</text></g><!--entity E--><g id="elem_E"><ellipse cx="192.4939" cy="284.602" fill="#F1F1F1" rx="8" ry="8" style="stroke:#181818;stroke-width:0.5;"/><path d="M192.4939,292.602 L192.4939,319.602 M179.4939,300.602 L205.4939,300.602 M192.4939,319.602 L179.4939,334.602 M192.4939,319.602 L205.4939,334.602 " fill="transparent" style="stroke:#181818;stroke-width:0.5;"/><text fill="#000000" font-family="sans-serif" font-size="14" lengthAdjust="spacing" textLength="71.9877" x="156.5" y="351.0679">Encarregat</text></g><!--reverse link C to E--><g id="link_C_E"><path d="M59.4945,244.0199 C70.6345,250.7699 69.86,250.172 83,257.602 C107.17,271.262 134.78,286.002 156.09,297.212 " fill="transparent" id="C-backto-E" style="stroke:#181818;stroke-width:1;"/><polygon fill="transparent" points="44.1,234.692,56.3852,249.1514,62.6038,238.8884,44.1,234.692" style="stroke:#181818;stroke-width:1;"/></g><!--link C to AP--><g id="link_C_AP"><path d="M44.03,223.602 C61.79,223.602 84.12,223.602 111.23,223.602 " fill="transparent" id="C-to-AP" style="stroke:#181818;stroke-width:1;"/><polygon fill="#181818" points="117.23,223.602,108.23,219.602,112.23,223.602,108.23,227.602,117.23,223.602" style="stroke:#181818;stroke-width:1;"/></g><!--link C to RE--><g id="link_C_RE"><path d="M44.16,211.012 C55.08,203.812 69.44,194.982 83,188.602 C100.74,180.262 115.1907,174.7376 133.2707,168.7876 " fill="transparent" id="C-to-RE" style="stroke:#181818;stroke-width:1;"/><polygon fill="#181818" points="138.97,166.912,129.1706,165.9258,134.2206,168.475,131.6714,173.5249,138.97,166.912" style="stroke:#181818;stroke-width:1;"/></g><!--link RE to VU--><g id="link_RE_VU"><path d="M192.5,132.072 C192.5,116.152 192.5,99.882 192.5,84.662 " fill="transparent" id="RE-to-VU" style="stroke:#181818;stroke-width:1;stroke-dasharray:7.0,7.0;"/><polygon fill="#181818" points="192.5,78.662,188.5,87.662,192.5,83.662,196.5,87.662,192.5,78.662" style="stroke:#181818;stroke-width:1;"/><text fill="#000000" font-family="sans-serif" font-size="13" lengthAdjust="spacing" textLength="57.5771" x="151.5" y="110.749">&#171;include&#187;</text></g><!--link E to PE--><g id="link_E_PE"><path d="M228.53,329.342 C281.44,350.112 376.0547,387.2301 433.1847,409.6501 " fill="transparent" id="E-to-PE" style="stroke:#181818;stroke-width:1;"/><polygon fill="#181818" points="438.77,411.842,431.8533,404.8306,434.1156,410.0154,428.9308,412.2777,438.77,411.842" style="stroke:#181818;stroke-width:1;"/></g><!--link EC to PE--><g id="link_EC_PE"><path d="M267.29,427.862 C306.88,427.992 349.83,428.1401 390.94,428.2901 " fill="transparent" id="EC-to-PE" style="stroke:#181818;stroke-width:1;stroke-dasharray:7.0,7.0;"/><polygon fill="#181818" points="396.94,428.312,387.9547,424.2792,391.94,428.2937,387.9255,432.2791,396.94,428.312" style="stroke:#181818;stroke-width:1;"/><text fill="#000000" font-family="sans-serif" font-size="13" lengthAdjust="spacing" textLength="55.497" x="311" y="423.499">&#171;extend&#187;</text></g><!--link ES to PE--><g id="link_ES_PE"><path d="M241.06,486.212 C290.9,474.262 363.4549,456.879 417.0849,444.039 " fill="transparent" id="ES-to-PE" style="stroke:#181818;stroke-width:1;stroke-dasharray:7.0,7.0;"/><polygon fill="#181818" points="422.92,442.642,413.236,440.8475,418.0574,443.8062,415.0987,448.6276,422.92,442.642" style="stroke:#181818;stroke-width:1;"/><text fill="#000000" font-family="sans-serif" font-size="13" lengthAdjust="spacing" textLength="55.497" x="311" y="452.499">&#171;extend&#187;</text></g><!--SRC=[TOzDQiGm38NtFeN8FZb02O71kBj2I9ZP2rcJcWPxSEnI-dENtgKNg-mfbEbClR7zz4dlQULZWXGWkkKnWNMHARdW5L8A4VJgs2V03VIFOZnXZBnWLOrI9wGdN1YQ- -n9Ed5rIOhdpWRU5CZ96nDk0ksERe4n1fifSLD6xCPBOk8ouHMhrTUdU57b9dF97GIpyiqONGKEU_NnRvpVs5UHniWdZ5T-uny_uv-TG1I4o9Km-YOnFypdybpowFwzRGqe3Mqxb6MrtBBBPA0R93FSGTyxJsksF0pAL4oyZOQkAwyAy4jYRqjzlYL_0m00]--></g></svg>