<svg xmlns="http://www.w3.org/2000/svg" xmlns:xlink="http://www.w3.org/1999/xlink" contentStyleType="text/css" data-diagram-type="DESCRIPTION" height="203px" preserveAspectRatio="none" style="width:345px;height:203px;background:#FFFFFF;" version="1.1" viewBox="0 0 345 203" width="345px" zoomAndPan="magnify"><defs/><g><!--entity Actor--><g id="elem_Actor"><ellipse cx="65.9859" cy="14" fill="#F1F1F1" rx="8" ry="8" style="stroke:#181818;stroke-width:0.5;"/><path d="M65.9859,22 L65.9859,49 M52.9859,30 L78.9859,30 M65.9859,49 L52.9859,64 M65.9859,49 L78.9859,64 " fill="transparent" style="stroke:#181818;stroke-width:0.5;"/><text fill="#000000" font-family="sans-serif" font-size="14" lengthAdjust="spacing" textLength="34.9719" x="48.5" y="80.4659">Actor</text></g><g id="elem_Cas d'&#250;s 1"><ellipse cx="65.9593" cy="180.4576" fill="#F1F1F1" rx="59.9593" ry="16.9576" style="stroke:#181818;stroke-width:0.5;"/><text fill="#000000" font-family="sans-serif" font-size="14" lengthAdjust="spacing" textLength="65.8138" x="30.0524" y="185.1906">Cas d'&#250;s 1</text></g><g id="elem_Cas d'&#250;s 2"><ellipse cx="279.9593" cy="180.4576" fill="#F1F1F1" rx="59.9593" ry="16.9576" style="stroke:#181818;stroke-width:0.5;"/><text fill="#000000" font-family="sans-serif" font-size="14" lengthAdjust="spacing" textLength="65.8138" x="244.0524" y="185.1906">Cas d'&#250;s 2</text></g><g id="elem_Cas d'&#250;s 3"><ellipse cx="279.9593" cy="44.9576" fill="#F1F1F1" rx="59.9593" ry="16.9576" style="stroke:#181818;stroke-width:0.5;"/><text fill="#000000" font-family="sans-serif" font-size="14" lengthAdjust="spacing" textLength="65.8138" x="244.0524" y="49.6906">Cas d'&#250;s 3</text></g><!--link Actor to Cas d'?s 1--><g id="link_Actor_Cas d'&#250;s 1"><path d="M66,84.61 C66,110.8 66,138.05 66,157.43 " fill="transparent" id="Actor-to-Cas d'&#250;s 1" style="stroke:#181818;stroke-width:1;"/><polygon fill="#181818" points="66,163.43,70,154.43,66,158.43,62,154.43,66,163.43" style="stroke:#181818;stroke-width:1;"/></g><!--link Cas d'?s 1 to Cas d'?s 2--><g id="link_Cas d'&#250;s 1_Cas d'&#250;s 2"><path d="M126.18,180.5 C155.48,180.5 184.61,180.5 213.9,180.5 " fill="transparent" id="Cas d'&#250;s 1-to-Cas d'&#250;s 2" style="stroke:#181818;stroke-width:1;stroke-dasharray:7.0,7.0;"/><polygon fill="#181818" points="219.9,180.5,210.9,176.5,214.9,180.5,210.9,184.5,219.9,180.5" style="stroke:#181818;stroke-width:1;"/><text fill="#000000" font-family="sans-serif" font-size="13" lengthAdjust="spacing" textLength="57.5771" x="144.5" y="173.397">&#171;include&#187;</text></g><!--link Cas d'?s 3 to Cas d'?s 2--><g id="link_Cas d'&#250;s 3_Cas d'&#250;s 2"><path d="M280,62.1 C280,87.76 280,131.64 280,157.34 " fill="transparent" id="Cas d'&#250;s 3-to-Cas d'&#250;s 2" style="stroke:#181818;stroke-width:1;stroke-dasharray:7.0,7.0;"/><polygon fill="#181818" points="280,163.34,284,154.34,280,158.34,276,154.34,280,163.34" style="stroke:#181818;stroke-width:1;"/><text fill="#000000" font-family="sans-serif" font-size="13" lengthAdjust="spacing" textLength="55.497" x="281" y="129.397">&#171;extend&#187;</text></g><!--SRC=[it9CBialibBGrRLJq71EB5P8KJ-ygrZ1K9CBXQUWXo9jfAbWfM1ZavcNd5EQacfdXwpO6AWOg-hKYfBKl1GxEm00]--></g></svg>