<svg xmlns="http://www.w3.org/2000/svg" xmlns:xlink="http://www.w3.org/1999/xlink" contentStyleType="text/css" data-diagram-type="DESCRIPTION" height="348px" preserveAspectRatio="none" style="width:1061px;height:348px;background:#FFFFFF;" version="1.1" viewBox="0 0 1061 348" width="1061px" zoomAndPan="magnify"><defs/><g><!--entity Client--><g id="elem_Client"><ellipse cx="522.8369" cy="14" fill="#F1F1F1" rx="8" ry="8" style="stroke:#181818;stroke-width:0.5;"/><path d="M522.8369,22 L522.8369,49 M509.8369,30 L535.8369,30 M522.8369,49 L509.8369,64 M522.8369,49 L535.8369,64 " fill="transparent" style="stroke:#181818;stroke-width:0.5;"/><text fill="#000000" font-family="sans-serif" font-size="14" lengthAdjust="spacing" textLength="37.6738" x="504" y="80.4659">Client</text></g><g id="elem_Afig producte"><ellipse cx="523.1875" cy="184.9375" fill="#F1F1F1" rx="75.1875" ry="17.4375" style="stroke:#181818;stroke-width:0.5;"/><text fill="#000000" font-family="sans-serif" font-size="14" lengthAdjust="spacing" textLength="89.4177" x="475.4787" y="189.6705">Afig producte</text></g><g id="elem_Realitza enc&#224;rrec"><ellipse cx="89.1404" cy="185.0281" fill="#F1F1F1" rx="83.1404" ry="19.0281" style="stroke:#181818;stroke-width:0.5;"/><text fill="#000000" font-family="sans-serif" font-size="14" lengthAdjust="spacing" textLength="112.1116" x="30.0846" y="189.7611">Realitza enc&#224;rrec</text></g><g id="elem_Valida usuari"><ellipse cx="339.1956" cy="185.1391" fill="#F1F1F1" rx="73.6956" ry="17.1391" style="stroke:#181818;stroke-width:0.5;"/><text fill="#000000" font-family="sans-serif" font-size="14" lengthAdjust="spacing" textLength="84.8397" x="293.7757" y="189.8721">Valida usuari</text></g><!--entity Encarregat--><g id="elem_Encarregat"><ellipse cx="668.9939" cy="154" fill="#F1F1F1" rx="8" ry="8" style="stroke:#181818;stroke-width:0.5;"/><path d="M668.9939,162 L668.9939,189 M655.9939,170 L681.9939,170 M668.9939,189 L655.9939,204 M668.9939,189 L681.9939,204 " fill="transparent" style="stroke:#181818;stroke-width:0.5;"/><text fill="#000000" font-family="sans-serif" font-size="14" lengthAdjust="spacing" textLength="71.9877" x="633" y="220.4659">Encarregat</text></g><g id="elem_Preparar enc&#224;rrec"><ellipse cx="815.2005" cy="323.0401" fill="#F1F1F1" rx="85.7005" ry="19.5401" style="stroke:#181818;stroke-width:0.5;"/><text fill="#000000" font-family="sans-serif" font-size="14" lengthAdjust="spacing" textLength="118.9716" x="752.7147" y="327.7731">Preparar enc&#224;rrec</text></g><g id="elem_Enviar correu"><ellipse cx="815.1351" cy="184.827" fill="#F1F1F1" rx="74.6351" ry="17.327" style="stroke:#181818;stroke-width:0.5;"/><text fill="#000000" font-family="sans-serif" font-size="14" lengthAdjust="spacing" textLength="87.7377" x="768.2663" y="189.56">Enviar correu</text></g><g id="elem_Enviar SMS"><ellipse cx="990.0208" cy="184.9944" fill="#F1F1F1" rx="65.0208" ry="16.9944" style="stroke:#181818;stroke-width:0.5;"/><text fill="#000000" font-family="sans-serif" font-size="14" lengthAdjust="spacing" textLength="72.5057" x="950.7679" y="189.7274">Enviar SMS</text></g><!--link Client to Afig producte--><g id="link_Client_Afig producte"><path d="M523,84.81 C523,112.07 523,141.17 523,161.47 " fill="transparent" id="Client-to-Afig producte" style="stroke:#181818;stroke-width:1;"/><polygon fill="#181818" points="523,167.47,527,158.47,523,162.47,519,158.47,523,167.47" style="stroke:#181818;stroke-width:1;"/></g><!--link Client to Realitza enc?rrec--><g id="link_Client_Realitza enc&#224;rrec"><path d="M503.79,52.11 C439.4,72.58 235.6877,137.3513 141.4377,167.3313 " fill="transparent" id="Client-to-Realitza enc&#224;rrec" style="stroke:#181818;stroke-width:1;"/><polygon fill="#181818" points="135.72,169.15,145.5091,170.2337,140.4848,167.6344,143.0841,162.6101,135.72,169.15" style="stroke:#181818;stroke-width:1;"/></g><!--link Realitza enc?rrec to Valida usuari--><g id="link_Realitza enc&#224;rrec_Valida usuari"><path d="M172.25,185 C202.36,185 230.12,185 259.35,185 " fill="transparent" id="Realitza enc&#224;rrec-to-Valida usuari" style="stroke:#181818;stroke-width:1;stroke-dasharray:7.0,7.0;"/><polygon fill="#181818" points="265.35,185,256.35,181,260.35,185,256.35,189,265.35,185" style="stroke:#181818;stroke-width:1;"/><text fill="#000000" font-family="sans-serif" font-size="13" lengthAdjust="spacing" textLength="57.5771" x="190.25" y="177.897">&#171;include&#187;</text></g><!--link Encarregat to Preparar enc?rrec--><g id="link_Encarregat_Preparar enc&#224;rrec"><path d="M705.09,219.62 C733.63,246.2 767.9996,278.2205 791.0496,299.6905 " fill="transparent" id="Encarregat-to-Preparar enc&#224;rrec" style="stroke:#181818;stroke-width:1;"/><polygon fill="#181818" points="795.44,303.78,791.5807,294.7188,791.7813,300.3721,786.128,300.5727,795.44,303.78" style="stroke:#181818;stroke-width:1;"/></g><!--link Enviar correu to Preparar enc?rrec--><g id="link_Enviar correu_Preparar enc&#224;rrec"><path d="M815,202.68 C815,228.21 815,270.83 815,297.45 " fill="transparent" id="Enviar correu-to-Preparar enc&#224;rrec" style="stroke:#181818;stroke-width:1;stroke-dasharray:7.0,7.0;"/><polygon fill="#181818" points="815,303.45,819,294.45,815,298.45,811,294.45,815,303.45" style="stroke:#181818;stroke-width:1;"/><text fill="#000000" font-family="sans-serif" font-size="13" lengthAdjust="spacing" textLength="55.497" x="816" y="269.397">&#171;extend&#187;</text></g><!--link Enviar SMS to Preparar enc?rrec--><g id="link_Enviar SMS_Preparar enc&#224;rrec"><path d="M971.06,201.35 C949.26,218.97 912.28,248.63 880,273.5 C866.62,283.81 856.322,291.5396 844.032,300.6396 " fill="transparent" id="Enviar SMS-to-Preparar enc&#224;rrec" style="stroke:#181818;stroke-width:1;stroke-dasharray:7.0,7.0;"/><polygon fill="#181818" points="839.21,304.21,848.8233,302.0691,843.2284,301.2346,844.0628,295.6397,839.21,304.21" style="stroke:#181818;stroke-width:1;"/><text fill="#000000" font-family="sans-serif" font-size="13" lengthAdjust="spacing" textLength="55.497" x="905" y="269.397">&#171;extend&#187;</text></g><!--reverse link Client to Encarregat--><g id="link_Client_Encarregat"><path d="M555.1691,76.4068 C578.1191,98.1068 604.07,122.63 632.8,149.79 " fill="transparent" id="Client-backto-Encarregat" style="stroke:#181818;stroke-width:1;"/><polygon fill="transparent" points="542.09,64.04,551.0469,80.7665,559.2914,72.047,542.09,64.04" style="stroke:#181818;stroke-width:1;"/></g><!--SRC=[ZOz12i8m44NtESKixI8zG2W1aIu5iU1-ICOI26aPaoBYORoB5tCGAWIwS3bl_d_Cc4CCbB81hItizjSmmioJBovJeqorF1F6a1y8bDpxnKokKLiGMWbV17k4SYl8eG43NHUIYyMJjKgPFZcKy8Yh_CGq8oDNyZujGP2RP2xYRRU3NplTCoKlyhKr78T_Axz7kwVMrMqV]--></g></svg>