<svg xmlns="http://www.w3.org/2000/svg" xmlns:xlink="http://www.w3.org/1999/xlink" contentStyleType="text/css" data-diagram-type="DESCRIPTION" height="453px" preserveAspectRatio="none" style="width:603px;height:453px;background:#FFFFFF;" version="1.1" viewBox="0 0 603 453" width="603px" zoomAndPan="magnify"><defs/><g><!--cluster Aplicaci? Client (Web)--><g id="cluster_Aplicaci&#243; Client (Web)"><path d="M8.5,6.602 L160.7975,6.602 A3.75,3.75 0 0 1 163.2975,9.102 L170.2975,31.6699 L439.5,31.6699 A2.5,2.5 0 0 1 442,34.1699 L442,444.102 A2.5,2.5 0 0 1 439.5,446.602 L8.5,446.602 A2.5,2.5 0 0 1 6,444.102 L6,9.102 A2.5,2.5 0 0 1 8.5,6.602 " fill="transparent" style="stroke:#000000;stroke-width:1.5;"/><line style="stroke:#000000;stroke-width:1.5;" x1="6" x2="170.2975" y1="31.6699" y2="31.6699"/><text fill="#000000" font-family="sans-serif" font-size="14" font-weight="bold" lengthAdjust="spacing" textLength="151.2975" x="10" y="23.5679">Aplicaci&#243; Client (Web)</text></g><!--cluster Servidor (API)--><g id="cluster_Servidor (API)"><path d="M468.5,324.602 L564.9937,324.602 A3.75,3.75 0 0 1 567.4937,327.102 L574.4937,349.6699 L593.5,349.6699 A2.5,2.5 0 0 1 596,352.1699 L596,444.102 A2.5,2.5 0 0 1 593.5,446.602 L468.5,446.602 A2.5,2.5 0 0 1 466,444.102 L466,327.102 A2.5,2.5 0 0 1 468.5,324.602 " fill="transparent" style="stroke:#000000;stroke-width:1.5;"/><line style="stroke:#000000;stroke-width:1.5;" x1="466" x2="574.4937" y1="349.6699" y2="349.6699"/><text fill="#000000" font-family="sans-serif" font-size="14" font-weight="bold" lengthAdjust="spacing" textLength="95.4937" x="470" y="341.5679">Servidor (API)</text></g><!--entity main.js--><g id="elem_main.js"><rect fill="#F1F1F1" height="68.1358" rx="2.5" ry="2.5" style="stroke:#181818;stroke-width:0.5;" width="116.9697" x="130.5" y="44.602"/><rect fill="#F1F1F1" height="10" style="stroke:#181818;stroke-width:0.5;" width="15" x="227.4697" y="49.602"/><rect fill="#F1F1F1" height="2" style="stroke:#181818;stroke-width:0.5;" width="4" x="225.4697" y="51.602"/><rect fill="#F1F1F1" height="2" style="stroke:#181818;stroke-width:0.5;" width="4" x="225.4697" y="55.602"/><text fill="#000000" font-family="sans-serif" font-size="14" font-style="italic" lengthAdjust="spacing" textLength="74.9697" x="146.5" y="79.5679">&#171;JavaScript&#187;</text><text fill="#000000" font-family="sans-serif" font-size="14" lengthAdjust="spacing" textLength="47.2778" x="160.346" y="98.6358">main.js</text></g><!--entity PizzaService--><g id="elem_PizzaService"><rect fill="#F1F1F1" height="68.1358" rx="2.5" ry="2.5" style="stroke:#181818;stroke-width:0.5;" width="119.7997" x="272" y="191.602"/><rect fill="#F1F1F1" height="10" style="stroke:#181818;stroke-width:0.5;" width="15" x="371.7997" y="196.602"/><rect fill="#F1F1F1" height="2" style="stroke:#181818;stroke-width:0.5;" width="4" x="369.7997" y="198.602"/><rect fill="#F1F1F1" height="2" style="stroke:#181818;stroke-width:0.5;" width="4" x="369.7997" y="202.602"/><text fill="#000000" font-family="sans-serif" font-size="14" font-style="italic" lengthAdjust="spacing" textLength="74.9697" x="289.415" y="226.5679">&#171;JavaScript&#187;</text><text fill="#000000" font-family="sans-serif" font-size="14" lengthAdjust="spacing" textLength="79.7997" x="287" y="245.6358">PizzaService</text></g><!--entity PizzaCard--><g id="elem_PizzaCard"><rect fill="#F1F1F1" height="68.1358" rx="2.5" ry="2.5" style="stroke:#181818;stroke-width:0.5;" width="154.6156" x="24.5" y="191.602"/><rect fill="#F1F1F1" height="10" style="stroke:#181818;stroke-width:0.5;" width="15" x="159.1156" y="196.602"/><rect fill="#F1F1F1" height="2" style="stroke:#181818;stroke-width:0.5;" width="4" x="157.1156" y="198.602"/><rect fill="#F1F1F1" height="2" style="stroke:#181818;stroke-width:0.5;" width="4" x="157.1156" y="202.602"/><text fill="#000000" font-family="sans-serif" font-size="14" font-style="italic" lengthAdjust="spacing" textLength="112.6156" x="40.5" y="226.5679">&#171;WebComponent&#187;</text><text fill="#000000" font-family="sans-serif" font-size="14" lengthAdjust="spacing" textLength="64.1898" x="64.7129" y="245.6358">PizzaCard</text></g><!--entity PizzaLlistaAlergens--><g id="elem_PizzaLlistaAlergens"><rect fill="#F1F1F1" height="68.1358" rx="2.5" ry="2.5" style="stroke:#181818;stroke-width:0.5;" width="165.3695" x="22.5" y="362.602"/><rect fill="#F1F1F1" height="10" style="stroke:#181818;stroke-width:0.5;" width="15" x="167.8695" y="367.602"/><rect fill="#F1F1F1" height="2" style="stroke:#181818;stroke-width:0.5;" width="4" x="165.8695" y="369.602"/><rect fill="#F1F1F1" height="2" style="stroke:#181818;stroke-width:0.5;" width="4" x="165.8695" y="373.602"/><text fill="#000000" font-family="sans-serif" font-size="14" font-style="italic" lengthAdjust="spacing" textLength="112.6156" x="43.877" y="397.5679">&#171;WebComponent&#187;</text><text fill="#000000" font-family="sans-serif" font-size="14" lengthAdjust="spacing" textLength="125.3695" x="37.5" y="416.6358">PizzaLlistaAlergens</text></g><!--entity API REST--><g id="elem_API REST"><rect fill="#F1F1F1" height="68.1358" rx="2.5" ry="2.5" style="stroke:#181818;stroke-width:0.5;" width="97.7638" x="482" y="362.602"/><rect fill="#F1F1F1" height="10" style="stroke:#181818;stroke-width:0.5;" width="15" x="559.7638" y="367.602"/><rect fill="#F1F1F1" height="2" style="stroke:#181818;stroke-width:0.5;" width="4" x="557.7638" y="369.602"/><rect fill="#F1F1F1" height="2" style="stroke:#181818;stroke-width:0.5;" width="4" x="557.7638" y="373.602"/><text fill="#000000" font-family="sans-serif" font-size="14" font-style="italic" lengthAdjust="spacing" textLength="44.8418" x="503.461" y="397.5679">&#171;HTTP&#187;</text><text fill="#000000" font-family="sans-serif" font-size="14" lengthAdjust="spacing" textLength="57.7638" x="497" y="416.6358">API REST</text></g><!--link main.js to PizzaService--><g id="link_main.js_PizzaService"><path d="M227.49,112.862 C237.93,122.252 249.08,132.632 259,142.602 C274.46,158.142 286.8214,171.7457 300.0914,186.9957 " fill="transparent" id="main.js-to-PizzaService" style="stroke:#181818;stroke-width:1;"/><polygon fill="#181818" points="304.03,191.522,301.1396,182.1068,300.7478,187.7501,295.1045,187.3583,304.03,191.522" style="stroke:#181818;stroke-width:1;"/><text fill="#000000" font-family="sans-serif" font-size="13" lengthAdjust="spacing" textLength="126.1131" x="276" y="157.499">Crida a getAllPizzes()</text></g><!--link main.js to PizzaCard--><g id="link_main.js_PizzaCard"><path d="M130.34,91.552 C102.15,100.562 70.88,116.092 54,142.602 C43.9,158.462 48.4919,171.8336 60.9319,186.9136 " fill="transparent" id="main.js-to-PizzaCard" style="stroke:#181818;stroke-width:1;"/><polygon fill="#181818" points="64.75,191.542,62.1084,182.054,61.5682,187.685,55.9372,187.1448,64.75,191.542" style="stroke:#181818;stroke-width:1;"/><text fill="#000000" font-family="sans-serif" font-size="13" lengthAdjust="spacing" textLength="199.3422" x="55" y="157.499">Crea din&#224;micament components</text></g><!--link PizzaCard to PizzaLlistaAlergens--><g id="link_PizzaCard_PizzaLlistaAlergens"><path d="M102.59,259.992 C103.12,289.712 103.7847,326.9529 104.3047,356.5729 " fill="transparent" id="PizzaCard-to-PizzaLlistaAlergens" style="stroke:#181818;stroke-width:1;"/><polygon fill="#181818" points="104.41,362.572,108.2514,353.5032,104.3222,357.5728,100.2526,353.6436,104.41,362.572" style="stroke:#181818;stroke-width:1;"/><text fill="#000000" font-family="sans-serif" font-size="13" lengthAdjust="spacing" textLength="99.5541" x="105" y="304.499">Mostra al&#232;rgens</text></g><!--link PizzaService to API REST--><g id="link_PizzaService_API REST"><path d="M373.33,259.762 C394.1,276.592 419.56,297.472 442,316.602 C459.45,331.482 474.0262,344.3038 490.0162,358.5938 " fill="transparent" id="PizzaService-to-API REST" style="stroke:#181818;stroke-width:1;"/><polygon fill="#181818" points="494.49,362.592,490.4448,353.6122,490.7618,359.2602,485.1139,359.5773,494.49,362.592" style="stroke:#181818;stroke-width:1;"/><text fill="#000000" font-family="sans-serif" font-size="13" lengthAdjust="spacing" textLength="144.4951" x="431" y="304.499">GET /api/pizzeria/pizzes</text></g><!--SRC=[ZP5DQiCm48NtEiNWbRD8im_1O4pe3osOsj3rL1xCjB8i9955Ik_IPVSzWYzMIMtIfBXGhSJCUvhlZGpAP-m9ij8ebYXv-e1ACMaF-GCzBZ9u4H2E70SpwbZE1cHzyUGos6nkS8UDj6nyKVoMrRpVOqDsnvB-fQtGTb4OnbQ7rX_IMyNEOwd8zgJTZ2cvla5XkIpWb0RMK5dk411wygLIiKakNyox8bUo44B7UdeRmgA627F4Sidvepvwpq73AtUZypPCLjDxAebN8SpX3n9VDrh8o_fwRlMX3FVRfes9hzgs3ac3_onR77sYMyFbjeKL6bwPcD8oVbsS-0G0]--></g></svg>