<svg xmlns="http://www.w3.org/2000/svg" xmlns:xlink="http://www.w3.org/1999/xlink" contentStyleType="text/css" data-diagram-type="CLASS" height="525px" preserveAspectRatio="none" style="width:695px;height:525px;background:#FFFFFF;" version="1.1" viewBox="0 0 695 525" width="695px" zoomAndPan="magnify"><defs/><g><!--class Pizza--><g id="elem_Pizza"><rect codeLine="2" fill="#F1F1F1" height="200.5433" id="Pizza" rx="2.5" ry="2.5" style="stroke:#181818;stroke-width:0.5;" width="165.1315" x="158.5" y="318"/><ellipse cx="220.2678" cy="334" fill="#ADD1B2" rx="11" ry="11" style="stroke:#181818;stroke-width:1;"/><path d="M223.2365,339.6406 Q222.6584,339.9375 222.0178,340.0781 Q221.3772,340.2344 220.674,340.2344 Q218.174,340.2344 216.8459,338.5938 Q215.5334,336.9375 215.5334,333.8125 Q215.5334,330.6875 216.8459,329.0313 Q218.174,327.375 220.674,327.375 Q221.3772,327.375 222.0178,327.5313 Q222.674,327.6875 223.2365,327.9844 L223.2365,330.7031 Q222.6115,330.125 222.0178,329.8594 Q221.424,329.5781 220.799,329.5781 Q219.4553,329.5781 218.7678,330.6563 Q218.0803,331.7188 218.0803,333.8125 Q218.0803,335.9063 218.7678,336.9844 Q219.4553,338.0469 220.799,338.0469 Q221.424,338.0469 222.0178,337.7813 Q222.6115,337.5 223.2365,336.9219 L223.2365,339.6406 Z " fill="#000000"/><text fill="#000000" font-family="sans-serif" font-size="14" lengthAdjust="spacing" textLength="33.0959" x="240.7678" y="339.432">Pizza</text><line style="stroke:#181818;stroke-width:0.5;" x1="159.5" x2="322.6315" y1="350" y2="350"/><rect fill="transparent" height="6" style="stroke:#C82930;stroke-width:1;" width="6" x="166.5" y="362.034"/><text fill="#000000" font-family="sans-serif" font-size="14" lengthAdjust="spacing" textLength="72.2957" x="178.5" y="368.9659">id: number</text><rect fill="transparent" height="6" style="stroke:#C82930;stroke-width:1;" width="6" x="166.5" y="381.1019"/><text fill="#000000" font-family="sans-serif" font-size="14" lengthAdjust="spacing" textLength="76.0197" x="178.5" y="388.0339">nom: string</text><rect fill="transparent" height="6" style="stroke:#C82930;stroke-width:1;" width="6" x="166.5" y="400.1698"/><text fill="#000000" font-family="sans-serif" font-size="14" lengthAdjust="spacing" textLength="75.7397" x="178.5" y="407.1018">desc: string</text><rect fill="transparent" height="6" style="stroke:#C82930;stroke-width:1;" width="6" x="166.5" y="419.2377"/><text fill="#000000" font-family="sans-serif" font-size="14" lengthAdjust="spacing" textLength="139.1315" x="178.5" y="426.1697">vegetariana: boolean</text><rect fill="transparent" height="6" style="stroke:#C82930;stroke-width:1;" width="6" x="166.5" y="438.3056"/><text fill="#000000" font-family="sans-serif" font-size="14" lengthAdjust="spacing" textLength="112.0276" x="178.5" y="445.2376">alergens: string[]</text><rect fill="transparent" height="6" style="stroke:#C82930;stroke-width:1;" width="6" x="166.5" y="457.3735"/><text fill="#000000" font-family="sans-serif" font-size="14" lengthAdjust="spacing" textLength="91.0136" x="178.5" y="464.3055">preu: number</text><rect fill="transparent" height="6" style="stroke:#C82930;stroke-width:1;" width="6" x="166.5" y="476.4415"/><text fill="#000000" font-family="sans-serif" font-size="14" lengthAdjust="spacing" textLength="71.1197" x="178.5" y="483.3734">img: string</text><line style="stroke:#181818;stroke-width:0.5;" x1="159.5" x2="322.6315" y1="491.4754" y2="491.4754"/><ellipse cx="169.5" cy="506.5094" fill="#84BE84" rx="3" ry="3" style="stroke:#038048;stroke-width:1;"/><text fill="#000000" font-family="sans-serif" font-size="14" lengthAdjust="spacing" textLength="107.1276" x="178.5" y="510.4414">toString(): string</text></g><!--class PizzaService--><g id="elem_PizzaService"><rect codeLine="13" fill="#F1F1F1" height="67.0679" id="PizzaService" rx="2.5" ry="2.5" style="stroke:#181818;stroke-width:0.5;" width="231.7152" x="7" y="162.5"/><ellipse cx="78.7078" cy="178.5" fill="#ADD1B2" rx="11" ry="11" style="stroke:#181818;stroke-width:1;"/><path d="M81.6765,184.1406 Q81.0984,184.4375 80.4578,184.5781 Q79.8171,184.7344 79.114,184.7344 Q76.614,184.7344 75.2859,183.0938 Q73.9734,181.4375 73.9734,178.3125 Q73.9734,175.1875 75.2859,173.5313 Q76.614,171.875 79.114,171.875 Q79.8171,171.875 80.4578,172.0313 Q81.114,172.1875 81.6765,172.4844 L81.6765,175.2031 Q81.0515,174.625 80.4578,174.3594 Q79.864,174.0781 79.239,174.0781 Q77.8953,174.0781 77.2078,175.1563 Q76.5203,176.2188 76.5203,178.3125 Q76.5203,180.4063 77.2078,181.4844 Q77.8953,182.5469 79.239,182.5469 Q79.864,182.5469 80.4578,182.2813 Q81.0515,182 81.6765,181.4219 L81.6765,184.1406 Z " fill="#000000"/><text fill="#000000" font-family="sans-serif" font-size="14" lengthAdjust="spacing" textLength="79.7997" x="99.2078" y="183.932">PizzaService</text><line style="stroke:#181818;stroke-width:0.5;" x1="8" x2="237.7152" y1="194.5" y2="194.5"/><line style="stroke:#181818;stroke-width:0.5;" x1="8" x2="237.7152" y1="202.5" y2="202.5"/><ellipse cx="18" cy="217.534" fill="#84BE84" rx="3" ry="3" style="stroke:#038048;stroke-width:1;"/><text fill="#000000" font-family="sans-serif" font-size="14" lengthAdjust="spacing" textLength="205.7152" x="27" y="221.4659">getAllPizzes(): Promise&lt;Pizza[]&gt;</text></g><!--class PizzaCard--><g id="elem_PizzaCard"><rect codeLine="17" fill="#F1F1F1" height="86.1358" id="PizzaCard" rx="2.5" ry="2.5" style="stroke:#181818;stroke-width:0.5;" width="114.2137" x="274" y="153"/><ellipse cx="297.1108" cy="169" fill="#ADD1B2" rx="11" ry="11" style="stroke:#181818;stroke-width:1;"/><path d="M300.0795,174.6406 Q299.5014,174.9375 298.8608,175.0781 Q298.2201,175.2344 297.517,175.2344 Q295.017,175.2344 293.6889,173.5938 Q292.3764,171.9375 292.3764,168.8125 Q292.3764,165.6875 293.6889,164.0313 Q295.017,162.375 297.517,162.375 Q298.2201,162.375 298.8608,162.5313 Q299.517,162.6875 300.0795,162.9844 L300.0795,165.7031 Q299.4545,165.125 298.8608,164.8594 Q298.267,164.5781 297.642,164.5781 Q296.2983,164.5781 295.6108,165.6563 Q294.9233,166.7188 294.9233,168.8125 Q294.9233,170.9063 295.6108,171.9844 Q296.2983,173.0469 297.642,173.0469 Q298.267,173.0469 298.8608,172.7813 Q299.4545,172.5 300.0795,171.9219 L300.0795,174.6406 Z " fill="#000000"/><text fill="#000000" font-family="sans-serif" font-size="14" lengthAdjust="spacing" textLength="64.1898" x="312.9131" y="174.432">PizzaCard</text><line style="stroke:#181818;stroke-width:0.5;" x1="275" x2="387.2137" y1="185" y2="185"/><ellipse cx="285" cy="200.034" fill="transparent" rx="3" ry="3" style="stroke:#038048;stroke-width:1;"/><text fill="#000000" font-family="sans-serif" font-size="14" lengthAdjust="spacing" textLength="73.7237" x="294" y="203.9659">pizza: Pizza</text><line style="stroke:#181818;stroke-width:0.5;" x1="275" x2="387.2137" y1="212.0679" y2="212.0679"/><ellipse cx="285" cy="227.1019" fill="#84BE84" rx="3" ry="3" style="stroke:#038048;stroke-width:1;"/><text fill="#000000" font-family="sans-serif" font-size="14" lengthAdjust="spacing" textLength="88.2137" x="294" y="231.0339">render(): void</text></g><!--class Main--><g id="elem_Main"><rect codeLine="22" fill="#F1F1F1" height="67.0679" id="Main" rx="2.5" ry="2.5" style="stroke:#181818;stroke-width:0.5;" width="188.5254" x="236.5" y="7"/><ellipse cx="310.1047" cy="23" fill="#ADD1B2" rx="11" ry="11" style="stroke:#181818;stroke-width:1;"/><path d="M313.0735,28.6406 Q312.4954,28.9375 311.8547,29.0781 Q311.2141,29.2344 310.511,29.2344 Q308.011,29.2344 306.6829,27.5938 Q305.3704,25.9375 305.3704,22.8125 Q305.3704,19.6875 306.6829,18.0313 Q308.011,16.375 310.511,16.375 Q311.2141,16.375 311.8547,16.5313 Q312.511,16.6875 313.0735,16.9844 L313.0735,19.7031 Q312.4485,19.125 311.8547,18.8594 Q311.261,18.5781 310.636,18.5781 Q309.2922,18.5781 308.6047,19.6563 Q307.9172,20.7188 307.9172,22.8125 Q307.9172,24.9063 308.6047,25.9844 Q309.2922,27.0469 310.636,27.0469 Q311.261,27.0469 311.8547,26.7813 Q312.4485,26.5 313.0735,25.9219 L313.0735,28.6406 Z " fill="#000000"/><text fill="#000000" font-family="sans-serif" font-size="14" lengthAdjust="spacing" textLength="32.8159" x="330.6047" y="28.432">Main</text><line style="stroke:#181818;stroke-width:0.5;" x1="237.5" x2="424.0254" y1="39" y2="39"/><line style="stroke:#181818;stroke-width:0.5;" x1="237.5" x2="424.0254" y1="47" y2="47"/><ellipse cx="247.5" cy="62.034" fill="#84BE84" rx="3" ry="3" style="stroke:#038048;stroke-width:1;"/><text fill="#000000" font-family="sans-serif" font-size="14" lengthAdjust="spacing" textLength="162.5254" x="256.5" y="65.9659">inicialitzaAplicacio(): void</text></g><!--class HTMLElement--><g id="elem_HTMLElement"><rect fill="#F1F1F1" height="48" id="HTMLElement" rx="2.5" ry="2.5" style="stroke:#181818;stroke-width:0.5;" width="124.1756" x="359" y="394.5"/><ellipse cx="374" cy="410.5" fill="#ADD1B2" rx="11" ry="11" style="stroke:#181818;stroke-width:1;"/><path d="M376.9688,416.1406 Q376.3906,416.4375 375.75,416.5781 Q375.1094,416.7344 374.4063,416.7344 Q371.9063,416.7344 370.5781,415.0938 Q369.2656,413.4375 369.2656,410.3125 Q369.2656,407.1875 370.5781,405.5313 Q371.9063,403.875 374.4063,403.875 Q375.1094,403.875 375.75,404.0313 Q376.4063,404.1875 376.9688,404.4844 L376.9688,407.2031 Q376.3438,406.625 375.75,406.3594 Q375.1563,406.0781 374.5313,406.0781 Q373.1875,406.0781 372.5,407.1563 Q371.8125,408.2188 371.8125,410.3125 Q371.8125,412.4063 372.5,413.4844 Q373.1875,414.5469 374.5313,414.5469 Q375.1563,414.5469 375.75,414.2813 Q376.3438,414 376.9688,413.4219 L376.9688,416.1406 Z " fill="#000000"/><text fill="#000000" font-family="sans-serif" font-size="14" lengthAdjust="spacing" textLength="92.1756" x="388" y="415.932">HTMLElement</text><line style="stroke:#181818;stroke-width:0.5;" x1="360" x2="482.1756" y1="426.5" y2="426.5"/><line style="stroke:#181818;stroke-width:0.5;" x1="360" x2="482.1756" y1="434.5" y2="434.5"/></g><g id="elem_GMN11"><path d="M423.5,173.5 L423.5,218.912 L688.2892,218.912 L688.2892,183.5 L678.2892,173.5 L423.5,173.5 " fill="#FEFFDD" style="stroke:#181818;stroke-width:0.5;"/><path d="M678.2892,173.5 L678.2892,183.5 L688.2892,183.5 L678.2892,173.5 " fill="#FEFFDD" style="stroke:#181818;stroke-width:1;"/><text fill="#000000" font-family="sans-serif" font-size="13" lengthAdjust="spacing" textLength="207.0382" x="429.5" y="192.397">El codi principal (main.js) gestiona</text><text fill="#000000" font-family="sans-serif" font-size="13" lengthAdjust="spacing" textLength="243.7892" x="429.5" y="210.103">din&#224;micament la creaci&#243; dels PizzaCard.</text></g><!--link Main to PizzaService--><g id="link_Main_PizzaService"><path codeLine="26" d="M286.89,74.05 C251.59,100.1 207.1581,132.8978 171.8781,158.9278 " fill="transparent" id="Main-to-PizzaService" style="stroke:#181818;stroke-width:1;"/><polygon fill="#181818" points="167.05,162.49,176.667,160.3654,171.0734,159.5215,171.9173,153.9279,167.05,162.49" style="stroke:#181818;stroke-width:1;"/><text fill="#000000" font-family="sans-serif" font-size="13" lengthAdjust="spacing" textLength="54.21" x="247" y="118.897">crida API</text></g><!--link Main to PizzaCard--><g id="link_Main_PizzaCard"><path codeLine="27" d="M331,74.05 C331,97.02 331,122 331,146.86 " fill="transparent" id="Main-to-PizzaCard" style="stroke:#181818;stroke-width:1;"/><polygon fill="#181818" points="331,152.86,335,143.86,331,147.86,327,143.86,331,152.86" style="stroke:#181818;stroke-width:1;"/><text fill="#000000" font-family="sans-serif" font-size="13" lengthAdjust="spacing" textLength="117.5461" x="332" y="118.897">crea din&#224;micament</text></g><!--link PizzaCard to Pizza--><g id="link_PizzaCard_Pizza"><path codeLine="28" d="M307.43,239.13 C302.39,248.81 297.29,259.15 293,269 C286.23,284.52 281.7583,295.6078 275.7283,312.0278 " fill="transparent" id="PizzaCard-to-Pizza" style="stroke:#181818;stroke-width:1;"/><polygon fill="#181818" points="273.66,317.66,280.5173,310.5906,275.3836,312.9665,273.0077,307.8328,273.66,317.66" style="stroke:#181818;stroke-width:1;"/><text fill="#000000" font-family="sans-serif" font-size="13" lengthAdjust="spacing" textLength="83.8241" x="294" y="283.897">mostra dades</text></g><!--link PizzaCard to HTMLElement--><g id="link_PizzaCard_HTMLElement"><path codeLine="29" d="M364.68,239.24 C371.09,248.66 377.27,258.87 382,269 C401.61,311.03 409.6054,346.7775 414.6254,376.7375 " fill="transparent" id="PizzaCard-to-HTMLElement" style="stroke:#181818;stroke-width:1;"/><polygon fill="transparent" points="417.6,394.49,420.543,375.746,408.7079,377.729,417.6,394.49" style="stroke:#181818;stroke-width:1;"/><text fill="#000000" font-family="sans-serif" font-size="13" lengthAdjust="spacing" textLength="40.053" x="389" y="283.897">hereta</text></g><!--link Main to GMN11--><g id="link_Main_GMN11"><path d="M406.25,74.03 C423.79,82.83 442.01,92.99 458,104 C487.64,124.4 517.32,153.46 536.12,173.21 " fill="transparent" id="Main-GMN11" style="stroke:#181818;stroke-width:1;stroke-dasharray:7.0,7.0;"/></g><!--SRC=[NL9BQWCn3Dtx55esXEG0Gmc44cYXWK2w2raejZfLyMUmdIpIzYwzGu-GYrMUJYUPySxl8prBrXPJWWsVpmWV2kJCW4q5_kWE53l01rT1of5ztI66aXv19wefOsJqMC4X14leEmejnPfy-dVizXtHH3gEUh6h1uMdaCEslTvDUk9BANqDlgLuOarT_Yb8ZgMrXQ9KJ9iO72UwRyMx_M9aVy1eUczJaEgFwA18tb0iXKw1pTMyHlQzZprhHilvZCl6iaRDuTRIYcUpnJ1n1JgoGLXkdaQADbIX2S6mltmxgUd8PtMbUx48NP3HY1HbCmF9vm8UNzRFAql5BSetYh8dfNp897lAEJW8h-rhrCg23ePbB-mrDsZXpWa-VqyJcMhA73ogGHoms8RKVFcHNs5lPZfNCZWeRNu1]--></g></svg>