<svg xmlns="http://www.w3.org/2000/svg" xmlns:xlink="http://www.w3.org/1999/xlink" contentStyleType="text/css" data-diagram-type="SEQUENCE" height="596px" preserveAspectRatio="none" style="width:885px;height:596px;background:#FFFFFF;" version="1.1" viewBox="0 0 885 596" width="885px" zoomAndPan="magnify"><defs/><g><rect fill="transparent" height="204.2361" style="stroke:#000000;stroke-width:1.5;" width="556.3596" x="220.1222" y="259.598"/><g><title>Usuari</title><rect fill="transparent" height="428.4722" width="8" x="25.4199" y="84.0679"/><line style="stroke:#181818;stroke-width:0.5;stroke-dasharray:5.0,5.0;" x1="29" x2="29" y1="84.0679" y2="512.5401"/></g><g><title>Sistema</title><rect fill="transparent" height="428.4722" width="8" x="259.0711" y="84.0679"/><line style="stroke:#181818;stroke-width:0.5;stroke-dasharray:5.0,5.0;" x1="262.1222" x2="262.1222" y1="84.0679" y2="512.5401"/></g><g><title>PizzaService</title><rect fill="transparent" height="428.4722" width="8" x="419.8962" y="84.0679"/><line style="stroke:#181818;stroke-width:0.5;stroke-dasharray:5.0,5.0;" x1="422.9964" x2="422.9964" y1="84.0679" y2="512.5401"/></g><g><title>PizzaCard</title><rect fill="transparent" height="428.4722" width="8" x="515.8909" y="84.0679"/><line style="stroke:#181818;stroke-width:0.5;stroke-dasharray:5.0,5.0;" x1="519.796" x2="519.796" y1="84.0679" y2="512.5401"/></g><g><title>PizzaLlistaAlergens</title><rect fill="transparent" height="428.4722" width="8" x="692.797" y="84.0679"/><line style="stroke:#181818;stroke-width:0.5;stroke-dasharray:5.0,5.0;" x1="696.1123" x2="696.1123" y1="84.0679" y2="512.5401"/></g><g><title>Servidor (API)</title><rect fill="transparent" height="428.4722" width="8" x="824.0576" y="84.0679"/><line style="stroke:#181818;stroke-width:0.5;stroke-dasharray:5.0,5.0;" x1="827.4818" x2="827.4818" y1="84.0679" y2="512.5401"/></g><text fill="#000000" font-family="sans-serif" font-size="14" lengthAdjust="spacing" textLength="42.8398" x="5" y="79.9659">Usuari</text><ellipse cx="29.4199" cy="13.5" fill="#E2E2F0" rx="8" ry="8" style="stroke:#181818;stroke-width:0.5;"/><path d="M29.4199,21.5 L29.4199,48.5 M16.4199,29.5 L42.4199,29.5 M29.4199,48.5 L16.4199,63.5 M29.4199,48.5 L42.4199,63.5 " fill="transparent" style="stroke:#181818;stroke-width:0.5;"/><text fill="#000000" font-family="sans-serif" font-size="14" lengthAdjust="spacing" textLength="42.8398" x="5" y="526.5061">Usuari</text><ellipse cx="29.4199" cy="539.108" fill="#E2E2F0" rx="8" ry="8" style="stroke:#181818;stroke-width:0.5;"/><path d="M29.4199,547.108 L29.4199,574.108 M16.4199,555.108 L42.4199,555.108 M29.4199,574.108 L16.4199,589.108 M29.4199,574.108 L42.4199,589.108 " fill="transparent" style="stroke:#181818;stroke-width:0.5;"/><rect fill="#E2E2F0" height="33.0679" rx="2.5" ry="2.5" style="stroke:#181818;stroke-width:0.5;" width="65.8978" x="230.1222" y="50"/><text fill="#000000" font-family="sans-serif" font-size="14" lengthAdjust="spacing" textLength="51.8978" x="237.1222" y="71.9659">Sistema</text><rect fill="#E2E2F0" height="33.0679" rx="2.5" ry="2.5" style="stroke:#181818;stroke-width:0.5;" width="65.8978" x="230.1222" y="511.5401"/><text fill="#000000" font-family="sans-serif" font-size="14" lengthAdjust="spacing" textLength="51.8978" x="237.1222" y="533.5061">Sistema</text><rect fill="#E2E2F0" height="33.0679" rx="2.5" ry="2.5" style="stroke:#181818;stroke-width:0.5;" width="93.7997" x="376.9964" y="50"/><text fill="#000000" font-family="sans-serif" font-size="14" lengthAdjust="spacing" textLength="79.7997" x="383.9964" y="71.9659">PizzaService</text><rect fill="#E2E2F0" height="33.0679" rx="2.5" ry="2.5" style="stroke:#181818;stroke-width:0.5;" width="93.7997" x="376.9964" y="511.5401"/><text fill="#000000" font-family="sans-serif" font-size="14" lengthAdjust="spacing" textLength="79.7997" x="383.9964" y="533.5061">PizzaService</text><rect fill="#E2E2F0" height="33.0679" rx="2.5" ry="2.5" style="stroke:#181818;stroke-width:0.5;" width="78.1898" x="480.796" y="50"/><text fill="#000000" font-family="sans-serif" font-size="14" lengthAdjust="spacing" textLength="64.1898" x="487.796" y="71.9659">PizzaCard</text><rect fill="#E2E2F0" height="33.0679" rx="2.5" ry="2.5" style="stroke:#181818;stroke-width:0.5;" width="78.1898" x="480.796" y="511.5401"/><text fill="#000000" font-family="sans-serif" font-size="14" lengthAdjust="spacing" textLength="64.1898" x="487.796" y="533.5061">PizzaCard</text><rect fill="#E2E2F0" height="33.0679" rx="2.5" ry="2.5" style="stroke:#181818;stroke-width:0.5;" width="139.3695" x="627.1123" y="50"/><text fill="#000000" font-family="sans-serif" font-size="14" lengthAdjust="spacing" textLength="125.3695" x="634.1123" y="71.9659">PizzaLlistaAlergens</text><rect fill="#E2E2F0" height="33.0679" rx="2.5" ry="2.5" style="stroke:#181818;stroke-width:0.5;" width="139.3695" x="627.1123" y="511.5401"/><text fill="#000000" font-family="sans-serif" font-size="14" lengthAdjust="spacing" textLength="125.3695" x="634.1123" y="533.5061">PizzaLlistaAlergens</text><rect fill="#E2E2F0" height="33.0679" rx="2.5" ry="2.5" style="stroke:#181818;stroke-width:0.5;" width="103.1517" x="776.4818" y="50"/><text fill="#000000" font-family="sans-serif" font-size="14" lengthAdjust="spacing" textLength="89.1517" x="783.4818" y="71.9659">Servidor (API)</text><rect fill="#E2E2F0" height="33.0679" rx="2.5" ry="2.5" style="stroke:#181818;stroke-width:0.5;" width="103.1517" x="776.4818" y="511.5401"/><text fill="#000000" font-family="sans-serif" font-size="14" lengthAdjust="spacing" textLength="89.1517" x="783.4818" y="533.5061">Servidor (API)</text><polygon fill="#181818" points="251.0711,113.7739,261.0711,117.7739,251.0711,121.7739,255.0711,117.7739" style="stroke:#181818;stroke-width:1;"/><line style="stroke:#181818;stroke-width:1;" x1="29.4199" x2="257.0711" y1="117.7739" y2="117.7739"/><text fill="#000000" font-family="sans-serif" font-size="13" lengthAdjust="spacing" textLength="209.6512" x="36.4199" y="111.9649">Accedeix al sistema (DOM Loaded)</text><polygon fill="#181818" points="411.8962,145.4799,421.8962,149.4799,411.8962,153.4799,415.8962,149.4799" style="stroke:#181818;stroke-width:1;"/><line style="stroke:#181818;stroke-width:1;" x1="263.0711" x2="417.8962" y1="149.4799" y2="149.4799"/><text fill="#000000" font-family="sans-serif" font-size="13" lengthAdjust="spacing" textLength="79.8331" x="270.0711" y="143.6709">getAllPizzes()</text><polygon fill="#181818" points="816.0576,177.186,826.0576,181.186,816.0576,185.186,820.0576,181.186" style="stroke:#181818;stroke-width:1;"/><line style="stroke:#181818;stroke-width:1;" x1="423.8962" x2="822.0576" y1="181.186" y2="181.186"/><text fill="#000000" font-family="sans-serif" font-size="13" lengthAdjust="spacing" textLength="144.4951" x="430.8962" y="175.377">GET /api/pizzeria/pizzes</text><line style="stroke:#181818;stroke-width:1;" x1="424.8962" x2="434.8962" y1="212.892" y2="208.892"/><line style="stroke:#181818;stroke-width:1;" x1="424.8962" x2="434.8962" y1="212.892" y2="216.892"/><line style="stroke:#181818;stroke-width:1;stroke-dasharray:2.0,2.0;" x1="423.8962" x2="827.0576" y1="212.892" y2="212.892"/><text fill="#000000" font-family="sans-serif" font-size="13" lengthAdjust="spacing" textLength="218.4912" x="440.8962" y="207.083">Retorna JSON amb la llista de pizzes</text><line style="stroke:#181818;stroke-width:1;" x1="264.0711" x2="274.0711" y1="244.598" y2="240.598"/><line style="stroke:#181818;stroke-width:1;" x1="264.0711" x2="274.0711" y1="244.598" y2="248.598"/><line style="stroke:#181818;stroke-width:1;stroke-dasharray:2.0,2.0;" x1="263.0711" x2="422.8962" y1="244.598" y2="244.598"/><text fill="#000000" font-family="sans-serif" font-size="13" lengthAdjust="spacing" textLength="136.8251" x="280.0711" y="238.789">Retorna array de Pizza</text><path d="M220.1222,259.598 L293.4102,259.598 L293.4102,269.304 L283.4102,279.304 L220.1222,279.304 L220.1222,259.598 " fill="#EEEEEE" style="stroke:#000000;stroke-width:1.5;"/><rect fill="transparent" height="204.2361" style="stroke:#000000;stroke-width:1.5;" width="556.3596" x="220.1222" y="259.598"/><text fill="#000000" font-family="sans-serif" font-size="13" font-weight="bold" lengthAdjust="spacing" textLength="28.288" x="235.1222" y="274.495">loop</text><text fill="#000000" font-family="sans-serif" font-size="11" font-weight="bold" lengthAdjust="spacing" textLength="85.0074" x="308.4102" y="273.3569">[Per cada pizza]</text><polygon fill="#181818" points="507.8909,299.01,517.8909,303.01,507.8909,307.01,511.8909,303.01" style="stroke:#181818;stroke-width:1;"/><line style="stroke:#181818;stroke-width:1;" x1="263.0711" x2="513.8909" y1="303.01" y2="303.01"/><text fill="#000000" font-family="sans-serif" font-size="13" lengthAdjust="spacing" textLength="163.9821" x="270.0711" y="297.201">createElement('pizza-card')</text><line style="stroke:#181818;stroke-width:1;" x1="519.8909" x2="561.8909" y1="334.716" y2="334.716"/><line style="stroke:#181818;stroke-width:1;" x1="561.8909" x2="561.8909" y1="334.716" y2="347.716"/><line style="stroke:#181818;stroke-width:1;" x1="520.8909" x2="561.8909" y1="347.716" y2="347.716"/><polygon fill="#181818" points="530.8909,343.716,520.8909,347.716,530.8909,351.716,526.8909,347.716" style="stroke:#181818;stroke-width:1;"/><text fill="#000000" font-family="sans-serif" font-size="13" lengthAdjust="spacing" textLength="80.0931" x="526.8909" y="328.907">render(pizza)</text><polygon fill="#181818" points="684.797,375.4221,694.797,379.4221,684.797,383.4221,688.797,379.4221" style="stroke:#181818;stroke-width:1;"/><line style="stroke:#181818;stroke-width:1;" x1="519.8909" x2="690.797" y1="379.4221" y2="379.4221"/><text fill="#000000" font-family="sans-serif" font-size="13" lengthAdjust="spacing" textLength="102.1671" x="526.8909" y="373.6131">render(alergens)</text><line style="stroke:#181818;stroke-width:1;" x1="520.8909" x2="530.8909" y1="411.1281" y2="407.1281"/><line style="stroke:#181818;stroke-width:1;" x1="520.8909" x2="530.8909" y1="411.1281" y2="415.1281"/><line style="stroke:#181818;stroke-width:1;stroke-dasharray:2.0,2.0;" x1="519.8909" x2="695.797" y1="411.1281" y2="411.1281"/><text fill="#000000" font-family="sans-serif" font-size="13" lengthAdjust="spacing" textLength="152.9061" x="536.8909" y="405.3191">Mostra icones d'al&#232;rgens</text><line style="stroke:#181818;stroke-width:1;" x1="263.0711" x2="305.0711" y1="442.8341" y2="442.8341"/><line style="stroke:#181818;stroke-width:1;" x1="305.0711" x2="305.0711" y1="442.8341" y2="455.8341"/><line style="stroke:#181818;stroke-width:1;" x1="264.0711" x2="305.0711" y1="455.8341" y2="455.8341"/><polygon fill="#181818" points="274.0711,451.8341,264.0711,455.8341,274.0711,459.8341,270.0711,455.8341" style="stroke:#181818;stroke-width:1;"/><text fill="#000000" font-family="sans-serif" font-size="13" lengthAdjust="spacing" textLength="112.2941" x="270.0711" y="437.0251">appendChild(card)</text><line style="stroke:#181818;stroke-width:1;" x1="30.4199" x2="40.4199" y1="494.5401" y2="490.5401"/><line style="stroke:#181818;stroke-width:1;" x1="30.4199" x2="40.4199" y1="494.5401" y2="498.5401"/><line style="stroke:#181818;stroke-width:1;stroke-dasharray:2.0,2.0;" x1="29.4199" x2="262.0711" y1="494.5401" y2="494.5401"/><text fill="#000000" font-family="sans-serif" font-size="13" lengthAdjust="spacing" textLength="148.1351" x="46.4199" y="488.7311">Mostra la llista de pizzes</text><!--SRC=[RP71Ri8m38RlUGgB2-sXuiu1gM9esWG3ZUq1lCHYaT8qIiAqyKHxZxtO4ZS5Dj6JKt_-_Tj66NiFazTmHAydW06EWRnmwAEMsg6DCDdh4Ab3pdQexT_iJfzEk2V_eIKn4eRu1hL4hnYHARYHNvlK2Lj3_a0sC8dbySzHRg6IyQhTFTJdhicuoFQXMR1Hc4Ch9IdIdqa8mZ07L7VR3QnxLAHgmLpYY-jKSg3O6fCDKQXgCIOAazJdSBzwWHawFNEPyXg788X2DCtYMl6Pqf8jmkD- -mJOlO51C3mhA8AhKkwJQulxiH2znw_Cyfg4C7tlO9SQILJ80YWWVUCmUR-fN7h2I2j37TbOJPbhScvQCyxO1VTa5VcAiR_0U8KBDFuPk7EUpHUvJH-YHz2ojnH0JT7yV0-tlBPQ9aNdal3oNHjLvVfQfASerycYVDUpw8q5_W80]--></g></svg>