<svg xmlns="http://www.w3.org/2000/svg" xmlns:xlink="http://www.w3.org/1999/xlink" contentStyleType="text/css" data-diagram-type="DESCRIPTION" height="201px" preserveAspectRatio="none" style="width:886px;height:201px;background:#FFFFFF;" version="1.1" viewBox="0 0 886 201" width="886px" zoomAndPan="magnify"><defs/><g><!--entity Usuari--><g id="elem_Usuari"><ellipse cx="194.4199" cy="14" fill="#F1F1F1" rx="8" ry="8" style="stroke:#181818;stroke-width:0.5;"/><path d="M194.4199,22 L194.4199,49 M181.4199,30 L207.4199,30 M194.4199,49 L181.4199,64 M194.4199,49 L207.4199,64 " fill="transparent" style="stroke:#181818;stroke-width:0.5;"/><text fill="#000000" font-family="sans-serif" font-size="14" lengthAdjust="spacing" textLength="42.8398" x="173" y="80.4659">Usuari</text></g><!--entity Admin--><g id="elem_Admin"><ellipse cx="694.4549" cy="14" fill="#F1F1F1" rx="8" ry="8" style="stroke:#181818;stroke-width:0.5;"/><path d="M694.4549,22 L694.4549,49 M681.4549,30 L707.4549,30 M694.4549,49 L681.4549,64 M694.4549,49 L707.4549,64 " fill="transparent" style="stroke:#181818;stroke-width:0.5;"/><text fill="#000000" font-family="sans-serif" font-size="14" lengthAdjust="spacing" textLength="42.9098" x="673" y="80.4659">Admin</text></g><g id="elem_U1"><ellipse cx="365.6174" cy="170.4235" fill="#F1F1F1" rx="112.6174" ry="24.9235" style="stroke:#181818;stroke-width:0.5;"/><text fill="#000000" font-family="sans-serif" font-size="14" lengthAdjust="spacing" textLength="184.5893" x="270.3227" y="175.1564">Consultar pistes disponibles</text></g><g id="elem_U2"><ellipse cx="82.455" cy="170.691" fill="#F1F1F1" rx="76.455" ry="17.691" style="stroke:#181818;stroke-width:0.5;"/><text fill="#000000" font-family="sans-serif" font-size="14" lengthAdjust="spacing" textLength="93.2117" x="32.8492" y="175.424">Reservar pista</text></g><g id="elem_U3"><ellipse cx="594.5748" cy="170.615" fill="#F1F1F1" rx="81.0748" ry="18.615" style="stroke:#181818;stroke-width:0.5;"/><text fill="#000000" font-family="sans-serif" font-size="14" lengthAdjust="spacing" textLength="106.4416" x="538.354" y="175.3479">Gestionar pistes</text></g><g id="elem_U4"><ellipse cx="795.517" cy="170.3034" fill="#F1F1F1" rx="84.517" ry="19.3034" style="stroke:#181818;stroke-width:0.5;"/><text fill="#000000" font-family="sans-serif" font-size="14" lengthAdjust="spacing" textLength="115.8216" x="734.6063" y="175.0364">Gestionar usuaris</text></g><!--link Usuari to U1--><g id="link_Usuari_U1"><path d="M216.16,61.64 C245.81,83.06 294.4152,118.168 328.6852,142.908 " fill="transparent" id="Usuari-to-U1" style="stroke:#181818;stroke-width:1;"/><polygon fill="#181818" points="333.55,146.42,328.5941,137.9089,329.496,143.4934,323.9115,144.3953,333.55,146.42" style="stroke:#181818;stroke-width:1;"/></g><!--link Usuari to U2--><g id="link_Usuari_U2"><path d="M172.91,69.81 C150.66,94.34 120.6113,127.476 101.2713,148.796 " fill="transparent" id="Usuari-to-U2" style="stroke:#181818;stroke-width:1;"/><polygon fill="#181818" points="97.24,153.24,106.2495,149.2615,100.5994,149.5367,100.3242,143.8865,97.24,153.24" style="stroke:#181818;stroke-width:1;"/></g><!--link Admin to U3--><g id="link_Admin_U3"><path d="M672.8,72.8 C653.27,96.92 628.926,126.9872 612.236,147.5972 " fill="transparent" id="Admin-to-U3" style="stroke:#181818;stroke-width:1;"/><polygon fill="#181818" points="608.46,152.26,617.2325,147.7831,611.6066,148.3743,611.0154,142.7484,608.46,152.26" style="stroke:#181818;stroke-width:1;"/></g><!--link Admin to U4--><g id="link_Admin_U4"><path d="M716.17,72.49 C735.53,96.17 759.5923,125.5849 776.6223,146.4149 " fill="transparent" id="Admin-to-U4" style="stroke:#181818;stroke-width:1;"/><polygon fill="#181818" points="780.42,151.06,777.8202,141.5605,777.2552,147.1891,771.6267,146.6241,780.42,151.06" style="stroke:#181818;stroke-width:1;"/></g><!--link U2 to U1--><g id="link_U2_U1"><path d="M159.08,170.5 C187.98,170.5 215.48,170.5 246.98,170.5 " fill="transparent" id="U2-to-U1" style="stroke:#181818;stroke-width:1;stroke-dasharray:7.0,7.0;"/><polygon fill="#181818" points="252.98,170.5,243.98,166.5,247.98,170.5,243.98,174.5,252.98,170.5" style="stroke:#181818;stroke-width:1;"/><text fill="#000000" font-family="sans-serif" font-size="13" lengthAdjust="spacing" textLength="57.5771" x="177.5" y="163.397">&#171;include&#187;</text></g><!--SRC=[ROun2iCm34Ltdq9aJw5Efn8CfKFtGWwWsXe4hXqik-SljaEJeUFZlozzj3acMAHWOeKDRkxDGQaYP548XdiCKdp612jB9W77iiR0Bqyo00eivrr-ab3wR2xsME_nWoHp3BzRNPZ-2QLjseoBKdqZZAEf3u-aLPlSOJf2hMaurGPSOPuvM5yS6VC5]--></g></svg>