<svg xmlns="http://www.w3.org/2000/svg" xmlns:xlink="http://www.w3.org/1999/xlink" contentStyleType="text/css" data-diagram-type="SEQUENCE" height="441px" preserveAspectRatio="none" style="width:427px;height:441px;background:#FFFFFF;" version="1.1" viewBox="0 0 427 441" width="427px" zoomAndPan="magnify"><defs/><g><g><title>Usuari</title><rect fill="transparent" height="273.6481" width="8" x="25.4199" y="84.0679"/><line style="stroke:#181818;stroke-width:0.5;stroke-dasharray:5.0,5.0;" x1="29" x2="29" y1="84.0679" y2="357.716"/></g><g><title>Sistema</title><rect fill="transparent" height="273.6481" width="8" x="204.9781" y="84.0679"/><line style="stroke:#181818;stroke-width:0.5;stroke-dasharray:5.0,5.0;" x1="208.0292" x2="208.0292" y1="84.0679" y2="357.716"/></g><g><title>BaseDeDades</title><rect fill="transparent" height="273.6481" width="8" x="365.4782" y="84.0679"/><line style="stroke:#181818;stroke-width:0.5;stroke-dasharray:5.0,5.0;" x1="368.9994" x2="368.9994" y1="84.0679" y2="357.716"/></g><text fill="#000000" font-family="sans-serif" font-size="14" lengthAdjust="spacing" textLength="42.8398" x="5" y="79.9659">Usuari</text><ellipse cx="29.4199" cy="13.5" fill="#E2E2F0" rx="8" ry="8" style="stroke:#181818;stroke-width:0.5;"/><path d="M29.4199,21.5 L29.4199,48.5 M16.4199,29.5 L42.4199,29.5 M29.4199,48.5 L16.4199,63.5 M29.4199,48.5 L42.4199,63.5 " fill="transparent" style="stroke:#181818;stroke-width:0.5;"/><text fill="#000000" font-family="sans-serif" font-size="14" lengthAdjust="spacing" textLength="42.8398" x="5" y="371.682">Usuari</text><ellipse cx="29.4199" cy="384.284" fill="#E2E2F0" rx="8" ry="8" style="stroke:#181818;stroke-width:0.5;"/><path d="M29.4199,392.284 L29.4199,419.284 M16.4199,400.284 L42.4199,400.284 M29.4199,419.284 L16.4199,434.284 M29.4199,419.284 L42.4199,434.284 " fill="transparent" style="stroke:#181818;stroke-width:0.5;"/><rect fill="#E2E2F0" height="33.0679" rx="2.5" ry="2.5" style="stroke:#181818;stroke-width:0.5;" width="65.8978" x="176.0292" y="50"/><text fill="#000000" font-family="sans-serif" font-size="14" lengthAdjust="spacing" textLength="51.8978" x="183.0292" y="71.9659">Sistema</text><rect fill="#E2E2F0" height="33.0679" rx="2.5" ry="2.5" style="stroke:#181818;stroke-width:0.5;" width="65.8978" x="176.0292" y="356.716"/><text fill="#000000" font-family="sans-serif" font-size="14" lengthAdjust="spacing" textLength="51.8978" x="183.0292" y="378.682">Sistema</text><rect fill="#E2E2F0" height="33.0679" rx="2.5" ry="2.5" style="stroke:#181818;stroke-width:0.5;" width="104.9576" x="316.9994" y="50"/><text fill="#000000" font-family="sans-serif" font-size="14" lengthAdjust="spacing" textLength="90.9576" x="323.9994" y="71.9659">BaseDeDades</text><rect fill="#E2E2F0" height="33.0679" rx="2.5" ry="2.5" style="stroke:#181818;stroke-width:0.5;" width="104.9576" x="316.9994" y="356.716"/><text fill="#000000" font-family="sans-serif" font-size="14" lengthAdjust="spacing" textLength="90.9576" x="323.9994" y="378.682">BaseDeDades</text><polygon fill="#181818" points="196.9781,113.7739,206.9781,117.7739,196.9781,121.7739,200.9781,117.7739" style="stroke:#181818;stroke-width:1;"/><line style="stroke:#181818;stroke-width:1;" x1="29.4199" x2="202.9781" y1="117.7739" y2="117.7739"/><text fill="#000000" font-family="sans-serif" font-size="13" lengthAdjust="spacing" textLength="98.2931" x="36.4199" y="111.9649">Consultar pistes</text><polygon fill="#181818" points="357.4782,145.4799,367.4782,149.4799,357.4782,153.4799,361.4782,149.4799" style="stroke:#181818;stroke-width:1;"/><line style="stroke:#181818;stroke-width:1;" x1="208.9781" x2="363.4782" y1="149.4799" y2="149.4799"/><text fill="#000000" font-family="sans-serif" font-size="13" lengthAdjust="spacing" textLength="136.5001" x="215.9781" y="143.6709">Obtenir llista de pistes</text><line style="stroke:#181818;stroke-width:1;" x1="209.9781" x2="219.9781" y1="181.186" y2="177.186"/><line style="stroke:#181818;stroke-width:1;" x1="209.9781" x2="219.9781" y1="181.186" y2="185.186"/><line style="stroke:#181818;stroke-width:1;stroke-dasharray:2.0,2.0;" x1="208.9781" x2="368.4782" y1="181.186" y2="181.186"/><text fill="#000000" font-family="sans-serif" font-size="13" lengthAdjust="spacing" textLength="87.8801" x="225.9781" y="175.377">Retorna pistes</text><line style="stroke:#181818;stroke-width:1;" x1="30.4199" x2="40.4199" y1="212.892" y2="208.892"/><line style="stroke:#181818;stroke-width:1;" x1="30.4199" x2="40.4199" y1="212.892" y2="216.892"/><line style="stroke:#181818;stroke-width:1;stroke-dasharray:2.0,2.0;" x1="29.4199" x2="207.9781" y1="212.892" y2="212.892"/><text fill="#000000" font-family="sans-serif" font-size="13" lengthAdjust="spacing" textLength="155.5582" x="46.4199" y="207.083">Mostra pistes disponibles</text><polygon fill="#181818" points="196.9781,240.598,206.9781,244.598,196.9781,248.598,200.9781,244.598" style="stroke:#181818;stroke-width:1;"/><line style="stroke:#181818;stroke-width:1;" x1="29.4199" x2="202.9781" y1="244.598" y2="244.598"/><text fill="#000000" font-family="sans-serif" font-size="13" lengthAdjust="spacing" textLength="86.5541" x="36.4199" y="238.789">Reservar pista</text><polygon fill="#181818" points="357.4782,272.304,367.4782,276.304,357.4782,280.304,361.4782,276.304" style="stroke:#181818;stroke-width:1;"/><line style="stroke:#181818;stroke-width:1;" x1="208.9781" x2="363.4782" y1="276.304" y2="276.304"/><text fill="#000000" font-family="sans-serif" font-size="13" lengthAdjust="spacing" textLength="99.7231" x="215.9781" y="270.495">Guardar reserva</text><line style="stroke:#181818;stroke-width:1;" x1="209.9781" x2="219.9781" y1="308.01" y2="304.01"/><line style="stroke:#181818;stroke-width:1;" x1="209.9781" x2="219.9781" y1="308.01" y2="312.01"/><line style="stroke:#181818;stroke-width:1;stroke-dasharray:2.0,2.0;" x1="208.9781" x2="368.4782" y1="308.01" y2="308.01"/><text fill="#000000" font-family="sans-serif" font-size="13" lengthAdjust="spacing" textLength="74.2171" x="225.9781" y="302.201">Confirmaci&#243;</text><line style="stroke:#181818;stroke-width:1;" x1="30.4199" x2="40.4199" y1="339.716" y2="335.716"/><line style="stroke:#181818;stroke-width:1;" x1="30.4199" x2="40.4199" y1="339.716" y2="343.716"/><line style="stroke:#181818;stroke-width:1;stroke-dasharray:2.0,2.0;" x1="29.4199" x2="207.9781" y1="339.716" y2="339.716"/><text fill="#000000" font-family="sans-serif" font-size="13" lengthAdjust="spacing" textLength="121.6931" x="46.4199" y="333.907">Reserva confirmada</text><!--SRC=[VP312SCm34Nlda8BP84SScW3FPL2IWTGR1K4YMqajujrX2vMXzYGKjAhzFxNGsXJ4BZf0uLDH4biEQ9FS6LDDEFNx81AFVNeI8rPCz1q5OKMZi7hOqee49UPchhAr2QSoSkOoBF0D6K2mL5DRB6cwRRj0sLNZp_T2rLiMZW7JL8PSAmnU1wdFUE1bEHPX77VzvIZBcEoylyqynFkB3DQVhzs9CjLi0Lr-040]--></g></svg>