<svg xmlns="http://www.w3.org/2000/svg" xmlns:xlink="http://www.w3.org/1999/xlink" contentStyleType="text/css" data-diagram-type="DESCRIPTION" height="219px" preserveAspectRatio="none" style="width:1289px;height:219px;background:#FFFFFF;" version="1.1" viewBox="0 0 1289 219" width="1289px" zoomAndPan="magnify"><defs/><g><!--entity Usuari--><g id="elem_Usuari"><ellipse cx="164.4199" cy="14" fill="#F1F1F1" rx="8" ry="8" style="stroke:#181818;stroke-width:0.5;"/><path d="M164.4199,22 L164.4199,49 M151.4199,30 L177.4199,30 M164.4199,49 L151.4199,64 M164.4199,49 L177.4199,64 " fill="transparent" style="stroke:#181818;stroke-width:0.5;"/><text fill="#000000" font-family="sans-serif" font-size="14" lengthAdjust="spacing" textLength="42.8398" x="143" y="80.4659">Usuari</text></g><!--entity Admin--><g id="elem_Admin"><ellipse cx="991.4549" cy="14" fill="#F1F1F1" rx="8" ry="8" style="stroke:#181818;stroke-width:0.5;"/><path d="M991.4549,22 L991.4549,49 M978.4549,30 L1004.4549,30 M991.4549,49 L978.4549,64 M991.4549,49 L1004.4549,64 " fill="transparent" style="stroke:#181818;stroke-width:0.5;"/><text fill="#000000" font-family="sans-serif" font-size="14" lengthAdjust="spacing" textLength="42.9098" x="970" y="80.4659">Admin</text></g><g id="elem_U1"><ellipse cx="561.6174" cy="188.4235" fill="#F1F1F1" rx="112.6174" ry="24.9235" style="stroke:#181818;stroke-width:0.5;"/><text fill="#000000" font-family="sans-serif" font-size="14" lengthAdjust="spacing" textLength="184.5893" x="466.3227" y="193.1564">Consultar pistes disponibles</text></g><g id="elem_U2"><ellipse cx="82.455" cy="188.691" fill="#F1F1F1" rx="76.455" ry="17.691" style="stroke:#181818;stroke-width:0.5;"/><text fill="#000000" font-family="sans-serif" font-size="14" lengthAdjust="spacing" textLength="93.2117" x="32.8492" y="193.424">Reservar pista</text></g><g id="elem_U3"><ellipse cx="790.5748" cy="188.615" fill="#F1F1F1" rx="81.0748" ry="18.615" style="stroke:#181818;stroke-width:0.5;"/><text fill="#000000" font-family="sans-serif" font-size="14" lengthAdjust="spacing" textLength="106.4416" x="734.354" y="193.3479">Gestionar pistes</text></g><g id="elem_U4"><ellipse cx="991.517" cy="188.3034" fill="#F1F1F1" rx="84.517" ry="19.3034" style="stroke:#181818;stroke-width:0.5;"/><text fill="#000000" font-family="sans-serif" font-size="14" lengthAdjust="spacing" textLength="115.8216" x="930.6063" y="193.0364">Gestionar usuaris</text></g><g id="elem_U5"><ellipse cx="333.3522" cy="188.4704" fill="#F1F1F1" rx="80.3522" ry="18.4704" style="stroke:#181818;stroke-width:0.5;"/><text fill="#000000" font-family="sans-serif" font-size="14" lengthAdjust="spacing" textLength="104.4256" x="278.1394" y="193.2034">Generar factura</text></g><g id="elem_U6"><ellipse cx="1197.3742" cy="188.6748" fill="#F1F1F1" rx="86.3742" ry="19.6748" style="stroke:#181818;stroke-width:0.5;"/><text fill="#000000" font-family="sans-serif" font-size="14" lengthAdjust="spacing" textLength="120.7495" x="1133.9995" y="193.4078">Consultar factures</text></g><!--link Usuari to U1--><g id="link_Usuari_U1"><path d="M186.23,60.9 C215.49,80.31 269.75,114.06 320.5,133.5 C349.08,144.45 414.8371,158.8004 472.6371,170.3904 " fill="transparent" id="Usuari-to-U1" style="stroke:#181818;stroke-width:1;"/><polygon fill="#181818" points="478.52,171.57,470.4821,165.8786,473.6176,170.587,468.9092,173.7225,478.52,171.57" style="stroke:#181818;stroke-width:1;"/></g><!--link Usuari to U2--><g id="link_Usuari_U2"><path d="M142.96,83.18 C126.44,111.67 107.4592,144.4392 95.0592,165.8292 " fill="transparent" id="Usuari-to-U2" style="stroke:#181818;stroke-width:1;"/><polygon fill="#181818" points="92.05,171.02,100.0243,165.2399,94.5577,166.6943,93.1032,161.2276,92.05,171.02" style="stroke:#181818;stroke-width:1;"/></g><!--link Admin to U3--><g id="link_Admin_U3"><path d="M969.99,61.14 C932.11,87.81 858.7066,139.4866 819.2366,167.2666 " fill="transparent" id="Admin-to-U3" style="stroke:#181818;stroke-width:1;"/><polygon fill="#181818" points="814.33,170.72,823.9921,168.811,818.4188,167.8422,819.3876,162.2689,814.33,170.72" style="stroke:#181818;stroke-width:1;"/></g><!--link Admin to U4--><g id="link_Admin_U4"><path d="M991.5,84.67 C991.5,112 991.5,141.43 991.5,162.76 " fill="transparent" id="Admin-to-U4" style="stroke:#181818;stroke-width:1;"/><polygon fill="#181818" points="991.5,168.76,995.5,159.76,991.5,163.76,987.5,159.76,991.5,168.76" style="stroke:#181818;stroke-width:1;"/></g><!--link Admin to U6--><g id="link_Admin_U6"><path d="M1013.16,60.88 C1051.38,87.13 1125.684,138.1734 1166.704,166.3434 " fill="transparent" id="Admin-to-U6" style="stroke:#181818;stroke-width:1;"/><polygon fill="#181818" points="1171.65,169.74,1166.4954,161.3477,1167.5283,166.9095,1161.9666,167.9424,1171.65,169.74" style="stroke:#181818;stroke-width:1;"/></g><!--link U2 to U1--><g id="link_U2_U1"><path d="M116.28,172.79 C172.47,148.6 288.78,106.78 388,124.5 C432.09,132.37 474.1578,148.2544 508.3078,163.2744 " fill="transparent" id="U2-to-U1" style="stroke:#181818;stroke-width:1;stroke-dasharray:7.0,7.0;"/><polygon fill="#181818" points="513.8,165.69,507.172,158.4051,509.2231,163.677,503.9512,165.7281,513.8,165.69" style="stroke:#181818;stroke-width:1;"/><text fill="#000000" font-family="sans-serif" font-size="13" lengthAdjust="spacing" textLength="57.5771" x="330" y="129.397">&#171;include&#187;</text></g><!--link U2 to U5--><g id="link_U2_U5"><path d="M159.17,188.5 C188.87,188.5 216.89,188.5 246.95,188.5 " fill="transparent" id="U2-to-U5" style="stroke:#181818;stroke-width:1;stroke-dasharray:7.0,7.0;"/><polygon fill="#181818" points="252.95,188.5,243.95,184.5,247.95,188.5,243.95,192.5,252.95,188.5" style="stroke:#181818;stroke-width:1;"/><text fill="#000000" font-family="sans-serif" font-size="13" lengthAdjust="spacing" textLength="57.5771" x="177.5" y="181.397">&#171;include&#187;</text></g><!--SRC=[RO_B2eCm44NtynM3UmlrjIWYb2wwB_W1Kvr2m2QIIVhzLQCr1PTdxadc3dNEM6p5arL02rpxjz80NhWZOKnkHeiV75aSbJWMx9MCHgldm98W2RRdNNwmiFsiBeKus-CxYrD6__uAGdua-ANJQXIneTbE-Mjgw-sweZog6unjIGKGpiGqRURECMMmN1qWZw68eO8smzFy6YzOrqftW- -vQRPn-J_-0W00]--></g></svg>