<svg xmlns="http://www.w3.org/2000/svg" xmlns:xlink="http://www.w3.org/1999/xlink" contentStyleType="text/css" data-diagram-type="SEQUENCE" height="441px" preserveAspectRatio="none" style="width:507px;height:441px;background:#FFFFFF;" version="1.1" viewBox="0 0 507 441" width="507px" zoomAndPan="magnify"><defs/><g><g><title>Usuari</title><rect fill="transparent" height="273.6481" width="8" x="25.4199" y="84.0679"/><line style="stroke:#181818;stroke-width:0.5;stroke-dasharray:5.0,5.0;" x1="29" x2="29" y1="84.0679" y2="357.716"/></g><g><title>Sistema</title><rect fill="transparent" height="273.6481" width="8" x="230.8871" y="84.0679"/><line style="stroke:#181818;stroke-width:0.5;stroke-dasharray:5.0,5.0;" x1="233.9381" x2="233.9381" y1="84.0679" y2="357.716"/></g><g><title>BaseDeDades</title><rect fill="transparent" height="273.6481" width="8" x="349.2411" y="84.0679"/><line style="stroke:#181818;stroke-width:0.5;stroke-dasharray:5.0,5.0;" x1="352.7623" x2="352.7623" y1="84.0679" y2="357.716"/></g><g><title>Factura</title><rect fill="transparent" height="273.6481" width="8" x="465.4632" y="84.0679"/><line style="stroke:#181818;stroke-width:0.5;stroke-dasharray:5.0,5.0;" x1="468.8723" x2="468.8723" y1="84.0679" y2="357.716"/></g><text fill="#000000" font-family="sans-serif" font-size="14" lengthAdjust="spacing" textLength="42.8398" x="5" y="79.9659">Usuari</text><ellipse cx="29.4199" cy="13.5" fill="#E2E2F0" rx="8" ry="8" style="stroke:#181818;stroke-width:0.5;"/><path d="M29.4199,21.5 L29.4199,48.5 M16.4199,29.5 L42.4199,29.5 M29.4199,48.5 L16.4199,63.5 M29.4199,48.5 L42.4199,63.5 " fill="transparent" style="stroke:#181818;stroke-width:0.5;"/><text fill="#000000" font-family="sans-serif" font-size="14" lengthAdjust="spacing" textLength="42.8398" x="5" y="371.682">Usuari</text><ellipse cx="29.4199" cy="384.284" fill="#E2E2F0" rx="8" ry="8" style="stroke:#181818;stroke-width:0.5;"/><path d="M29.4199,392.284 L29.4199,419.284 M16.4199,400.284 L42.4199,400.284 M29.4199,419.284 L16.4199,434.284 M29.4199,419.284 L42.4199,434.284 " fill="transparent" style="stroke:#181818;stroke-width:0.5;"/><rect fill="#E2E2F0" height="33.0679" rx="2.5" ry="2.5" style="stroke:#181818;stroke-width:0.5;" width="65.8978" x="201.9381" y="50"/><text fill="#000000" font-family="sans-serif" font-size="14" lengthAdjust="spacing" textLength="51.8978" x="208.9381" y="71.9659">Sistema</text><rect fill="#E2E2F0" height="33.0679" rx="2.5" ry="2.5" style="stroke:#181818;stroke-width:0.5;" width="65.8978" x="201.9381" y="356.716"/><text fill="#000000" font-family="sans-serif" font-size="14" lengthAdjust="spacing" textLength="51.8978" x="208.9381" y="378.682">Sistema</text><rect fill="#E2E2F0" height="33.0679" rx="2.5" ry="2.5" style="stroke:#181818;stroke-width:0.5;" width="104.9576" x="300.7623" y="50"/><text fill="#000000" font-family="sans-serif" font-size="14" lengthAdjust="spacing" textLength="90.9576" x="307.7623" y="71.9659">BaseDeDades</text><rect fill="#E2E2F0" height="33.0679" rx="2.5" ry="2.5" style="stroke:#181818;stroke-width:0.5;" width="104.9576" x="300.7623" y="356.716"/><text fill="#000000" font-family="sans-serif" font-size="14" lengthAdjust="spacing" textLength="90.9576" x="307.7623" y="378.682">BaseDeDades</text><rect fill="#E2E2F0" height="33.0679" rx="2.5" ry="2.5" style="stroke:#181818;stroke-width:0.5;" width="63.1818" x="437.8723" y="50"/><text fill="#000000" font-family="sans-serif" font-size="14" lengthAdjust="spacing" textLength="49.1818" x="444.8723" y="71.9659">Factura</text><rect fill="#E2E2F0" height="33.0679" rx="2.5" ry="2.5" style="stroke:#181818;stroke-width:0.5;" width="63.1818" x="437.8723" y="356.716"/><text fill="#000000" font-family="sans-serif" font-size="14" lengthAdjust="spacing" textLength="49.1818" x="444.8723" y="378.682">Factura</text><polygon fill="#181818" points="222.8871,113.7739,232.8871,117.7739,222.8871,121.7739,226.8871,117.7739" style="stroke:#181818;stroke-width:1;"/><line style="stroke:#181818;stroke-width:1;" x1="29.4199" x2="228.8871" y1="117.7739" y2="117.7739"/><text fill="#000000" font-family="sans-serif" font-size="13" lengthAdjust="spacing" textLength="86.5541" x="36.4199" y="111.9649">Reservar pista</text><polygon fill="#181818" points="341.2411,145.4799,351.2411,149.4799,341.2411,153.4799,345.2411,149.4799" style="stroke:#181818;stroke-width:1;"/><line style="stroke:#181818;stroke-width:1;" x1="234.8871" x2="347.2411" y1="149.4799" y2="149.4799"/><text fill="#000000" font-family="sans-serif" font-size="13" lengthAdjust="spacing" textLength="94.354" x="241.8871" y="143.6709">Guarda reserva</text><line style="stroke:#181818;stroke-width:1;" x1="235.8871" x2="245.8871" y1="181.186" y2="177.186"/><line style="stroke:#181818;stroke-width:1;" x1="235.8871" x2="245.8871" y1="181.186" y2="185.186"/><line style="stroke:#181818;stroke-width:1;stroke-dasharray:2.0,2.0;" x1="234.8871" x2="352.2411" y1="181.186" y2="181.186"/><text fill="#000000" font-family="sans-serif" font-size="13" lengthAdjust="spacing" textLength="74.2171" x="251.8871" y="175.377">Confirmaci&#243;</text><polygon fill="#181818" points="457.4632,208.892,467.4632,212.892,457.4632,216.892,461.4632,212.892" style="stroke:#181818;stroke-width:1;"/><line style="stroke:#181818;stroke-width:1;" x1="234.8871" x2="463.4632" y1="212.892" y2="212.892"/><text fill="#000000" font-family="sans-serif" font-size="13" lengthAdjust="spacing" textLength="96.9671" x="241.8871" y="207.083">Generar factura</text><polygon fill="#181818" points="364.2411,240.598,354.2411,244.598,364.2411,248.598,360.2411,244.598" style="stroke:#181818;stroke-width:1;"/><line style="stroke:#181818;stroke-width:1;" x1="358.2411" x2="468.4632" y1="244.598" y2="244.598"/><text fill="#000000" font-family="sans-serif" font-size="13" lengthAdjust="spacing" textLength="92.2221" x="370.2411" y="238.789">Guarda factura</text><line style="stroke:#181818;stroke-width:1;" x1="467.4632" x2="457.4632" y1="276.304" y2="272.304"/><line style="stroke:#181818;stroke-width:1;" x1="467.4632" x2="457.4632" y1="276.304" y2="280.304"/><line style="stroke:#181818;stroke-width:1;stroke-dasharray:2.0,2.0;" x1="353.2411" x2="468.4632" y1="276.304" y2="276.304"/><text fill="#000000" font-family="sans-serif" font-size="13" lengthAdjust="spacing" textLength="74.2171" x="360.2411" y="270.495">Confirmaci&#243;</text><line style="stroke:#181818;stroke-width:1;" x1="235.8871" x2="245.8871" y1="308.01" y2="304.01"/><line style="stroke:#181818;stroke-width:1;" x1="235.8871" x2="245.8871" y1="308.01" y2="312.01"/><line style="stroke:#181818;stroke-width:1;stroke-dasharray:2.0,2.0;" x1="234.8871" x2="468.4632" y1="308.01" y2="308.01"/><text fill="#000000" font-family="sans-serif" font-size="13" lengthAdjust="spacing" textLength="107.6921" x="251.8871" y="302.201">Factura generada</text><line style="stroke:#181818;stroke-width:1;" x1="30.4199" x2="40.4199" y1="339.716" y2="335.716"/><line style="stroke:#181818;stroke-width:1;" x1="30.4199" x2="40.4199" y1="339.716" y2="343.716"/><line style="stroke:#181818;stroke-width:1;stroke-dasharray:2.0,2.0;" x1="29.4199" x2="233.8871" y1="339.716" y2="339.716"/><text fill="#000000" font-family="sans-serif" font-size="13" lengthAdjust="spacing" textLength="181.4671" x="46.4199" y="333.907">Reserva i factura confirmades</text><!--SRC=[TP3B3S8m44Jlhc8RI0CSSe08xY0A63aRj8Tyj7PeZ19eB0wnWot4TMRspMXX_QXqTpDKp0JrOcN2uEacpdEFGZl2SSCDMdQ5VeRriyAOZKDLdSxfG5Tsh4yeJK62IKR8PBYGkuJJ5gHRtEHcLTKvyJGEdMWFA- -NoO5nnmhZWJLqTd5PSlwrfjnFwnTPjEwySbcI7v_w5jcwDHZVi_-491MJZVHGl000]--></g></svg>