<svg xmlns="http://www.w3.org/2000/svg" xmlns:xlink="http://www.w3.org/1999/xlink" contentStyleType="text/css" data-diagram-type="CLASS" height="672px" preserveAspectRatio="none" style="width:436px;height:672px;background:#FFFFFF;" version="1.1" viewBox="0 0 436 672" width="436px" zoomAndPan="magnify"><defs/><g><!--class Persona--><g id="elem_Persona"><rect codeLine="2" fill="#F1F1F1" height="105.2038" id="Persona" rx="2.5" ry="2.5" style="stroke:#181818;stroke-width:0.5;" width="169.5415" x="148" y="7"/><ellipse cx="203.2788" cy="23" fill="#A9DCDF" rx="11" ry="11" style="stroke:#181818;stroke-width:1;"/><path d="M203.3882,18.3438 L202.2319,23.4219 L204.5601,23.4219 L203.3882,18.3438 Z M201.9038,16.1094 L204.8882,16.1094 L208.2476,28.5 L205.7944,28.5 L205.0288,25.4375 L201.7476,25.4375 L200.9976,28.5 L198.5601,28.5 L201.9038,16.1094 Z " fill="#000000"/><text fill="#000000" font-family="sans-serif" font-size="14" font-style="italic" lengthAdjust="spacing" textLength="50.4838" x="223.7788" y="28.432">Persona</text><line style="stroke:#181818;stroke-width:0.5;" x1="149" x2="316.5415" y1="39" y2="39"/><rect fill="transparent" height="6" style="stroke:#C82930;stroke-width:1;" width="6" x="156" y="51.034"/><text fill="#000000" font-family="sans-serif" font-size="14" lengthAdjust="spacing" textLength="76.9997" x="168" y="57.9659">nom: String</text><rect fill="transparent" height="6" style="stroke:#C82930;stroke-width:1;" width="6" x="156" y="70.1019"/><text fill="#000000" font-family="sans-serif" font-size="14" lengthAdjust="spacing" textLength="82.8517" x="168" y="77.0339">email: String</text><line style="stroke:#181818;stroke-width:0.5;" x1="149" x2="316.5415" y1="85.1358" y2="85.1358"/><ellipse cx="159" cy="100.1698" fill="#84BE84" rx="3" ry="3" style="stroke:#038048;stroke-width:1;"/><text fill="#000000" font-family="sans-serif" font-size="14" lengthAdjust="spacing" textLength="143.5415" x="168" y="104.1018">consultarPistes(): void</text></g><!--class Usuari--><g id="elem_Usuari"><rect codeLine="8" fill="#F1F1F1" height="67.0679" id="Usuari" rx="2.5" ry="2.5" style="stroke:#181818;stroke-width:0.5;" width="156.1015" x="54" y="182.5"/><ellipse cx="106.3808" cy="198.5" fill="#ADD1B2" rx="11" ry="11" style="stroke:#181818;stroke-width:1;"/><path d="M109.3496,204.1406 Q108.7715,204.4375 108.1308,204.5781 Q107.4902,204.7344 106.7871,204.7344 Q104.2871,204.7344 102.959,203.0938 Q101.6465,201.4375 101.6465,198.3125 Q101.6465,195.1875 102.959,193.5313 Q104.2871,191.875 106.7871,191.875 Q107.4902,191.875 108.1308,192.0313 Q108.7871,192.1875 109.3496,192.4844 L109.3496,195.2031 Q108.7246,194.625 108.1308,194.3594 Q107.5371,194.0781 106.9121,194.0781 Q105.5683,194.0781 104.8808,195.1563 Q104.1933,196.2188 104.1933,198.3125 Q104.1933,200.4063 104.8808,201.4844 Q105.5683,202.5469 106.9121,202.5469 Q107.5371,202.5469 108.1308,202.2813 Q108.7246,202 109.3496,201.4219 L109.3496,204.1406 Z " fill="#000000"/><text fill="#000000" font-family="sans-serif" font-size="14" lengthAdjust="spacing" textLength="42.8398" x="126.8808" y="203.932">Usuari</text><line style="stroke:#181818;stroke-width:0.5;" x1="55" x2="209.1015" y1="214.5" y2="214.5"/><line style="stroke:#181818;stroke-width:0.5;" x1="55" x2="209.1015" y1="222.5" y2="222.5"/><ellipse cx="65" cy="237.534" fill="#84BE84" rx="3" ry="3" style="stroke:#038048;stroke-width:1;"/><text fill="#000000" font-family="sans-serif" font-size="14" lengthAdjust="spacing" textLength="130.1015" x="74" y="241.4659">reservarPista(): void</text></g><!--class Admin--><g id="elem_Admin"><rect codeLine="12" fill="#F1F1F1" height="86.1358" id="Admin" rx="2.5" ry="2.5" style="stroke:#181818;stroke-width:0.5;" width="181.7774" x="248" y="173"/><ellipse cx="313.1838" cy="189" fill="#ADD1B2" rx="11" ry="11" style="stroke:#181818;stroke-width:1;"/><path d="M316.1525,194.6406 Q315.5744,194.9375 314.9338,195.0781 Q314.2932,195.2344 313.59,195.2344 Q311.09,195.2344 309.7619,193.5938 Q308.4494,191.9375 308.4494,188.8125 Q308.4494,185.6875 309.7619,184.0313 Q311.09,182.375 313.59,182.375 Q314.2932,182.375 314.9338,182.5313 Q315.59,182.6875 316.1525,182.9844 L316.1525,185.7031 Q315.5275,185.125 314.9338,184.8594 Q314.34,184.5781 313.715,184.5781 Q312.3713,184.5781 311.6838,185.6563 Q310.9963,186.7188 310.9963,188.8125 Q310.9963,190.9063 311.6838,191.9844 Q312.3713,193.0469 313.715,193.0469 Q314.34,193.0469 314.9338,192.7813 Q315.5275,192.5 316.1525,191.9219 L316.1525,194.6406 Z " fill="#000000"/><text fill="#000000" font-family="sans-serif" font-size="14" lengthAdjust="spacing" textLength="42.9098" x="333.6838" y="194.432">Admin</text><line style="stroke:#181818;stroke-width:0.5;" x1="249" x2="428.7774" y1="205" y2="205"/><line style="stroke:#181818;stroke-width:0.5;" x1="249" x2="428.7774" y1="213" y2="213"/><ellipse cx="259" cy="228.034" fill="#84BE84" rx="3" ry="3" style="stroke:#038048;stroke-width:1;"/><text fill="#000000" font-family="sans-serif" font-size="14" lengthAdjust="spacing" textLength="155.7774" x="268" y="231.9659">gestionarUsuaris(): void</text><ellipse cx="259" cy="247.1019" fill="#84BE84" rx="3" ry="3" style="stroke:#038048;stroke-width:1;"/><text fill="#000000" font-family="sans-serif" font-size="14" lengthAdjust="spacing" textLength="144.6755" x="268" y="251.0339">gestionarPistes(): void</text></g><!--class Reserva--><g id="elem_Reserva"><rect codeLine="17" fill="#F1F1F1" height="124.2717" id="Reserva" rx="2.5" ry="2.5" style="stroke:#181818;stroke-width:0.5;" width="186.3274" x="36" y="338"/><ellipse cx="98.9368" cy="354" fill="#ADD1B2" rx="11" ry="11" style="stroke:#181818;stroke-width:1;"/><path d="M101.9055,359.6406 Q101.3274,359.9375 100.6868,360.0781 Q100.0462,360.2344 99.343,360.2344 Q96.843,360.2344 95.5149,358.5938 Q94.2024,356.9375 94.2024,353.8125 Q94.2024,350.6875 95.5149,349.0313 Q96.843,347.375 99.343,347.375 Q100.0462,347.375 100.6868,347.5313 Q101.343,347.6875 101.9055,347.9844 L101.9055,350.7031 Q101.2805,350.125 100.6868,349.8594 Q100.093,349.5781 99.468,349.5781 Q98.1243,349.5781 97.4368,350.6563 Q96.7493,351.7188 96.7493,353.8125 Q96.7493,355.9063 97.4368,356.9844 Q98.1243,358.0469 99.468,358.0469 Q100.093,358.0469 100.6868,357.7813 Q101.2805,357.5 101.9055,356.9219 L101.9055,359.6406 Z " fill="#000000"/><text fill="#000000" font-family="sans-serif" font-size="14" lengthAdjust="spacing" textLength="51.9538" x="119.4368" y="359.432">Reserva</text><line style="stroke:#181818;stroke-width:0.5;" x1="37" x2="221.3274" y1="370" y2="370"/><rect fill="transparent" height="6" style="stroke:#C82930;stroke-width:1;" width="6" x="44" y="382.034"/><text fill="#000000" font-family="sans-serif" font-size="14" lengthAdjust="spacing" textLength="67.7878" x="56" y="388.9659">data: Date</text><rect fill="transparent" height="6" style="stroke:#C82930;stroke-width:1;" width="6" x="44" y="401.1019"/><text fill="#000000" font-family="sans-serif" font-size="14" lengthAdjust="spacing" textLength="77.5457" x="56" y="408.0339">hora: String</text><rect fill="transparent" height="6" style="stroke:#C82930;stroke-width:1;" width="6" x="44" y="420.1698"/><text fill="#000000" font-family="sans-serif" font-size="14" lengthAdjust="spacing" textLength="78.6237" x="56" y="427.1018">pista: String</text><line style="stroke:#181818;stroke-width:0.5;" x1="37" x2="221.3274" y1="435.2038" y2="435.2038"/><ellipse cx="47" cy="450.2377" fill="#84BE84" rx="3" ry="3" style="stroke:#038048;stroke-width:1;"/><text fill="#000000" font-family="sans-serif" font-size="14" lengthAdjust="spacing" textLength="160.3274" x="56" y="454.1697">confirmarReserva(): void</text></g><!--class Pista--><g id="elem_Pista"><rect codeLine="24" fill="#F1F1F1" height="124.2717" id="Pista" rx="2.5" ry="2.5" style="stroke:#181818;stroke-width:0.5;" width="244.1472" x="7" y="541"/><ellipse cx="108.9756" cy="557" fill="#ADD1B2" rx="11" ry="11" style="stroke:#181818;stroke-width:1;"/><path d="M111.9444,562.6406 Q111.3663,562.9375 110.7256,563.0781 Q110.085,563.2344 109.3819,563.2344 Q106.8819,563.2344 105.5538,561.5938 Q104.2413,559.9375 104.2413,556.8125 Q104.2413,553.6875 105.5538,552.0313 Q106.8819,550.375 109.3819,550.375 Q110.085,550.375 110.7256,550.5313 Q111.3819,550.6875 111.9444,550.9844 L111.9444,553.7031 Q111.3194,553.125 110.7256,552.8594 Q110.1319,552.5781 109.5069,552.5781 Q108.1631,552.5781 107.4756,553.6563 Q106.7881,554.7188 106.7881,556.8125 Q106.7881,558.9063 107.4756,559.9844 Q108.1631,561.0469 109.5069,561.0469 Q110.1319,561.0469 110.7256,560.7813 Q111.3194,560.5 111.9444,559.9219 L111.9444,562.6406 Z " fill="#000000"/><text fill="#000000" font-family="sans-serif" font-size="14" lengthAdjust="spacing" textLength="31.6959" x="129.4756" y="562.432">Pista</text><line style="stroke:#181818;stroke-width:0.5;" x1="8" x2="250.1472" y1="573" y2="573"/><rect fill="transparent" height="6" style="stroke:#C82930;stroke-width:1;" width="6" x="15" y="585.034"/><text fill="#000000" font-family="sans-serif" font-size="14" lengthAdjust="spacing" textLength="76.9997" x="27" y="591.9659">nom: String</text><rect fill="transparent" height="6" style="stroke:#C82930;stroke-width:1;" width="6" x="15" y="604.1019"/><text fill="#000000" font-family="sans-serif" font-size="14" lengthAdjust="spacing" textLength="79.4217" x="27" y="611.0339">tipus: String</text><rect fill="transparent" height="6" style="stroke:#C82930;stroke-width:1;" width="6" x="15" y="623.1698"/><text fill="#000000" font-family="sans-serif" font-size="14" lengthAdjust="spacing" textLength="129.3455" x="27" y="630.1018">disponible: boolean</text><line style="stroke:#181818;stroke-width:0.5;" x1="8" x2="250.1472" y1="638.2038" y2="638.2038"/><ellipse cx="18" cy="653.2377" fill="#84BE84" rx="3" ry="3" style="stroke:#038048;stroke-width:1;"/><text fill="#000000" font-family="sans-serif" font-size="14" lengthAdjust="spacing" textLength="218.1472" x="27" y="657.1697">consultarDisponibilitat(): boolean</text></g><!--class GestorUsuaris--><g id="elem_GestorUsuaris"><rect codeLine="31" fill="#F1F1F1" height="86.1358" id="GestorUsuaris" rx="2.5" ry="2.5" style="stroke:#181818;stroke-width:0.5;" width="166.5455" x="256.5" y="357"/><ellipse cx="289.9049" cy="373" fill="#ADD1B2" rx="11" ry="11" style="stroke:#181818;stroke-width:1;"/><path d="M292.8737,378.6406 Q292.2955,378.9375 291.6549,379.0781 Q291.0143,379.2344 290.3112,379.2344 Q287.8112,379.2344 286.483,377.5938 Q285.1705,375.9375 285.1705,372.8125 Q285.1705,369.6875 286.483,368.0313 Q287.8112,366.375 290.3112,366.375 Q291.0143,366.375 291.6549,366.5313 Q292.3112,366.6875 292.8737,366.9844 L292.8737,369.7031 Q292.2487,369.125 291.6549,368.8594 Q291.0612,368.5781 290.4362,368.5781 Q289.0924,368.5781 288.4049,369.6563 Q287.7174,370.7188 287.7174,372.8125 Q287.7174,374.9063 288.4049,375.9844 Q289.0924,377.0469 290.4362,377.0469 Q291.0612,377.0469 291.6549,376.7813 Q292.2487,376.5 292.8737,375.9219 L292.8737,378.6406 Z " fill="#000000"/><text fill="#000000" font-family="sans-serif" font-size="14" lengthAdjust="spacing" textLength="93.6457" x="307.9949" y="378.432">GestorUsuaris</text><line style="stroke:#181818;stroke-width:0.5;" x1="257.5" x2="422.0455" y1="389" y2="389"/><line style="stroke:#181818;stroke-width:0.5;" x1="257.5" x2="422.0455" y1="397" y2="397"/><ellipse cx="267.5" cy="412.034" fill="#84BE84" rx="3" ry="3" style="stroke:#038048;stroke-width:1;"/><text fill="#000000" font-family="sans-serif" font-size="14" lengthAdjust="spacing" textLength="125.0055" x="276.5" y="415.9659">afegirUsuari(): void</text><ellipse cx="267.5" cy="431.1019" fill="#84BE84" rx="3" ry="3" style="stroke:#038048;stroke-width:1;"/><text fill="#000000" font-family="sans-serif" font-size="14" lengthAdjust="spacing" textLength="140.5455" x="276.5" y="435.0339">eliminarUsuari(): void</text></g><!--reverse link Persona to Usuari--><g id="link_Persona_Usuari"><path d="M189.2395,127.4455 C174.1095,150.5855 166.59,162.08 153.32,182.38 " fill="transparent" id="Persona-backto-Usuari" style="stroke:#181818;stroke-width:1;"/><polygon fill="transparent" points="199.09,112.38,184.2177,124.162,194.2613,130.7289,199.09,112.38" style="stroke:#181818;stroke-width:1;"/></g><!--reverse link Persona to Admin--><g id="link_Persona_Admin"><path d="M278.7744,127.2218 C292.2444,146.8518 297.22,154.11 310.02,172.76 " fill="transparent" id="Persona-backto-Admin" style="stroke:#181818;stroke-width:1;"/><polygon fill="transparent" points="268.59,112.38,273.8271,130.6166,283.7216,123.827,268.59,112.38" style="stroke:#181818;stroke-width:1;"/></g><!--link Usuari to Reserva--><g id="link_Usuari_Reserva"><path codeLine="36" d="M131.46,249.54 C131.06,273.97 130.5996,302.1708 130.1096,331.6808 " fill="transparent" id="Usuari-to-Reserva" style="stroke:#181818;stroke-width:1;"/><polygon fill="#181818" points="130.01,337.68,134.1589,328.7476,130.093,332.6807,126.16,328.6148,130.01,337.68" style="stroke:#181818;stroke-width:1;"/><text fill="#000000" font-family="sans-serif" font-size="13" lengthAdjust="spacing" textLength="11.765" x="132" y="303.897">fa</text></g><!--link Reserva to Pista--><g id="link_Reserva_Pista"><path codeLine="37" d="M129,462.13 C129,487.07 129,509.87 129,534.82 " fill="transparent" id="Reserva-to-Pista" style="stroke:#181818;stroke-width:1;"/><polygon fill="#181818" points="129,540.82,133,531.82,129,535.82,125,531.82,129,540.82" style="stroke:#181818;stroke-width:1;"/><text fill="#000000" font-family="sans-serif" font-size="13" lengthAdjust="spacing" textLength="45.526" x="130" y="506.897">reserva</text></g><!--link Admin to GestorUsuaris--><g id="link_Admin_GestorUsuaris"><path codeLine="38" d="M339.23,259.21 C339.39,288.51 339.5772,321.3901 339.7372,350.7001 " fill="transparent" id="Admin-to-GestorUsuaris" style="stroke:#181818;stroke-width:1;"/><polygon fill="#181818" points="339.77,356.7,343.7208,347.6783,339.7427,351.7001,335.7209,347.722,339.77,356.7" style="stroke:#181818;stroke-width:1;"/><text fill="#000000" font-family="sans-serif" font-size="13" lengthAdjust="spacing" textLength="52.793" x="340" y="303.897">gestiona</text></g><!--SRC=[TL51QiGm3Bpx5JgsBFc03uN2GgzBIn-W94egSEnWASj2sRzlKiTRd13VfB4qcXciHICs2er34RXGbE0HVWtCh_9XiF2baNsV6ZGWkw9rQeANoId62ukIlBnQk0PkpTsOjFDR9emCT5FoxPRY54aeNjCqxeVVsu7zqMnFeZpNCL7ySvVeqM6VYJgBRL7HmXcLKlqJ8fRgn-N6dVgEuu1nNRPd-HDsQAZoE4dPQbd6uBbsPA4EmH7wZTFdzGSxLjI5ClzxidxCuaFs9Vk57VMyDakloF7iCswnUTsQNbMzFVsoqA79nG8aYHRMB4qARK7ACopaJ1u0]--></g></svg>