<svg xmlns="http://www.w3.org/2000/svg" xmlns:xlink="http://www.w3.org/1999/xlink" contentStyleType="text/css" data-diagram-type="CLASS" height="544px" preserveAspectRatio="none" style="width:258px;height:544px;background:#FFFFFF;" version="1.1" viewBox="0 0 258 544" width="258px" zoomAndPan="magnify"><defs/><g><!--class Usuari--><g id="elem_Usuari"><rect codeLine="2" fill="#F1F1F1" height="124.2717" id="Usuari" rx="2.5" ry="2.5" style="stroke:#181818;stroke-width:0.5;" width="169.5415" x="44" y="7"/><ellipse cx="103.1008" cy="23" fill="#ADD1B2" rx="11" ry="11" style="stroke:#181818;stroke-width:1;"/><path d="M106.0696,28.6406 Q105.4914,28.9375 104.8508,29.0781 Q104.2102,29.2344 103.5071,29.2344 Q101.0071,29.2344 99.6789,27.5938 Q98.3664,25.9375 98.3664,22.8125 Q98.3664,19.6875 99.6789,18.0313 Q101.0071,16.375 103.5071,16.375 Q104.2102,16.375 104.8508,16.5313 Q105.5071,16.6875 106.0696,16.9844 L106.0696,19.7031 Q105.4446,19.125 104.8508,18.8594 Q104.2571,18.5781 103.6321,18.5781 Q102.2883,18.5781 101.6008,19.6563 Q100.9133,20.7188 100.9133,22.8125 Q100.9133,24.9063 101.6008,25.9844 Q102.2883,27.0469 103.6321,27.0469 Q104.2571,27.0469 104.8508,26.7813 Q105.4446,26.5 106.0696,25.9219 L106.0696,28.6406 Z " fill="#000000"/><text fill="#000000" font-family="sans-serif" font-size="14" lengthAdjust="spacing" textLength="42.8398" x="123.6008" y="28.432">Usuari</text><line style="stroke:#181818;stroke-width:0.5;" x1="45" x2="212.5415" y1="39" y2="39"/><rect fill="transparent" height="6" style="stroke:#C82930;stroke-width:1;" width="6" x="52" y="51.034"/><text fill="#000000" font-family="sans-serif" font-size="14" lengthAdjust="spacing" textLength="76.9997" x="64" y="57.9659">nom: String</text><rect fill="transparent" height="6" style="stroke:#C82930;stroke-width:1;" width="6" x="52" y="70.1019"/><text fill="#000000" font-family="sans-serif" font-size="14" lengthAdjust="spacing" textLength="82.8517" x="64" y="77.0339">email: String</text><line style="stroke:#181818;stroke-width:0.5;" x1="45" x2="212.5415" y1="85.1358" y2="85.1358"/><ellipse cx="55" cy="100.1698" fill="#84BE84" rx="3" ry="3" style="stroke:#038048;stroke-width:1;"/><text fill="#000000" font-family="sans-serif" font-size="14" lengthAdjust="spacing" textLength="143.5415" x="64" y="104.1018">consultarPistes(): void</text><ellipse cx="55" cy="119.2377" fill="#84BE84" rx="3" ry="3" style="stroke:#038048;stroke-width:1;"/><text fill="#000000" font-family="sans-serif" font-size="14" lengthAdjust="spacing" textLength="130.1015" x="64" y="123.1697">reservarPista(): void</text></g><!--class Reserva--><g id="elem_Reserva"><rect codeLine="9" fill="#F1F1F1" height="124.2717" id="Reserva" rx="2.5" ry="2.5" style="stroke:#181818;stroke-width:0.5;" width="186.3274" x="36" y="210"/><ellipse cx="98.9368" cy="226" fill="#ADD1B2" rx="11" ry="11" style="stroke:#181818;stroke-width:1;"/><path d="M101.9055,231.6406 Q101.3274,231.9375 100.6868,232.0781 Q100.0462,232.2344 99.343,232.2344 Q96.843,232.2344 95.5149,230.5938 Q94.2024,228.9375 94.2024,225.8125 Q94.2024,222.6875 95.5149,221.0313 Q96.843,219.375 99.343,219.375 Q100.0462,219.375 100.6868,219.5313 Q101.343,219.6875 101.9055,219.9844 L101.9055,222.7031 Q101.2805,222.125 100.6868,221.8594 Q100.093,221.5781 99.468,221.5781 Q98.1243,221.5781 97.4368,222.6563 Q96.7493,223.7188 96.7493,225.8125 Q96.7493,227.9063 97.4368,228.9844 Q98.1243,230.0469 99.468,230.0469 Q100.093,230.0469 100.6868,229.7813 Q101.2805,229.5 101.9055,228.9219 L101.9055,231.6406 Z " fill="#000000"/><text fill="#000000" font-family="sans-serif" font-size="14" lengthAdjust="spacing" textLength="51.9538" x="119.4368" y="231.432">Reserva</text><line style="stroke:#181818;stroke-width:0.5;" x1="37" x2="221.3274" y1="242" y2="242"/><rect fill="transparent" height="6" style="stroke:#C82930;stroke-width:1;" width="6" x="44" y="254.034"/><text fill="#000000" font-family="sans-serif" font-size="14" lengthAdjust="spacing" textLength="67.7878" x="56" y="260.9659">data: Date</text><rect fill="transparent" height="6" style="stroke:#C82930;stroke-width:1;" width="6" x="44" y="273.1019"/><text fill="#000000" font-family="sans-serif" font-size="14" lengthAdjust="spacing" textLength="77.5457" x="56" y="280.0339">hora: String</text><rect fill="transparent" height="6" style="stroke:#C82930;stroke-width:1;" width="6" x="44" y="292.1698"/><text fill="#000000" font-family="sans-serif" font-size="14" lengthAdjust="spacing" textLength="78.6237" x="56" y="299.1018">pista: String</text><line style="stroke:#181818;stroke-width:0.5;" x1="37" x2="221.3274" y1="307.2038" y2="307.2038"/><ellipse cx="47" cy="322.2377" fill="#84BE84" rx="3" ry="3" style="stroke:#038048;stroke-width:1;"/><text fill="#000000" font-family="sans-serif" font-size="14" lengthAdjust="spacing" textLength="160.3274" x="56" y="326.1697">confirmarReserva(): void</text></g><!--class Pista--><g id="elem_Pista"><rect codeLine="16" fill="#F1F1F1" height="124.2717" id="Pista" rx="2.5" ry="2.5" style="stroke:#181818;stroke-width:0.5;" width="244.1472" x="7" y="413"/><ellipse cx="108.9756" cy="429" fill="#ADD1B2" rx="11" ry="11" style="stroke:#181818;stroke-width:1;"/><path d="M111.9444,434.6406 Q111.3663,434.9375 110.7256,435.0781 Q110.085,435.2344 109.3819,435.2344 Q106.8819,435.2344 105.5538,433.5938 Q104.2413,431.9375 104.2413,428.8125 Q104.2413,425.6875 105.5538,424.0313 Q106.8819,422.375 109.3819,422.375 Q110.085,422.375 110.7256,422.5313 Q111.3819,422.6875 111.9444,422.9844 L111.9444,425.7031 Q111.3194,425.125 110.7256,424.8594 Q110.1319,424.5781 109.5069,424.5781 Q108.1631,424.5781 107.4756,425.6563 Q106.7881,426.7188 106.7881,428.8125 Q106.7881,430.9063 107.4756,431.9844 Q108.1631,433.0469 109.5069,433.0469 Q110.1319,433.0469 110.7256,432.7813 Q111.3194,432.5 111.9444,431.9219 L111.9444,434.6406 Z " fill="#000000"/><text fill="#000000" font-family="sans-serif" font-size="14" lengthAdjust="spacing" textLength="31.6959" x="129.4756" y="434.432">Pista</text><line style="stroke:#181818;stroke-width:0.5;" x1="8" x2="250.1472" y1="445" y2="445"/><rect fill="transparent" height="6" style="stroke:#C82930;stroke-width:1;" width="6" x="15" y="457.034"/><text fill="#000000" font-family="sans-serif" font-size="14" lengthAdjust="spacing" textLength="76.9997" x="27" y="463.9659">nom: String</text><rect fill="transparent" height="6" style="stroke:#C82930;stroke-width:1;" width="6" x="15" y="476.1019"/><text fill="#000000" font-family="sans-serif" font-size="14" lengthAdjust="spacing" textLength="79.4217" x="27" y="483.0339">tipus: String</text><rect fill="transparent" height="6" style="stroke:#C82930;stroke-width:1;" width="6" x="15" y="495.1698"/><text fill="#000000" font-family="sans-serif" font-size="14" lengthAdjust="spacing" textLength="129.3455" x="27" y="502.1018">disponible: boolean</text><line style="stroke:#181818;stroke-width:0.5;" x1="8" x2="250.1472" y1="510.2038" y2="510.2038"/><ellipse cx="18" cy="525.2377" fill="#84BE84" rx="3" ry="3" style="stroke:#038048;stroke-width:1;"/><text fill="#000000" font-family="sans-serif" font-size="14" lengthAdjust="spacing" textLength="218.1472" x="27" y="529.1697">consultarDisponibilitat(): boolean</text></g><!--link Usuari to Reserva--><g id="link_Usuari_Reserva"><path codeLine="23" d="M129,131.13 C129,156.07 129,178.87 129,203.82 " fill="transparent" id="Usuari-to-Reserva" style="stroke:#181818;stroke-width:1;"/><polygon fill="#181818" points="129,209.82,133,200.82,129,204.82,125,200.82,129,209.82" style="stroke:#181818;stroke-width:1;"/><text fill="#000000" font-family="sans-serif" font-size="13" lengthAdjust="spacing" textLength="11.765" x="130" y="175.897">fa</text></g><!--link Reserva to Pista--><g id="link_Reserva_Pista"><path codeLine="24" d="M129,334.13 C129,359.07 129,381.87 129,406.82 " fill="transparent" id="Reserva-to-Pista" style="stroke:#181818;stroke-width:1;"/><polygon fill="#181818" points="129,412.82,133,403.82,129,407.82,125,403.82,129,412.82" style="stroke:#181818;stroke-width:1;"/><text fill="#000000" font-family="sans-serif" font-size="13" lengthAdjust="spacing" textLength="45.526" x="130" y="378.897">reserva</text></g><!--SRC=[TP113e9034NtSuekDOOBpC8L1p0Q3r1Xq2R336aB6-FT1MOWGM9t_R_fws_bKGJkqYCJl0sCLOJOMhWfKtWcmRL8VYETgXYazufy8L4dXwE58LATJ7RYU4WUhjR7c6gcNPEzu6fKj52YkjI_8kEMtqrxTlo6k4NEo_QK6VutabBNorQgIReOwE6TXKUCtc7uoLhc2VAag1DocHkf-OT5SLu3McZGBCraf9iiv0Tz0G00]--></g></svg>