<svg xmlns="http://www.w3.org/2000/svg" xmlns:xlink="http://www.w3.org/1999/xlink" contentStyleType="text/css" data-diagram-type="SEQUENCE" height="441px" preserveAspectRatio="none" style="width:418px;height:441px;background:#FFFFFF;" version="1.1" viewBox="0 0 418 441" width="418px" zoomAndPan="magnify"><defs/><g><g><title>Admin</title><rect fill="transparent" height="273.6481" width="8" x="25.4549" y="84.0679"/><line style="stroke:#181818;stroke-width:0.5;stroke-dasharray:5.0,5.0;" x1="29" x2="29" y1="84.0679" y2="357.716"/></g><g><title>Sistema</title><rect fill="transparent" height="273.6481" width="8" x="213.749" y="84.0679"/><line style="stroke:#181818;stroke-width:0.5;stroke-dasharray:5.0,5.0;" x1="216.8001" x2="216.8001" y1="84.0679" y2="357.716"/></g><g><title>BaseDeDades</title><rect fill="transparent" height="273.6481" width="8" x="355.6851" y="84.0679"/><line style="stroke:#181818;stroke-width:0.5;stroke-dasharray:5.0,5.0;" x1="359.2063" x2="359.2063" y1="84.0679" y2="357.716"/></g><text fill="#000000" font-family="sans-serif" font-size="14" lengthAdjust="spacing" textLength="42.9098" x="5" y="79.9659">Admin</text><ellipse cx="29.4549" cy="13.5" fill="#E2E2F0" rx="8" ry="8" style="stroke:#181818;stroke-width:0.5;"/><path d="M29.4549,21.5 L29.4549,48.5 M16.4549,29.5 L42.4549,29.5 M29.4549,48.5 L16.4549,63.5 M29.4549,48.5 L42.4549,63.5 " fill="transparent" style="stroke:#181818;stroke-width:0.5;"/><text fill="#000000" font-family="sans-serif" font-size="14" lengthAdjust="spacing" textLength="42.9098" x="5" y="371.682">Admin</text><ellipse cx="29.4549" cy="384.284" fill="#E2E2F0" rx="8" ry="8" style="stroke:#181818;stroke-width:0.5;"/><path d="M29.4549,392.284 L29.4549,419.284 M16.4549,400.284 L42.4549,400.284 M29.4549,419.284 L16.4549,434.284 M29.4549,419.284 L42.4549,434.284 " fill="transparent" style="stroke:#181818;stroke-width:0.5;"/><rect fill="#E2E2F0" height="33.0679" rx="2.5" ry="2.5" style="stroke:#181818;stroke-width:0.5;" width="65.8978" x="184.8001" y="50"/><text fill="#000000" font-family="sans-serif" font-size="14" lengthAdjust="spacing" textLength="51.8978" x="191.8001" y="71.9659">Sistema</text><rect fill="#E2E2F0" height="33.0679" rx="2.5" ry="2.5" style="stroke:#181818;stroke-width:0.5;" width="65.8978" x="184.8001" y="356.716"/><text fill="#000000" font-family="sans-serif" font-size="14" lengthAdjust="spacing" textLength="51.8978" x="191.8001" y="378.682">Sistema</text><rect fill="#E2E2F0" height="33.0679" rx="2.5" ry="2.5" style="stroke:#181818;stroke-width:0.5;" width="104.9576" x="307.2063" y="50"/><text fill="#000000" font-family="sans-serif" font-size="14" lengthAdjust="spacing" textLength="90.9576" x="314.2063" y="71.9659">BaseDeDades</text><rect fill="#E2E2F0" height="33.0679" rx="2.5" ry="2.5" style="stroke:#181818;stroke-width:0.5;" width="104.9576" x="307.2063" y="356.716"/><text fill="#000000" font-family="sans-serif" font-size="14" lengthAdjust="spacing" textLength="90.9576" x="314.2063" y="378.682">BaseDeDades</text><polygon fill="#181818" points="205.749,113.7739,215.749,117.7739,205.749,121.7739,209.749,117.7739" style="stroke:#181818;stroke-width:1;"/><line style="stroke:#181818;stroke-width:1;" x1="29.4549" x2="211.749" y1="117.7739" y2="117.7739"/><text fill="#000000" font-family="sans-serif" font-size="13" lengthAdjust="spacing" textLength="78.5201" x="36.4549" y="111.9649">Afegir usuari</text><polygon fill="#181818" points="347.6851,145.4799,357.6851,149.4799,347.6851,153.4799,351.6851,149.4799" style="stroke:#181818;stroke-width:1;"/><line style="stroke:#181818;stroke-width:1;" x1="217.749" x2="353.6851" y1="149.4799" y2="149.4799"/><text fill="#000000" font-family="sans-serif" font-size="13" lengthAdjust="spacing" textLength="117.9361" x="224.749" y="143.6709">Insereix nou usuari</text><line style="stroke:#181818;stroke-width:1;" x1="218.749" x2="228.749" y1="181.186" y2="177.186"/><line style="stroke:#181818;stroke-width:1;" x1="218.749" x2="228.749" y1="181.186" y2="185.186"/><line style="stroke:#181818;stroke-width:1;stroke-dasharray:2.0,2.0;" x1="217.749" x2="358.6851" y1="181.186" y2="181.186"/><text fill="#000000" font-family="sans-serif" font-size="13" lengthAdjust="spacing" textLength="74.2171" x="234.749" y="175.377">Confirmaci&#243;</text><line style="stroke:#181818;stroke-width:1;" x1="30.4549" x2="40.4549" y1="212.892" y2="208.892"/><line style="stroke:#181818;stroke-width:1;" x1="30.4549" x2="40.4549" y1="212.892" y2="216.892"/><line style="stroke:#181818;stroke-width:1;stroke-dasharray:2.0,2.0;" x1="29.4549" x2="216.749" y1="212.892" y2="212.892"/><text fill="#000000" font-family="sans-serif" font-size="13" lengthAdjust="spacing" textLength="164.2941" x="46.4549" y="207.083">Usuari afegit correctament</text><polygon fill="#181818" points="205.749,240.598,215.749,244.598,205.749,248.598,209.749,244.598" style="stroke:#181818;stroke-width:1;"/><line style="stroke:#181818;stroke-width:1;" x1="29.4549" x2="211.749" y1="244.598" y2="244.598"/><text fill="#000000" font-family="sans-serif" font-size="13" lengthAdjust="spacing" textLength="91.8321" x="36.4549" y="238.789">Eliminar usuari</text><polygon fill="#181818" points="347.6851,272.304,357.6851,276.304,347.6851,280.304,351.6851,276.304" style="stroke:#181818;stroke-width:1;"/><line style="stroke:#181818;stroke-width:1;" x1="217.749" x2="353.6851" y1="276.304" y2="276.304"/><text fill="#000000" font-family="sans-serif" font-size="13" lengthAdjust="spacing" textLength="89.0371" x="224.749" y="270.495">Esborra usuari</text><line style="stroke:#181818;stroke-width:1;" x1="218.749" x2="228.749" y1="308.01" y2="304.01"/><line style="stroke:#181818;stroke-width:1;" x1="218.749" x2="228.749" y1="308.01" y2="312.01"/><line style="stroke:#181818;stroke-width:1;stroke-dasharray:2.0,2.0;" x1="217.749" x2="358.6851" y1="308.01" y2="308.01"/><text fill="#000000" font-family="sans-serif" font-size="13" lengthAdjust="spacing" textLength="74.2171" x="234.749" y="302.201">Confirmaci&#243;</text><line style="stroke:#181818;stroke-width:1;" x1="30.4549" x2="40.4549" y1="339.716" y2="335.716"/><line style="stroke:#181818;stroke-width:1;" x1="30.4549" x2="40.4549" y1="339.716" y2="343.716"/><line style="stroke:#181818;stroke-width:1;stroke-dasharray:2.0,2.0;" x1="29.4549" x2="216.749" y1="339.716" y2="339.716"/><text fill="#000000" font-family="sans-serif" font-size="13" lengthAdjust="spacing" textLength="92.7291" x="46.4549" y="333.907">Usuari eliminat</text><!--SRC=[hOv12i8m44NtESLS81Veeb1j5wx50upfL0PCKYOJy5uzWXSpRIbM4Dou_Rp__aUdKQ3fFGSpeYWx7Z4ed3afUVp83fYefHPxIiOi5R3rHa85pK0t5iWfex3PyeBiYWKxXKH2_80GymRl2MlhlVKOmy3YqV5pUajdPhrGmMLn0Cxp2YwAa5Fq5FJhpUxE9SFVHxjqBIxyvqTQj_K5]--></g></svg>