<svg xmlns="http://www.w3.org/2000/svg" xmlns:xlink="http://www.w3.org/1999/xlink" contentStyleType="text/css" data-diagram-type="CLASS" height="691px" preserveAspectRatio="none" style="width:525px;height:691px;background:#FFFFFF;" version="1.1" viewBox="0 0 525 691" width="525px" zoomAndPan="magnify"><defs/><g><!--class Persona--><g id="elem_Persona"><rect codeLine="2" fill="#F1F1F1" height="105.2038" id="Persona" rx="2.5" ry="2.5" style="stroke:#181818;stroke-width:0.5;" width="169.5415" x="150" y="7"/><ellipse cx="205.2788" cy="23" fill="#A9DCDF" rx="11" ry="11" style="stroke:#181818;stroke-width:1;"/><path d="M205.3882,18.3438 L204.2319,23.4219 L206.5601,23.4219 L205.3882,18.3438 Z M203.9038,16.1094 L206.8882,16.1094 L210.2476,28.5 L207.7944,28.5 L207.0288,25.4375 L203.7476,25.4375 L202.9976,28.5 L200.5601,28.5 L203.9038,16.1094 Z " fill="#000000"/><text fill="#000000" font-family="sans-serif" font-size="14" font-style="italic" lengthAdjust="spacing" textLength="50.4838" x="225.7788" y="28.432">Persona</text><line style="stroke:#181818;stroke-width:0.5;" x1="151" x2="318.5415" y1="39" y2="39"/><rect fill="transparent" height="6" style="stroke:#C82930;stroke-width:1;" width="6" x="158" y="51.034"/><text fill="#000000" font-family="sans-serif" font-size="14" lengthAdjust="spacing" textLength="76.9997" x="170" y="57.9659">nom: String</text><rect fill="transparent" height="6" style="stroke:#C82930;stroke-width:1;" width="6" x="158" y="70.1019"/><text fill="#000000" font-family="sans-serif" font-size="14" lengthAdjust="spacing" textLength="82.8517" x="170" y="77.0339">email: String</text><line style="stroke:#181818;stroke-width:0.5;" x1="151" x2="318.5415" y1="85.1358" y2="85.1358"/><ellipse cx="161" cy="100.1698" fill="#84BE84" rx="3" ry="3" style="stroke:#038048;stroke-width:1;"/><text fill="#000000" font-family="sans-serif" font-size="14" lengthAdjust="spacing" textLength="143.5415" x="170" y="104.1018">consultarPistes(): void</text></g><!--class Usuari--><g id="elem_Usuari"><rect codeLine="8" fill="#F1F1F1" height="67.0679" id="Usuari" rx="2.5" ry="2.5" style="stroke:#181818;stroke-width:0.5;" width="156.1015" x="54" y="192"/><ellipse cx="106.3808" cy="208" fill="#ADD1B2" rx="11" ry="11" style="stroke:#181818;stroke-width:1;"/><path d="M109.3496,213.6406 Q108.7715,213.9375 108.1308,214.0781 Q107.4902,214.2344 106.7871,214.2344 Q104.2871,214.2344 102.959,212.5938 Q101.6465,210.9375 101.6465,207.8125 Q101.6465,204.6875 102.959,203.0313 Q104.2871,201.375 106.7871,201.375 Q107.4902,201.375 108.1308,201.5313 Q108.7871,201.6875 109.3496,201.9844 L109.3496,204.7031 Q108.7246,204.125 108.1308,203.8594 Q107.5371,203.5781 106.9121,203.5781 Q105.5683,203.5781 104.8808,204.6563 Q104.1933,205.7188 104.1933,207.8125 Q104.1933,209.9063 104.8808,210.9844 Q105.5683,212.0469 106.9121,212.0469 Q107.5371,212.0469 108.1308,211.7813 Q108.7246,211.5 109.3496,210.9219 L109.3496,213.6406 Z " fill="#000000"/><text fill="#000000" font-family="sans-serif" font-size="14" lengthAdjust="spacing" textLength="42.8398" x="126.8808" y="213.432">Usuari</text><line style="stroke:#181818;stroke-width:0.5;" x1="55" x2="209.1015" y1="224" y2="224"/><line style="stroke:#181818;stroke-width:0.5;" x1="55" x2="209.1015" y1="232" y2="232"/><ellipse cx="65" cy="247.034" fill="#84BE84" rx="3" ry="3" style="stroke:#038048;stroke-width:1;"/><text fill="#000000" font-family="sans-serif" font-size="14" lengthAdjust="spacing" textLength="130.1015" x="74" y="250.9659">reservarPista(): void</text></g><!--class Admin--><g id="elem_Admin"><rect codeLine="12" fill="#F1F1F1" height="105.2038" id="Admin" rx="2.5" ry="2.5" style="stroke:#181818;stroke-width:0.5;" width="187.0274" x="246.5" y="173"/><ellipse cx="314.3088" cy="189" fill="#ADD1B2" rx="11" ry="11" style="stroke:#181818;stroke-width:1;"/><path d="M317.2775,194.6406 Q316.6994,194.9375 316.0588,195.0781 Q315.4182,195.2344 314.715,195.2344 Q312.215,195.2344 310.8869,193.5938 Q309.5744,191.9375 309.5744,188.8125 Q309.5744,185.6875 310.8869,184.0313 Q312.215,182.375 314.715,182.375 Q315.4182,182.375 316.0588,182.5313 Q316.715,182.6875 317.2775,182.9844 L317.2775,185.7031 Q316.6525,185.125 316.0588,184.8594 Q315.465,184.5781 314.84,184.5781 Q313.4963,184.5781 312.8088,185.6563 Q312.1213,186.7188 312.1213,188.8125 Q312.1213,190.9063 312.8088,191.9844 Q313.4963,193.0469 314.84,193.0469 Q315.465,193.0469 316.0588,192.7813 Q316.6525,192.5 317.2775,191.9219 L317.2775,194.6406 Z " fill="#000000"/><text fill="#000000" font-family="sans-serif" font-size="14" lengthAdjust="spacing" textLength="42.9098" x="334.8088" y="194.432">Admin</text><line style="stroke:#181818;stroke-width:0.5;" x1="247.5" x2="432.5274" y1="205" y2="205"/><line style="stroke:#181818;stroke-width:0.5;" x1="247.5" x2="432.5274" y1="213" y2="213"/><ellipse cx="257.5" cy="228.034" fill="#84BE84" rx="3" ry="3" style="stroke:#038048;stroke-width:1;"/><text fill="#000000" font-family="sans-serif" font-size="14" lengthAdjust="spacing" textLength="155.7774" x="266.5" y="231.9659">gestionarUsuaris(): void</text><ellipse cx="257.5" cy="247.1019" fill="#84BE84" rx="3" ry="3" style="stroke:#038048;stroke-width:1;"/><text fill="#000000" font-family="sans-serif" font-size="14" lengthAdjust="spacing" textLength="144.6755" x="266.5" y="251.0339">gestionarPistes(): void</text><ellipse cx="257.5" cy="266.1698" fill="#84BE84" rx="3" ry="3" style="stroke:#038048;stroke-width:1;"/><text fill="#000000" font-family="sans-serif" font-size="14" lengthAdjust="spacing" textLength="161.0274" x="266.5" y="270.1018">consultarFactures(): void</text></g><!--class Reserva--><g id="elem_Reserva"><rect codeLine="18" fill="#F1F1F1" height="124.2717" id="Reserva" rx="2.5" ry="2.5" style="stroke:#181818;stroke-width:0.5;" width="186.3274" x="36" y="357"/><ellipse cx="98.9368" cy="373" fill="#ADD1B2" rx="11" ry="11" style="stroke:#181818;stroke-width:1;"/><path d="M101.9055,378.6406 Q101.3274,378.9375 100.6868,379.0781 Q100.0462,379.2344 99.343,379.2344 Q96.843,379.2344 95.5149,377.5938 Q94.2024,375.9375 94.2024,372.8125 Q94.2024,369.6875 95.5149,368.0313 Q96.843,366.375 99.343,366.375 Q100.0462,366.375 100.6868,366.5313 Q101.343,366.6875 101.9055,366.9844 L101.9055,369.7031 Q101.2805,369.125 100.6868,368.8594 Q100.093,368.5781 99.468,368.5781 Q98.1243,368.5781 97.4368,369.6563 Q96.7493,370.7188 96.7493,372.8125 Q96.7493,374.9063 97.4368,375.9844 Q98.1243,377.0469 99.468,377.0469 Q100.093,377.0469 100.6868,376.7813 Q101.2805,376.5 101.9055,375.9219 L101.9055,378.6406 Z " fill="#000000"/><text fill="#000000" font-family="sans-serif" font-size="14" lengthAdjust="spacing" textLength="51.9538" x="119.4368" y="378.432">Reserva</text><line style="stroke:#181818;stroke-width:0.5;" x1="37" x2="221.3274" y1="389" y2="389"/><rect fill="transparent" height="6" style="stroke:#C82930;stroke-width:1;" width="6" x="44" y="401.034"/><text fill="#000000" font-family="sans-serif" font-size="14" lengthAdjust="spacing" textLength="67.7878" x="56" y="407.9659">data: Date</text><rect fill="transparent" height="6" style="stroke:#C82930;stroke-width:1;" width="6" x="44" y="420.1019"/><text fill="#000000" font-family="sans-serif" font-size="14" lengthAdjust="spacing" textLength="77.5457" x="56" y="427.0339">hora: String</text><rect fill="transparent" height="6" style="stroke:#C82930;stroke-width:1;" width="6" x="44" y="439.1698"/><text fill="#000000" font-family="sans-serif" font-size="14" lengthAdjust="spacing" textLength="78.6237" x="56" y="446.1018">pista: String</text><line style="stroke:#181818;stroke-width:0.5;" x1="37" x2="221.3274" y1="454.2038" y2="454.2038"/><ellipse cx="47" cy="469.2377" fill="#84BE84" rx="3" ry="3" style="stroke:#038048;stroke-width:1;"/><text fill="#000000" font-family="sans-serif" font-size="14" lengthAdjust="spacing" textLength="160.3274" x="56" y="473.1697">confirmarReserva(): void</text></g><!--class Pista--><g id="elem_Pista"><rect codeLine="25" fill="#F1F1F1" height="124.2717" id="Pista" rx="2.5" ry="2.5" style="stroke:#181818;stroke-width:0.5;" width="244.1472" x="7" y="560"/><ellipse cx="108.9756" cy="576" fill="#ADD1B2" rx="11" ry="11" style="stroke:#181818;stroke-width:1;"/><path d="M111.9444,581.6406 Q111.3663,581.9375 110.7256,582.0781 Q110.085,582.2344 109.3819,582.2344 Q106.8819,582.2344 105.5538,580.5938 Q104.2413,578.9375 104.2413,575.8125 Q104.2413,572.6875 105.5538,571.0313 Q106.8819,569.375 109.3819,569.375 Q110.085,569.375 110.7256,569.5313 Q111.3819,569.6875 111.9444,569.9844 L111.9444,572.7031 Q111.3194,572.125 110.7256,571.8594 Q110.1319,571.5781 109.5069,571.5781 Q108.1631,571.5781 107.4756,572.6563 Q106.7881,573.7188 106.7881,575.8125 Q106.7881,577.9063 107.4756,578.9844 Q108.1631,580.0469 109.5069,580.0469 Q110.1319,580.0469 110.7256,579.7813 Q111.3194,579.5 111.9444,578.9219 L111.9444,581.6406 Z " fill="#000000"/><text fill="#000000" font-family="sans-serif" font-size="14" lengthAdjust="spacing" textLength="31.6959" x="129.4756" y="581.432">Pista</text><line style="stroke:#181818;stroke-width:0.5;" x1="8" x2="250.1472" y1="592" y2="592"/><rect fill="transparent" height="6" style="stroke:#C82930;stroke-width:1;" width="6" x="15" y="604.034"/><text fill="#000000" font-family="sans-serif" font-size="14" lengthAdjust="spacing" textLength="76.9997" x="27" y="610.9659">nom: String</text><rect fill="transparent" height="6" style="stroke:#C82930;stroke-width:1;" width="6" x="15" y="623.1019"/><text fill="#000000" font-family="sans-serif" font-size="14" lengthAdjust="spacing" textLength="79.4217" x="27" y="630.0339">tipus: String</text><rect fill="transparent" height="6" style="stroke:#C82930;stroke-width:1;" width="6" x="15" y="642.1698"/><text fill="#000000" font-family="sans-serif" font-size="14" lengthAdjust="spacing" textLength="129.3455" x="27" y="649.1018">disponible: boolean</text><line style="stroke:#181818;stroke-width:0.5;" x1="8" x2="250.1472" y1="657.2038" y2="657.2038"/><ellipse cx="18" cy="672.2377" fill="#84BE84" rx="3" ry="3" style="stroke:#038048;stroke-width:1;"/><text fill="#000000" font-family="sans-serif" font-size="14" lengthAdjust="spacing" textLength="218.1472" x="27" y="676.1697">consultarDisponibilitat(): boolean</text></g><!--class GestorUsuaris--><g id="elem_GestorUsuaris"><rect codeLine="32" fill="#F1F1F1" height="86.1358" id="GestorUsuaris" rx="2.5" ry="2.5" style="stroke:#181818;stroke-width:0.5;" width="166.5455" x="256.5" y="376"/><ellipse cx="289.9049" cy="392" fill="#ADD1B2" rx="11" ry="11" style="stroke:#181818;stroke-width:1;"/><path d="M292.8737,397.6406 Q292.2955,397.9375 291.6549,398.0781 Q291.0143,398.2344 290.3112,398.2344 Q287.8112,398.2344 286.483,396.5938 Q285.1705,394.9375 285.1705,391.8125 Q285.1705,388.6875 286.483,387.0313 Q287.8112,385.375 290.3112,385.375 Q291.0143,385.375 291.6549,385.5313 Q292.3112,385.6875 292.8737,385.9844 L292.8737,388.7031 Q292.2487,388.125 291.6549,387.8594 Q291.0612,387.5781 290.4362,387.5781 Q289.0924,387.5781 288.4049,388.6563 Q287.7174,389.7188 287.7174,391.8125 Q287.7174,393.9063 288.4049,394.9844 Q289.0924,396.0469 290.4362,396.0469 Q291.0612,396.0469 291.6549,395.7813 Q292.2487,395.5 292.8737,394.9219 L292.8737,397.6406 Z " fill="#000000"/><text fill="#000000" font-family="sans-serif" font-size="14" lengthAdjust="spacing" textLength="93.6457" x="307.9949" y="397.432">GestorUsuaris</text><line style="stroke:#181818;stroke-width:0.5;" x1="257.5" x2="422.0455" y1="408" y2="408"/><line style="stroke:#181818;stroke-width:0.5;" x1="257.5" x2="422.0455" y1="416" y2="416"/><ellipse cx="267.5" cy="431.034" fill="#84BE84" rx="3" ry="3" style="stroke:#038048;stroke-width:1;"/><text fill="#000000" font-family="sans-serif" font-size="14" lengthAdjust="spacing" textLength="125.0055" x="276.5" y="434.9659">afegirUsuari(): void</text><ellipse cx="267.5" cy="450.1019" fill="#84BE84" rx="3" ry="3" style="stroke:#038048;stroke-width:1;"/><text fill="#000000" font-family="sans-serif" font-size="14" lengthAdjust="spacing" textLength="140.5455" x="276.5" y="454.0339">eliminarUsuari(): void</text></g><!--class Factura--><g id="elem_Factura"><rect codeLine="37" fill="#F1F1F1" height="124.2717" id="Factura" rx="2.5" ry="2.5" style="stroke:#181818;stroke-width:0.5;" width="171.2495" x="347.5" y="560"/><ellipse cx="404.2838" cy="576" fill="#ADD1B2" rx="11" ry="11" style="stroke:#181818;stroke-width:1;"/><path d="M407.2526,581.6406 Q406.6744,581.9375 406.0338,582.0781 Q405.3932,582.2344 404.6901,582.2344 Q402.1901,582.2344 400.8619,580.5938 Q399.5494,578.9375 399.5494,575.8125 Q399.5494,572.6875 400.8619,571.0313 Q402.1901,569.375 404.6901,569.375 Q405.3932,569.375 406.0338,569.5313 Q406.6901,569.6875 407.2526,569.9844 L407.2526,572.7031 Q406.6276,572.125 406.0338,571.8594 Q405.4401,571.5781 404.8151,571.5781 Q403.4713,571.5781 402.7838,572.6563 Q402.0963,573.7188 402.0963,575.8125 Q402.0963,577.9063 402.7838,578.9844 Q403.4713,580.0469 404.8151,580.0469 Q405.4401,580.0469 406.0338,579.7813 Q406.6276,579.5 407.2526,578.9219 L407.2526,581.6406 Z " fill="#000000"/><text fill="#000000" font-family="sans-serif" font-size="14" lengthAdjust="spacing" textLength="49.1818" x="424.7838" y="581.432">Factura</text><line style="stroke:#181818;stroke-width:0.5;" x1="348.5" x2="517.7495" y1="592" y2="592"/><rect fill="transparent" height="6" style="stroke:#C82930;stroke-width:1;" width="6" x="355.5" y="604.034"/><text fill="#000000" font-family="sans-serif" font-size="14" lengthAdjust="spacing" textLength="36.9319" x="367.5" y="610.9659">id: int</text><rect fill="transparent" height="6" style="stroke:#C82930;stroke-width:1;" width="6" x="355.5" y="623.1019"/><text fill="#000000" font-family="sans-serif" font-size="14" lengthAdjust="spacing" textLength="67.7878" x="367.5" y="630.0339">data: Date</text><rect fill="transparent" height="6" style="stroke:#C82930;stroke-width:1;" width="6" x="355.5" y="642.1698"/><text fill="#000000" font-family="sans-serif" font-size="14" lengthAdjust="spacing" textLength="97.8596" x="367.5" y="649.1018">import: double</text><line style="stroke:#181818;stroke-width:0.5;" x1="348.5" x2="517.7495" y1="657.2038" y2="657.2038"/><ellipse cx="358.5" cy="672.2377" fill="#84BE84" rx="3" ry="3" style="stroke:#038048;stroke-width:1;"/><text fill="#000000" font-family="sans-serif" font-size="14" lengthAdjust="spacing" textLength="145.2495" x="367.5" y="676.1697">generarFactura(): void</text></g><!--reverse link Persona to Usuari--><g id="link_Persona_Usuari"><path d="M192.8351,127.6321 C176.5651,153.5321 166.95,168.85 152.72,191.51 " fill="transparent" id="Persona-backto-Usuari" style="stroke:#181818;stroke-width:1;"/><polygon fill="transparent" points="202.41,112.39,187.7544,124.4405,197.9158,130.8237,202.41,112.39" style="stroke:#181818;stroke-width:1;"/></g><!--reverse link Persona to Admin--><g id="link_Persona_Admin"><path d="M277.9279,127.5478 C290.3079,146.8778 294.64,153.65 306.99,172.95 " fill="transparent" id="Persona-backto-Admin" style="stroke:#181818;stroke-width:1;"/><polygon fill="transparent" points="268.22,112.39,272.8753,130.7837,282.9804,124.3118,268.22,112.39" style="stroke:#181818;stroke-width:1;"/></g><!--link Usuari to Reserva--><g id="link_Usuari_Reserva"><path codeLine="44" d="M131.48,259.42 C131.07,286.15 130.5528,318.5907 130.0528,350.9207 " fill="transparent" id="Usuari-to-Reserva" style="stroke:#181818;stroke-width:1;"/><polygon fill="#181818" points="129.96,356.92,134.0987,347.9829,130.0373,351.9206,126.0997,347.8592,129.96,356.92" style="stroke:#181818;stroke-width:1;"/><text fill="#000000" font-family="sans-serif" font-size="13" lengthAdjust="spacing" textLength="11.765" x="132" y="322.897">fa</text></g><!--link Reserva to Pista--><g id="link_Reserva_Pista"><path codeLine="45" d="M129,481.13 C129,506.07 129,528.87 129,553.82 " fill="transparent" id="Reserva-to-Pista" style="stroke:#181818;stroke-width:1;"/><polygon fill="#181818" points="129,559.82,133,550.82,129,554.82,125,550.82,129,559.82" style="stroke:#181818;stroke-width:1;"/><text fill="#000000" font-family="sans-serif" font-size="13" lengthAdjust="spacing" textLength="45.526" x="130" y="525.897">reserva</text></g><!--link Admin to GestorUsuaris--><g id="link_Admin_GestorUsuaris"><path codeLine="46" d="M340,278.07 C340,308.65 340,340.92 340,369.71 " fill="transparent" id="Admin-to-GestorUsuaris" style="stroke:#181818;stroke-width:1;"/><polygon fill="#181818" points="340,375.71,344,366.71,340,370.71,336,366.71,340,375.71" style="stroke:#181818;stroke-width:1;"/><text fill="#000000" font-family="sans-serif" font-size="13" lengthAdjust="spacing" textLength="52.793" x="341" y="322.897">gestiona</text></g><!--link Reserva to Factura--><g id="link_Reserva_Factura"><path codeLine="47" d="M221.45,481.13 C261.54,507.63 303.185,535.1709 342.465,561.1409 " fill="transparent" id="Reserva-to-Factura" style="stroke:#181818;stroke-width:1;"/><polygon fill="#181818" points="347.47,564.45,342.1685,556.1497,343.2992,561.6924,337.7564,562.8231,347.47,564.45" style="stroke:#181818;stroke-width:1;"/><text fill="#000000" font-family="sans-serif" font-size="13" lengthAdjust="spacing" textLength="43.355" x="292" y="525.897">genera</text></g><!--link Admin to Factura--><g id="link_Admin_Factura"><path codeLine="48" d="M392.74,278.18 C411.82,300.44 431.09,327.99 441,357 C463.76,423.6 457.3849,499.3399 447.8049,554.0499 " fill="transparent" id="Admin-to-Factura" style="stroke:#181818;stroke-width:1;"/><polygon fill="#181818" points="446.77,559.96,452.2624,551.7848,447.6324,555.0349,444.3823,550.405,446.77,559.96" style="stroke:#181818;stroke-width:1;"/><text fill="#000000" font-family="sans-serif" font-size="13" lengthAdjust="spacing" textLength="51.7401" x="457" y="424.397">consulta</text></g><!--SRC=[TPBDJiCm3CVlVGeVGLDV80Saf0ck4uW7S1ktM4gJod4d9CIxqvAc8zsMc-tuu_-piOags2gq3cE44qaC7k6xWldLFWm6tbNOzyb10x8hN8Ss-3WvHJbnL8eFZmREWMtrKrMfvaUSK1ZeIydRVOk3K2GvfsoyJdws0_jxkJr5vTcMrEBIkupk1YkdVfd5Jt9hxhSqMMPXKT704PMI_Ha4IpZZ8k4AJiSoeAp5hhlywRxBMtcSOkco7CVWkN5ae0d14VgTfEFwWnqhwj8o_zkwliviGiQMSM97FQ_EaXOvdjU0-zXMBa7SPB0rm5vlS-DX3A86R9Xc3NbLdYJlee2q7azTFstxCD1XbOqba10QM4-fIZUpH4gP1l995Ebv-2MyZF4l_nBAS7y1]--></g></svg>