<svg xmlns="http://www.w3.org/2000/svg" xmlns:xlink="http://www.w3.org/1999/xlink" contentStyleType="text/css" data-diagram-type="DESCRIPTION" height="500px" preserveAspectRatio="none" style="width:393px;height:500px;background:#FFFFFF;" version="1.1" viewBox="0 0 393 500" width="393px" zoomAndPan="magnify"><defs/><g><!--cluster Sistema e-Commerce--><g id="cluster_Sistema e-Commerce"><path d="M8.5,6.602 L156.5974,6.602 A3.75,3.75 0 0 1 159.0974,9.102 L166.0974,31.6699 L379.5,31.6699 A2.5,2.5 0 0 1 382,34.1699 L382,491.102 A2.5,2.5 0 0 1 379.5,493.602 L8.5,493.602 A2.5,2.5 0 0 1 6,491.102 L6,9.102 A2.5,2.5 0 0 1 8.5,6.602 " fill="transparent" style="stroke:#000000;stroke-width:1.5;"/><line style="stroke:#000000;stroke-width:1.5;" x1="6" x2="166.0974" y1="31.6699" y2="31.6699"/><text fill="#000000" font-family="sans-serif" font-size="14" font-weight="bold" lengthAdjust="spacing" textLength="147.0974" x="10" y="23.5679">Sistema e-Commerce</text></g><!--entity Frontend--><g id="elem_Frontend"><rect fill="#F1F1F1" height="49.0679" rx="2.5" ry="2.5" style="stroke:#181818;stroke-width:0.5;" width="100.3818" x="92" y="44.602"/><rect fill="#F1F1F1" height="10" style="stroke:#181818;stroke-width:0.5;" width="15" x="172.3818" y="49.602"/><rect fill="#F1F1F1" height="2" style="stroke:#181818;stroke-width:0.5;" width="4" x="170.3818" y="51.602"/><rect fill="#F1F1F1" height="2" style="stroke:#181818;stroke-width:0.5;" width="4" x="170.3818" y="55.602"/><text fill="#000000" font-family="sans-serif" font-size="14" lengthAdjust="spacing" textLength="60.3818" x="107" y="79.5679">Frontend</text></g><!--entity Backend--><g id="elem_Backend"><rect fill="#F1F1F1" height="49.0679" rx="2.5" ry="2.5" style="stroke:#181818;stroke-width:0.5;" width="96.3078" x="94" y="172.602"/><rect fill="#F1F1F1" height="10" style="stroke:#181818;stroke-width:0.5;" width="15" x="170.3078" y="177.602"/><rect fill="#F1F1F1" height="2" style="stroke:#181818;stroke-width:0.5;" width="4" x="168.3078" y="179.602"/><rect fill="#F1F1F1" height="2" style="stroke:#181818;stroke-width:0.5;" width="4" x="168.3078" y="183.602"/><text fill="#000000" font-family="sans-serif" font-size="14" lengthAdjust="spacing" textLength="56.3078" x="109" y="207.5679">Backend</text></g><!--entity Base de Dades--><g id="elem_Base de Dades"><rect fill="#F1F1F1" height="49.0679" rx="2.5" ry="2.5" style="stroke:#181818;stroke-width:0.5;" width="136.6276" x="22.5" y="300.602"/><rect fill="#F1F1F1" height="10" style="stroke:#181818;stroke-width:0.5;" width="15" x="139.1276" y="305.602"/><rect fill="#F1F1F1" height="2" style="stroke:#181818;stroke-width:0.5;" width="4" x="137.1276" y="307.602"/><rect fill="#F1F1F1" height="2" style="stroke:#181818;stroke-width:0.5;" width="4" x="137.1276" y="311.602"/><text fill="#000000" font-family="sans-serif" font-size="14" lengthAdjust="spacing" textLength="96.6276" x="37.5" y="335.5679">Base de Dades</text></g><!--entity Servei de Pagament--><g id="elem_Servei de Pagament"><rect fill="#F1F1F1" height="49.0679" rx="2.5" ry="2.5" style="stroke:#181818;stroke-width:0.5;" width="171.2495" x="194.5" y="300.602"/><rect fill="#F1F1F1" height="10" style="stroke:#181818;stroke-width:0.5;" width="15" x="345.7495" y="305.602"/><rect fill="#F1F1F1" height="2" style="stroke:#181818;stroke-width:0.5;" width="4" x="343.7495" y="307.602"/><rect fill="#F1F1F1" height="2" style="stroke:#181818;stroke-width:0.5;" width="4" x="343.7495" y="311.602"/><text fill="#000000" font-family="sans-serif" font-size="14" lengthAdjust="spacing" textLength="131.2495" x="209.5" y="335.5679">Servei de Pagament</text></g><!--entity Banc--><g id="elem_Banc"><rect fill="#F1F1F1" height="49.0679" rx="2.5" ry="2.5" style="stroke:#181818;stroke-width:0.5;" width="72.3259" x="207" y="428.602"/><rect fill="#F1F1F1" height="10" style="stroke:#181818;stroke-width:0.5;" width="15" x="259.3259" y="433.602"/><rect fill="#F1F1F1" height="2" style="stroke:#181818;stroke-width:0.5;" width="4" x="257.3259" y="435.602"/><rect fill="#F1F1F1" height="2" style="stroke:#181818;stroke-width:0.5;" width="4" x="257.3259" y="439.602"/><text fill="#000000" font-family="sans-serif" font-size="14" lengthAdjust="spacing" textLength="32.3259" x="222" y="463.5679">Banc</text></g><!--link Frontend to Backend--><g id="link_Frontend_Backend"><path d="M142,93.802 C142,116.332 142,144.022 142,166.512 " fill="transparent" id="Frontend-to-Backend" style="stroke:#181818;stroke-width:1;"/><polygon fill="#181818" points="142,172.512,146,163.512,142,167.512,138,163.512,142,172.512" style="stroke:#181818;stroke-width:1;"/><text fill="#000000" font-family="sans-serif" font-size="13" lengthAdjust="spacing" textLength="53.6381" x="143" y="138.499">API REST</text></g><!--link Backend to Base de Dades--><g id="link_Backend_Base de Dades"><path d="M100.65,221.732 C90.37,229.792 80.68,239.802 75,251.602 C67.62,266.932 69.808,280.1912 75.878,294.8012 " fill="transparent" id="Backend-to-Base de Dades" style="stroke:#181818;stroke-width:1;"/><polygon fill="#181818" points="78.18,300.342,78.4208,290.4961,76.2616,295.7246,71.0331,293.5655,78.18,300.342" style="stroke:#181818;stroke-width:1;"/><text fill="#000000" font-family="sans-serif" font-size="13" lengthAdjust="spacing" textLength="87.4641" x="76" y="266.499">Consultes SQL</text></g><!--link Backend to Servei de Pagament--><g id="link_Backend_Servei de Pagament"><path d="M167.96,221.802 C192.63,244.332 225.0992,273.9762 249.7292,296.4662 " fill="transparent" id="Backend-to-Servei de Pagament" style="stroke:#181818;stroke-width:1;"/><polygon fill="#181818" points="254.16,300.512,250.2111,291.4895,250.4677,297.1405,244.8167,297.3971,254.16,300.512" style="stroke:#181818;stroke-width:1;"/><text fill="#000000" font-family="sans-serif" font-size="13" lengthAdjust="spacing" textLength="157.0011" x="220" y="266.499">Connexi&#243; amb passarel&#183;la</text></g><!--link Servei de Pagament to Banc--><g id="link_Servei de Pagament_Banc"><path d="M273.04,349.802 C266.43,372.332 258.2195,400.2648 251.6195,422.7548 " fill="transparent" id="Servei de Pagament-to-Banc" style="stroke:#181818;stroke-width:1;"/><polygon fill="#181818" points="249.93,428.512,256.3024,421.0025,251.3379,423.7143,248.6262,418.7498,249.93,428.512" style="stroke:#181818;stroke-width:1;"/><text fill="#000000" font-family="sans-serif" font-size="13" lengthAdjust="spacing" textLength="121.3941" x="264" y="394.499">Transacci&#243; banc&#224;ria</text></g><!--SRC=[ROun2i9044Nxd698dmjO21eL18lefWiMayqG5hEJiBEA8Dx5ErZOcukPDS7AwMR-Vu_fK9-m9eYL4KyMWPAqjPQSfXXk4GnJR5pBdhWwGfBCeLWEo7URmIBRmc6jyh7t2wQQ45G4Awn8GZbjMSwD9m6rt_qZ5BaBcS1aMACbzXF6T3Nz4z2MqA48EchUhmP7npzgUe1r4EGEML3he2Y7M_zm1gFx1m00]--></g></svg>