<svg xmlns="http://www.w3.org/2000/svg" xmlns:xlink="http://www.w3.org/1999/xlink" contentStyleType="text/css" data-diagram-type="SEQUENCE" height="532px" preserveAspectRatio="none" style="width:892px;height:532px;background:#FFFFFF;" version="1.1" viewBox="0 0 892 532" width="892px" zoomAndPan="magnify"><defs/><g><rect fill="transparent" height="140.8241" style="stroke:#000000;stroke-width:1.5;" width="592.2139" x="220.1222" y="259.598"/><g><title>Usuari</title><rect fill="transparent" height="365.0602" width="8" x="25.4199" y="84.0679"/><line style="stroke:#181818;stroke-width:0.5;stroke-dasharray:5.0,5.0;" x1="29" x2="29" y1="84.0679" y2="449.1281"/></g><g><title>Sistema</title><rect fill="transparent" height="365.0602" width="8" x="259.0711" y="84.0679"/><line style="stroke:#181818;stroke-width:0.5;stroke-dasharray:5.0,5.0;" x1="262.1222" x2="262.1222" y1="84.0679" y2="449.1281"/></g><g><title>PizzeriaService</title><rect fill="transparent" height="365.0602" width="8" x="582.1493" y="84.0679"/><line style="stroke:#181818;stroke-width:0.5;stroke-dasharray:5.0,5.0;" x1="585.6045" x2="585.6045" y1="84.0679" y2="449.1281"/></g><g><title>EntrantCard</title><rect fill="transparent" height="365.0602" width="8" x="694.657" y="84.0679"/><line style="stroke:#181818;stroke-width:0.5;stroke-dasharray:5.0,5.0;" x1="697.6941" x2="697.6941" y1="84.0679" y2="449.1281"/></g><g><title>Servidor (API)</title><rect fill="transparent" height="365.0602" width="8" x="831.4005" y="84.0679"/><line style="stroke:#181818;stroke-width:0.5;stroke-dasharray:5.0,5.0;" x1="834.8247" x2="834.8247" y1="84.0679" y2="449.1281"/></g><text fill="#000000" font-family="sans-serif" font-size="14" lengthAdjust="spacing" textLength="42.8398" x="5" y="79.9659">Usuari</text><ellipse cx="29.4199" cy="13.5" fill="#E2E2F0" rx="8" ry="8" style="stroke:#181818;stroke-width:0.5;"/><path d="M29.4199,21.5 L29.4199,48.5 M16.4199,29.5 L42.4199,29.5 M29.4199,48.5 L16.4199,63.5 M29.4199,48.5 L42.4199,63.5 " fill="transparent" style="stroke:#181818;stroke-width:0.5;"/><text fill="#000000" font-family="sans-serif" font-size="14" lengthAdjust="spacing" textLength="42.8398" x="5" y="463.094">Usuari</text><ellipse cx="29.4199" cy="475.696" fill="#E2E2F0" rx="8" ry="8" style="stroke:#181818;stroke-width:0.5;"/><path d="M29.4199,483.696 L29.4199,510.696 M16.4199,491.696 L42.4199,491.696 M29.4199,510.696 L16.4199,525.696 M29.4199,510.696 L42.4199,525.696 " fill="transparent" style="stroke:#181818;stroke-width:0.5;"/><rect fill="#E2E2F0" height="33.0679" rx="2.5" ry="2.5" style="stroke:#181818;stroke-width:0.5;" width="65.8978" x="230.1222" y="50"/><text fill="#000000" font-family="sans-serif" font-size="14" lengthAdjust="spacing" textLength="51.8978" x="237.1222" y="71.9659">Sistema</text><rect fill="#E2E2F0" height="33.0679" rx="2.5" ry="2.5" style="stroke:#181818;stroke-width:0.5;" width="65.8978" x="230.1222" y="448.1281"/><text fill="#000000" font-family="sans-serif" font-size="14" lengthAdjust="spacing" textLength="51.8978" x="237.1222" y="470.094">Sistema</text><rect fill="#E2E2F0" height="33.0679" rx="2.5" ry="2.5" style="stroke:#181818;stroke-width:0.5;" width="111.0896" x="530.6045" y="50"/><text fill="#000000" font-family="sans-serif" font-size="14" lengthAdjust="spacing" textLength="97.0896" x="537.6045" y="71.9659">PizzeriaService</text><rect fill="#E2E2F0" height="33.0679" rx="2.5" ry="2.5" style="stroke:#181818;stroke-width:0.5;" width="111.0896" x="530.6045" y="448.1281"/><text fill="#000000" font-family="sans-serif" font-size="14" lengthAdjust="spacing" textLength="97.0896" x="537.6045" y="470.094">PizzeriaService</text><rect fill="#E2E2F0" height="33.0679" rx="2.5" ry="2.5" style="stroke:#181818;stroke-width:0.5;" width="93.9257" x="651.6941" y="50"/><text fill="#000000" font-family="sans-serif" font-size="14" lengthAdjust="spacing" textLength="79.9257" x="658.6941" y="71.9659">EntrantCard</text><rect fill="#E2E2F0" height="33.0679" rx="2.5" ry="2.5" style="stroke:#181818;stroke-width:0.5;" width="93.9257" x="651.6941" y="448.1281"/><text fill="#000000" font-family="sans-serif" font-size="14" lengthAdjust="spacing" textLength="79.9257" x="658.6941" y="470.094">EntrantCard</text><rect fill="#E2E2F0" height="33.0679" rx="2.5" ry="2.5" style="stroke:#181818;stroke-width:0.5;" width="103.1517" x="783.8247" y="50"/><text fill="#000000" font-family="sans-serif" font-size="14" lengthAdjust="spacing" textLength="89.1517" x="790.8247" y="71.9659">Servidor (API)</text><rect fill="#E2E2F0" height="33.0679" rx="2.5" ry="2.5" style="stroke:#181818;stroke-width:0.5;" width="103.1517" x="783.8247" y="448.1281"/><text fill="#000000" font-family="sans-serif" font-size="14" lengthAdjust="spacing" textLength="89.1517" x="790.8247" y="470.094">Servidor (API)</text><polygon fill="#181818" points="251.0711,113.7739,261.0711,117.7739,251.0711,121.7739,255.0711,117.7739" style="stroke:#181818;stroke-width:1;"/><line style="stroke:#181818;stroke-width:1;" x1="29.4199" x2="257.0711" y1="117.7739" y2="117.7739"/><text fill="#000000" font-family="sans-serif" font-size="13" lengthAdjust="spacing" textLength="209.6512" x="36.4199" y="111.9649">Accedeix al sistema (DOM Loaded)</text><polygon fill="#181818" points="574.1493,145.4799,584.1493,149.4799,574.1493,153.4799,578.1493,149.4799" style="stroke:#181818;stroke-width:1;"/><line style="stroke:#181818;stroke-width:1;" x1="263.0711" x2="580.1493" y1="149.4799" y2="149.4799"/><text fill="#000000" font-family="sans-serif" font-size="13" lengthAdjust="spacing" textLength="299.0782" x="270.0711" y="143.6709">getAllEntrants() // M&#232;tode dins de PizzeriaService</text><polygon fill="#181818" points="823.4005,177.186,833.4005,181.186,823.4005,185.186,827.4005,181.186" style="stroke:#181818;stroke-width:1;"/><line style="stroke:#181818;stroke-width:1;" x1="586.1493" x2="829.4005" y1="181.186" y2="181.186"/><text fill="#000000" font-family="sans-serif" font-size="13" lengthAdjust="spacing" textLength="159.0421" x="593.1493" y="175.377">GET /api/pizzeria/entrants</text><line style="stroke:#181818;stroke-width:1;" x1="587.1493" x2="597.1493" y1="212.892" y2="208.892"/><line style="stroke:#181818;stroke-width:1;" x1="587.1493" x2="597.1493" y1="212.892" y2="216.892"/><line style="stroke:#181818;stroke-width:1;stroke-dasharray:2.0,2.0;" x1="586.1493" x2="834.4005" y1="212.892" y2="212.892"/><text fill="#000000" font-family="sans-serif" font-size="13" lengthAdjust="spacing" textLength="225.2512" x="603.1493" y="207.083">Retorna JSON amb la llista d'entrants</text><line style="stroke:#181818;stroke-width:1;" x1="264.0711" x2="274.0711" y1="244.598" y2="240.598"/><line style="stroke:#181818;stroke-width:1;" x1="264.0711" x2="274.0711" y1="244.598" y2="248.598"/><line style="stroke:#181818;stroke-width:1;stroke-dasharray:2.0,2.0;" x1="263.0711" x2="585.1493" y1="244.598" y2="244.598"/><text fill="#000000" font-family="sans-serif" font-size="13" lengthAdjust="spacing" textLength="151.4371" x="280.0711" y="238.789">Retorna array de Entrant</text><path d="M220.1222,259.598 L293.4102,259.598 L293.4102,269.304 L283.4102,279.304 L220.1222,279.304 L220.1222,259.598 " fill="#EEEEEE" style="stroke:#000000;stroke-width:1.5;"/><rect fill="transparent" height="140.8241" style="stroke:#000000;stroke-width:1.5;" width="592.2139" x="220.1222" y="259.598"/><text fill="#000000" font-family="sans-serif" font-size="13" font-weight="bold" lengthAdjust="spacing" textLength="28.288" x="235.1222" y="274.495">loop</text><text fill="#000000" font-family="sans-serif" font-size="11" font-weight="bold" lengthAdjust="spacing" textLength="99.4503" x="308.4102" y="273.3569">[Per cada entrant]</text><polygon fill="#181818" points="686.657,299.01,696.657,303.01,686.657,307.01,690.657,303.01" style="stroke:#181818;stroke-width:1;"/><line style="stroke:#181818;stroke-width:1;" x1="263.0711" x2="692.657" y1="303.01" y2="303.01"/><text fill="#000000" font-family="sans-serif" font-size="13" lengthAdjust="spacing" textLength="178.5682" x="270.0711" y="297.201">createElement('entrant-card')</text><line style="stroke:#181818;stroke-width:1;" x1="698.657" x2="740.657" y1="334.716" y2="334.716"/><line style="stroke:#181818;stroke-width:1;" x1="740.657" x2="740.657" y1="334.716" y2="347.716"/><line style="stroke:#181818;stroke-width:1;" x1="699.657" x2="740.657" y1="347.716" y2="347.716"/><polygon fill="#181818" points="709.657,343.716,699.657,347.716,709.657,351.716,705.657,347.716" style="stroke:#181818;stroke-width:1;"/><text fill="#000000" font-family="sans-serif" font-size="13" lengthAdjust="spacing" textLength="94.6791" x="705.657" y="328.907">render(entrant)</text><line style="stroke:#181818;stroke-width:1;" x1="263.0711" x2="305.0711" y1="379.4221" y2="379.4221"/><line style="stroke:#181818;stroke-width:1;" x1="305.0711" x2="305.0711" y1="379.4221" y2="392.4221"/><line style="stroke:#181818;stroke-width:1;" x1="264.0711" x2="305.0711" y1="392.4221" y2="392.4221"/><polygon fill="#181818" points="274.0711,388.4221,264.0711,392.4221,274.0711,396.4221,270.0711,392.4221" style="stroke:#181818;stroke-width:1;"/><text fill="#000000" font-family="sans-serif" font-size="13" lengthAdjust="spacing" textLength="288.9642" x="270.0711" y="373.6131">appendChild(card) // S'afegeix al div contenidor</text><line style="stroke:#181818;stroke-width:1;" x1="30.4199" x2="40.4199" y1="431.1281" y2="427.1281"/><line style="stroke:#181818;stroke-width:1;" x1="30.4199" x2="40.4199" y1="431.1281" y2="435.1281"/><line style="stroke:#181818;stroke-width:1;stroke-dasharray:2.0,2.0;" x1="29.4199" x2="262.0711" y1="431.1281" y2="431.1281"/><text fill="#000000" font-family="sans-serif" font-size="13" lengthAdjust="spacing" textLength="154.8951" x="46.4199" y="425.3191">Mostra la llista d'entrants</text><!--SRC=[RP51JiCm44NtFiMecoQBAFikAbMbGY1AAm876EoXM7Bio7Ohw8cu1nTZx3f04Dd4qhm__yyCokWyp9x24RsU0GOu1l9YG1-rr0FQ2BDEXqWzvcgFsawhUtq-azVOaJzfIPaAb_SKtDZe-R56hp8a-V77ACaKvwbM-vlwknFd4IaLDCli3mjOIKcAz1kWWN291zNLRWjt3XMfMcIE-PA49GUAAsDAY53LqBQm_Vo8JX4eRGFm_yyiObINHXnX0TURHsXnqErGu9PAJr6Ofbd-DduWNh55kErszu3zCnW4OpWqWffFjDagYSkKenAzn_UKhwGNmZWtm9wz92g4qaG0V-FWQRlSGdh2I1j3FKFLQDUawhpEWWp-23nPHRugO3tfMMBXC32qVjL6LKcLLzdDyOKEvIHAdq0w6yccSmgcHRb8cYxVSW5R5zZZtsry0G00]--></g></svg>