<svg xmlns="http://www.w3.org/2000/svg" xmlns:xlink="http://www.w3.org/1999/xlink" contentStyleType="text/css" data-diagram-type="CLASS" height="781px" preserveAspectRatio="none" style="width:1238px;height:781px;background:#FFFFFF;" version="1.1" viewBox="0 0 1238 781" width="1238px" zoomAndPan="magnify"><defs/><g><!--class Producte--><g id="elem_Producte"><rect codeLine="2" fill="#F1F1F1" height="143.3396" id="Producte" rx="2.5" ry="2.5" style="stroke:#181818;stroke-width:0.5;" width="133.1276" x="59" y="522"/><ellipse cx="92.6632" cy="538" fill="#ADD1B2" rx="11" ry="11" style="stroke:#181818;stroke-width:1;"/><path d="M95.632,543.6406 Q95.0538,543.9375 94.4132,544.0781 Q93.7726,544.2344 93.0695,544.2344 Q90.5695,544.2344 89.2413,542.5938 Q87.9288,540.9375 87.9288,537.8125 Q87.9288,534.6875 89.2413,533.0313 Q90.5695,531.375 93.0695,531.375 Q93.7726,531.375 94.4132,531.5313 Q95.0695,531.6875 95.632,531.9844 L95.632,534.7031 Q95.007,534.125 94.4132,533.8594 Q93.8195,533.5781 93.1945,533.5781 Q91.8507,533.5781 91.1632,534.6563 Q90.4757,535.7188 90.4757,537.8125 Q90.4757,539.9063 91.1632,540.9844 Q91.8507,542.0469 93.1945,542.0469 Q93.8195,542.0469 94.4132,541.7813 Q95.007,541.5 95.632,540.9219 L95.632,543.6406 Z " fill="#000000"/><text fill="#000000" font-family="sans-serif" font-size="14" lengthAdjust="spacing" textLength="59.6538" x="110.8106" y="543.432">Producte</text><line style="stroke:#181818;stroke-width:0.5;" x1="60" x2="191.1276" y1="554" y2="554"/><rect fill="transparent" height="6" style="stroke:#C82930;stroke-width:1;" width="6" x="67" y="566.034"/><text fill="#000000" font-family="sans-serif" font-size="14" lengthAdjust="spacing" textLength="72.2957" x="79" y="572.9659">id: number</text><rect fill="transparent" height="6" style="stroke:#C82930;stroke-width:1;" width="6" x="67" y="585.1019"/><text fill="#000000" font-family="sans-serif" font-size="14" lengthAdjust="spacing" textLength="76.0197" x="79" y="592.0339">nom: string</text><rect fill="transparent" height="6" style="stroke:#C82930;stroke-width:1;" width="6" x="67" y="604.1698"/><text fill="#000000" font-family="sans-serif" font-size="14" lengthAdjust="spacing" textLength="91.0136" x="79" y="611.1018">preu: number</text><rect fill="transparent" height="6" style="stroke:#C82930;stroke-width:1;" width="6" x="67" y="623.2377"/><text fill="#000000" font-family="sans-serif" font-size="14" lengthAdjust="spacing" textLength="71.1197" x="79" y="630.1697">img: string</text><line style="stroke:#181818;stroke-width:0.5;" x1="60" x2="191.1276" y1="638.2717" y2="638.2717"/><ellipse cx="70" cy="653.3056" fill="#84BE84" rx="3" ry="3" style="stroke:#038048;stroke-width:1;"/><text fill="#000000" font-family="sans-serif" font-size="14" lengthAdjust="spacing" textLength="107.1276" x="79" y="657.2376">toString(): string</text></g><!--class Entrant--><g id="elem_Entrant"><rect codeLine="10" fill="#F1F1F1" height="48" id="Entrant" rx="2.5" ry="2.5" style="stroke:#181818;stroke-width:0.5;" width="80.8318" x="7" y="365.5"/><ellipse cx="22" cy="381.5" fill="#ADD1B2" rx="11" ry="11" style="stroke:#181818;stroke-width:1;"/><path d="M24.9688,387.1406 Q24.3906,387.4375 23.75,387.5781 Q23.1094,387.7344 22.4063,387.7344 Q19.9063,387.7344 18.5781,386.0938 Q17.2656,384.4375 17.2656,381.3125 Q17.2656,378.1875 18.5781,376.5313 Q19.9063,374.875 22.4063,374.875 Q23.1094,374.875 23.75,375.0313 Q24.4063,375.1875 24.9688,375.4844 L24.9688,378.2031 Q24.3438,377.625 23.75,377.3594 Q23.1563,377.0781 22.5313,377.0781 Q21.1875,377.0781 20.5,378.1563 Q19.8125,379.2188 19.8125,381.3125 Q19.8125,383.4063 20.5,384.4844 Q21.1875,385.5469 22.5313,385.5469 Q23.1563,385.5469 23.75,385.2813 Q24.3438,385 24.9688,384.4219 L24.9688,387.1406 Z " fill="#000000"/><text fill="#000000" font-family="sans-serif" font-size="14" lengthAdjust="spacing" textLength="48.8318" x="36" y="386.932">Entrant</text><line style="stroke:#181818;stroke-width:0.5;" x1="8" x2="86.8318" y1="397.5" y2="397.5"/><line style="stroke:#181818;stroke-width:0.5;" x1="8" x2="86.8318" y1="405.5" y2="405.5"/></g><!--class Pizza--><g id="elem_Pizza"><rect codeLine="13" fill="#F1F1F1" height="143.3396" id="Pizza" rx="2.5" ry="2.5" style="stroke:#181818;stroke-width:0.5;" width="156.1015" x="123.5" y="318"/><ellipse cx="180.7528" cy="334" fill="#ADD1B2" rx="11" ry="11" style="stroke:#181818;stroke-width:1;"/><path d="M183.7216,339.6406 Q183.1434,339.9375 182.5028,340.0781 Q181.8622,340.2344 181.1591,340.2344 Q178.6591,340.2344 177.3309,338.5938 Q176.0184,336.9375 176.0184,333.8125 Q176.0184,330.6875 177.3309,329.0313 Q178.6591,327.375 181.1591,327.375 Q181.8622,327.375 182.5028,327.5313 Q183.1591,327.6875 183.7216,327.9844 L183.7216,330.7031 Q183.0966,330.125 182.5028,329.8594 Q181.9091,329.5781 181.2841,329.5781 Q179.9403,329.5781 179.2528,330.6563 Q178.5653,331.7188 178.5653,333.8125 Q178.5653,335.9063 179.2528,336.9844 Q179.9403,338.0469 181.2841,338.0469 Q181.9091,338.0469 182.5028,337.7813 Q183.0966,337.5 183.7216,336.9219 L183.7216,339.6406 Z " fill="#000000"/><text fill="#000000" font-family="sans-serif" font-size="14" lengthAdjust="spacing" textLength="33.0959" x="201.2528" y="339.432">Pizza</text><line style="stroke:#181818;stroke-width:0.5;" x1="124.5" x2="278.6015" y1="350" y2="350"/><ellipse cx="134.5" cy="365.034" fill="transparent" rx="3" ry="3" style="stroke:#038048;stroke-width:1;"/><text fill="#000000" font-family="sans-serif" font-size="14" lengthAdjust="spacing" textLength="130.1015" x="143.5" y="368.9659">ingredients: string[]</text><rect fill="transparent" height="6" style="stroke:#C82930;stroke-width:1;" width="6" x="131.5" y="381.1019"/><text fill="#000000" font-family="sans-serif" font-size="14" lengthAdjust="spacing" textLength="76.0197" x="143.5" y="388.0339">nom: string</text><rect fill="transparent" height="6" style="stroke:#C82930;stroke-width:1;" width="6" x="131.5" y="400.1698"/><text fill="#000000" font-family="sans-serif" font-size="14" lengthAdjust="spacing" textLength="91.0136" x="143.5" y="407.1018">preu: number</text><rect fill="transparent" height="6" style="stroke:#C82930;stroke-width:1;" width="6" x="131.5" y="419.2377"/><text fill="#000000" font-family="sans-serif" font-size="14" lengthAdjust="spacing" textLength="71.1197" x="143.5" y="426.1697">img: string</text><line style="stroke:#181818;stroke-width:0.5;" x1="124.5" x2="278.6015" y1="434.2717" y2="434.2717"/><ellipse cx="134.5" cy="449.3056" fill="#84BE84" rx="3" ry="3" style="stroke:#038048;stroke-width:1;"/><text fill="#000000" font-family="sans-serif" font-size="14" lengthAdjust="spacing" textLength="107.1276" x="143.5" y="453.2376">toString(): string</text></g><!--class PizzeriaService--><g id="elem_PizzeriaService"><rect codeLine="24" fill="#F1F1F1" height="86.1358" id="PizzeriaService" rx="2.5" ry="2.5" style="stroke:#181818;stroke-width:0.5;" width="483.5602" x="458.5" y="153"/><ellipse cx="647.4853" cy="169" fill="#ADD1B2" rx="11" ry="11" style="stroke:#181818;stroke-width:1;"/><path d="M650.4541,174.6406 Q649.8759,174.9375 649.2353,175.0781 Q648.5947,175.2344 647.8916,175.2344 Q645.3916,175.2344 644.0634,173.5938 Q642.7509,171.9375 642.7509,168.8125 Q642.7509,165.6875 644.0634,164.0313 Q645.3916,162.375 647.8916,162.375 Q648.5947,162.375 649.2353,162.5313 Q649.8916,162.6875 650.4541,162.9844 L650.4541,165.7031 Q649.8291,165.125 649.2353,164.8594 Q648.6416,164.5781 648.0166,164.5781 Q646.6728,164.5781 645.9853,165.6563 Q645.2978,166.7188 645.2978,168.8125 Q645.2978,170.9063 645.9853,171.9844 Q646.6728,173.0469 648.0166,173.0469 Q648.6416,173.0469 649.2353,172.7813 Q649.8291,172.5 650.4541,171.9219 L650.4541,174.6406 Z " fill="#000000"/><text fill="#000000" font-family="sans-serif" font-size="14" lengthAdjust="spacing" textLength="97.0896" x="667.9853" y="174.432">PizzeriaService</text><line style="stroke:#181818;stroke-width:0.5;" x1="459.5" x2="941.0602" y1="185" y2="185"/><line style="stroke:#181818;stroke-width:0.5;" x1="459.5" x2="941.0602" y1="193" y2="193"/><ellipse cx="469.5" cy="208.034" fill="#84BE84" rx="3" ry="3" style="stroke:#038048;stroke-width:1;"/><text fill="#000000" font-family="sans-serif" font-size="14" lengthAdjust="spacing" textLength="457.5602" x="478.5" y="211.9659">getAllEntrants() // M&#232;tode dins de PizzeriaService: Promise&lt;Entrant[]&gt;</text><ellipse cx="469.5" cy="227.1019" fill="#84BE84" rx="3" ry="3" style="stroke:#038048;stroke-width:1;"/><text fill="#000000" font-family="sans-serif" font-size="14" lengthAdjust="spacing" textLength="441.8663" x="478.5" y="231.0339">getAllPizzes() // M&#232;tode dins de PizzeriaService: Promise&lt;Entrant[]&gt;</text></g><!--class EntrantCard--><g id="elem_EntrantCard"><rect codeLine="29" fill="#F1F1F1" height="67.0679" id="EntrantCard" rx="2.5" ry="2.5" style="stroke:#181818;stroke-width:0.5;" width="189.2113" x="10" y="162.5"/><ellipse cx="60.3928" cy="178.5" fill="#ADD1B2" rx="11" ry="11" style="stroke:#181818;stroke-width:1;"/><path d="M63.3616,184.1406 Q62.7834,184.4375 62.1428,184.5781 Q61.5022,184.7344 60.7991,184.7344 Q58.2991,184.7344 56.9709,183.0938 Q55.6584,181.4375 55.6584,178.3125 Q55.6584,175.1875 56.9709,173.5313 Q58.2991,171.875 60.7991,171.875 Q61.5022,171.875 62.1428,172.0313 Q62.7991,172.1875 63.3616,172.4844 L63.3616,175.2031 Q62.7366,174.625 62.1428,174.3594 Q61.5491,174.0781 60.9241,174.0781 Q59.5803,174.0781 58.8928,175.1563 Q58.2053,176.2188 58.2053,178.3125 Q58.2053,180.4063 58.8928,181.4844 Q59.5803,182.5469 60.9241,182.5469 Q61.5491,182.5469 62.1428,182.2813 Q62.7366,182 63.3616,181.4219 L63.3616,184.1406 Z " fill="#000000"/><text fill="#000000" font-family="sans-serif" font-size="14" lengthAdjust="spacing" textLength="79.9257" x="80.8928" y="183.932">EntrantCard</text><line style="stroke:#181818;stroke-width:0.5;" x1="11" x2="198.2113" y1="194.5" y2="194.5"/><line style="stroke:#181818;stroke-width:0.5;" x1="11" x2="198.2113" y1="202.5" y2="202.5"/><ellipse cx="21" cy="217.534" fill="#84BE84" rx="3" ry="3" style="stroke:#038048;stroke-width:1;"/><text fill="#000000" font-family="sans-serif" font-size="14" lengthAdjust="spacing" textLength="163.2113" x="30" y="221.4659">connectedCallback():void</text></g><!--class PizzaCard--><g id="elem_PizzaCard"><rect codeLine="33" fill="#F1F1F1" height="67.0679" id="PizzaCard" rx="2.5" ry="2.5" style="stroke:#181818;stroke-width:0.5;" width="189.2113" x="234" y="162.5"/><ellipse cx="292.2608" cy="178.5" fill="#ADD1B2" rx="11" ry="11" style="stroke:#181818;stroke-width:1;"/><path d="M295.2295,184.1406 Q294.6514,184.4375 294.0108,184.5781 Q293.3702,184.7344 292.667,184.7344 Q290.167,184.7344 288.8389,183.0938 Q287.5264,181.4375 287.5264,178.3125 Q287.5264,175.1875 288.8389,173.5313 Q290.167,171.875 292.667,171.875 Q293.3702,171.875 294.0108,172.0313 Q294.667,172.1875 295.2295,172.4844 L295.2295,175.2031 Q294.6045,174.625 294.0108,174.3594 Q293.417,174.0781 292.792,174.0781 Q291.4483,174.0781 290.7608,175.1563 Q290.0733,176.2188 290.0733,178.3125 Q290.0733,180.4063 290.7608,181.4844 Q291.4483,182.5469 292.792,182.5469 Q293.417,182.5469 294.0108,182.2813 Q294.6045,182 295.2295,181.4219 L295.2295,184.1406 Z " fill="#000000"/><text fill="#000000" font-family="sans-serif" font-size="14" lengthAdjust="spacing" textLength="64.1898" x="312.7608" y="183.932">PizzaCard</text><line style="stroke:#181818;stroke-width:0.5;" x1="235" x2="422.2113" y1="194.5" y2="194.5"/><line style="stroke:#181818;stroke-width:0.5;" x1="235" x2="422.2113" y1="202.5" y2="202.5"/><ellipse cx="245" cy="217.534" fill="#84BE84" rx="3" ry="3" style="stroke:#038048;stroke-width:1;"/><text fill="#000000" font-family="sans-serif" font-size="14" lengthAdjust="spacing" textLength="163.2113" x="254" y="221.4659">connectedCallback():void</text></g><!--class CardComponent--><g id="elem_CardComponent"><rect codeLine="36" fill="#F1F1F1" height="67.0679" id="CardComponent" rx="2.5" ry="2.5" style="stroke:#181818;stroke-width:0.5;" width="140.8356" x="315" y="356"/><ellipse cx="330" cy="372" fill="#ADD1B2" rx="11" ry="11" style="stroke:#181818;stroke-width:1;"/><path d="M332.9688,377.6406 Q332.3906,377.9375 331.75,378.0781 Q331.1094,378.2344 330.4063,378.2344 Q327.9063,378.2344 326.5781,376.5938 Q325.2656,374.9375 325.2656,371.8125 Q325.2656,368.6875 326.5781,367.0313 Q327.9063,365.375 330.4063,365.375 Q331.1094,365.375 331.75,365.5313 Q332.4063,365.6875 332.9688,365.9844 L332.9688,368.7031 Q332.3438,368.125 331.75,367.8594 Q331.1563,367.5781 330.5313,367.5781 Q329.1875,367.5781 328.5,368.6563 Q327.8125,369.7188 327.8125,371.8125 Q327.8125,373.9063 328.5,374.9844 Q329.1875,376.0469 330.5313,376.0469 Q331.1563,376.0469 331.75,375.7813 Q332.3438,375.5 332.9688,374.9219 L332.9688,377.6406 Z " fill="#000000"/><text fill="#000000" font-family="sans-serif" font-size="14" lengthAdjust="spacing" textLength="108.8356" x="344" y="377.432">CardComponent</text><line style="stroke:#181818;stroke-width:0.5;" x1="316" x2="454.8356" y1="388" y2="388"/><ellipse cx="326" cy="403.034" fill="transparent" rx="3" ry="3" style="stroke:#038048;stroke-width:1;"/><text fill="#000000" font-family="sans-serif" font-size="14" lengthAdjust="spacing" textLength="37.1139" x="335" y="406.9659">styles</text><line style="stroke:#181818;stroke-width:0.5;" x1="316" x2="454.8356" y1="415.0679" y2="415.0679"/></g><!--class BaseComponent--><g id="elem_BaseComponent"><rect codeLine="40" fill="#F1F1F1" height="86.1358" id="BaseComponent" rx="2.5" ry="2.5" style="stroke:#181818;stroke-width:0.5;" width="141.2976" x="315" y="550.5"/><ellipse cx="330" cy="566.5" fill="#ADD1B2" rx="11" ry="11" style="stroke:#181818;stroke-width:1;"/><path d="M332.9688,572.1406 Q332.3906,572.4375 331.75,572.5781 Q331.1094,572.7344 330.4063,572.7344 Q327.9063,572.7344 326.5781,571.0938 Q325.2656,569.4375 325.2656,566.3125 Q325.2656,563.1875 326.5781,561.5313 Q327.9063,559.875 330.4063,559.875 Q331.1094,559.875 331.75,560.0313 Q332.4063,560.1875 332.9688,560.4844 L332.9688,563.2031 Q332.3438,562.625 331.75,562.3594 Q331.1563,562.0781 330.5313,562.0781 Q329.1875,562.0781 328.5,563.1563 Q327.8125,564.2188 327.8125,566.3125 Q327.8125,568.4063 328.5,569.4844 Q329.1875,570.5469 330.5313,570.5469 Q331.1563,570.5469 331.75,570.2813 Q332.3438,570 332.9688,569.4219 L332.9688,572.1406 Z " fill="#000000"/><text fill="#000000" font-family="sans-serif" font-size="14" lengthAdjust="spacing" textLength="109.2976" x="344" y="571.932">BaseComponent</text><line style="stroke:#181818;stroke-width:0.5;" x1="316" x2="455.2976" y1="582.5" y2="582.5"/><ellipse cx="326" cy="597.534" fill="transparent" rx="3" ry="3" style="stroke:#038048;stroke-width:1;"/><text fill="#000000" font-family="sans-serif" font-size="14" lengthAdjust="spacing" textLength="37.1139" x="335" y="601.4659">styles</text><line style="stroke:#181818;stroke-width:0.5;" x1="316" x2="455.2976" y1="609.5679" y2="609.5679"/><ellipse cx="326" cy="624.6019" fill="#84BE84" rx="3" ry="3" style="stroke:#038048;stroke-width:1;"/><text fill="#000000" font-family="sans-serif" font-size="14" lengthAdjust="spacing" textLength="84.5737" x="335" y="628.5339">render():void</text></g><!--class HTMLElement--><g id="elem_HTMLElement"><rect fill="#F1F1F1" height="48" id="HTMLElement" rx="2.5" ry="2.5" style="stroke:#181818;stroke-width:0.5;" width="124.1756" x="323.5" y="726"/><ellipse cx="338.5" cy="742" fill="#ADD1B2" rx="11" ry="11" style="stroke:#181818;stroke-width:1;"/><path d="M341.4688,747.6406 Q340.8906,747.9375 340.25,748.0781 Q339.6094,748.2344 338.9063,748.2344 Q336.4063,748.2344 335.0781,746.5938 Q333.7656,744.9375 333.7656,741.8125 Q333.7656,738.6875 335.0781,737.0313 Q336.4063,735.375 338.9063,735.375 Q339.6094,735.375 340.25,735.5313 Q340.9063,735.6875 341.4688,735.9844 L341.4688,738.7031 Q340.8438,738.125 340.25,737.8594 Q339.6563,737.5781 339.0313,737.5781 Q337.6875,737.5781 337,738.6563 Q336.3125,739.7188 336.3125,741.8125 Q336.3125,743.9063 337,744.9844 Q337.6875,746.0469 339.0313,746.0469 Q339.6563,746.0469 340.25,745.7813 Q340.8438,745.5 341.4688,744.9219 L341.4688,747.6406 Z " fill="#000000"/><text fill="#000000" font-family="sans-serif" font-size="14" lengthAdjust="spacing" textLength="92.1756" x="352.5" y="747.432">HTMLElement</text><line style="stroke:#181818;stroke-width:0.5;" x1="324.5" x2="446.6756" y1="758" y2="758"/><line style="stroke:#181818;stroke-width:0.5;" x1="324.5" x2="446.6756" y1="766" y2="766"/></g><!--class Main--><g id="elem_Main"><rect codeLine="50" fill="#F1F1F1" height="67.0679" id="Main" rx="2.5" ry="2.5" style="stroke:#181818;stroke-width:0.5;" width="188.5254" x="513" y="7"/><ellipse cx="586.6047" cy="23" fill="#ADD1B2" rx="11" ry="11" style="stroke:#181818;stroke-width:1;"/><path d="M589.5735,28.6406 Q588.9954,28.9375 588.3547,29.0781 Q587.7141,29.2344 587.011,29.2344 Q584.511,29.2344 583.1829,27.5938 Q581.8704,25.9375 581.8704,22.8125 Q581.8704,19.6875 583.1829,18.0313 Q584.511,16.375 587.011,16.375 Q587.7141,16.375 588.3547,16.5313 Q589.011,16.6875 589.5735,16.9844 L589.5735,19.7031 Q588.9485,19.125 588.3547,18.8594 Q587.761,18.5781 587.136,18.5781 Q585.7922,18.5781 585.1047,19.6563 Q584.4172,20.7188 584.4172,22.8125 Q584.4172,24.9063 585.1047,25.9844 Q585.7922,27.0469 587.136,27.0469 Q587.761,27.0469 588.3547,26.7813 Q588.9485,26.5 589.5735,25.9219 L589.5735,28.6406 Z " fill="#000000"/><text fill="#000000" font-family="sans-serif" font-size="14" lengthAdjust="spacing" textLength="32.8159" x="607.1047" y="28.432">Main</text><line style="stroke:#181818;stroke-width:0.5;" x1="514" x2="700.5254" y1="39" y2="39"/><line style="stroke:#181818;stroke-width:0.5;" x1="514" x2="700.5254" y1="47" y2="47"/><ellipse cx="524" cy="62.034" fill="#84BE84" rx="3" ry="3" style="stroke:#038048;stroke-width:1;"/><text fill="#000000" font-family="sans-serif" font-size="14" lengthAdjust="spacing" textLength="162.5254" x="533" y="65.9659">inicialitzaAplicacio(): void</text></g><g id="elem_GMN23"><path d="M977.5,155.5 L977.5,155.5 L702.15,70.73 L977.5,163.5 L977.5,236.3241 A0,0 0 0 0 977.5,236.3241 L1231.3172,236.3241 A0,0 0 0 0 1231.3172,236.3241 L1231.3172,165.5 L1221.3172,155.5 L977.5,155.5 A0,0 0 0 0 977.5,155.5 " fill="#FEFFDD" style="stroke:#181818;stroke-width:0.5;"/><path d="M1221.3172,155.5 L1221.3172,165.5 L1231.3172,165.5 L1221.3172,155.5 " fill="#FEFFDD" style="stroke:#181818;stroke-width:0.5;"/><text fill="#000000" font-family="sans-serif" font-size="13" lengthAdjust="spacing" textLength="207.0382" x="983.5" y="174.397">El codi principal (main.js) gestiona</text><text fill="#000000" font-family="sans-serif" font-size="13" lengthAdjust="spacing" textLength="229.4372" x="983.5" y="192.103">la creaci&#243; din&#224;mica dels EntrantCard i</text><text fill="#000000" font-family="sans-serif" font-size="13" lengthAdjust="spacing" textLength="189.0201" x="983.5" y="209.809">PizzaCard que s'afegeixen a un</text><text fill="#000000" font-family="sans-serif" font-size="13" lengthAdjust="spacing" textLength="91.5981" x="983.5" y="227.5151">div contenidor.</text></g><!--link Entrant to Producte--><g id="link_Entrant_Producte"><path codeLine="21" d="M56.45,413.67 C66.57,439.89 77.0654,467.0686 91.6554,504.8486 " fill="transparent" id="Entrant-to-Producte" style="stroke:#181818;stroke-width:1;"/><polygon fill="transparent" points="98.14,521.64,97.2526,502.6871,86.0583,507.0101,98.14,521.64" style="stroke:#181818;stroke-width:1;"/></g><!--link Pizza to Producte--><g id="link_Pizza_Producte"><path codeLine="22" d="M174.92,461.15 C167.51,480.83 165.8052,485.3617 158.4052,505.0417 " fill="transparent" id="Pizza-to-Producte" style="stroke:#181818;stroke-width:1;"/><polygon fill="transparent" points="152.07,521.89,164.0213,507.1535,152.7891,502.93,152.07,521.89" style="stroke:#181818;stroke-width:1;"/></g><!--link EntrantCard to CardComponent--><g id="link_EntrantCard_CardComponent"><path codeLine="45" d="M154.55,229.58 C181.64,247.09 215.77,268.94 246.5,288 C268.52,301.66 275.19,303.26 296.5,318 C313.36,329.66 317.2038,332.174 332.4538,344.484 " fill="transparent" id="EntrantCard-to-CardComponent" style="stroke:#181818;stroke-width:1;"/><polygon fill="transparent" points="346.46,355.79,336.2224,339.8153,328.6851,349.1527,346.46,355.79" style="stroke:#181818;stroke-width:1;"/></g><!--link PizzaCard to CardComponent--><g id="link_PizzaCard_CardComponent"><path codeLine="46" d="M344.21,229.83 C349.59,241.94 355.3,255.91 359.5,269 C368.74,297.81 372.5403,313.8585 376.9403,338.1385 " fill="transparent" id="PizzaCard-to-CardComponent" style="stroke:#181818;stroke-width:1;"/><polygon fill="transparent" points="380.15,355.85,382.8442,337.0686,371.0365,339.2084,380.15,355.85" style="stroke:#181818;stroke-width:1;"/></g><!--link CardComponent to BaseComponent--><g id="link_CardComponent_BaseComponent"><path codeLine="47" d="M385.5,423.4 C385.5,458.06 385.5,494.74 385.5,532.49 " fill="transparent" id="CardComponent-to-BaseComponent" style="stroke:#181818;stroke-width:1;"/><polygon fill="transparent" points="385.5,550.49,391.5,532.49,379.5,532.49,385.5,550.49" style="stroke:#181818;stroke-width:1;"/></g><!--link BaseComponent to HTMLElement--><g id="link_BaseComponent_HTMLElement"><path codeLine="48" d="M385.5,636.72 C385.5,665.49 385.5,684.48 385.5,707.97 " fill="transparent" id="BaseComponent-to-HTMLElement" style="stroke:#181818;stroke-width:1;"/><polygon fill="transparent" points="385.5,725.97,391.5,707.97,379.5,707.97,385.5,725.97" style="stroke:#181818;stroke-width:1;"/></g><!--link Main to PizzeriaService--><g id="link_Main_PizzeriaService"><path codeLine="54" d="M627.22,74.05 C641.14,97.02 656.8012,122.8682 671.8612,147.7282 " fill="transparent" id="Main-to-PizzeriaService" style="stroke:#181818;stroke-width:1;"/><polygon fill="#181818" points="674.97,152.86,673.728,143.0898,672.3793,148.5835,666.8856,147.2348,674.97,152.86" style="stroke:#181818;stroke-width:1;"/><text fill="#000000" font-family="sans-serif" font-size="13" lengthAdjust="spacing" textLength="54.21" x="658.5" y="118.897">crida API</text></g><!--link Main to EntrantCard--><g id="link_Main_EntrantCard"><path codeLine="55" d="M512.71,59.37 C459.5,70.33 392.21,85.76 333.5,104 C280.49,120.47 227.914,141.2778 183.504,160.1078 " fill="transparent" id="Main-to-EntrantCard" style="stroke:#181818;stroke-width:1;"/><polygon fill="#181818" points="177.98,162.45,187.8274,162.6194,182.5833,160.4982,184.7045,155.2541,177.98,162.45" style="stroke:#181818;stroke-width:1;"/><text fill="#000000" font-family="sans-serif" font-size="13" lengthAdjust="spacing" textLength="117.5461" x="334.5" y="118.897">crea din&#224;micament</text></g><!--link Main to PizzaCard--><g id="link_Main_PizzaCard"><path codeLine="56" d="M548.33,74.05 C500.98,100.1 440.1674,133.5686 392.8374,159.5986 " fill="transparent" id="Main-to-PizzaCard" style="stroke:#181818;stroke-width:1;"/><polygon fill="#181818" points="387.58,162.49,397.3936,161.6578,391.9611,160.0805,393.5385,154.648,387.58,162.49" style="stroke:#181818;stroke-width:1;"/><text fill="#000000" font-family="sans-serif" font-size="13" lengthAdjust="spacing" textLength="117.5461" x="494.5" y="118.897">crea din&#224;micament</text></g><!--link EntrantCard to Entrant--><g id="link_EntrantCard_Entrant"><path codeLine="57" d="M94.7,229.92 C83.21,268.52 66.1716,325.7793 56.1116,359.5793 " fill="transparent" id="EntrantCard-to-Entrant" style="stroke:#181818;stroke-width:1;"/><polygon fill="#181818" points="54.4,365.33,60.8012,357.845,55.8263,360.5378,53.1336,355.5629,54.4,365.33" style="stroke:#181818;stroke-width:1;"/><text fill="#000000" font-family="sans-serif" font-size="13" lengthAdjust="spacing" textLength="83.8241" x="84.5" y="283.897">mostra dades</text></g><!--link PizzaCard to Pizza--><g id="link_PizzaCard_Pizza"><path codeLine="58" d="M297.94,229.5 C287.39,241.47 275.88,255.43 266.5,269 C255.96,284.25 248.6773,296.1359 239.6173,312.5659 " fill="transparent" id="PizzaCard-to-Pizza" style="stroke:#181818;stroke-width:1;"/><polygon fill="#181818" points="236.72,317.82,244.5687,311.8703,239.1344,313.4416,237.5632,308.0073,236.72,317.82" style="stroke:#181818;stroke-width:1;"/><text fill="#000000" font-family="sans-serif" font-size="13" lengthAdjust="spacing" textLength="83.8241" x="267.5" y="283.897">mostra dades</text></g><!--SRC=[jPJFQXin4CRlUegvrIPiSZV5u1f32ZKOqbl8OInDp3JwuqXQaxhDk-IOUn_1BrQjl5wljWq4IlTYTlJDfvz6trfg305MtgbQHe8V0j9J0Qi9sDgioRS5wym4GlHiDsrbwwaUYDXi2j45H7UJNqVZRk5P29atNTZeqSQqPrTQyNwFBSG59BKdnMHZE7NVtlqFdXD9LVsSThCGHvYorkCaptX3ViUIEk8DnPdMhLqOZU7g2fQ7r-WKWM8R8FqEUYUDkU507zkssxjfuPRr_-0rdFSSlUg0fREMqi7K7BLUetn8WzavLeChUM_FiQLHpvtPEalvUezj8NxN5Cx6dp3GcwhZYoUhoFUG-aV85rDi9SwiVraigRAWG10bK1PSVrr-MMWopNABlKIslOIoPDGSzpZRQfOesJNHEl5cSLLD_mZC1AHdXJ1RVJwB-gTh18JDHHzUJ3BE28KTlgqhnzGP9x5nAVL9ZYeDkJ-krdCe4TQbVuMrYz4PSFVvz6AXKmOKfo-EhUGjQXYPLB_y5iOfio6oioWqPZB9XrzdkfHPNGQHeOVnM1E43tXF6-8die1GMw5urqGkacNb_AL8cO26Ilm6]--></g></svg>