<svg xmlns="http://www.w3.org/2000/svg" xmlns:xlink="http://www.w3.org/1999/xlink" contentStyleType="text/css" data-diagram-type="DESCRIPTION" height="190px" preserveAspectRatio="none" style="width:384px;height:190px;background:#FFFFFF;" version="1.1" viewBox="0 0 384 190" width="384px" zoomAndPan="magnify"><defs/><g><!--entity client--><g id="elem_client"><ellipse cx="189.3369" cy="14" fill="#F1F1F1" rx="8" ry="8" style="stroke:#181818;stroke-width:0.5;"/><path d="M189.3369,22 L189.3369,49 M176.3369,30 L202.3369,30 M189.3369,49 L176.3369,64 M189.3369,49 L202.3369,64 " fill="transparent" style="stroke:#181818;stroke-width:0.5;"/><text fill="#000000" font-family="sans-serif" font-size="14" lengthAdjust="spacing" textLength="37.6738" x="170.5" y="80.4659">Client</text></g><g id="elem_U1"><ellipse cx="87.3171" cy="164.6634" fill="#F1F1F1" rx="81.3171" ry="18.6634" style="stroke:#181818;stroke-width:0.5;"/><text fill="#000000" font-family="sans-serif" font-size="14" lengthAdjust="spacing" textLength="107.1136" x="30.7603" y="169.3964">Consultar Pizzes</text></g><g id="elem_U2"><ellipse cx="291.6591" cy="164.3318" fill="#F1F1F1" rx="87.1591" ry="19.8318" style="stroke:#181818;stroke-width:0.5;"/><text fill="#000000" font-family="sans-serif" font-size="14" lengthAdjust="spacing" textLength="122.8075" x="227.2553" y="169.0648">Consultar Entrants</text></g><!--link client to U2--><g id="link_client_U2"><path d="M208.69,68.1 C227.84,90.17 253.0476,119.1983 271.1576,140.0683 " fill="transparent" id="client-to-U2" style="stroke:#181818;stroke-width:1;"/><polygon fill="#181818" points="275.09,144.6,272.2125,135.1809,271.813,140.8236,266.1703,140.424,275.09,144.6" style="stroke:#181818;stroke-width:1;"/></g><!--link client to U1--><g id="link_client_U1"><path d="M170.31,68.1 C150.69,90.7 124.5426,120.8285 106.5526,141.5585 " fill="transparent" id="client-to-U1" style="stroke:#181818;stroke-width:1;"/><polygon fill="#181818" points="102.62,146.09,111.5399,141.9144,105.8971,142.3137,105.4978,136.671,102.62,146.09" style="stroke:#181818;stroke-width:1;"/></g><!--SRC=[IqmkoIzIK7BEoKpDAr5II2nMI0OpkRXAYrEJ4ujJWNBvUSMbEIM9HGe1cLLLgSLWLQ66s1IuvfKK9UQLG9KOSN5135FGrRK3SP5vXbm0]--></g></svg>