<svg xmlns="http://www.w3.org/2000/svg" xmlns:xlink="http://www.w3.org/1999/xlink" contentStyleType="text/css" data-diagram-type="DESCRIPTION" height="455px" preserveAspectRatio="none" style="width:668px;height:455px;background:#FFFFFF;" version="1.1" viewBox="0 0 668 455" width="668px" zoomAndPan="magnify"><defs/><g><!--cluster Aplicaci? Client (Web)--><g id="cluster_Aplicaci&#243; Client (Web)"><path d="M8.5,6.602 L160.7975,6.602 A3.75,3.75 0 0 1 163.2975,9.102 L170.2975,31.6699 L658.5,31.6699 A2.5,2.5 0 0 1 661,34.1699 L661,273.102 A2.5,2.5 0 0 1 658.5,275.602 L8.5,275.602 A2.5,2.5 0 0 1 6,273.102 L6,9.102 A2.5,2.5 0 0 1 8.5,6.602 " fill="transparent" style="stroke:#000000;stroke-width:1.5;"/><line style="stroke:#000000;stroke-width:1.5;" x1="6" x2="170.2975" y1="31.6699" y2="31.6699"/><text fill="#000000" font-family="sans-serif" font-size="14" font-weight="bold" lengthAdjust="spacing" textLength="151.2975" x="10" y="23.5679">Aplicaci&#243; Client (Web)</text></g><!--cluster Servidor (API)--><g id="cluster_Servidor (API)"><path d="M28.5,326.602 L124.9937,326.602 A3.75,3.75 0 0 1 127.4937,329.102 L134.4937,351.6699 L153.5,351.6699 A2.5,2.5 0 0 1 156,354.1699 L156,446.102 A2.5,2.5 0 0 1 153.5,448.602 L28.5,448.602 A2.5,2.5 0 0 1 26,446.102 L26,329.102 A2.5,2.5 0 0 1 28.5,326.602 " fill="transparent" style="stroke:#000000;stroke-width:1.5;"/><line style="stroke:#000000;stroke-width:1.5;" x1="26" x2="134.4937" y1="351.6699" y2="351.6699"/><text fill="#000000" font-family="sans-serif" font-size="14" font-weight="bold" lengthAdjust="spacing" textLength="95.4937" x="30" y="343.5679">Servidor (API)</text></g><!--entity main.js--><g id="elem_main.js"><rect fill="#F1F1F1" height="68.1358" rx="2.5" ry="2.5" style="stroke:#181818;stroke-width:0.5;" width="116.9697" x="203.5" y="44.602"/><rect fill="#F1F1F1" height="10" style="stroke:#181818;stroke-width:0.5;" width="15" x="300.4697" y="49.602"/><rect fill="#F1F1F1" height="2" style="stroke:#181818;stroke-width:0.5;" width="4" x="298.4697" y="51.602"/><rect fill="#F1F1F1" height="2" style="stroke:#181818;stroke-width:0.5;" width="4" x="298.4697" y="55.602"/><text fill="#000000" font-family="sans-serif" font-size="14" font-style="italic" lengthAdjust="spacing" textLength="74.9697" x="219.5" y="79.5679">&#171;JavaScript&#187;</text><text fill="#000000" font-family="sans-serif" font-size="14" lengthAdjust="spacing" textLength="47.2778" x="233.346" y="98.6358">main.js</text></g><!--entity PizzeriaService--><g id="elem_PizzeriaService"><rect fill="#F1F1F1" height="68.1358" rx="2.5" ry="2.5" style="stroke:#181818;stroke-width:0.5;" width="137.0896" x="22.5" y="191.602"/><rect fill="#F1F1F1" height="10" style="stroke:#181818;stroke-width:0.5;" width="15" x="139.5896" y="196.602"/><rect fill="#F1F1F1" height="2" style="stroke:#181818;stroke-width:0.5;" width="4" x="137.5896" y="198.602"/><rect fill="#F1F1F1" height="2" style="stroke:#181818;stroke-width:0.5;" width="4" x="137.5896" y="202.602"/><text fill="#000000" font-family="sans-serif" font-size="14" font-style="italic" lengthAdjust="spacing" textLength="50.1198" x="60.9849" y="226.5679">&#171;Servei&#187;</text><text fill="#000000" font-family="sans-serif" font-size="14" lengthAdjust="spacing" textLength="97.0896" x="37.5" y="245.6358">PizzeriaService</text></g><!--entity EntrantCard--><g id="elem_EntrantCard"><rect fill="#F1F1F1" height="68.1358" rx="2.5" ry="2.5" style="stroke:#181818;stroke-width:0.5;" width="154.6156" x="366.5" y="191.602"/><rect fill="#F1F1F1" height="10" style="stroke:#181818;stroke-width:0.5;" width="15" x="501.1156" y="196.602"/><rect fill="#F1F1F1" height="2" style="stroke:#181818;stroke-width:0.5;" width="4" x="499.1156" y="198.602"/><rect fill="#F1F1F1" height="2" style="stroke:#181818;stroke-width:0.5;" width="4" x="499.1156" y="202.602"/><text fill="#000000" font-family="sans-serif" font-size="14" font-style="italic" lengthAdjust="spacing" textLength="112.6156" x="382.5" y="226.5679">&#171;WebComponent&#187;</text><text fill="#000000" font-family="sans-serif" font-size="14" lengthAdjust="spacing" textLength="79.9257" x="398.8449" y="245.6358">EntrantCard</text></g><!--entity API REST--><g id="elem_API REST"><rect fill="#F1F1F1" height="68.1358" rx="2.5" ry="2.5" style="stroke:#181818;stroke-width:0.5;" width="97.7638" x="42" y="364.602"/><rect fill="#F1F1F1" height="10" style="stroke:#181818;stroke-width:0.5;" width="15" x="119.7638" y="369.602"/><rect fill="#F1F1F1" height="2" style="stroke:#181818;stroke-width:0.5;" width="4" x="117.7638" y="371.602"/><rect fill="#F1F1F1" height="2" style="stroke:#181818;stroke-width:0.5;" width="4" x="117.7638" y="375.602"/><text fill="#000000" font-family="sans-serif" font-size="14" font-style="italic" lengthAdjust="spacing" textLength="44.8418" x="63.461" y="399.5679">&#171;HTTP&#187;</text><text fill="#000000" font-family="sans-serif" font-size="14" lengthAdjust="spacing" textLength="57.7638" x="57" y="418.6358">API REST</text></g><!--link main.js to PizzeriaService--><g id="link_main.js_PizzeriaService"><path d="M203.26,89.412 C148.26,99.932 71.93,118.432 54,142.602 C43.11,157.272 46.5374,170.6928 57.1274,186.3428 " fill="transparent" id="main.js-to-PizzeriaService" style="stroke:#181818;stroke-width:1;"/><polygon fill="#181818" points="60.49,191.312,58.759,181.6164,57.6879,187.171,52.1333,186.0999,60.49,191.312" style="stroke:#181818;stroke-width:1;"/><text fill="#000000" font-family="sans-serif" font-size="13" lengthAdjust="spacing" textLength="345.3582" x="55" y="157.499">Crida a getAllEntrants() // M&#232;tode dins de PizzeriaService</text></g><!--link main.js to EntrantCard--><g id="link_main.js_EntrantCard"><path d="M320.78,94.972 C349.04,104.782 381.75,120.012 405,142.602 C418.68,155.892 426.0231,169.3278 432.2031,185.7178 " fill="transparent" id="main.js-to-EntrantCard" style="stroke:#181818;stroke-width:1;"/><polygon fill="#181818" points="434.32,191.332,434.8875,181.4995,432.5559,186.6535,427.4019,184.322,434.32,191.332" style="stroke:#181818;stroke-width:1;"/><text fill="#000000" font-family="sans-serif" font-size="13" lengthAdjust="spacing" textLength="199.3422" x="419" y="157.499">Crea din&#224;micament components</text></g><!--link PizzeriaService to API REST--><g id="link_PizzeriaService_API REST"><path d="M91,259.982 C91,290.202 91,328.492 91,358.602 " fill="transparent" id="PizzeriaService-to-API REST" style="stroke:#181818;stroke-width:1;"/><polygon fill="#181818" points="91,364.602,95,355.602,91,359.602,87,355.602,91,364.602" style="stroke:#181818;stroke-width:1;"/><text fill="#000000" font-family="sans-serif" font-size="13" lengthAdjust="spacing" textLength="159.0421" x="92" y="306.499">GET /api/pizzeria/entrants</text></g><!--SRC=[RP2zQiCm58LtFyN1apEataCm66Fw0mKJ6phVofTmMriMiiYGq7VfsBsFu1Uhb3ebTQj5GlhEqISPKg-qPyIvwKIHakaJHIUi7P8dVbx5E4NmGmsz6NJOZdiIVVConjXk7-X0jR9YN9OjiKgEHxP2DTk3A0vuMBByHKljB6bNa6q3vkyjBeSUVeiYSx4ybxM3HP9Nz__9-Mtiohe9FNTDKttdPsMirnaMNjYWiD8I27jsUTVDCcEoGfhYSVfmGyjeHO_myoBzg_dg6UTMfX2Rtdl_iNsm-_4SewL5o5_9Rt1RDaZ9I6fcCkLPx0i0]--></g></svg>