<svg xmlns="http://www.w3.org/2000/svg" xmlns:xlink="http://www.w3.org/1999/xlink" contentStyleType="text/css" data-diagram-type="CLASS" height="487px" preserveAspectRatio="none" style="width:943px;height:487px;background:#FFFFFF;" version="1.1" viewBox="0 0 943 487" width="943px" zoomAndPan="magnify"><defs/><g><!--class Entrant--><g id="elem_Entrant"><rect codeLine="2" fill="#F1F1F1" height="162.4075" id="Entrant" rx="2.5" ry="2.5" style="stroke:#181818;stroke-width:0.5;" width="133.1276" x="443.5" y="318"/><ellipse cx="482.0331" cy="334" fill="#ADD1B2" rx="11" ry="11" style="stroke:#181818;stroke-width:1;"/><path d="M485.0019,339.6406 Q484.4237,339.9375 483.7831,340.0781 Q483.1425,340.2344 482.4394,340.2344 Q479.9394,340.2344 478.6112,338.5938 Q477.2987,336.9375 477.2987,333.8125 Q477.2987,330.6875 478.6112,329.0313 Q479.9394,327.375 482.4394,327.375 Q483.1425,327.375 483.7831,327.5313 Q484.4394,327.6875 485.0019,327.9844 L485.0019,330.7031 Q484.3769,330.125 483.7831,329.8594 Q483.1894,329.5781 482.5644,329.5781 Q481.2206,329.5781 480.5331,330.6563 Q479.8456,331.7188 479.8456,333.8125 Q479.8456,335.9063 480.5331,336.9844 Q481.2206,338.0469 482.5644,338.0469 Q483.1894,338.0469 483.7831,337.7813 Q484.3769,337.5 485.0019,336.9219 L485.0019,339.6406 Z " fill="#000000"/><text fill="#000000" font-family="sans-serif" font-size="14" lengthAdjust="spacing" textLength="48.8318" x="501.2627" y="339.432">Entrant</text><line style="stroke:#181818;stroke-width:0.5;" x1="444.5" x2="575.6276" y1="350" y2="350"/><rect fill="transparent" height="6" style="stroke:#C82930;stroke-width:1;" width="6" x="451.5" y="362.034"/><text fill="#000000" font-family="sans-serif" font-size="14" lengthAdjust="spacing" textLength="72.2957" x="463.5" y="368.9659">id: number</text><rect fill="transparent" height="6" style="stroke:#C82930;stroke-width:1;" width="6" x="451.5" y="381.1019"/><text fill="#000000" font-family="sans-serif" font-size="14" lengthAdjust="spacing" textLength="76.0197" x="463.5" y="388.0339">nom: string</text><rect fill="transparent" height="6" style="stroke:#C82930;stroke-width:1;" width="6" x="451.5" y="400.1698"/><text fill="#000000" font-family="sans-serif" font-size="14" lengthAdjust="spacing" textLength="75.7397" x="463.5" y="407.1018">desc: string</text><rect fill="transparent" height="6" style="stroke:#C82930;stroke-width:1;" width="6" x="451.5" y="419.2377"/><text fill="#000000" font-family="sans-serif" font-size="14" lengthAdjust="spacing" textLength="91.0136" x="463.5" y="426.1697">preu: number</text><rect fill="transparent" height="6" style="stroke:#C82930;stroke-width:1;" width="6" x="451.5" y="438.3056"/><text fill="#000000" font-family="sans-serif" font-size="14" lengthAdjust="spacing" textLength="71.1197" x="463.5" y="445.2376">img: string</text><line style="stroke:#181818;stroke-width:0.5;" x1="444.5" x2="575.6276" y1="453.3396" y2="453.3396"/><ellipse cx="454.5" cy="468.3735" fill="#84BE84" rx="3" ry="3" style="stroke:#038048;stroke-width:1;"/><text fill="#000000" font-family="sans-serif" font-size="14" lengthAdjust="spacing" textLength="107.1276" x="463.5" y="472.3055">toString(): string</text></g><!--class PizzeriaService--><g id="elem_PizzeriaService"><rect codeLine="11" fill="#F1F1F1" height="67.0679" id="PizzeriaService" rx="2.5" ry="2.5" style="stroke:#181818;stroke-width:0.5;" width="483.5602" x="7" y="162.5"/><ellipse cx="195.9853" cy="178.5" fill="#ADD1B2" rx="11" ry="11" style="stroke:#181818;stroke-width:1;"/><path d="M198.9541,184.1406 Q198.3759,184.4375 197.7353,184.5781 Q197.0947,184.7344 196.3916,184.7344 Q193.8916,184.7344 192.5634,183.0938 Q191.2509,181.4375 191.2509,178.3125 Q191.2509,175.1875 192.5634,173.5313 Q193.8916,171.875 196.3916,171.875 Q197.0947,171.875 197.7353,172.0313 Q198.3916,172.1875 198.9541,172.4844 L198.9541,175.2031 Q198.3291,174.625 197.7353,174.3594 Q197.1416,174.0781 196.5166,174.0781 Q195.1728,174.0781 194.4853,175.1563 Q193.7978,176.2188 193.7978,178.3125 Q193.7978,180.4063 194.4853,181.4844 Q195.1728,182.5469 196.5166,182.5469 Q197.1416,182.5469 197.7353,182.2813 Q198.3291,182 198.9541,181.4219 L198.9541,184.1406 Z " fill="#000000"/><text fill="#000000" font-family="sans-serif" font-size="14" lengthAdjust="spacing" textLength="97.0896" x="216.4853" y="183.932">PizzeriaService</text><line style="stroke:#181818;stroke-width:0.5;" x1="8" x2="489.5602" y1="194.5" y2="194.5"/><line style="stroke:#181818;stroke-width:0.5;" x1="8" x2="489.5602" y1="202.5" y2="202.5"/><ellipse cx="18" cy="217.534" fill="#84BE84" rx="3" ry="3" style="stroke:#038048;stroke-width:1;"/><text fill="#000000" font-family="sans-serif" font-size="14" lengthAdjust="spacing" textLength="457.5602" x="27" y="221.4659">getAllEntrants() // M&#232;tode dins de PizzeriaService: Promise&lt;Entrant[]&gt;</text></g><!--class EntrantCard--><g id="elem_EntrantCard"><rect codeLine="15" fill="#F1F1F1" height="86.1358" id="EntrantCard" rx="2.5" ry="2.5" style="stroke:#181818;stroke-width:0.5;" width="131.1676" x="526.5" y="153"/><ellipse cx="550.1589" cy="169" fill="#ADD1B2" rx="11" ry="11" style="stroke:#181818;stroke-width:1;"/><path d="M553.1276,174.6406 Q552.5495,174.9375 551.9089,175.0781 Q551.2682,175.2344 550.5651,175.2344 Q548.0651,175.2344 546.737,173.5938 Q545.4245,171.9375 545.4245,168.8125 Q545.4245,165.6875 546.737,164.0313 Q548.0651,162.375 550.5651,162.375 Q551.2682,162.375 551.9089,162.5313 Q552.5651,162.6875 553.1276,162.9844 L553.1276,165.7031 Q552.5026,165.125 551.9089,164.8594 Q551.3151,164.5781 550.6901,164.5781 Q549.3464,164.5781 548.6589,165.6563 Q547.9714,166.7188 547.9714,168.8125 Q547.9714,170.9063 548.6589,171.9844 Q549.3464,173.0469 550.6901,173.0469 Q551.3151,173.0469 551.9089,172.7813 Q552.5026,172.5 553.1276,171.9219 L553.1276,174.6406 Z " fill="#000000"/><text fill="#000000" font-family="sans-serif" font-size="14" lengthAdjust="spacing" textLength="79.9257" x="566.083" y="174.432">EntrantCard</text><line style="stroke:#181818;stroke-width:0.5;" x1="527.5" x2="656.6676" y1="185" y2="185"/><ellipse cx="537.5" cy="200.034" fill="transparent" rx="3" ry="3" style="stroke:#038048;stroke-width:1;"/><text fill="#000000" font-family="sans-serif" font-size="14" lengthAdjust="spacing" textLength="105.1676" x="546.5" y="203.9659">entrant: Entrant</text><line style="stroke:#181818;stroke-width:0.5;" x1="527.5" x2="656.6676" y1="212.0679" y2="212.0679"/><ellipse cx="537.5" cy="227.1019" fill="#84BE84" rx="3" ry="3" style="stroke:#038048;stroke-width:1;"/><text fill="#000000" font-family="sans-serif" font-size="14" lengthAdjust="spacing" textLength="88.2137" x="546.5" y="231.0339">render(): void</text></g><!--class Main--><g id="elem_Main"><rect codeLine="20" fill="#F1F1F1" height="67.0679" id="Main" rx="2.5" ry="2.5" style="stroke:#181818;stroke-width:0.5;" width="188.5254" x="497.5" y="7"/><ellipse cx="571.1047" cy="23" fill="#ADD1B2" rx="11" ry="11" style="stroke:#181818;stroke-width:1;"/><path d="M574.0735,28.6406 Q573.4954,28.9375 572.8547,29.0781 Q572.2141,29.2344 571.511,29.2344 Q569.011,29.2344 567.6829,27.5938 Q566.3704,25.9375 566.3704,22.8125 Q566.3704,19.6875 567.6829,18.0313 Q569.011,16.375 571.511,16.375 Q572.2141,16.375 572.8547,16.5313 Q573.511,16.6875 574.0735,16.9844 L574.0735,19.7031 Q573.4485,19.125 572.8547,18.8594 Q572.261,18.5781 571.636,18.5781 Q570.2922,18.5781 569.6047,19.6563 Q568.9172,20.7188 568.9172,22.8125 Q568.9172,24.9063 569.6047,25.9844 Q570.2922,27.0469 571.636,27.0469 Q572.261,27.0469 572.8547,26.7813 Q573.4485,26.5 574.0735,25.9219 L574.0735,28.6406 Z " fill="#000000"/><text fill="#000000" font-family="sans-serif" font-size="14" lengthAdjust="spacing" textLength="32.8159" x="591.6047" y="28.432">Main</text><line style="stroke:#181818;stroke-width:0.5;" x1="498.5" x2="685.0254" y1="39" y2="39"/><line style="stroke:#181818;stroke-width:0.5;" x1="498.5" x2="685.0254" y1="47" y2="47"/><ellipse cx="508.5" cy="62.034" fill="#84BE84" rx="3" ry="3" style="stroke:#038048;stroke-width:1;"/><text fill="#000000" font-family="sans-serif" font-size="14" lengthAdjust="spacing" textLength="162.5254" x="517.5" y="65.9659">inicialitzaAplicacio(): void</text></g><!--class HTMLElement--><g id="elem_HTMLElement"><rect fill="#F1F1F1" height="48" id="HTMLElement" rx="2.5" ry="2.5" style="stroke:#181818;stroke-width:0.5;" width="124.1756" x="612" y="375"/><ellipse cx="627" cy="391" fill="#ADD1B2" rx="11" ry="11" style="stroke:#181818;stroke-width:1;"/><path d="M629.9688,396.6406 Q629.3906,396.9375 628.75,397.0781 Q628.1094,397.2344 627.4063,397.2344 Q624.9063,397.2344 623.5781,395.5938 Q622.2656,393.9375 622.2656,390.8125 Q622.2656,387.6875 623.5781,386.0313 Q624.9063,384.375 627.4063,384.375 Q628.1094,384.375 628.75,384.5313 Q629.4063,384.6875 629.9688,384.9844 L629.9688,387.7031 Q629.3438,387.125 628.75,386.8594 Q628.1563,386.5781 627.5313,386.5781 Q626.1875,386.5781 625.5,387.6563 Q624.8125,388.7188 624.8125,390.8125 Q624.8125,392.9063 625.5,393.9844 Q626.1875,395.0469 627.5313,395.0469 Q628.1563,395.0469 628.75,394.7813 Q629.3438,394.5 629.9688,393.9219 L629.9688,396.6406 Z " fill="#000000"/><text fill="#000000" font-family="sans-serif" font-size="14" lengthAdjust="spacing" textLength="92.1756" x="641" y="396.432">HTMLElement</text><line style="stroke:#181818;stroke-width:0.5;" x1="613" x2="735.1756" y1="407" y2="407"/><line style="stroke:#181818;stroke-width:0.5;" x1="613" x2="735.1756" y1="415" y2="415"/></g><g id="elem_GMN11"><path d="M693,164.5 L693,227.618 L936.7032,227.618 L936.7032,174.5 L926.7032,164.5 L693,164.5 " fill="#FEFFDD" style="stroke:#181818;stroke-width:0.5;"/><path d="M926.7032,164.5 L926.7032,174.5 L936.7032,174.5 L926.7032,164.5 " fill="#FEFFDD" style="stroke:#181818;stroke-width:1;"/><text fill="#000000" font-family="sans-serif" font-size="13" lengthAdjust="spacing" textLength="207.0382" x="699" y="183.397">El codi principal (main.js) gestiona</text><text fill="#000000" font-family="sans-serif" font-size="13" lengthAdjust="spacing" textLength="222.7032" x="699" y="201.103">la creaci&#243; din&#224;mica dels EntrantCard</text><text fill="#000000" font-family="sans-serif" font-size="13" lengthAdjust="spacing" textLength="221.0132" x="699" y="218.809">que s'afegeixen a un div contenidor.</text></g><!--link Main to PizzeriaService--><g id="link_Main_PizzeriaService"><path codeLine="24" d="M519.26,74.05 C461.05,100.1 385.2968,134.0096 327.1168,160.0396 " fill="transparent" id="Main-to-PizzeriaService" style="stroke:#181818;stroke-width:1;"/><polygon fill="#181818" points="321.64,162.49,331.4888,162.4657,326.204,160.448,328.2217,155.1632,321.64,162.49" style="stroke:#181818;stroke-width:1;"/><text fill="#000000" font-family="sans-serif" font-size="13" lengthAdjust="spacing" textLength="54.21" x="453" y="118.897">crida API</text></g><!--link Main to EntrantCard--><g id="link_Main_EntrantCard"><path codeLine="25" d="M592,74.05 C592,97.02 592,122 592,146.86 " fill="transparent" id="Main-to-EntrantCard" style="stroke:#181818;stroke-width:1;"/><polygon fill="#181818" points="592,152.86,596,143.86,592,147.86,588,143.86,592,152.86" style="stroke:#181818;stroke-width:1;"/><text fill="#000000" font-family="sans-serif" font-size="13" lengthAdjust="spacing" textLength="117.5461" x="593" y="118.897">crea din&#224;micament</text></g><!--link EntrantCard to Entrant--><g id="link_EntrantCard_Entrant"><path codeLine="26" d="M562.1,239.23 C556.21,248.74 550.48,258.98 546,269 C539.12,284.39 534.9526,295.6566 530.0726,312.1466 " fill="transparent" id="EntrantCard-to-Entrant" style="stroke:#181818;stroke-width:1;"/><polygon fill="#181818" points="528.37,317.9,534.7595,310.4051,529.7889,313.1055,527.0884,308.1349,528.37,317.9" style="stroke:#181818;stroke-width:1;"/><text fill="#000000" font-family="sans-serif" font-size="13" lengthAdjust="spacing" textLength="83.8241" x="547" y="283.897">mostra dades</text></g><!--link EntrantCard to HTMLElement--><g id="link_EntrantCard_HTMLElement"><path codeLine="27" d="M619.47,239.1 C625.07,248.7 630.59,259.01 635,269 C650.69,304.53 658.2288,330.7171 664.5488,357.0471 " fill="transparent" id="EntrantCard-to-HTMLElement" style="stroke:#181818;stroke-width:1;"/><polygon fill="transparent" points="668.75,374.55,670.3831,355.6467,658.7145,358.4476,668.75,374.55" style="stroke:#181818;stroke-width:1;"/><text fill="#000000" font-family="sans-serif" font-size="13" lengthAdjust="spacing" textLength="40.053" x="642" y="283.897">hereta</text></g><!--link Main to GMN11--><g id="link_Main_GMN11"><path d="M667.66,74.08 C685.1,82.84 703.17,92.98 719,104 C744.07,121.45 769,145.33 787.17,164.25 " fill="transparent" id="Main-GMN11" style="stroke:#181818;stroke-width:1;stroke-dasharray:7.0,7.0;"/></g><!--SRC=[PP7FIWD13CRlynIvsLBQtXSf52aeM2ZKctX8PsADp9ywCrkawhjuzEuZzCNChcjtk-vjl_bzoPT4Mqm95Zv7z1dU5CWt1ZO5-D9jA3Q23ww0b2FxRQCOIhedxIALFH-xxHaqWXpMzUzWU7huK4hNCLPyE51aN5FSiwOcpWYsbEVMDY7JO0ZJAIoFNpaO0iC-IPY-ju1L38uJNJQs-uTPswZHhZ2QKnFwrOg_nqQEv0t5Akq-i6bBB97zoSkUDQFbVC3vph96pQ5hgU7nUFPlmW9qP8CmNzsqK3TT1H1MKnu_dHHs4bDrWOv1O1TafuAZdAU7lS_W-cvvkx1KrH3sYI9bLCg7JB09EGS7uR4UJ2qiw61OJifUymuj39pea-Sqb6kapC6ZibY7qtpyRWFABUpPWjLBIP0ky96snA_a0Q7qmk-bWy_asOGuKR9bg8By0000]--></g></svg>