<svg xmlns="http://www.w3.org/2000/svg" xmlns:xlink="http://www.w3.org/1999/xlink" contentStyleType="text/css" data-diagram-type="CLASS" height="202px" preserveAspectRatio="none" style="width:188px;height:202px;background:#FFFFFF;" version="1.1" viewBox="0 0 188 202" width="188px" zoomAndPan="magnify"><defs/><g><!--class Nau--><g id="elem_Nau"><rect codeLine="2" fill="#F1F1F1" height="181.4754" id="Nau" rx="2.5" ry="2.5" style="stroke:#181818;stroke-width:0.5;" width="167.1895" x="7" y="7"/><ellipse cx="72.7718" cy="23" fill="#ADD1B2" rx="11" ry="11" style="stroke:#181818;stroke-width:1;"/><path d="M75.7405,28.6406 Q75.1624,28.9375 74.5218,29.0781 Q73.8812,29.2344 73.178,29.2344 Q70.678,29.2344 69.3499,27.5938 Q68.0374,25.9375 68.0374,22.8125 Q68.0374,19.6875 69.3499,18.0313 Q70.678,16.375 73.178,16.375 Q73.8812,16.375 74.5218,16.5313 Q75.178,16.6875 75.7405,16.9844 L75.7405,19.7031 Q75.1155,19.125 74.5218,18.8594 Q73.928,18.5781 73.303,18.5781 Q71.9593,18.5781 71.2718,19.6563 Q70.5843,20.7188 70.5843,22.8125 Q70.5843,24.9063 71.2718,25.9844 Q71.9593,27.0469 73.303,27.0469 Q73.928,27.0469 74.5218,26.7813 Q75.1155,26.5 75.7405,25.9219 L75.7405,28.6406 Z " fill="#000000"/><text fill="#000000" font-family="sans-serif" font-size="14" lengthAdjust="spacing" textLength="27.1459" x="93.2718" y="28.432">Nau</text><line style="stroke:#181818;stroke-width:0.5;" x1="8" x2="173.1895" y1="39" y2="39"/><rect fill="transparent" height="6" style="stroke:#C82930;stroke-width:1;" width="6" x="15" y="51.034"/><text fill="#000000" font-family="sans-serif" font-size="14" lengthAdjust="spacing" textLength="82.7537" x="27" y="57.9659">posicioX : int</text><rect fill="transparent" height="6" style="stroke:#C82930;stroke-width:1;" width="6" x="15" y="70.1019"/><text fill="#000000" font-family="sans-serif" font-size="14" lengthAdjust="spacing" textLength="78.8337" x="27" y="77.0339">posicioY: int</text><line style="stroke:#181818;stroke-width:0.5;" x1="8" x2="173.1895" y1="85.1358" y2="85.1358"/><ellipse cx="18" cy="100.1698" fill="#84BE84" rx="3" ry="3" style="stroke:#038048;stroke-width:1;"/><text fill="#000000" font-family="sans-serif" font-size="14" lengthAdjust="spacing" textLength="118.9295" x="27" y="104.1018">get_posicioX() : int</text><ellipse cx="18" cy="119.2377" fill="#84BE84" rx="3" ry="3" style="stroke:#038048;stroke-width:1;"/><text fill="#000000" font-family="sans-serif" font-size="14" lengthAdjust="spacing" textLength="118.6495" x="27" y="123.1697">get_posicioY() : int</text><ellipse cx="18" cy="138.3056" fill="#84BE84" rx="3" ry="3" style="stroke:#038048;stroke-width:1;"/><text fill="#000000" font-family="sans-serif" font-size="14" lengthAdjust="spacing" textLength="141.1895" x="27" y="142.2376">set_posicioX(int): void</text><ellipse cx="18" cy="157.3735" fill="#84BE84" rx="3" ry="3" style="stroke:#038048;stroke-width:1;"/><text fill="#000000" font-family="sans-serif" font-size="14" lengthAdjust="spacing" textLength="140.9095" x="27" y="161.3055">set_posicioY(int): void</text><ellipse cx="18" cy="176.4415" fill="#84BE84" rx="3" ry="3" style="stroke:#038048;stroke-width:1;"/><text fill="#000000" font-family="sans-serif" font-size="14" lengthAdjust="spacing" textLength="57.4278" x="27" y="180.3734">dispara()</text></g><!--SRC=[Iyv9B2vMy4iiLQZcKb3GBSWlpapEp8zGi5B8p2j14ec42MYdfvR4mvHfQ2fW4uz45Yz6LWyKqxHIAClFJ46JYaIJIiaiBaWiIjJGvAe50000]--></g></svg>