<svg xmlns="http://www.w3.org/2000/svg" xmlns:xlink="http://www.w3.org/1999/xlink" contentStyleType="text/css" data-diagram-type="CLASS" height="246px" preserveAspectRatio="none" style="width:621px;height:246px;background:#FFFFFF;" version="1.1" viewBox="0 0 621 246" width="621px" zoomAndPan="magnify"><defs/><g><!--class Nau--><g id="elem_Nau"><rect codeLine="4" fill="#F1F1F1" height="105.2038" id="Nau" rx="2.5" ry="2.5" style="stroke:#181818;stroke-width:0.5;" width="122.2636" x="257" y="134"/><ellipse cx="300.403" cy="150" fill="#ADD1B2" rx="11" ry="11" style="stroke:#181818;stroke-width:1;"/><path d="M303.3717,155.6406 Q302.7936,155.9375 302.153,156.0781 Q301.5124,156.2344 300.8092,156.2344 Q298.3092,156.2344 296.9811,154.5938 Q295.6686,152.9375 295.6686,149.8125 Q295.6686,146.6875 296.9811,145.0313 Q298.3092,143.375 300.8092,143.375 Q301.5124,143.375 302.153,143.5313 Q302.8092,143.6875 303.3717,143.9844 L303.3717,146.7031 Q302.7467,146.125 302.153,145.8594 Q301.5592,145.5781 300.9342,145.5781 Q299.5905,145.5781 298.903,146.6563 Q298.2155,147.7188 298.2155,149.8125 Q298.2155,151.9063 298.903,152.9844 Q299.5905,154.0469 300.9342,154.0469 Q301.5592,154.0469 302.153,153.7813 Q302.7467,153.5 303.3717,152.9219 L303.3717,155.6406 Z " fill="#000000"/><text fill="#000000" font-family="sans-serif" font-size="14" lengthAdjust="spacing" textLength="27.1459" x="320.7148" y="155.432">Nau</text><line style="stroke:#181818;stroke-width:0.5;" x1="258" x2="378.2636" y1="166" y2="166"/><rect fill="transparent" height="6" style="stroke:#C82930;stroke-width:1;" width="6" x="265" y="178.034"/><text fill="#000000" font-family="sans-serif" font-size="14" lengthAdjust="spacing" textLength="82.7537" x="277" y="184.9659">posicioX : int</text><rect fill="transparent" height="6" style="stroke:#C82930;stroke-width:1;" width="6" x="265" y="197.1019"/><text fill="#000000" font-family="sans-serif" font-size="14" lengthAdjust="spacing" textLength="82.4737" x="277" y="204.0339">posicioY : int</text><line style="stroke:#181818;stroke-width:0.5;" x1="258" x2="378.2636" y1="212.1358" y2="212.1358"/><ellipse cx="268" cy="227.1698" fill="#84BE84" rx="3" ry="3" style="stroke:#038048;stroke-width:1;"/><text fill="#000000" font-family="sans-serif" font-size="14" lengthAdjust="spacing" textLength="96.2636" x="277" y="231.1018">dispara() : void</text></g><!--class TieFighter--><g id="elem_TieFighter"><rect codeLine="10" fill="#F1F1F1" height="67.0679" id="TieFighter" rx="2.5" ry="2.5" style="stroke:#181818;stroke-width:0.5;" width="193.5094" x="7" y="7"/><ellipse cx="66.4228" cy="23" fill="#ADD1B2" rx="11" ry="11" style="stroke:#181818;stroke-width:1;"/><path d="M69.3916,28.6406 Q68.8134,28.9375 68.1728,29.0781 Q67.5322,29.2344 66.8291,29.2344 Q64.3291,29.2344 63.0009,27.5938 Q61.6884,25.9375 61.6884,22.8125 Q61.6884,19.6875 63.0009,18.0313 Q64.3291,16.375 66.8291,16.375 Q67.5322,16.375 68.1728,16.5313 Q68.8291,16.6875 69.3916,16.9844 L69.3916,19.7031 Q68.7666,19.125 68.1728,18.8594 Q67.5791,18.5781 66.9541,18.5781 Q65.6103,18.5781 64.9228,19.6563 Q64.2353,20.7188 64.2353,22.8125 Q64.2353,24.9063 64.9228,25.9844 Q65.6103,27.0469 66.9541,27.0469 Q67.5791,27.0469 68.1728,26.7813 Q68.7666,26.5 69.3916,25.9219 L69.3916,28.6406 Z " fill="#000000"/><text fill="#000000" font-family="sans-serif" font-size="14" lengthAdjust="spacing" textLength="66.1637" x="86.9228" y="28.432">TieFighter</text><line style="stroke:#181818;stroke-width:0.5;" x1="8" x2="199.5094" y1="39" y2="39"/><line style="stroke:#181818;stroke-width:0.5;" x1="8" x2="199.5094" y1="47" y2="47"/><ellipse cx="18" cy="62.034" fill="#84BE84" rx="3" ry="3" style="stroke:#038048;stroke-width:1;"/><text fill="#000000" font-family="sans-serif" font-size="14" lengthAdjust="spacing" textLength="167.5094" x="27" y="65.9659">activarCamuflatge() : void</text></g><!--class XWing--><g id="elem_XWing"><rect codeLine="14" fill="#F1F1F1" height="67.0679" id="XWing" rx="2.5" ry="2.5" style="stroke:#181818;stroke-width:0.5;" width="164.4455" x="236" y="7"/><ellipse cx="292.9238" cy="23" fill="#ADD1B2" rx="11" ry="11" style="stroke:#181818;stroke-width:1;"/><path d="M295.8926,28.6406 Q295.3144,28.9375 294.6738,29.0781 Q294.0332,29.2344 293.3301,29.2344 Q290.8301,29.2344 289.5019,27.5938 Q288.1894,25.9375 288.1894,22.8125 Q288.1894,19.6875 289.5019,18.0313 Q290.8301,16.375 293.3301,16.375 Q294.0332,16.375 294.6738,16.5313 Q295.3301,16.6875 295.8926,16.9844 L295.8926,19.7031 Q295.2676,19.125 294.6738,18.8594 Q294.0801,18.5781 293.4551,18.5781 Q292.1113,18.5781 291.4238,19.6563 Q290.7363,20.7188 290.7363,22.8125 Q290.7363,24.9063 291.4238,25.9844 Q292.1113,27.0469 293.4551,27.0469 Q294.0801,27.0469 294.6738,26.7813 Q295.2676,26.5 295.8926,25.9219 L295.8926,28.6406 Z " fill="#000000"/><text fill="#000000" font-family="sans-serif" font-size="14" lengthAdjust="spacing" textLength="42.0978" x="313.4238" y="28.432">XWing</text><line style="stroke:#181818;stroke-width:0.5;" x1="237" x2="399.4455" y1="39" y2="39"/><line style="stroke:#181818;stroke-width:0.5;" x1="237" x2="399.4455" y1="47" y2="47"/><ellipse cx="247" cy="62.034" fill="#84BE84" rx="3" ry="3" style="stroke:#038048;stroke-width:1;"/><text fill="#000000" font-family="sans-serif" font-size="14" lengthAdjust="spacing" textLength="138.4455" x="256" y="65.9659">llan&#231;arBomba() : void</text></g><!--class YWing--><g id="elem_YWing"><rect codeLine="18" fill="#F1F1F1" height="67.0679" id="YWing" rx="2.5" ry="2.5" style="stroke:#181818;stroke-width:0.5;" width="179.9574" x="435" y="7"/><ellipse cx="499.8198" cy="23" fill="#ADD1B2" rx="11" ry="11" style="stroke:#181818;stroke-width:1;"/><path d="M502.7886,28.6406 Q502.2104,28.9375 501.5698,29.0781 Q500.9292,29.2344 500.2261,29.2344 Q497.7261,29.2344 496.3979,27.5938 Q495.0854,25.9375 495.0854,22.8125 Q495.0854,19.6875 496.3979,18.0313 Q497.7261,16.375 500.2261,16.375 Q500.9292,16.375 501.5698,16.5313 Q502.2261,16.6875 502.7886,16.9844 L502.7886,19.7031 Q502.1636,19.125 501.5698,18.8594 Q500.9761,18.5781 500.3511,18.5781 Q499.0073,18.5781 498.3198,19.6563 Q497.6323,20.7188 497.6323,22.8125 Q497.6323,24.9063 498.3198,25.9844 Q499.0073,27.0469 500.3511,27.0469 Q500.9761,27.0469 501.5698,26.7813 Q502.1636,26.5 502.7886,25.9219 L502.7886,28.6406 Z " fill="#000000"/><text fill="#000000" font-family="sans-serif" font-size="14" lengthAdjust="spacing" textLength="41.8178" x="520.3198" y="28.432">YWing</text><line style="stroke:#181818;stroke-width:0.5;" x1="436" x2="613.9574" y1="39" y2="39"/><line style="stroke:#181818;stroke-width:0.5;" x1="436" x2="613.9574" y1="47" y2="47"/><ellipse cx="446" cy="62.034" fill="#84BE84" rx="3" ry="3" style="stroke:#038048;stroke-width:1;"/><text fill="#000000" font-family="sans-serif" font-size="14" lengthAdjust="spacing" textLength="153.9574" x="455" y="65.9659">botarHiperespai() : void</text></g><!--link TieFighter to Nau--><g id="link_TieFighter_Nau"><path codeLine="22" d="M152.56,74.18 C183.51,95 208.9442,112.1241 242.0542,134.3941 " fill="transparent" id="TieFighter-to-Nau" style="stroke:#181818;stroke-width:1;"/><polygon fill="transparent" points="256.99,144.44,245.4028,129.4155,238.7055,139.3727,256.99,144.44" style="stroke:#181818;stroke-width:1;"/></g><!--link XWing to Nau--><g id="link_XWing_Nau"><path codeLine="23" d="M318,74.18 C318,91.77 318,95.88 318,115.75 " fill="transparent" id="XWing-to-Nau" style="stroke:#181818;stroke-width:1;"/><polygon fill="transparent" points="318,133.75,324,115.75,312,115.75,318,133.75" style="stroke:#181818;stroke-width:1;"/></g><!--link YWing to Nau--><g id="link_YWing_Nau"><path codeLine="24" d="M478.03,74.18 C448.8,94.51 425.686,110.5904 394.106,132.5604 " fill="transparent" id="YWing-to-Nau" style="stroke:#181818;stroke-width:1;"/><polygon fill="transparent" points="379.33,142.84,397.5325,137.4858,390.6795,127.6351,379.33,142.84" style="stroke:#181818;stroke-width:1;"/></g><!--SRC=[Iyv9B2vMy4iiLQZcKb3GBSWlpapEp8zGi5B8p2j14ec4YsYdP1ON91ObQcW2XShoCrEuQhcuai76X6IckcMcPvIa5e5DqqvCBiaiIonoJimjJSj9B4bFnQ8d8ZmpBnsYF2SdCU_myiGYf_pS96p6HoAK9kMN91PvP1Qa5gK27PE9eXZ95RgwDNOWpt51R85p8r6u0000]--></g></svg>