<svg xmlns="http://www.w3.org/2000/svg" xmlns:xlink="http://www.w3.org/1999/xlink" contentStyleType="text/css" data-diagram-type="CLASS" height="126px" preserveAspectRatio="none" style="width:143px;height:126px;background:#FFFFFF;" version="1.1" viewBox="0 0 143 126" width="143px" zoomAndPan="magnify"><defs/><g><!--class Nau--><g id="elem_Nau"><rect codeLine="2" fill="#F1F1F1" height="105.2038" id="Nau" rx="2.5" ry="2.5" style="stroke:#181818;stroke-width:0.5;" width="122.2636" x="7" y="7"/><ellipse cx="50.9385" cy="23" fill="#A9DCDF" rx="11" ry="11" style="stroke:#181818;stroke-width:1;"/><path d="M51.0479,18.3438 L49.8916,23.4219 L52.2197,23.4219 L51.0479,18.3438 Z M49.5635,16.1094 L52.5479,16.1094 L55.9072,28.5 L53.4541,28.5 L52.6885,25.4375 L49.4072,25.4375 L48.6572,28.5 L46.2197,28.5 L49.5635,16.1094 Z " fill="#000000"/><text fill="#000000" font-family="sans-serif" font-size="14" font-style="italic" lengthAdjust="spacing" textLength="25.9559" x="71.3693" y="28.432">Nau</text><line style="stroke:#181818;stroke-width:0.5;" x1="8" x2="128.2636" y1="39" y2="39"/><rect fill="transparent" height="6" style="stroke:#C82930;stroke-width:1;" width="6" x="15" y="51.034"/><text fill="#000000" font-family="sans-serif" font-size="14" lengthAdjust="spacing" textLength="82.7537" x="27" y="57.9659">posicioX : int</text><rect fill="transparent" height="6" style="stroke:#C82930;stroke-width:1;" width="6" x="15" y="70.1019"/><text fill="#000000" font-family="sans-serif" font-size="14" lengthAdjust="spacing" textLength="82.4737" x="27" y="77.0339">posicioY : int</text><line style="stroke:#181818;stroke-width:0.5;" x1="8" x2="128.2636" y1="85.1358" y2="85.1358"/><ellipse cx="18" cy="100.1698" fill="#84BE84" rx="3" ry="3" style="stroke:#038048;stroke-width:1;"/><text fill="#000000" font-family="sans-serif" font-size="14" lengthAdjust="spacing" textLength="96.2636" x="27" y="104.1018">dispara() : void</text></g><!--SRC=[IqmgBYbAJ2vHICv9B2vMy4iiLQZcKb3GBSWlpapEp8zGi5B8p2j14ec4YsYdP1ON91ObQcW2XShoCrEuQW40]--></g></svg>