<svg xmlns="http://www.w3.org/2000/svg" xmlns:xlink="http://www.w3.org/1999/xlink" contentStyleType="text/css" data-diagram-type="CLASS" height="208px" preserveAspectRatio="none" style="width:137px;height:208px;background:#FFFFFF;" version="1.1" viewBox="0 0 137 208" width="137px" zoomAndPan="magnify"><defs/><g><!--class Dibuixable--><g id="elem_Dibuixable"><rect codeLine="2" fill="#F1F1F1" height="67.0679" id="Dibuixable" rx="2.5" ry="2.5" style="stroke:#181818;stroke-width:0.5;" width="123.2016" x="7" y="134"/><ellipse cx="33.2544" cy="150" fill="#B4A7E5" rx="11" ry="11" style="stroke:#181818;stroke-width:1;"/><path d="M29.1763,145.7656 L29.1763,143.6094 L36.5669,143.6094 L36.5669,145.7656 L34.0982,145.7656 L34.0982,153.8438 L36.5669,153.8438 L36.5669,156 L29.1763,156 L29.1763,153.8438 L31.6451,153.8438 L31.6451,145.7656 L29.1763,145.7656 Z " fill="#000000"/><text fill="#000000" font-family="sans-serif" font-size="14" font-style="italic" lengthAdjust="spacing" textLength="66.1918" x="49.7554" y="155.432">Dibuixable</text><line style="stroke:#181818;stroke-width:0.5;" x1="8" x2="129.2016" y1="166" y2="166"/><line style="stroke:#181818;stroke-width:0.5;" x1="8" x2="129.2016" y1="174" y2="174"/><ellipse cx="18" cy="189.034" fill="#84BE84" rx="3" ry="3" style="stroke:#038048;stroke-width:1;"/><text fill="#000000" font-family="sans-serif" font-size="14" lengthAdjust="spacing" textLength="97.2016" x="27" y="192.9659">Dibuixa() : void</text></g><!--class Nau--><g id="elem_Nau"><rect codeLine="6" fill="#F1F1F1" height="67.0679" id="Nau" rx="2.5" ry="2.5" style="stroke:#181818;stroke-width:0.5;" width="123.2016" x="7" y="7"/><ellipse cx="50.8251" cy="23" fill="#ADD1B2" rx="11" ry="11" style="stroke:#181818;stroke-width:1;"/><path d="M53.7938,28.6406 Q53.2157,28.9375 52.5751,29.0781 Q51.9345,29.2344 51.2313,29.2344 Q48.7313,29.2344 47.4032,27.5938 Q46.0907,25.9375 46.0907,22.8125 Q46.0907,19.6875 47.4032,18.0313 Q48.7313,16.375 51.2313,16.375 Q51.9345,16.375 52.5751,16.5313 Q53.2313,16.6875 53.7938,16.9844 L53.7938,19.7031 Q53.1688,19.125 52.5751,18.8594 Q51.9813,18.5781 51.3563,18.5781 Q50.0126,18.5781 49.3251,19.6563 Q48.6376,20.7188 48.6376,22.8125 Q48.6376,24.9063 49.3251,25.9844 Q50.0126,27.0469 51.3563,27.0469 Q51.9813,27.0469 52.5751,26.7813 Q53.1688,26.5 53.7938,25.9219 L53.7938,28.6406 Z " fill="#000000"/><text fill="#000000" font-family="sans-serif" font-size="14" lengthAdjust="spacing" textLength="27.1459" x="71.2306" y="28.432">Nau</text><line style="stroke:#181818;stroke-width:0.5;" x1="8" x2="129.2016" y1="39" y2="39"/><line style="stroke:#181818;stroke-width:0.5;" x1="8" x2="129.2016" y1="47" y2="47"/><ellipse cx="18" cy="62.034" fill="#84BE84" rx="3" ry="3" style="stroke:#038048;stroke-width:1;"/><text fill="#000000" font-family="sans-serif" font-size="14" lengthAdjust="spacing" textLength="97.2016" x="27" y="65.9659">Dibuixa() : void</text></g><!--link Nau to Dibuixable--><g id="link_Nau_Dibuixable"><path codeLine="10" d="M68.5,74.02 C68.5,92.39 68.5,97.29 68.5,115.71 " fill="transparent" id="Nau-to-Dibuixable" style="stroke:#181818;stroke-width:1;stroke-dasharray:7.0,7.0;"/><polygon fill="transparent" points="68.5,133.71,74.5,115.71,62.5,115.71,68.5,133.71" style="stroke:#181818;stroke-width:1;"/></g><!--SRC=[oymhIIrAIqnELN39J2hDh4XCoabLgEPIKD26yZKq5QmKol8pKxXgkRYISnABYnNy4ajnAm59wkdLs26P1m00]--></g></svg>