<svg xmlns="http://www.w3.org/2000/svg" xmlns:xlink="http://www.w3.org/1999/xlink" contentStyleType="text/css" data-diagram-type="CLASS" height="227px" preserveAspectRatio="none" style="width:324px;height:227px;background:#FFFFFF;" version="1.1" viewBox="0 0 324 227" width="324px" zoomAndPan="magnify"><defs/><g><!--class Nau--><g id="elem_Nau"><rect codeLine="2" fill="#F1F1F1" height="105.2038" id="Nau" rx="2.5" ry="2.5" style="stroke:#181818;stroke-width:0.5;" width="166.2795" x="94.5" y="7"/><ellipse cx="159.8168" cy="23" fill="#ADD1B2" rx="11" ry="11" style="stroke:#181818;stroke-width:1;"/><path d="M162.7856,28.6406 Q162.2074,28.9375 161.5668,29.0781 Q160.9262,29.2344 160.2231,29.2344 Q157.7231,29.2344 156.3949,27.5938 Q155.0824,25.9375 155.0824,22.8125 Q155.0824,19.6875 156.3949,18.0313 Q157.7231,16.375 160.2231,16.375 Q160.9262,16.375 161.5668,16.5313 Q162.2231,16.6875 162.7856,16.9844 L162.7856,19.7031 Q162.1606,19.125 161.5668,18.8594 Q160.9731,18.5781 160.3481,18.5781 Q159.0043,18.5781 158.3168,19.6563 Q157.6293,20.7188 157.6293,22.8125 Q157.6293,24.9063 158.3168,25.9844 Q159.0043,27.0469 160.3481,27.0469 Q160.9731,27.0469 161.5668,26.7813 Q162.1606,26.5 162.7856,25.9219 L162.7856,28.6406 Z " fill="#000000"/><text fill="#000000" font-family="sans-serif" font-size="14" lengthAdjust="spacing" textLength="27.1459" x="180.3168" y="28.432">Nau</text><line style="stroke:#181818;stroke-width:0.5;" x1="95.5" x2="259.7795" y1="39" y2="39"/><rect fill="transparent" height="6" style="stroke:#C82930;stroke-width:1;" width="6" x="102.5" y="51.034"/><text fill="#000000" font-family="sans-serif" font-size="14" lengthAdjust="spacing" textLength="140.2795" x="114.5" y="57.9659">propulsor : Propulsor</text><rect fill="transparent" height="6" style="stroke:#C82930;stroke-width:1;" width="6" x="102.5" y="70.1019"/><text fill="#000000" font-family="sans-serif" font-size="14" lengthAdjust="spacing" textLength="99.7636" x="114.5" y="77.0339">cabina : Cabina</text><rect fill="transparent" height="6" style="stroke:#C82930;stroke-width:1;" width="6" x="102.5" y="89.1698"/><text fill="#000000" font-family="sans-serif" font-size="14" lengthAdjust="spacing" textLength="76.5517" x="114.5" y="96.1018">cano : Cano</text><line style="stroke:#181818;stroke-width:0.5;" x1="95.5" x2="259.7795" y1="104.2038" y2="104.2038"/></g><!--class Propulsor--><g id="elem_Propulsor"><rect codeLine="8" fill="#F1F1F1" height="48" id="Propulsor" rx="2.5" ry="2.5" style="stroke:#181818;stroke-width:0.5;" width="96.5538" x="7" y="172"/><ellipse cx="22" cy="188" fill="#ADD1B2" rx="11" ry="11" style="stroke:#181818;stroke-width:1;"/><path d="M24.9688,193.6406 Q24.3906,193.9375 23.75,194.0781 Q23.1094,194.2344 22.4063,194.2344 Q19.9063,194.2344 18.5781,192.5938 Q17.2656,190.9375 17.2656,187.8125 Q17.2656,184.6875 18.5781,183.0313 Q19.9063,181.375 22.4063,181.375 Q23.1094,181.375 23.75,181.5313 Q24.4063,181.6875 24.9688,181.9844 L24.9688,184.7031 Q24.3438,184.125 23.75,183.8594 Q23.1563,183.5781 22.5313,183.5781 Q21.1875,183.5781 20.5,184.6563 Q19.8125,185.7188 19.8125,187.8125 Q19.8125,189.9063 20.5,190.9844 Q21.1875,192.0469 22.5313,192.0469 Q23.1563,192.0469 23.75,191.7813 Q24.3438,191.5 24.9688,190.9219 L24.9688,193.6406 Z " fill="#000000"/><text fill="#000000" font-family="sans-serif" font-size="14" lengthAdjust="spacing" textLength="64.5538" x="36" y="193.432">Propulsor</text><line style="stroke:#181818;stroke-width:0.5;" x1="8" x2="102.5538" y1="204" y2="204"/><line style="stroke:#181818;stroke-width:0.5;" x1="8" x2="102.5538" y1="212" y2="212"/></g><!--class Cabina--><g id="elem_Cabina"><rect codeLine="9" fill="#F1F1F1" height="48" id="Cabina" rx="2.5" ry="2.5" style="stroke:#181818;stroke-width:0.5;" width="77.4298" x="139" y="172"/><ellipse cx="154" cy="188" fill="#ADD1B2" rx="11" ry="11" style="stroke:#181818;stroke-width:1;"/><path d="M156.9688,193.6406 Q156.3906,193.9375 155.75,194.0781 Q155.1094,194.2344 154.4063,194.2344 Q151.9063,194.2344 150.5781,192.5938 Q149.2656,190.9375 149.2656,187.8125 Q149.2656,184.6875 150.5781,183.0313 Q151.9063,181.375 154.4063,181.375 Q155.1094,181.375 155.75,181.5313 Q156.4063,181.6875 156.9688,181.9844 L156.9688,184.7031 Q156.3438,184.125 155.75,183.8594 Q155.1563,183.5781 154.5313,183.5781 Q153.1875,183.5781 152.5,184.6563 Q151.8125,185.7188 151.8125,187.8125 Q151.8125,189.9063 152.5,190.9844 Q153.1875,192.0469 154.5313,192.0469 Q155.1563,192.0469 155.75,191.7813 Q156.3438,191.5 156.9688,190.9219 L156.9688,193.6406 Z " fill="#000000"/><text fill="#000000" font-family="sans-serif" font-size="14" lengthAdjust="spacing" textLength="45.4298" x="168" y="193.432">Cabina</text><line style="stroke:#181818;stroke-width:0.5;" x1="140" x2="215.4298" y1="204" y2="204"/><line style="stroke:#181818;stroke-width:0.5;" x1="140" x2="215.4298" y1="212" y2="212"/></g><!--class Cano--><g id="elem_Cano"><rect codeLine="10" fill="#F1F1F1" height="48" id="Cano" rx="2.5" ry="2.5" style="stroke:#181818;stroke-width:0.5;" width="65.8239" x="251.5" y="172"/><ellipse cx="266.5" cy="188" fill="#ADD1B2" rx="11" ry="11" style="stroke:#181818;stroke-width:1;"/><path d="M269.4688,193.6406 Q268.8906,193.9375 268.25,194.0781 Q267.6094,194.2344 266.9063,194.2344 Q264.4063,194.2344 263.0781,192.5938 Q261.7656,190.9375 261.7656,187.8125 Q261.7656,184.6875 263.0781,183.0313 Q264.4063,181.375 266.9063,181.375 Q267.6094,181.375 268.25,181.5313 Q268.9063,181.6875 269.4688,181.9844 L269.4688,184.7031 Q268.8438,184.125 268.25,183.8594 Q267.6563,183.5781 267.0313,183.5781 Q265.6875,183.5781 265,184.6563 Q264.3125,185.7188 264.3125,187.8125 Q264.3125,189.9063 265,190.9844 Q265.6875,192.0469 267.0313,192.0469 Q267.6563,192.0469 268.25,191.7813 Q268.8438,191.5 269.4688,190.9219 L269.4688,193.6406 Z " fill="#000000"/><text fill="#000000" font-family="sans-serif" font-size="14" lengthAdjust="spacing" textLength="33.8239" x="280.5" y="193.432">Cano</text><line style="stroke:#181818;stroke-width:0.5;" x1="252.5" x2="316.3239" y1="204" y2="204"/><line style="stroke:#181818;stroke-width:0.5;" x1="252.5" x2="316.3239" y1="212" y2="212"/></g><!--reverse link Nau to Propulsor--><g id="link_Nau_Propulsor"><path codeLine="12" d="M122.617,121.0075 C103.937,141.5975 91.44,155.38 76.55,171.79 " fill="transparent" id="Nau-backto-Propulsor" style="stroke:#181818;stroke-width:1;"/><polygon fill="transparent" points="130.68,112.12,123.686,113.8761,122.617,121.0075,129.611,119.2514,130.68,112.12" style="stroke:#181818;stroke-width:1;"/></g><!--reverse link Nau to Cabina--><g id="link_Nau_Cabina"><path codeLine="13" d="M177.5,124.12 C177.5,144.71 177.5,155.38 177.5,171.79 " fill="transparent" id="Nau-backto-Cabina" style="stroke:#181818;stroke-width:1;"/><polygon fill="transparent" points="177.5,112.12,173.5,118.12,177.5,124.12,181.5,118.12,177.5,112.12" style="stroke:#181818;stroke-width:1;"/></g><!--reverse link Nau to Cano--><g id="link_Nau_Cano"><path codeLine="14" d="M226.0335,121.5086 C242.4235,142.0986 252.98,155.38 266.04,171.79 " fill="transparent" id="Nau-backto-Cano" style="stroke:#181818;stroke-width:1;"/><polygon fill="transparent" points="218.56,112.12,219.1672,119.3055,226.0335,121.5086,225.4263,114.3231,218.56,112.12" style="stroke:#181818;stroke-width:1;"/></g><!--SRC=[LOvDRuCm38Rl-HK-jWSgsgvTbTCqoYOnsD1AUtSXGv70GVb0cgRzzwKWsYw7o7wSvtK0oWQDWNTqyCF0dw3JgdEDKHeuv5CzZaeyIqBFew6O8Aa1aVBWb_bhpBoNHtBLfjOhlhiiLq7mJvZOLRc1OS-JeCgr3MDvWsIFMGgzq4OgWkLY5QusYt1ME0494eIFiDpnzOQljn351Lp6SpPxpLCmokbIG2MDrVBihFVdBC4UuTEHbQtWyD49IlPl4u2OUgaLjO8iIqxPxS7s8NYM5Wv2-v_0AMDxyOMkiTueLIMfvd0iNe8TIv5gXxNF5eP5okVgRmxnuGy0]--></g></svg>