<svg xmlns="http://www.w3.org/2000/svg" xmlns:xlink="http://www.w3.org/1999/xlink" contentStyleType="text/css" data-diagram-type="CLASS" height="126px" preserveAspectRatio="none" style="width:222px;height:126px;background:#FFFFFF;" version="1.1" viewBox="0 0 222 126" width="222px" zoomAndPan="magnify"><defs/><g><!--class nomClasse--><g id="elem_nomClasse"><rect codeLine="2" fill="#F1F1F1" height="105.2038" id="nomClasse" rx="2.5" ry="2.5" style="stroke:#181818;stroke-width:0.5;" width="201.3214" x="7" y="7"/><ellipse cx="67.4938" cy="23" fill="#ADD1B2" rx="11" ry="11" style="stroke:#181818;stroke-width:1;"/><path d="M70.4626,28.6406 Q69.8844,28.9375 69.2438,29.0781 Q68.6032,29.2344 67.9001,29.2344 Q65.4001,29.2344 64.0719,27.5938 Q62.7594,25.9375 62.7594,22.8125 Q62.7594,19.6875 64.0719,18.0313 Q65.4001,16.375 67.9001,16.375 Q68.6032,16.375 69.2438,16.5313 Q69.9001,16.6875 70.4626,16.9844 L70.4626,19.7031 Q69.8376,19.125 69.2438,18.8594 Q68.6501,18.5781 68.0251,18.5781 Q66.6813,18.5781 65.9938,19.6563 Q65.3063,20.7188 65.3063,22.8125 Q65.3063,24.9063 65.9938,25.9844 Q66.6813,27.0469 68.0251,27.0469 Q68.6501,27.0469 69.2438,26.7813 Q69.8376,26.5 70.4626,25.9219 L70.4626,28.6406 Z " fill="#000000"/><text fill="#000000" font-family="sans-serif" font-size="14" lengthAdjust="spacing" textLength="71.8337" x="87.9938" y="28.432">nomClasse</text><line style="stroke:#181818;stroke-width:0.5;" x1="8" x2="207.3214" y1="39" y2="39"/><rect fill="transparent" height="6" style="stroke:#C82930;stroke-width:1;" width="6" x="15" y="51.034"/><text fill="#000000" font-family="sans-serif" font-size="14" lengthAdjust="spacing" textLength="160.2574" x="27" y="57.9659">propietat_privada : tipus</text><polygon fill="transparent" points="18,68.1019,22,72.1019,18,76.1019,14,72.1019" style="stroke:#B38D22;stroke-width:1;"/><text fill="#000000" font-family="sans-serif" font-size="14" lengthAdjust="spacing" textLength="175.3214" x="27" y="77.0339">propietat_protegida : tipus</text><line style="stroke:#181818;stroke-width:0.5;" x1="8" x2="207.3214" y1="85.1358" y2="85.1358"/><ellipse cx="18" cy="100.1698" fill="#84BE84" rx="3" ry="3" style="stroke:#038048;stroke-width:1;"/><text fill="#000000" font-family="sans-serif" font-size="14" lengthAdjust="spacing" textLength="149.1134" x="27" y="104.1018">metode_public() : tipus</text></g><!--SRC=[Iyv9B2vMoClFTGOnKXMgkHGKT0kAyWioKqiII-8BYZBB4bCI5QmKIZ8BIek1aih8alabgUcPADBQkQab-IcfyGMbIJcPoHgQSAbQ0000]--></g></svg>