<svg xmlns="http://www.w3.org/2000/svg" xmlns:xlink="http://www.w3.org/1999/xlink" contentStyleType="text/css" data-diagram-type="DESCRIPTION" height="849px" preserveAspectRatio="none" style="width:941px;height:849px;background:#FFFFFF;" version="1.1" viewBox="0 0 941 849" width="941px" zoomAndPan="magnify"><defs/><g><!--cluster Aplicaci? Client (Web)--><g id="cluster_Aplicaci&#243; Client (Web)"><path d="M8.5,6.602 L160.7975,6.602 A3.75,3.75 0 0 1 163.2975,9.102 L170.2975,31.6699 L645.5,31.6699 A2.5,2.5 0 0 1 648,34.1699 L648,694.102 A2.5,2.5 0 0 1 645.5,696.602 L8.5,696.602 A2.5,2.5 0 0 1 6,694.102 L6,9.102 A2.5,2.5 0 0 1 8.5,6.602 " fill="transparent" style="stroke:#000000;stroke-width:1.5;"/><line style="stroke:#000000;stroke-width:1.5;" x1="6" x2="170.2975" y1="31.6699" y2="31.6699"/><text fill="#000000" font-family="sans-serif" font-size="14" font-weight="bold" lengthAdjust="spacing" textLength="151.2975" x="10" y="23.5679">Aplicaci&#243; Client (Web)</text></g><!--cluster Interf?cie--><g id="cluster_Interf&#237;cie"><path d="M32.5,198.602 L98.2778,198.602 A3.75,3.75 0 0 1 100.7778,201.102 L107.7778,223.6699 L621.5,223.6699 A2.5,2.5 0 0 1 624,226.1699 L624,524.102 A2.5,2.5 0 0 1 621.5,526.602 L32.5,526.602 A2.5,2.5 0 0 1 30,524.102 L30,201.102 A2.5,2.5 0 0 1 32.5,198.602 " fill="transparent" style="stroke:#000000;stroke-width:1.5;"/><line style="stroke:#000000;stroke-width:1.5;" x1="30" x2="107.7778" y1="223.6699" y2="223.6699"/><text fill="#000000" font-family="sans-serif" font-size="14" font-weight="bold" lengthAdjust="spacing" textLength="64.7778" x="34" y="215.5679">Interf&#237;cie</text></g><!--cluster Gesti? d'estat--><g id="cluster_Gesti&#243; d'estat"><path d="M438.5,52.602 L535.9456,52.602 A3.75,3.75 0 0 1 538.4456,55.102 L545.4456,77.6699 L604.5,77.6699 A2.5,2.5 0 0 1 607,80.1699 L607,172.102 A2.5,2.5 0 0 1 604.5,174.602 L438.5,174.602 A2.5,2.5 0 0 1 436,172.102 L436,55.102 A2.5,2.5 0 0 1 438.5,52.602 " fill="transparent" style="stroke:#000000;stroke-width:1.5;"/><line style="stroke:#000000;stroke-width:1.5;" x1="436" x2="545.4456" y1="77.6699" y2="77.6699"/><text fill="#000000" font-family="sans-serif" font-size="14" font-weight="bold" lengthAdjust="spacing" textLength="96.4456" x="440" y="69.5679">Gesti&#243; d'estat</text></g><!--cluster Acc?s a serveis--><g id="cluster_Acc&#233;s a serveis"><path d="M43.5,550.602 L148.5756,550.602 A3.75,3.75 0 0 1 151.0756,553.102 L158.0756,575.6699 L207.5,575.6699 A2.5,2.5 0 0 1 210,578.1699 L210,670.102 A2.5,2.5 0 0 1 207.5,672.602 L43.5,672.602 A2.5,2.5 0 0 1 41,670.102 L41,553.102 A2.5,2.5 0 0 1 43.5,550.602 " fill="transparent" style="stroke:#000000;stroke-width:1.5;"/><line style="stroke:#000000;stroke-width:1.5;" x1="41" x2="158.0756" y1="575.6699" y2="575.6699"/><text fill="#000000" font-family="sans-serif" font-size="14" font-weight="bold" lengthAdjust="spacing" textLength="104.0756" x="45" y="567.5679">Acc&#233;s a serveis</text></g><!--cluster Servidor (API)--><g id="cluster_Servidor (API)"><path d="M459,720.602 L555.4937,720.602 A3.75,3.75 0 0 1 557.9937,723.102 L564.9937,745.6699 L584,745.6699 A2.5,2.5 0 0 1 586.5,748.1699 L586.5,840.102 A2.5,2.5 0 0 1 584,842.602 L459,842.602 A2.5,2.5 0 0 1 456.5,840.102 L456.5,723.102 A2.5,2.5 0 0 1 459,720.602 " fill="transparent" style="stroke:#000000;stroke-width:1.5;"/><line style="stroke:#000000;stroke-width:1.5;" x1="456.5" x2="564.9937" y1="745.6699" y2="745.6699"/><text fill="#000000" font-family="sans-serif" font-size="14" font-weight="bold" lengthAdjust="spacing" textLength="95.4937" x="460.5" y="737.5679">Servidor (API)</text></g><!--entity PizzaCard--><g id="elem_PizzaCard"><rect fill="#F1F1F1" height="68.1358" rx="2.5" ry="2.5" style="stroke:#181818;stroke-width:0.5;" width="154.6156" x="48" y="442.602"/><rect fill="#F1F1F1" height="10" style="stroke:#181818;stroke-width:0.5;" width="15" x="182.6156" y="447.602"/><rect fill="#F1F1F1" height="2" style="stroke:#181818;stroke-width:0.5;" width="4" x="180.6156" y="449.602"/><rect fill="#F1F1F1" height="2" style="stroke:#181818;stroke-width:0.5;" width="4" x="180.6156" y="453.602"/><text fill="#000000" font-family="sans-serif" font-size="14" font-style="italic" lengthAdjust="spacing" textLength="112.6156" x="64" y="477.5679">&#171;WebComponent&#187;</text><text fill="#000000" font-family="sans-serif" font-size="14" lengthAdjust="spacing" textLength="64.1898" x="88.2129" y="496.6358">PizzaCard</text></g><!--entity EntrantCard--><g id="elem_EntrantCard"><rect fill="#F1F1F1" height="68.1358" rx="2.5" ry="2.5" style="stroke:#181818;stroke-width:0.5;" width="154.6156" x="48" y="236.602"/><rect fill="#F1F1F1" height="10" style="stroke:#181818;stroke-width:0.5;" width="15" x="182.6156" y="241.602"/><rect fill="#F1F1F1" height="2" style="stroke:#181818;stroke-width:0.5;" width="4" x="180.6156" y="243.602"/><rect fill="#F1F1F1" height="2" style="stroke:#181818;stroke-width:0.5;" width="4" x="180.6156" y="247.602"/><text fill="#000000" font-family="sans-serif" font-size="14" font-style="italic" lengthAdjust="spacing" textLength="112.6156" x="64" y="271.5679">&#171;WebComponent&#187;</text><text fill="#000000" font-family="sans-serif" font-size="14" lengthAdjust="spacing" textLength="79.9257" x="80.3449" y="290.6358">EntrantCard</text></g><!--entity BegudaCard--><g id="elem_BegudaCard"><rect fill="#F1F1F1" height="68.1358" rx="2.5" ry="2.5" style="stroke:#181818;stroke-width:0.5;" width="154.6156" x="444" y="442.602"/><rect fill="#F1F1F1" height="10" style="stroke:#181818;stroke-width:0.5;" width="15" x="578.6156" y="447.602"/><rect fill="#F1F1F1" height="2" style="stroke:#181818;stroke-width:0.5;" width="4" x="576.6156" y="449.602"/><rect fill="#F1F1F1" height="2" style="stroke:#181818;stroke-width:0.5;" width="4" x="576.6156" y="453.602"/><text fill="#000000" font-family="sans-serif" font-size="14" font-style="italic" lengthAdjust="spacing" textLength="112.6156" x="460" y="477.5679">&#171;WebComponent&#187;</text><text fill="#000000" font-family="sans-serif" font-size="14" lengthAdjust="spacing" textLength="81.8157" x="475.4" y="496.6358">BegudaCard</text></g><!--entity CarretComponent--><g id="elem_CarretComponent"><rect fill="#F1F1F1" height="68.1358" rx="2.5" ry="2.5" style="stroke:#181818;stroke-width:0.5;" width="158.9576" x="46" y="339.602"/><rect fill="#F1F1F1" height="10" style="stroke:#181818;stroke-width:0.5;" width="15" x="184.9576" y="344.602"/><rect fill="#F1F1F1" height="2" style="stroke:#181818;stroke-width:0.5;" width="4" x="182.9576" y="346.602"/><rect fill="#F1F1F1" height="2" style="stroke:#181818;stroke-width:0.5;" width="4" x="182.9576" y="350.602"/><text fill="#000000" font-family="sans-serif" font-size="14" font-style="italic" lengthAdjust="spacing" textLength="112.6156" x="64.171" y="374.5679">&#171;WebComponent&#187;</text><text fill="#000000" font-family="sans-serif" font-size="14" lengthAdjust="spacing" textLength="118.9576" x="61" y="393.6358">CarretComponent</text></g><!--entity HistorialComponent--><g id="elem_HistorialComponent"><rect fill="#F1F1F1" height="68.1358" rx="2.5" ry="2.5" style="stroke:#181818;stroke-width:0.5;" width="172.8175" x="435" y="339.602"/><rect fill="#F1F1F1" height="10" style="stroke:#181818;stroke-width:0.5;" width="15" x="587.8175" y="344.602"/><rect fill="#F1F1F1" height="2" style="stroke:#181818;stroke-width:0.5;" width="4" x="585.8175" y="346.602"/><rect fill="#F1F1F1" height="2" style="stroke:#181818;stroke-width:0.5;" width="4" x="585.8175" y="350.602"/><text fill="#000000" font-family="sans-serif" font-size="14" font-style="italic" lengthAdjust="spacing" textLength="112.6156" x="460.101" y="374.5679">&#171;WebComponent&#187;</text><text fill="#000000" font-family="sans-serif" font-size="14" lengthAdjust="spacing" textLength="132.8175" x="450" y="393.6358">HistorialComponent</text></g><!--entity Carret--><g id="elem_Carret"><rect fill="#F1F1F1" height="68.1358" rx="2.5" ry="2.5" style="stroke:#181818;stroke-width:0.5;" width="139.1316" x="452" y="90.602"/><rect fill="#F1F1F1" height="10" style="stroke:#181818;stroke-width:0.5;" width="15" x="571.1316" y="95.602"/><rect fill="#F1F1F1" height="2" style="stroke:#181818;stroke-width:0.5;" width="4" x="569.1316" y="97.602"/><rect fill="#F1F1F1" height="2" style="stroke:#181818;stroke-width:0.5;" width="4" x="569.1316" y="101.602"/><text fill="#000000" font-family="sans-serif" font-size="14" font-style="italic" lengthAdjust="spacing" textLength="97.1316" x="468" y="125.5679">&#171;Gesti&#243; d'estat&#187;</text><text fill="#000000" font-family="sans-serif" font-size="14" lengthAdjust="spacing" textLength="41.2159" x="495.9579" y="144.6358">Carret</text></g><!--entity PizzeriaService--><g id="elem_PizzeriaService"><rect fill="#F1F1F1" height="68.1358" rx="2.5" ry="2.5" style="stroke:#181818;stroke-width:0.5;" width="137.0896" x="57" y="588.602"/><rect fill="#F1F1F1" height="10" style="stroke:#181818;stroke-width:0.5;" width="15" x="174.0896" y="593.602"/><rect fill="#F1F1F1" height="2" style="stroke:#181818;stroke-width:0.5;" width="4" x="172.0896" y="595.602"/><rect fill="#F1F1F1" height="2" style="stroke:#181818;stroke-width:0.5;" width="4" x="172.0896" y="599.602"/><text fill="#000000" font-family="sans-serif" font-size="14" font-style="italic" lengthAdjust="spacing" textLength="50.1198" x="95.4849" y="623.5679">&#171;Servei&#187;</text><text fill="#000000" font-family="sans-serif" font-size="14" lengthAdjust="spacing" textLength="97.0896" x="72" y="642.6358">PizzeriaService</text></g><!--entity API REST--><g id="elem_API REST"><rect fill="#F1F1F1" height="68.1358" rx="2.5" ry="2.5" style="stroke:#181818;stroke-width:0.5;" width="97.7638" x="472.5" y="758.602"/><rect fill="#F1F1F1" height="10" style="stroke:#181818;stroke-width:0.5;" width="15" x="550.2638" y="763.602"/><rect fill="#F1F1F1" height="2" style="stroke:#181818;stroke-width:0.5;" width="4" x="548.2638" y="765.602"/><rect fill="#F1F1F1" height="2" style="stroke:#181818;stroke-width:0.5;" width="4" x="548.2638" y="769.602"/><text fill="#000000" font-family="sans-serif" font-size="14" font-style="italic" lengthAdjust="spacing" textLength="44.8418" x="493.961" y="793.5679">&#171;HTTP&#187;</text><text fill="#000000" font-family="sans-serif" font-size="14" lengthAdjust="spacing" textLength="57.7638" x="487.5" y="812.6358">API REST</text></g><g id="elem_GMN17"><path d="M695,110.602 L695,120.602 L591.09,124.602 L695,128.602 L695,138.308 A0,0 0 0 0 695,138.308 L934.4262,138.308 A0,0 0 0 0 934.4262,138.308 L934.4262,120.602 L924.4262,110.602 L695,110.602 A0,0 0 0 0 695,110.602 " fill="#FEFFDD" style="stroke:#181818;stroke-width:0.5;"/><path d="M924.4262,110.602 L924.4262,120.602 L934.4262,120.602 L924.4262,110.602 " fill="#FEFFDD" style="stroke:#181818;stroke-width:0.5;"/><text fill="#000000" font-family="sans-serif" font-size="13" lengthAdjust="spacing" textLength="218.4262" x="701" y="129.499">Mant&#233; l'estat del carret en mem&#242;ria</text></g><!--link PizzeriaService to API REST--><g id="link_PizzeriaService_API REST"><path d="M194.23,651.822 C273.44,686.002 397.051,739.3349 466.741,769.4049 " fill="transparent" id="PizzeriaService-to-API REST" style="stroke:#181818;stroke-width:1;"/><polygon fill="#181818" points="472.25,771.782,465.5711,764.5437,467.6591,769.8011,462.4017,771.8891,472.25,771.782" style="stroke:#181818;stroke-width:1;"/><text fill="#000000" font-family="sans-serif" font-size="13" lengthAdjust="spacing" textLength="168.5582" x="236" y="669.499">Obt&#233; productes i comandes</text></g><!--link CarretComponent to Carret--><g id="link_CarretComponent_Carret"><path d="M187.83,339.422 C197.97,333.582 208.33,327.492 218,321.602 C308.19,266.672 405.7311,202.0502 465.2711,162.0102 " fill="transparent" id="CarretComponent-to-Carret" style="stroke:#181818;stroke-width:1;"/><polygon fill="#181818" points="470.25,158.662,460.5495,160.3651,466.1009,161.4522,465.0138,167.0036,470.25,158.662" style="stroke:#181818;stroke-width:1;"/><text fill="#000000" font-family="sans-serif" font-size="13" lengthAdjust="spacing" textLength="108.0041" x="266" y="202.499">Gestiona el carret</text></g><!--SRC=[bPBFJW8n4CRlVOh9Ne03Bs082H8Y78n4I3oNTi29k-sc7JnWU20ENlGHziMSBdya6r7igPb-lsycNoV79GDx2BHwPh0Kq31vfrIfpOjU8MI3CYUZ3LMVCCm97KFx2HUT3DwK0ZaduSGnXcNrRWZJ8noEyKNfNUAoAMqsUgY3pQ3N4vFXyQdV_qa-SXoqu-k1MrojxJyQY38WdqJNGMEAx0Ff_2zksyZd3YEd56rBBfelPBIVALasz1TS1yPKkmWQ8ePNfFXBz2XJpqH51fF_h0Q-RRTddrxBh0_G7amddQFdcP-KuN4qcoUZyNm-5HlXMr0lWJP6TYX26SWPAdKULQC_TBlzSvCRU5XmjHF2sxLXZ42fctOMesfyKytkQyBLANcd0NCmTL4fvJpZOQNzyg1Lzx9BqYBVnmds100wAB2eFcG-XSv2mfNw0W00]--></g></svg>