<svg xmlns="http://www.w3.org/2000/svg" xmlns:xlink="http://www.w3.org/1999/xlink" contentStyleType="text/css" data-diagram-type="SEQUENCE" height="532px" preserveAspectRatio="none" style="width:884px;height:532px;background:#FFFFFF;" version="1.1" viewBox="0 0 884 532" width="884px" zoomAndPan="magnify"><defs/><g><rect fill="transparent" height="140.8241" style="stroke:#000000;stroke-width:1.5;" width="574.2409" x="222.7222" y="259.598"/><g><title>Usuari</title><rect fill="transparent" height="365.0602" width="8" x="25.4199" y="84.0679"/><line style="stroke:#181818;stroke-width:0.5;stroke-dasharray:5.0,5.0;" x1="29" x2="29" y1="84.0679" y2="449.1281"/></g><g><title>Sistema</title><rect fill="transparent" height="365.0602" width="8" x="261.6711" y="84.0679"/><line style="stroke:#181818;stroke-width:0.5;stroke-dasharray:5.0,5.0;" x1="264.7222" x2="264.7222" y1="84.0679" y2="449.1281"/></g><g><title>PizzeriaService</title><rect fill="transparent" height="365.0602" width="8" x="564.6353" y="84.0679"/><line style="stroke:#181818;stroke-width:0.5;stroke-dasharray:5.0,5.0;" x1="568.0905" x2="568.0905" y1="84.0679" y2="449.1281"/></g><g><title>BegudaCard</title><rect fill="transparent" height="365.0602" width="8" x="678.088" y="84.0679"/><line style="stroke:#181818;stroke-width:0.5;stroke-dasharray:5.0,5.0;" x1="681.1801" x2="681.1801" y1="84.0679" y2="449.1281"/></g><g><title>Servidor (API)</title><rect fill="transparent" height="365.0602" width="8" x="822.9085" y="84.0679"/><line style="stroke:#181818;stroke-width:0.5;stroke-dasharray:5.0,5.0;" x1="826.3327" x2="826.3327" y1="84.0679" y2="449.1281"/></g><text fill="#000000" font-family="sans-serif" font-size="14" lengthAdjust="spacing" textLength="42.8398" x="5" y="79.9659">Usuari</text><ellipse cx="29.4199" cy="13.5" fill="#E2E2F0" rx="8" ry="8" style="stroke:#181818;stroke-width:0.5;"/><path d="M29.4199,21.5 L29.4199,48.5 M16.4199,29.5 L42.4199,29.5 M29.4199,48.5 L16.4199,63.5 M29.4199,48.5 L42.4199,63.5 " fill="transparent" style="stroke:#181818;stroke-width:0.5;"/><text fill="#000000" font-family="sans-serif" font-size="14" lengthAdjust="spacing" textLength="42.8398" x="5" y="463.094">Usuari</text><ellipse cx="29.4199" cy="475.696" fill="#E2E2F0" rx="8" ry="8" style="stroke:#181818;stroke-width:0.5;"/><path d="M29.4199,483.696 L29.4199,510.696 M16.4199,491.696 L42.4199,491.696 M29.4199,510.696 L16.4199,525.696 M29.4199,510.696 L42.4199,525.696 " fill="transparent" style="stroke:#181818;stroke-width:0.5;"/><rect fill="#E2E2F0" height="33.0679" rx="2.5" ry="2.5" style="stroke:#181818;stroke-width:0.5;" width="65.8978" x="232.7222" y="50"/><text fill="#000000" font-family="sans-serif" font-size="14" lengthAdjust="spacing" textLength="51.8978" x="239.7222" y="71.9659">Sistema</text><rect fill="#E2E2F0" height="33.0679" rx="2.5" ry="2.5" style="stroke:#181818;stroke-width:0.5;" width="65.8978" x="232.7222" y="448.1281"/><text fill="#000000" font-family="sans-serif" font-size="14" lengthAdjust="spacing" textLength="51.8978" x="239.7222" y="470.094">Sistema</text><rect fill="#E2E2F0" height="33.0679" rx="2.5" ry="2.5" style="stroke:#181818;stroke-width:0.5;" width="111.0896" x="513.0905" y="50"/><text fill="#000000" font-family="sans-serif" font-size="14" lengthAdjust="spacing" textLength="97.0896" x="520.0905" y="71.9659">PizzeriaService</text><rect fill="#E2E2F0" height="33.0679" rx="2.5" ry="2.5" style="stroke:#181818;stroke-width:0.5;" width="111.0896" x="513.0905" y="448.1281"/><text fill="#000000" font-family="sans-serif" font-size="14" lengthAdjust="spacing" textLength="97.0896" x="520.0905" y="470.094">PizzeriaService</text><rect fill="#E2E2F0" height="33.0679" rx="2.5" ry="2.5" style="stroke:#181818;stroke-width:0.5;" width="95.8157" x="634.1801" y="50"/><text fill="#000000" font-family="sans-serif" font-size="14" lengthAdjust="spacing" textLength="81.8157" x="641.1801" y="71.9659">BegudaCard</text><rect fill="#E2E2F0" height="33.0679" rx="2.5" ry="2.5" style="stroke:#181818;stroke-width:0.5;" width="95.8157" x="634.1801" y="448.1281"/><text fill="#000000" font-family="sans-serif" font-size="14" lengthAdjust="spacing" textLength="81.8157" x="641.1801" y="470.094">BegudaCard</text><rect fill="#E2E2F0" height="33.0679" rx="2.5" ry="2.5" style="stroke:#181818;stroke-width:0.5;" width="103.1517" x="775.3327" y="50"/><text fill="#000000" font-family="sans-serif" font-size="14" lengthAdjust="spacing" textLength="89.1517" x="782.3327" y="71.9659">Servidor (API)</text><rect fill="#E2E2F0" height="33.0679" rx="2.5" ry="2.5" style="stroke:#181818;stroke-width:0.5;" width="103.1517" x="775.3327" y="448.1281"/><text fill="#000000" font-family="sans-serif" font-size="14" lengthAdjust="spacing" textLength="89.1517" x="782.3327" y="470.094">Servidor (API)</text><polygon fill="#181818" points="253.6711,113.7739,263.6711,117.7739,253.6711,121.7739,257.6711,117.7739" style="stroke:#181818;stroke-width:1;"/><line style="stroke:#181818;stroke-width:1;" x1="29.4199" x2="259.6711" y1="117.7739" y2="117.7739"/><text fill="#000000" font-family="sans-serif" font-size="13" lengthAdjust="spacing" textLength="212.2512" x="36.4199" y="111.9649">Accedeix a la pestanya de begudes</text><polygon fill="#181818" points="556.6353,145.4799,566.6353,149.4799,556.6353,153.4799,560.6353,149.4799" style="stroke:#181818;stroke-width:1;"/><line style="stroke:#181818;stroke-width:1;" x1="265.6711" x2="562.6353" y1="149.4799" y2="149.4799"/><text fill="#000000" font-family="sans-serif" font-size="13" lengthAdjust="spacing" textLength="96.2001" x="272.6711" y="143.6709">getAllBegudes()</text><polygon fill="#181818" points="814.9085,177.186,824.9085,181.186,814.9085,185.186,818.9085,181.186" style="stroke:#181818;stroke-width:1;"/><line style="stroke:#181818;stroke-width:1;" x1="568.6353" x2="820.9085" y1="181.186" y2="181.186"/><text fill="#000000" font-family="sans-serif" font-size="13" lengthAdjust="spacing" textLength="160.2771" x="575.6353" y="175.377">GET /api/pizzeria/begudes</text><line style="stroke:#181818;stroke-width:1;" x1="569.6353" x2="579.6353" y1="212.892" y2="208.892"/><line style="stroke:#181818;stroke-width:1;" x1="569.6353" x2="579.6353" y1="212.892" y2="216.892"/><line style="stroke:#181818;stroke-width:1;stroke-dasharray:2.0,2.0;" x1="568.6353" x2="825.9085" y1="212.892" y2="212.892"/><text fill="#000000" font-family="sans-serif" font-size="13" lengthAdjust="spacing" textLength="234.2732" x="585.6353" y="207.083">Retorna JSON amb la llista de begudes</text><line style="stroke:#181818;stroke-width:1;" x1="266.6711" x2="276.6711" y1="244.598" y2="240.598"/><line style="stroke:#181818;stroke-width:1;" x1="266.6711" x2="276.6711" y1="244.598" y2="248.598"/><line style="stroke:#181818;stroke-width:1;stroke-dasharray:2.0,2.0;" x1="265.6711" x2="567.6353" y1="244.598" y2="244.598"/><text fill="#000000" font-family="sans-serif" font-size="13" lengthAdjust="spacing" textLength="153.1921" x="282.6711" y="238.789">Retorna array de Beguda</text><path d="M222.7222,259.598 L296.0102,259.598 L296.0102,269.304 L286.0102,279.304 L222.7222,279.304 L222.7222,259.598 " fill="#EEEEEE" style="stroke:#000000;stroke-width:1.5;"/><rect fill="transparent" height="140.8241" style="stroke:#000000;stroke-width:1.5;" width="574.2409" x="222.7222" y="259.598"/><text fill="#000000" font-family="sans-serif" font-size="13" font-weight="bold" lengthAdjust="spacing" textLength="28.288" x="237.7222" y="274.495">loop</text><text fill="#000000" font-family="sans-serif" font-size="11" font-weight="bold" lengthAdjust="spacing" textLength="98.5703" x="311.0102" y="273.3569">[Per cada beguda]</text><polygon fill="#181818" points="670.088,299.01,680.088,303.01,670.088,307.01,674.088,303.01" style="stroke:#181818;stroke-width:1;"/><line style="stroke:#181818;stroke-width:1;" x1="265.6711" x2="676.088" y1="303.01" y2="303.01"/><text fill="#000000" font-family="sans-serif" font-size="13" lengthAdjust="spacing" textLength="179.7642" x="272.6711" y="297.201">createElement('beguda-card')</text><line style="stroke:#181818;stroke-width:1;" x1="682.088" x2="724.088" y1="334.716" y2="334.716"/><line style="stroke:#181818;stroke-width:1;" x1="724.088" x2="724.088" y1="334.716" y2="347.716"/><line style="stroke:#181818;stroke-width:1;" x1="683.088" x2="724.088" y1="347.716" y2="347.716"/><polygon fill="#181818" points="693.088,343.716,683.088,347.716,693.088,351.716,689.088,347.716" style="stroke:#181818;stroke-width:1;"/><text fill="#000000" font-family="sans-serif" font-size="13" lengthAdjust="spacing" textLength="95.8751" x="689.088" y="328.907">render(beguda)</text><line style="stroke:#181818;stroke-width:1;" x1="265.6711" x2="307.6711" y1="379.4221" y2="379.4221"/><line style="stroke:#181818;stroke-width:1;" x1="307.6711" x2="307.6711" y1="379.4221" y2="392.4221"/><line style="stroke:#181818;stroke-width:1;" x1="266.6711" x2="307.6711" y1="392.4221" y2="392.4221"/><polygon fill="#181818" points="276.6711,388.4221,266.6711,392.4221,276.6711,396.4221,272.6711,392.4221" style="stroke:#181818;stroke-width:1;"/><text fill="#000000" font-family="sans-serif" font-size="13" lengthAdjust="spacing" textLength="288.9642" x="272.6711" y="373.6131">appendChild(card) // S'afegeix al div contenidor</text><line style="stroke:#181818;stroke-width:1;" x1="30.4199" x2="40.4199" y1="431.1281" y2="427.1281"/><line style="stroke:#181818;stroke-width:1;" x1="30.4199" x2="40.4199" y1="431.1281" y2="435.1281"/><line style="stroke:#181818;stroke-width:1;stroke-dasharray:2.0,2.0;" x1="29.4199" x2="264.6711" y1="431.1281" y2="431.1281"/><text fill="#000000" font-family="sans-serif" font-size="13" lengthAdjust="spacing" textLength="163.9171" x="46.4199" y="425.3191">Mostra la llista de begudes</text><!--SRC=[RP71JiCm44Jl_efLBqqEKUuzL6ehX402AW8ViBMNOibnBDkjQB-UjUCKWiWfqhwPdHsZZ8E7nNiueTSBm02dG5uuz55BxT16M7GwHEenJtlKTZxTw-kLlCQE_5bBobGO_-VWbeudXJlqAZEIV_xiIIh5SQhD_g6-6N4SaK91iyxhOGKRAKcH_W84W-0eHBGN14LmI4ieY0ooe2HXpP7YnfZjEAzgCKqAnFuhkBzxWnQTRbqvgfty2j8qwz-UhyJjMOJ7xkKPi3-aDCPmNRCijqr9N2wObEWzNX8yjYE46GO7UrubKU5eWGBucovAlR61z8IHxWprP6Er7C4c3PTrvZFtmtkoYdmrSlNCiKH2vvZPVMgZgYIgeMsXM-877NFL1fG-Wnni99kUIJ0jIj7filn6AtWQGlJuRnFV]--></g></svg>