<svg xmlns="http://www.w3.org/2000/svg" xmlns:xlink="http://www.w3.org/1999/xlink" contentStyleType="text/css" data-diagram-type="DESCRIPTION" height="1261px" preserveAspectRatio="none" style="width:1176px;height:1261px;background:#FFFFFF;" version="1.1" viewBox="0 0 1176 1261" width="1176px" zoomAndPan="magnify"><defs/><g><!--cluster Aplicaci? Client (Web)--><g id="cluster_Aplicaci&#243; Client (Web)"><path d="M8.5,6.602 L160.7975,6.602 A3.75,3.75 0 0 1 163.2975,9.102 L170.2975,31.6699 L1166.5,31.6699 A2.5,2.5 0 0 1 1169,34.1699 L1169,1106.102 A2.5,2.5 0 0 1 1166.5,1108.602 L8.5,1108.602 A2.5,2.5 0 0 1 6,1106.102 L6,9.102 A2.5,2.5 0 0 1 8.5,6.602 " fill="transparent" style="stroke:#000000;stroke-width:1.5;"/><line style="stroke:#000000;stroke-width:1.5;" x1="6" x2="170.2975" y1="31.6699" y2="31.6699"/><text fill="#000000" font-family="sans-serif" font-size="14" font-weight="bold" lengthAdjust="spacing" textLength="151.2975" x="10" y="23.5679">Aplicaci&#243; Client (Web)</text></g><!--cluster Interf?cie--><g id="cluster_Interf&#237;cie"><path d="M473.5,198.602 L539.2778,198.602 A3.75,3.75 0 0 1 541.7778,201.102 L548.7778,223.6699 L1142.5,223.6699 A2.5,2.5 0 0 1 1145,226.1699 L1145,936.102 A2.5,2.5 0 0 1 1142.5,938.602 L473.5,938.602 A2.5,2.5 0 0 1 471,936.102 L471,201.102 A2.5,2.5 0 0 1 473.5,198.602 " fill="transparent" style="stroke:#000000;stroke-width:1.5;"/><line style="stroke:#000000;stroke-width:1.5;" x1="471" x2="548.7778" y1="223.6699" y2="223.6699"/><text fill="#000000" font-family="sans-serif" font-size="14" font-weight="bold" lengthAdjust="spacing" textLength="64.7778" x="475" y="215.5679">Interf&#237;cie</text></g><!--cluster Gesti? d'estat--><g id="cluster_Gesti&#243; d'estat"><path d="M960.5,52.602 L1057.9456,52.602 A3.75,3.75 0 0 1 1060.4456,55.102 L1067.4456,77.6699 L1126.5,77.6699 A2.5,2.5 0 0 1 1129,80.1699 L1129,172.102 A2.5,2.5 0 0 1 1126.5,174.602 L960.5,174.602 A2.5,2.5 0 0 1 958,172.102 L958,55.102 A2.5,2.5 0 0 1 960.5,52.602 " fill="transparent" style="stroke:#000000;stroke-width:1.5;"/><line style="stroke:#000000;stroke-width:1.5;" x1="958" x2="1067.4456" y1="77.6699" y2="77.6699"/><text fill="#000000" font-family="sans-serif" font-size="14" font-weight="bold" lengthAdjust="spacing" textLength="96.4456" x="962" y="69.5679">Gesti&#243; d'estat</text></g><!--cluster Acc?s a serveis--><g id="cluster_Acc&#233;s a serveis"><path d="M505,962.602 L610.0756,962.602 A3.75,3.75 0 0 1 612.5756,965.102 L619.5756,987.6699 L669,987.6699 A2.5,2.5 0 0 1 671.5,990.1699 L671.5,1082.102 A2.5,2.5 0 0 1 669,1084.602 L505,1084.602 A2.5,2.5 0 0 1 502.5,1082.102 L502.5,965.102 A2.5,2.5 0 0 1 505,962.602 " fill="transparent" style="stroke:#000000;stroke-width:1.5;"/><line style="stroke:#000000;stroke-width:1.5;" x1="502.5" x2="619.5756" y1="987.6699" y2="987.6699"/><text fill="#000000" font-family="sans-serif" font-size="14" font-weight="bold" lengthAdjust="spacing" textLength="104.0756" x="506.5" y="979.5679">Acc&#233;s a serveis</text></g><!--cluster Servidor (API)--><g id="cluster_Servidor (API)"><path d="M981,1132.602 L1077.4937,1132.602 A3.75,3.75 0 0 1 1079.9937,1135.102 L1086.9937,1157.6699 L1106,1157.6699 A2.5,2.5 0 0 1 1108.5,1160.1699 L1108.5,1252.102 A2.5,2.5 0 0 1 1106,1254.602 L981,1254.602 A2.5,2.5 0 0 1 978.5,1252.102 L978.5,1135.102 A2.5,2.5 0 0 1 981,1132.602 " fill="transparent" style="stroke:#000000;stroke-width:1.5;"/><line style="stroke:#000000;stroke-width:1.5;" x1="978.5" x2="1086.9937" y1="1157.6699" y2="1157.6699"/><text fill="#000000" font-family="sans-serif" font-size="14" font-weight="bold" lengthAdjust="spacing" textLength="95.4937" x="982.5" y="1149.5679">Servidor (API)</text></g><!--entity main.js--><g id="elem_main.js"><rect fill="#F1F1F1" height="68.1358" rx="2.5" ry="2.5" style="stroke:#181818;stroke-width:0.5;" width="116.9697" x="22" y="545.602"/><rect fill="#F1F1F1" height="10" style="stroke:#181818;stroke-width:0.5;" width="15" x="118.9697" y="550.602"/><rect fill="#F1F1F1" height="2" style="stroke:#181818;stroke-width:0.5;" width="4" x="116.9697" y="552.602"/><rect fill="#F1F1F1" height="2" style="stroke:#181818;stroke-width:0.5;" width="4" x="116.9697" y="556.602"/><text fill="#000000" font-family="sans-serif" font-size="14" font-style="italic" lengthAdjust="spacing" textLength="74.9697" x="38" y="580.5679">&#171;JavaScript&#187;</text><text fill="#000000" font-family="sans-serif" font-size="14" lengthAdjust="spacing" textLength="47.2778" x="51.846" y="599.6358">main.js</text></g><!--entity PizzaCard--><g id="elem_PizzaCard"><rect fill="#F1F1F1" height="68.1358" rx="2.5" ry="2.5" style="stroke:#181818;stroke-width:0.5;" width="154.6156" x="509.5" y="854.602"/><rect fill="#F1F1F1" height="10" style="stroke:#181818;stroke-width:0.5;" width="15" x="644.1156" y="859.602"/><rect fill="#F1F1F1" height="2" style="stroke:#181818;stroke-width:0.5;" width="4" x="642.1156" y="861.602"/><rect fill="#F1F1F1" height="2" style="stroke:#181818;stroke-width:0.5;" width="4" x="642.1156" y="865.602"/><text fill="#000000" font-family="sans-serif" font-size="14" font-style="italic" lengthAdjust="spacing" textLength="112.6156" x="525.5" y="889.5679">&#171;WebComponent&#187;</text><text fill="#000000" font-family="sans-serif" font-size="14" lengthAdjust="spacing" textLength="64.1898" x="549.7129" y="908.6358">PizzaCard</text></g><!--entity EntrantCard--><g id="elem_EntrantCard"><rect fill="#F1F1F1" height="68.1358" rx="2.5" ry="2.5" style="stroke:#181818;stroke-width:0.5;" width="154.6156" x="509.5" y="648.602"/><rect fill="#F1F1F1" height="10" style="stroke:#181818;stroke-width:0.5;" width="15" x="644.1156" y="653.602"/><rect fill="#F1F1F1" height="2" style="stroke:#181818;stroke-width:0.5;" width="4" x="642.1156" y="655.602"/><rect fill="#F1F1F1" height="2" style="stroke:#181818;stroke-width:0.5;" width="4" x="642.1156" y="659.602"/><text fill="#000000" font-family="sans-serif" font-size="14" font-style="italic" lengthAdjust="spacing" textLength="112.6156" x="525.5" y="683.5679">&#171;WebComponent&#187;</text><text fill="#000000" font-family="sans-serif" font-size="14" lengthAdjust="spacing" textLength="79.9257" x="541.8449" y="702.6358">EntrantCard</text></g><!--entity BegudaCard--><g id="elem_BegudaCard"><rect fill="#F1F1F1" height="68.1358" rx="2.5" ry="2.5" style="stroke:#181818;stroke-width:0.5;" width="154.6156" x="509.5" y="545.602"/><rect fill="#F1F1F1" height="10" style="stroke:#181818;stroke-width:0.5;" width="15" x="644.1156" y="550.602"/><rect fill="#F1F1F1" height="2" style="stroke:#181818;stroke-width:0.5;" width="4" x="642.1156" y="552.602"/><rect fill="#F1F1F1" height="2" style="stroke:#181818;stroke-width:0.5;" width="4" x="642.1156" y="556.602"/><text fill="#000000" font-family="sans-serif" font-size="14" font-style="italic" lengthAdjust="spacing" textLength="112.6156" x="525.5" y="580.5679">&#171;WebComponent&#187;</text><text fill="#000000" font-family="sans-serif" font-size="14" lengthAdjust="spacing" textLength="81.8157" x="540.9" y="599.6358">BegudaCard</text></g><!--entity CarretComponent--><g id="elem_CarretComponent"><rect fill="#F1F1F1" height="68.1358" rx="2.5" ry="2.5" style="stroke:#181818;stroke-width:0.5;" width="158.9576" x="507.5" y="442.602"/><rect fill="#F1F1F1" height="10" style="stroke:#181818;stroke-width:0.5;" width="15" x="646.4576" y="447.602"/><rect fill="#F1F1F1" height="2" style="stroke:#181818;stroke-width:0.5;" width="4" x="644.4576" y="449.602"/><rect fill="#F1F1F1" height="2" style="stroke:#181818;stroke-width:0.5;" width="4" x="644.4576" y="453.602"/><text fill="#000000" font-family="sans-serif" font-size="14" font-style="italic" lengthAdjust="spacing" textLength="112.6156" x="525.671" y="477.5679">&#171;WebComponent&#187;</text><text fill="#000000" font-family="sans-serif" font-size="14" lengthAdjust="spacing" textLength="118.9576" x="522.5" y="496.6358">CarretComponent</text></g><!--entity CarretStatusComponent--><g id="elem_CarretStatusComponent"><rect fill="#F1F1F1" height="68.1358" rx="2.5" ry="2.5" style="stroke:#181818;stroke-width:0.5;" width="199.9634" x="487" y="339.602"/><rect fill="#F1F1F1" height="10" style="stroke:#181818;stroke-width:0.5;" width="15" x="666.9634" y="344.602"/><rect fill="#F1F1F1" height="2" style="stroke:#181818;stroke-width:0.5;" width="4" x="664.9634" y="346.602"/><rect fill="#F1F1F1" height="2" style="stroke:#181818;stroke-width:0.5;" width="4" x="664.9634" y="350.602"/><text fill="#000000" font-family="sans-serif" font-size="14" font-style="italic" lengthAdjust="spacing" textLength="112.6156" x="525.6739" y="374.5679">&#171;WebComponent&#187;</text><text fill="#000000" font-family="sans-serif" font-size="14" lengthAdjust="spacing" textLength="159.9634" x="502" y="393.6358">CarretStatusComponent</text></g><!--entity CounterComponent--><g id="elem_CounterComponent"><rect fill="#F1F1F1" height="68.1358" rx="2.5" ry="2.5" style="stroke:#181818;stroke-width:0.5;" width="171.0955" x="958" y="575.602"/><rect fill="#F1F1F1" height="10" style="stroke:#181818;stroke-width:0.5;" width="15" x="1109.0955" y="580.602"/><rect fill="#F1F1F1" height="2" style="stroke:#181818;stroke-width:0.5;" width="4" x="1107.0955" y="582.602"/><rect fill="#F1F1F1" height="2" style="stroke:#181818;stroke-width:0.5;" width="4" x="1107.0955" y="586.602"/><text fill="#000000" font-family="sans-serif" font-size="14" font-style="italic" lengthAdjust="spacing" textLength="112.6156" x="982.2399" y="610.5679">&#171;WebComponent&#187;</text><text fill="#000000" font-family="sans-serif" font-size="14" lengthAdjust="spacing" textLength="131.0955" x="973" y="629.6358">CounterComponent</text></g><!--entity ComandaCard--><g id="elem_ComandaCard"><rect fill="#F1F1F1" height="68.1358" rx="2.5" ry="2.5" style="stroke:#181818;stroke-width:0.5;" width="154.6156" x="509.5" y="751.602"/><rect fill="#F1F1F1" height="10" style="stroke:#181818;stroke-width:0.5;" width="15" x="644.1156" y="756.602"/><rect fill="#F1F1F1" height="2" style="stroke:#181818;stroke-width:0.5;" width="4" x="642.1156" y="758.602"/><rect fill="#F1F1F1" height="2" style="stroke:#181818;stroke-width:0.5;" width="4" x="642.1156" y="762.602"/><text fill="#000000" font-family="sans-serif" font-size="14" font-style="italic" lengthAdjust="spacing" textLength="112.6156" x="525.5" y="786.5679">&#171;WebComponent&#187;</text><text fill="#000000" font-family="sans-serif" font-size="14" lengthAdjust="spacing" textLength="94.4716" x="534.572" y="805.6358">ComandaCard</text></g><!--entity HistorialComponent--><g id="elem_HistorialComponent"><rect fill="#F1F1F1" height="68.1358" rx="2.5" ry="2.5" style="stroke:#181818;stroke-width:0.5;" width="172.8175" x="500.5" y="236.602"/><rect fill="#F1F1F1" height="10" style="stroke:#181818;stroke-width:0.5;" width="15" x="653.3175" y="241.602"/><rect fill="#F1F1F1" height="2" style="stroke:#181818;stroke-width:0.5;" width="4" x="651.3175" y="243.602"/><rect fill="#F1F1F1" height="2" style="stroke:#181818;stroke-width:0.5;" width="4" x="651.3175" y="247.602"/><text fill="#000000" font-family="sans-serif" font-size="14" font-style="italic" lengthAdjust="spacing" textLength="112.6156" x="525.601" y="271.5679">&#171;WebComponent&#187;</text><text fill="#000000" font-family="sans-serif" font-size="14" lengthAdjust="spacing" textLength="132.8175" x="515.5" y="290.6358">HistorialComponent</text></g><!--entity Carret--><g id="elem_Carret"><rect fill="#F1F1F1" height="68.1358" rx="2.5" ry="2.5" style="stroke:#181818;stroke-width:0.5;" width="139.1316" x="974" y="90.602"/><rect fill="#F1F1F1" height="10" style="stroke:#181818;stroke-width:0.5;" width="15" x="1093.1316" y="95.602"/><rect fill="#F1F1F1" height="2" style="stroke:#181818;stroke-width:0.5;" width="4" x="1091.1316" y="97.602"/><rect fill="#F1F1F1" height="2" style="stroke:#181818;stroke-width:0.5;" width="4" x="1091.1316" y="101.602"/><text fill="#000000" font-family="sans-serif" font-size="14" font-style="italic" lengthAdjust="spacing" textLength="97.1316" x="990" y="125.5679">&#171;Gesti&#243; d'estat&#187;</text><text fill="#000000" font-family="sans-serif" font-size="14" lengthAdjust="spacing" textLength="41.2159" x="1017.9579" y="144.6358">Carret</text></g><!--entity PizzeriaService--><g id="elem_PizzeriaService"><rect fill="#F1F1F1" height="68.1358" rx="2.5" ry="2.5" style="stroke:#181818;stroke-width:0.5;" width="137.0896" x="518.5" y="1000.602"/><rect fill="#F1F1F1" height="10" style="stroke:#181818;stroke-width:0.5;" width="15" x="635.5896" y="1005.602"/><rect fill="#F1F1F1" height="2" style="stroke:#181818;stroke-width:0.5;" width="4" x="633.5896" y="1007.602"/><rect fill="#F1F1F1" height="2" style="stroke:#181818;stroke-width:0.5;" width="4" x="633.5896" y="1011.602"/><text fill="#000000" font-family="sans-serif" font-size="14" font-style="italic" lengthAdjust="spacing" textLength="50.1198" x="556.9849" y="1035.5679">&#171;Servei&#187;</text><text fill="#000000" font-family="sans-serif" font-size="14" lengthAdjust="spacing" textLength="97.0896" x="533.5" y="1054.6358">PizzeriaService</text></g><!--entity API REST--><g id="elem_API REST"><rect fill="#F1F1F1" height="68.1358" rx="2.5" ry="2.5" style="stroke:#181818;stroke-width:0.5;" width="97.7638" x="994.5" y="1170.602"/><rect fill="#F1F1F1" height="10" style="stroke:#181818;stroke-width:0.5;" width="15" x="1072.2638" y="1175.602"/><rect fill="#F1F1F1" height="2" style="stroke:#181818;stroke-width:0.5;" width="4" x="1070.2638" y="1177.602"/><rect fill="#F1F1F1" height="2" style="stroke:#181818;stroke-width:0.5;" width="4" x="1070.2638" y="1181.602"/><text fill="#000000" font-family="sans-serif" font-size="14" font-style="italic" lengthAdjust="spacing" textLength="44.8418" x="1015.961" y="1205.5679">&#171;HTTP&#187;</text><text fill="#000000" font-family="sans-serif" font-size="14" lengthAdjust="spacing" textLength="57.7638" x="1009.5" y="1224.6358">API REST</text></g><!--link main.js to PizzeriaService--><g id="link_main.js_PizzeriaService"><path d="M83.14,613.842 C87.67,671.592 104.74,788.962 169,859.602 C262.65,962.542 420.6258,1005.7103 512.5858,1023.2103 " fill="transparent" id="main.js-to-PizzeriaService" style="stroke:#181818;stroke-width:1;"/><polygon fill="#181818" points="518.48,1024.332,510.3864,1018.72,513.5681,1023.3973,508.8909,1026.579,518.48,1024.332" style="stroke:#181818;stroke-width:1;"/><text fill="#000000" font-family="sans-serif" font-size="13" lengthAdjust="spacing" textLength="284.1674" x="170" y="855.499">getAllPizzes(), getAllEntrants(), getAllBegudes()</text></g><!--link PizzeriaService to API REST--><g id="link_PizzeriaService_API REST"><path d="M655.55,1059.872 C748.41,1094.602 907.5703,1154.1299 988.8403,1184.5299 " fill="transparent" id="PizzeriaService-to-API REST" style="stroke:#181818;stroke-width:1;"/><polygon fill="#181818" points="994.46,1186.632,987.4319,1179.7323,989.7769,1184.8802,984.629,1187.2253,994.46,1186.632" style="stroke:#181818;stroke-width:1;"/><text fill="#000000" font-family="sans-serif" font-size="13" lengthAdjust="spacing" textLength="161.7851" x="742" y="1081.499">GET /api/pizzeria/products</text></g><!--link main.js to PizzaCard--><g id="link_main.js_PizzaCard"><path d="M113.51,613.842 C129.4,629.902 149.36,648.722 169,663.602 C289.84,755.162 327.55,768.492 463,836.602 C477.71,843.992 488.2122,848.9121 503.6722,855.5921 " fill="transparent" id="main.js-to-PizzaCard" style="stroke:#181818;stroke-width:1;"/><polygon fill="#181818" points="509.18,857.972,502.5048,850.7303,504.5901,855.9888,499.3317,858.0741,509.18,857.972" style="stroke:#181818;stroke-width:1;"/></g><!--link main.js to EntrantCard--><g id="link_main.js_EntrantCard"><path d="M139.37,591.422 C230.48,610.022 401.5313,644.9418 503.2213,665.7018 " fill="transparent" id="main.js-to-EntrantCard" style="stroke:#181818;stroke-width:1;"/><polygon fill="#181818" points="509.1,666.902,501.082,661.1826,504.201,665.9019,499.4818,669.0209,509.1,666.902" style="stroke:#181818;stroke-width:1;"/></g><!--link main.js to BegudaCard--><g id="link_main.js_BegudaCard"><path d="M139.37,579.602 C230.48,579.602 401.41,579.602 503.1,579.602 " fill="transparent" id="main.js-to-BegudaCard" style="stroke:#181818;stroke-width:1;"/><polygon fill="#181818" points="509.1,579.602,500.1,575.602,504.1,579.602,500.1,583.602,509.1,579.602" style="stroke:#181818;stroke-width:1;"/></g><!--link main.js to CarretComponent--><g id="link_main.js_CarretComponent"><path d="M139.37,567.782 C229.96,549.292 399.5313,514.6725 501.4813,493.8525 " fill="transparent" id="main.js-to-CarretComponent" style="stroke:#181818;stroke-width:1;"/><polygon fill="#181818" points="507.36,492.652,497.7416,490.5337,502.4611,493.6524,499.3424,498.3719,507.36,492.652" style="stroke:#181818;stroke-width:1;"/></g><!--link main.js to CarretStatusComponent--><g id="link_main.js_CarretStatusComponent"><path d="M131.81,545.432 C143.72,538.052 156.59,530.662 169,524.602 C273.82,473.412 394.8948,431.727 480.9448,404.747 " fill="transparent" id="main.js-to-CarretStatusComponent" style="stroke:#181818;stroke-width:1;"/><polygon fill="#181818" points="486.67,402.952,476.8855,401.8278,481.899,404.4479,479.2789,409.4614,486.67,402.952" style="stroke:#181818;stroke-width:1;"/></g><!--link main.js to HistorialComponent--><g id="link_main.js_HistorialComponent"><path d="M100.24,545.492 C115.88,519.522 140.21,484.332 169,460.602 C268.92,378.262 404.6155,325.6508 494.3855,296.9208 " fill="transparent" id="main.js-to-HistorialComponent" style="stroke:#181818;stroke-width:1;"/><polygon fill="#181818" points="500.1,295.092,490.309,294.0256,495.3379,296.616,492.7475,301.6449,500.1,295.092" style="stroke:#181818;stroke-width:1;"/></g><!--link PizzaCard to CounterComponent--><g id="link_PizzaCard_CounterComponent"><path d="M654.35,854.502 C665.32,848.652 676.53,842.542 687,836.602 C796.15,774.732 822.97,758.232 928,689.602 C950.33,675.012 969.7115,661.6567 990.1415,647.2067 " fill="transparent" id="PizzaCard-to-CounterComponent" style="stroke:#181818;stroke-width:1;"/><polygon fill="#181818" points="995.04,643.742,985.3824,645.6733,990.9579,646.6292,990.002,652.2047,995.04,643.742" style="stroke:#181818;stroke-width:1;"/><text fill="#000000" font-family="sans-serif" font-size="13" lengthAdjust="spacing" textLength="106.9901" x="769.5" y="685.499">Cont&#233; comptador</text></g><!--link EntrantCard to CounterComponent--><g id="link_EntrantCard_CounterComponent"><path d="M664.66,670.582 C733.58,659.742 837.59,643.282 928,628.602 C937.65,627.032 941.8296,626.3559 951.8596,624.7059 " fill="transparent" id="EntrantCard-to-CounterComponent" style="stroke:#181818;stroke-width:1;"/><polygon fill="#181818" points="957.78,623.732,948.2501,621.246,952.8463,624.5436,949.5487,629.1399,957.78,623.732" style="stroke:#181818;stroke-width:1;"/><text fill="#000000" font-family="sans-serif" font-size="13" lengthAdjust="spacing" textLength="106.9901" x="769.5" y="624.499">Cont&#233; comptador</text></g><!--link BegudaCard to CounterComponent--><g id="link_BegudaCard_CounterComponent"><path d="M664.59,584.662 C745.79,590.022 867.733,598.0671 951.883,603.6171 " fill="transparent" id="BegudaCard-to-CounterComponent" style="stroke:#181818;stroke-width:1;"/><polygon fill="#181818" points="957.87,604.012,949.1528,599.4284,952.8808,603.6829,948.6263,607.411,957.87,604.012" style="stroke:#181818;stroke-width:1;"/><text fill="#000000" font-family="sans-serif" font-size="13" lengthAdjust="spacing" textLength="106.9901" x="769.5" y="584.499">Cont&#233; comptador</text></g><!--link CounterComponent to Carret--><g id="link_CounterComponent_Carret"><path d="M1043.5,575.502 C1043.5,486.452 1043.5,253.672 1043.5,164.672 " fill="transparent" id="CounterComponent-to-Carret" style="stroke:#181818;stroke-width:1;"/><polygon fill="#181818" points="1043.5,158.672,1039.5,167.672,1043.5,163.672,1047.5,167.672,1043.5,158.672" style="stroke:#181818;stroke-width:1;"/><text fill="#000000" font-family="sans-serif" font-size="13" lengthAdjust="spacing" textLength="138.8661" x="962" y="372.499">Afig/Elimina productes</text></g><!--link Carret to CarretComponent--><g id="link_Carret_CarretComponent"><path d="M998.84,158.972 C980.77,175.602 961.41,197.072 950,220.602 C918.5,285.592 975.46,327.162 928,381.602 C863.05,456.092 751.0245,474.1745 672.5545,477.5445 " fill="transparent" id="Carret-to-CarretComponent" style="stroke:#181818;stroke-width:1;"/><polygon fill="#181818" points="666.56,477.802,675.7233,481.4121,671.5554,477.5874,675.3801,473.4195,666.56,477.802" style="stroke:#181818;stroke-width:1;"/><text fill="#000000" font-family="sans-serif" font-size="13" lengthAdjust="spacing" textLength="177.0731" x="734" y="377.499">Proporciona dades del carret</text></g><!--link CarretComponent to Carret--><g id="link_CarretComponent_Carret"><path d="M665.69,442.482 C673.43,437.182 680.73,431.232 687,424.602 C709.13,401.182 691.61,378.442 717,358.602 C792.14,299.872 859.37,385.812 928,319.602 C960.44,288.312 928.68,260.312 950,220.602 C962.48,197.352 977.799,179.8609 995.819,163.0809 " fill="transparent" id="CarretComponent-to-Carret" style="stroke:#181818;stroke-width:1;"/><polygon fill="#181818" points="1000.21,158.992,990.8975,162.1979,996.5508,162.3994,996.3494,168.0526,1000.21,158.992" style="stroke:#181818;stroke-width:1;"/><text fill="#000000" font-family="sans-serif" font-size="13" lengthAdjust="spacing" textLength="190.2942" x="727.5" y="315.499">Escolta l'event carretActualitzat</text></g><!--link Carret to CarretStatusComponent--><g id="link_Carret_CarretStatusComponent"><path d="M973.84,118.242 C900.29,115.462 785.01,123.362 717,189.602 C673.9,231.582 723.66,273.902 687,321.602 C681.91,328.222 680.5033,330.4336 673.7533,335.6036 " fill="transparent" id="Carret-to-CarretStatusComponent" style="stroke:#181818;stroke-width:1;"/><polygon fill="#181818" points="668.99,339.252,678.5673,336.955,672.9595,336.2117,673.7028,330.6039,668.99,339.252" style="stroke:#181818;stroke-width:1;"/><text fill="#000000" font-family="sans-serif" font-size="13" lengthAdjust="spacing" textLength="209.0532" x="718" y="114.499">Proporciona informaci&#243; del resum</text></g><!--link CarretStatusComponent to Carret--><g id="link_CarretStatusComponent_Carret"><path d="M658.99,339.492 C668.67,333.932 678.27,327.912 687,321.602 C702.03,310.732 701.26,302.402 717,292.602 C801.6,239.902 841.07,265.372 928,216.602 C956.47,200.632 980.5941,181.6053 1002.1041,162.5953 " fill="transparent" id="CarretStatusComponent-to-Carret" style="stroke:#181818;stroke-width:1;"/><polygon fill="#181818" points="1006.6,158.622,997.2073,161.5847,1002.8535,161.9331,1002.5051,167.5792,1006.6,158.622" style="stroke:#181818;stroke-width:1;"/><text fill="#000000" font-family="sans-serif" font-size="13" lengthAdjust="spacing" textLength="190.2942" x="727.5" y="212.499">Escolta l'event carretActualitzat</text></g><!--SRC=[bLHDZzem4BtxLuou05Att5Shf1JHtUq95QIUfuwXqpfsP4zGHRK_Q0yzzIVmnsg708bXMv9JCdxlpPiFHwir0rjmjFd6a9DJaiaQ8KgKFt2ZO92LcYHAsl-1cIPb64PVrDVn07u90U4v0PyDAxVU_vQauY4qZxH5QKta3HQqs-4CNJw0XuSWCZiUJQVNu7F33WtVJlYWDbNU8q50EiKdK1_Iaf4htvTggzYZtgm2JP-odiYpTOJwVubUaWa-Aiznplaml22_CSL30w9aWdz3DPDo_-e1mIktLUJ_iHmgk5u654aLzPSreIlROXH8vlrt7v6VS8jBwQYC9iHBQtrhkTmw66MBv_4nTqibXE7pVBcACa-hrI881FuGFkhgPwYCuiHGnlqNJKAukvj2OXVkOQCuqxgE-z7uNVFTB74hKczfX8XK8-gs_Dp3utm54onfKZR8IUbiNadsui9ClI2TQEl-TEBdQz899xVXobcoz1t4vT89SR9rq4YsFzGtiuRth_Kq6CEGHClopPnpEJTJn0NeN6J0PslQJEQQ2Z88JSTLQ7a3kDAiG5euMredmyyJ8SSmOCYL1bdZBfb9AnC-cRLrnU6d6rMSybKXqfmTptClhMO4FLJRU7X8d4ckK1FlyEWXJTnJHFm5]--></g></svg>