<svg xmlns="http://www.w3.org/2000/svg" xmlns:xlink="http://www.w3.org/1999/xlink" contentStyleType="text/css" data-diagram-type="DESCRIPTION" height="637px" preserveAspectRatio="none" style="width:355px;height:637px;background:#FFFFFF;" version="1.1" viewBox="0 0 355 637" width="355px" zoomAndPan="magnify"><defs/><g><!--entity client--><g id="elem_client"><ellipse cx="24.8369" cy="296.5" fill="#F1F1F1" rx="8" ry="8" style="stroke:#181818;stroke-width:0.5;"/><path d="M24.8369,304.5 L24.8369,331.5 M11.8369,312.5 L37.8369,312.5 M24.8369,331.5 L11.8369,346.5 M24.8369,331.5 L37.8369,346.5 " fill="transparent" style="stroke:#181818;stroke-width:0.5;"/><text fill="#000000" font-family="sans-serif" font-size="14" lengthAdjust="spacing" textLength="37.6738" x="6" y="362.9659">Client</text></g><g id="elem_U1"><ellipse cx="227.0412" cy="30.4082" fill="#F1F1F1" rx="110.0412" ry="24.4082" style="stroke:#181818;stroke-width:0.5;"/><text fill="#000000" font-family="sans-serif" font-size="14" lengthAdjust="spacing" textLength="178.6393" x="134.7216" y="35.1412">Consultar cat&#224;leg de pizzes</text></g><g id="elem_U2"><ellipse cx="227.196" cy="115.5392" fill="#F1F1F1" rx="113.196" ry="25.0392" style="stroke:#181818;stroke-width:0.5;"/><text fill="#000000" font-family="sans-serif" font-size="14" lengthAdjust="spacing" textLength="185.9193" x="131.2363" y="120.2722">Consultar cat&#224;leg d'entrants</text></g><g id="elem_U3"><ellipse cx="226.9514" cy="201.3903" fill="#F1F1F1" rx="117.4514" ry="25.8903" style="stroke:#181818;stroke-width:0.5;"/><text fill="#000000" font-family="sans-serif" font-size="14" lengthAdjust="spacing" textLength="195.6353" x="126.2241" y="206.0897">Consultar cat&#224;leg de begudes</text></g><g id="elem_U4"><ellipse cx="227.0051" cy="285.401" fill="#F1F1F1" rx="102.5051" ry="22.901" style="stroke:#181818;stroke-width:0.5;"/><text fill="#000000" font-family="sans-serif" font-size="14" lengthAdjust="spacing" textLength="160.9294" x="143.5404" y="290.134">Afegir producte al carret</text></g><g id="elem_U5"><ellipse cx="226.8254" cy="368.3651" fill="#F1F1F1" rx="112.3254" ry="24.8651" style="stroke:#181818;stroke-width:0.5;"/><text fill="#000000" font-family="sans-serif" font-size="14" lengthAdjust="spacing" textLength="183.9173" x="131.8668" y="373.0981">Eliminar producte del carret</text></g><g id="elem_U6"><ellipse cx="227.0446" cy="447.6089" fill="#F1F1F1" rx="81.0446" ry="18.6089" style="stroke:#181818;stroke-width:0.5;"/><text fill="#000000" font-family="sans-serif" font-size="14" lengthAdjust="spacing" textLength="106.3576" x="170.8658" y="452.3419">Consultar carret</text></g><g id="elem_U7"><ellipse cx="227.1589" cy="521.3318" fill="#F1F1F1" rx="89.6589" ry="20.3318" style="stroke:#181818;stroke-width:0.5;"/><text fill="#000000" font-family="sans-serif" font-size="14" lengthAdjust="spacing" textLength="129.2755" x="159.5212" y="526.0648">Processar comanda</text></g><g id="elem_U8"><ellipse cx="226.8125" cy="604.4625" fill="#F1F1F1" rx="122.8125" ry="26.9625" style="stroke:#181818;stroke-width:0.5;"/><text fill="#000000" font-family="sans-serif" font-size="14" lengthAdjust="spacing" textLength="207.6612" x="121.2077" y="608.712">Consultar hist&#242;ric de comandes</text></g><!--link client to U1--><g id="link_client_U1"><path d="M27.33,287.88 C31.32,232.46 46.59,131.94 104,72.5 C115.05,61.06 123.7916,54.9992 138.7016,48.9392 " fill="transparent" id="client-to-U1" style="stroke:#181818;stroke-width:1;"/><polygon fill="#181818" points="144.26,46.68,134.4162,46.3631,139.628,48.5626,137.4285,53.7744,144.26,46.68" style="stroke:#181818;stroke-width:1;"/></g><!--link client to U2--><g id="link_client_U2"><path d="M34.63,287.71 C44.91,249.35 65.74,192.16 104,157.5 C115.79,146.82 124.8458,141.06 139.8358,135.09 " fill="transparent" id="client-to-U2" style="stroke:#181818;stroke-width:1;"/><polygon fill="#181818" points="145.41,132.87,135.5687,132.4839,140.7648,134.72,138.5287,139.9161,145.41,132.87" style="stroke:#181818;stroke-width:1;"/></g><!--link client to U3--><g id="link_client_U3"><path d="M44.03,302.67 C58.45,284.37 80.15,260.05 104,244.5 C118.39,235.12 129.4553,229.5886 145.7753,223.5286 " fill="transparent" id="client-to-U3" style="stroke:#181818;stroke-width:1;"/><polygon fill="#181818" points="151.4,221.44,141.5705,220.8231,146.7127,223.1805,144.3553,228.3227,151.4,221.44" style="stroke:#181818;stroke-width:1;"/></g><!--link client to U4--><g id="link_client_U4"><path d="M44.1,323.7 C68.33,318.61 106.9082,310.5136 145.7982,302.3436 " fill="transparent" id="client-to-U4" style="stroke:#181818;stroke-width:1;"/><polygon fill="#181818" points="151.67,301.11,142.0399,299.0458,146.7768,302.138,143.6846,306.8749,151.67,301.11" style="stroke:#181818;stroke-width:1;"/></g><!--link client to U5--><g id="link_client_U5"><path d="M44.1,331.21 C66.7,335.84 100.992,342.876 137.852,350.426 " fill="transparent" id="client-to-U5" style="stroke:#181818;stroke-width:1;"/><polygon fill="#181818" points="143.73,351.63,135.7157,345.9054,138.8317,350.6267,134.1104,353.7427,143.73,351.63" style="stroke:#181818;stroke-width:1;"/></g><!--link client to U6--><g id="link_client_U6"><path d="M44.13,353.02 C58.45,371.44 79.97,395.59 104,410.5 C122.34,421.88 138.619,428.3538 158.919,433.9938 " fill="transparent" id="client-to-U6" style="stroke:#181818;stroke-width:1;"/><polygon fill="#181818" points="164.7,435.6,157.0992,429.3367,159.8825,434.2615,154.9577,437.0448,164.7,435.6" style="stroke:#181818;stroke-width:1;"/></g><!--link client to U7--><g id="link_client_U7"><path d="M36.25,367.33 C47.33,402.65 68.36,453.2 104,483.5 C118.2,495.57 130.4884,502.0035 148.2884,507.6235 " fill="transparent" id="client-to-U7" style="stroke:#181818;stroke-width:1;"/><polygon fill="#181818" points="154.01,509.43,146.6319,502.9059,149.242,507.9246,144.2233,510.5347,154.01,509.43" style="stroke:#181818;stroke-width:1;"/></g><!--link client to U8--><g id="link_client_U8"><path d="M29.02,367.34 C34.96,418.35 52.48,506.46 104,559.5 C114.54,570.35 122.4434,576.149 136.4534,582.419 " fill="transparent" id="client-to-U8" style="stroke:#181818;stroke-width:1;"/><polygon fill="#181818" points="141.93,584.87,135.3491,577.5425,137.3662,582.8275,132.0812,584.8446,141.93,584.87" style="stroke:#181818;stroke-width:1;"/></g><!--SRC=[XP0z3i8m34RtdC9YOM80oi-4X10x2mSmYIcMGe8ST-4qd84hS35Q2ceZ8TZyvETFjZqT5JI2S7bIS2nabMCm1gr6WS76CmKT02QmhzAOAf75H7KlXbHvHG6B-hXvAi4HNFXwfVIQs8z_oyCwJp3esvxyYpvGMRbFzhIprqSgMU0YqLLM2T3NOoBKxhqlEdFh-Sm1UwwZN9vzNw8JvfsmasWffKQ8PmmEMsFnBUB4IHztOTiSqkgVIvR6jB-5qMZLFArFauoc6HKPpJAQPxJ8Q6cU]--></g></svg>