<svg xmlns="http://www.w3.org/2000/svg" xmlns:xlink="http://www.w3.org/1999/xlink" contentStyleType="text/css" data-diagram-type="CLASS" height="711px" preserveAspectRatio="none" style="width:1020px;height:711px;background:#FFFFFF;" version="1.1" viewBox="0 0 1020 711" width="1020px" zoomAndPan="magnify"><defs/><g><!--class Producte--><g id="elem_Producte"><rect codeLine="4" fill="#F1F1F1" height="124.2717" id="Producte" rx="2.5" ry="2.5" style="stroke:#181818;stroke-width:0.5;" width="117.0136" x="205.5" y="414"/><ellipse cx="231.9119" cy="430" fill="#ADD1B2" rx="11" ry="11" style="stroke:#181818;stroke-width:1;"/><path d="M234.8807,435.6406 Q234.3026,435.9375 233.6619,436.0781 Q233.0213,436.2344 232.3182,436.2344 Q229.8182,436.2344 228.4901,434.5938 Q227.1776,432.9375 227.1776,429.8125 Q227.1776,426.6875 228.4901,425.0313 Q229.8182,423.375 232.3182,423.375 Q233.0213,423.375 233.6619,423.5313 Q234.3182,423.6875 234.8807,423.9844 L234.8807,426.7031 Q234.2557,426.125 233.6619,425.8594 Q233.0682,425.5781 232.4432,425.5781 Q231.0994,425.5781 230.4119,426.6563 Q229.7244,427.7188 229.7244,429.8125 Q229.7244,431.9063 230.4119,432.9844 Q231.0994,434.0469 232.4432,434.0469 Q233.0682,434.0469 233.6619,433.7813 Q234.2557,433.5 234.8807,432.9219 L234.8807,435.6406 Z " fill="#000000"/><text fill="#000000" font-family="sans-serif" font-size="14" lengthAdjust="spacing" textLength="59.6538" x="248.4479" y="435.432">Producte</text><line style="stroke:#181818;stroke-width:0.5;" x1="206.5" x2="321.5136" y1="446" y2="446"/><rect fill="transparent" height="6" style="stroke:#C82930;stroke-width:1;" width="6" x="213.5" y="458.034"/><text fill="#000000" font-family="sans-serif" font-size="14" lengthAdjust="spacing" textLength="72.2957" x="225.5" y="464.9659">id: number</text><rect fill="transparent" height="6" style="stroke:#C82930;stroke-width:1;" width="6" x="213.5" y="477.1019"/><text fill="#000000" font-family="sans-serif" font-size="14" lengthAdjust="spacing" textLength="76.0197" x="225.5" y="484.0339">nom: string</text><rect fill="transparent" height="6" style="stroke:#C82930;stroke-width:1;" width="6" x="213.5" y="496.1698"/><text fill="#000000" font-family="sans-serif" font-size="14" lengthAdjust="spacing" textLength="91.0136" x="225.5" y="503.1018">preu: number</text><rect fill="transparent" height="6" style="stroke:#C82930;stroke-width:1;" width="6" x="213.5" y="515.2377"/><text fill="#000000" font-family="sans-serif" font-size="14" lengthAdjust="spacing" textLength="71.1197" x="225.5" y="522.1697">img: string</text><line style="stroke:#181818;stroke-width:0.5;" x1="206.5" x2="321.5136" y1="530.2717" y2="530.2717"/></g><!--class Pizza--><g id="elem_Pizza"><rect codeLine="11" fill="#F1F1F1" height="105.2038" id="Pizza" rx="2.5" ry="2.5" style="stroke:#181818;stroke-width:0.5;" width="165.1315" x="23.5" y="599"/><ellipse cx="85.2678" cy="615" fill="#ADD1B2" rx="11" ry="11" style="stroke:#181818;stroke-width:1;"/><path d="M88.2365,620.6406 Q87.6584,620.9375 87.0178,621.0781 Q86.3772,621.2344 85.674,621.2344 Q83.174,621.2344 81.8459,619.5938 Q80.5334,617.9375 80.5334,614.8125 Q80.5334,611.6875 81.8459,610.0313 Q83.174,608.375 85.674,608.375 Q86.3772,608.375 87.0178,608.5313 Q87.674,608.6875 88.2365,608.9844 L88.2365,611.7031 Q87.6115,611.125 87.0178,610.8594 Q86.424,610.5781 85.799,610.5781 Q84.4553,610.5781 83.7678,611.6563 Q83.0803,612.7188 83.0803,614.8125 Q83.0803,616.9063 83.7678,617.9844 Q84.4553,619.0469 85.799,619.0469 Q86.424,619.0469 87.0178,618.7813 Q87.6115,618.5 88.2365,617.9219 L88.2365,620.6406 Z " fill="#000000"/><text fill="#000000" font-family="sans-serif" font-size="14" lengthAdjust="spacing" textLength="33.0959" x="105.7678" y="620.432">Pizza</text><line style="stroke:#181818;stroke-width:0.5;" x1="24.5" x2="187.6315" y1="631" y2="631"/><rect fill="transparent" height="6" style="stroke:#C82930;stroke-width:1;" width="6" x="31.5" y="643.034"/><text fill="#000000" font-family="sans-serif" font-size="14" lengthAdjust="spacing" textLength="75.7397" x="43.5" y="649.9659">desc: string</text><rect fill="transparent" height="6" style="stroke:#C82930;stroke-width:1;" width="6" x="31.5" y="662.1019"/><text fill="#000000" font-family="sans-serif" font-size="14" lengthAdjust="spacing" textLength="139.1315" x="43.5" y="669.0339">vegetariana: boolean</text><rect fill="transparent" height="6" style="stroke:#C82930;stroke-width:1;" width="6" x="31.5" y="681.1698"/><text fill="#000000" font-family="sans-serif" font-size="14" lengthAdjust="spacing" textLength="112.0276" x="43.5" y="688.1018">alergens: string[]</text><line style="stroke:#181818;stroke-width:0.5;" x1="24.5" x2="187.6315" y1="696.2038" y2="696.2038"/></g><!--class Entrant--><g id="elem_Entrant"><rect codeLine="17" fill="#F1F1F1" height="48" id="Entrant" rx="2.5" ry="2.5" style="stroke:#181818;stroke-width:0.5;" width="80.8318" x="223.5" y="627.5"/><ellipse cx="238.5" cy="643.5" fill="#ADD1B2" rx="11" ry="11" style="stroke:#181818;stroke-width:1;"/><path d="M241.4688,649.1406 Q240.8906,649.4375 240.25,649.5781 Q239.6094,649.7344 238.9063,649.7344 Q236.4063,649.7344 235.0781,648.0938 Q233.7656,646.4375 233.7656,643.3125 Q233.7656,640.1875 235.0781,638.5313 Q236.4063,636.875 238.9063,636.875 Q239.6094,636.875 240.25,637.0313 Q240.9063,637.1875 241.4688,637.4844 L241.4688,640.2031 Q240.8438,639.625 240.25,639.3594 Q239.6563,639.0781 239.0313,639.0781 Q237.6875,639.0781 237,640.1563 Q236.3125,641.2188 236.3125,643.3125 Q236.3125,645.4063 237,646.4844 Q237.6875,647.5469 239.0313,647.5469 Q239.6563,647.5469 240.25,647.2813 Q240.8438,647 241.4688,646.4219 L241.4688,649.1406 Z " fill="#000000"/><text fill="#000000" font-family="sans-serif" font-size="14" lengthAdjust="spacing" textLength="48.8318" x="252.5" y="648.932">Entrant</text><line style="stroke:#181818;stroke-width:0.5;" x1="224.5" x2="303.3318" y1="659.5" y2="659.5"/><line style="stroke:#181818;stroke-width:0.5;" x1="224.5" x2="303.3318" y1="667.5" y2="667.5"/></g><!--class Beguda--><g id="elem_Beguda"><rect codeLine="19" fill="#F1F1F1" height="105.2038" id="Beguda" rx="2.5" ry="2.5" style="stroke:#181818;stroke-width:0.5;" width="134.3596" x="340" y="599"/><ellipse cx="378.237" cy="615" fill="#ADD1B2" rx="11" ry="11" style="stroke:#181818;stroke-width:1;"/><path d="M381.2057,620.6406 Q380.6276,620.9375 379.987,621.0781 Q379.3464,621.2344 378.6432,621.2344 Q376.1432,621.2344 374.8151,619.5938 Q373.5026,617.9375 373.5026,614.8125 Q373.5026,611.6875 374.8151,610.0313 Q376.1432,608.375 378.6432,608.375 Q379.3464,608.375 379.987,608.5313 Q380.6432,608.6875 381.2057,608.9844 L381.2057,611.7031 Q380.5807,611.125 379.987,610.8594 Q379.3932,610.5781 378.7682,610.5781 Q377.4245,610.5781 376.737,611.6563 Q376.0495,612.7188 376.0495,614.8125 Q376.0495,616.9063 376.737,617.9844 Q377.4245,619.0469 378.7682,619.0469 Q379.3932,619.0469 379.987,618.7813 Q380.5807,618.5 381.2057,617.9219 L381.2057,620.6406 Z " fill="#000000"/><text fill="#000000" font-family="sans-serif" font-size="14" lengthAdjust="spacing" textLength="50.7218" x="397.4008" y="620.432">Beguda</text><line style="stroke:#181818;stroke-width:0.5;" x1="341" x2="473.3596" y1="631" y2="631"/><rect fill="transparent" height="6" style="stroke:#C82930;stroke-width:1;" width="6" x="348" y="643.034"/><text fill="#000000" font-family="sans-serif" font-size="14" lengthAdjust="spacing" textLength="96.7116" x="360" y="649.9659">sucre: boolean</text><rect fill="transparent" height="6" style="stroke:#C82930;stroke-width:1;" width="6" x="348" y="662.1019"/><text fill="#000000" font-family="sans-serif" font-size="14" lengthAdjust="spacing" textLength="108.3596" x="360" y="669.0339">cafeina: boolean</text><rect fill="transparent" height="6" style="stroke:#C82930;stroke-width:1;" width="6" x="348" y="681.1698"/><text fill="#000000" font-family="sans-serif" font-size="14" lengthAdjust="spacing" textLength="108.3456" x="360" y="688.1018">alcohol: boolean</text><line style="stroke:#181818;stroke-width:0.5;" x1="341" x2="473.3596" y1="696.2038" y2="696.2038"/></g><!--class Carret--><g id="elem_Carret"><rect codeLine="30" fill="#F1F1F1" height="143.3396" id="Carret" rx="2.5" ry="2.5" style="stroke:#181818;stroke-width:0.5;" width="376.0267" x="7" y="192"/><ellipse cx="170.1554" cy="208" fill="#ADD1B2" rx="11" ry="11" style="stroke:#181818;stroke-width:1;"/><path d="M173.1242,213.6406 Q172.5461,213.9375 171.9054,214.0781 Q171.2648,214.2344 170.5617,214.2344 Q168.0617,214.2344 166.7336,212.5938 Q165.4211,210.9375 165.4211,207.8125 Q165.4211,204.6875 166.7336,203.0313 Q168.0617,201.375 170.5617,201.375 Q171.2648,201.375 171.9054,201.5313 Q172.5617,201.6875 173.1242,201.9844 L173.1242,204.7031 Q172.4992,204.125 171.9054,203.8594 Q171.3117,203.5781 170.6867,203.5781 Q169.3429,203.5781 168.6554,204.6563 Q167.9679,205.7188 167.9679,207.8125 Q167.9679,209.9063 168.6554,210.9844 Q169.3429,212.0469 170.6867,212.0469 Q171.3117,212.0469 171.9054,211.7813 Q172.4992,211.5 173.1242,210.9219 L173.1242,213.6406 Z " fill="#000000"/><text fill="#000000" font-family="sans-serif" font-size="14" lengthAdjust="spacing" textLength="41.2159" x="190.6554" y="213.432">Carret</text><line style="stroke:#181818;stroke-width:0.5;" x1="8" x2="382.0267" y1="224" y2="224"/><rect fill="transparent" height="6" style="stroke:#C82930;stroke-width:1;" width="6" x="15" y="236.034"/><text fill="#000000" font-family="sans-serif" font-size="14" lengthAdjust="spacing" textLength="350.0267" x="27" y="242.9659">elements: { producte: Producte, quantitat: number }[]</text><line style="stroke:#181818;stroke-width:0.5;" x1="8" x2="382.0267" y1="251.0679" y2="251.0679"/><ellipse cx="18" cy="266.1019" fill="#84BE84" rx="3" ry="3" style="stroke:#038048;stroke-width:1;"/><text fill="#000000" font-family="sans-serif" font-size="14" lengthAdjust="spacing" textLength="217.4752" x="27" y="270.0339">afegirProducte(p: Producte): void</text><ellipse cx="18" cy="285.1698" fill="#84BE84" rx="3" ry="3" style="stroke:#038048;stroke-width:1;"/><text fill="#000000" font-family="sans-serif" font-size="14" lengthAdjust="spacing" textLength="233.0151" x="27" y="289.1018">eliminarProducte(p: Producte): void</text><ellipse cx="18" cy="304.2377" fill="#84BE84" rx="3" ry="3" style="stroke:#038048;stroke-width:1;"/><text fill="#000000" font-family="sans-serif" font-size="14" lengthAdjust="spacing" textLength="214.7732" x="27" y="308.1697">calcularQuantitatTotal(): number</text><ellipse cx="18" cy="323.3056" fill="#84BE84" rx="3" ry="3" style="stroke:#038048;stroke-width:1;"/><text fill="#000000" font-family="sans-serif" font-size="14" lengthAdjust="spacing" textLength="182.8533" x="27" y="327.2376">calcularPreuTotal(): number</text></g><!--class PizzeriaService--><g id="elem_PizzeriaService"><rect codeLine="41" fill="#F1F1F1" height="124.2717" id="PizzeriaService" rx="2.5" ry="2.5" style="stroke:#181818;stroke-width:0.5;" width="425.0965" x="430.5" y="7"/><ellipse cx="590.2535" cy="23" fill="#ADD1B2" rx="11" ry="11" style="stroke:#181818;stroke-width:1;"/><path d="M593.2222,28.6406 Q592.6441,28.9375 592.0035,29.0781 Q591.3628,29.2344 590.6597,29.2344 Q588.1597,29.2344 586.8316,27.5938 Q585.5191,25.9375 585.5191,22.8125 Q585.5191,19.6875 586.8316,18.0313 Q588.1597,16.375 590.6597,16.375 Q591.3628,16.375 592.0035,16.5313 Q592.6597,16.6875 593.2222,16.9844 L593.2222,19.7031 Q592.5972,19.125 592.0035,18.8594 Q591.4097,18.5781 590.7847,18.5781 Q589.441,18.5781 588.7535,19.6563 Q588.066,20.7188 588.066,22.8125 Q588.066,24.9063 588.7535,25.9844 Q589.441,27.0469 590.7847,27.0469 Q591.4097,27.0469 592.0035,26.7813 Q592.5972,26.5 593.2222,25.9219 L593.2222,28.6406 Z " fill="#000000"/><text fill="#000000" font-family="sans-serif" font-size="14" lengthAdjust="spacing" textLength="97.0896" x="610.7535" y="28.432">PizzeriaService</text><line style="stroke:#181818;stroke-width:0.5;" x1="431.5" x2="854.5965" y1="39" y2="39"/><line style="stroke:#181818;stroke-width:0.5;" x1="431.5" x2="854.5965" y1="47" y2="47"/><ellipse cx="441.5" cy="62.034" fill="#84BE84" rx="3" ry="3" style="stroke:#038048;stroke-width:1;"/><text fill="#000000" font-family="sans-serif" font-size="14" lengthAdjust="spacing" textLength="135.6735" x="450.5" y="65.9659">getAllPizzes(): Pizza[]</text><ellipse cx="441.5" cy="81.1019" fill="#84BE84" rx="3" ry="3" style="stroke:#038048;stroke-width:1;"/><text fill="#000000" font-family="sans-serif" font-size="14" lengthAdjust="spacing" textLength="167.1034" x="450.5" y="85.0339">getAllEntrants(): Entrant[]</text><ellipse cx="441.5" cy="100.1698" fill="#84BE84" rx="3" ry="3" style="stroke:#038048;stroke-width:1;"/><text fill="#000000" font-family="sans-serif" font-size="14" lengthAdjust="spacing" textLength="170.9253" x="450.5" y="104.1018">getAllBegudes(): Beguda[]</text><ellipse cx="441.5" cy="119.2377" fill="#84BE84" rx="3" ry="3" style="stroke:#038048;stroke-width:1;"/><text fill="#000000" font-family="sans-serif" font-size="14" lengthAdjust="spacing" textLength="399.0965" x="450.5" y="123.1697">processarComanda(comanda: Comanda): RespostaComanda</text></g><!--class Comanda--><g id="elem_Comanda"><rect codeLine="49" fill="#F1F1F1" height="124.2717" id="Comanda" rx="2.5" ry="2.5" style="stroke:#181818;stroke-width:0.5;" width="168.7575" x="418.5" y="201.5"/><ellipse cx="466.9399" cy="217.5" fill="#ADD1B2" rx="11" ry="11" style="stroke:#181818;stroke-width:1;"/><path d="M469.9086,223.1406 Q469.3305,223.4375 468.6899,223.5781 Q468.0492,223.7344 467.3461,223.7344 Q464.8461,223.7344 463.518,222.0938 Q462.2055,220.4375 462.2055,217.3125 Q462.2055,214.1875 463.518,212.5313 Q464.8461,210.875 467.3461,210.875 Q468.0492,210.875 468.6899,211.0313 Q469.3461,211.1875 469.9086,211.4844 L469.9086,214.2031 Q469.2836,213.625 468.6899,213.3594 Q468.0961,213.0781 467.4711,213.0781 Q466.1274,213.0781 465.4399,214.1563 Q464.7524,215.2188 464.7524,217.3125 Q464.7524,219.4063 465.4399,220.4844 Q466.1274,221.5469 467.4711,221.5469 Q468.0961,221.5469 468.6899,221.2813 Q469.2836,221 469.9086,220.4219 L469.9086,223.1406 Z " fill="#000000"/><text fill="#000000" font-family="sans-serif" font-size="14" lengthAdjust="spacing" textLength="63.3778" x="487.4399" y="222.932">Comanda</text><line style="stroke:#181818;stroke-width:0.5;" x1="419.5" x2="586.2575" y1="233.5" y2="233.5"/><rect fill="transparent" height="6" style="stroke:#C82930;stroke-width:1;" width="6" x="426.5" y="245.534"/><text fill="#000000" font-family="sans-serif" font-size="14" lengthAdjust="spacing" textLength="72.2957" x="438.5" y="252.4659">id: number</text><rect fill="transparent" height="6" style="stroke:#C82930;stroke-width:1;" width="6" x="426.5" y="264.6019"/><text fill="#000000" font-family="sans-serif" font-size="14" lengthAdjust="spacing" textLength="76.5657" x="438.5" y="271.5339">hora: string</text><rect fill="transparent" height="6" style="stroke:#C82930;stroke-width:1;" width="6" x="426.5" y="283.6698"/><text fill="#000000" font-family="sans-serif" font-size="14" lengthAdjust="spacing" textLength="142.7575" x="438.5" y="290.6018">productes: Producte[]</text><line style="stroke:#181818;stroke-width:0.5;" x1="419.5" x2="586.2575" y1="298.7038" y2="298.7038"/><ellipse cx="429.5" cy="313.7377" fill="#84BE84" rx="3" ry="3" style="stroke:#038048;stroke-width:1;"/><text fill="#000000" font-family="sans-serif" font-size="14" lengthAdjust="spacing" textLength="98.8256" x="438.5" y="317.6697">render(): string</text></g><!--class ComandaCard--><g id="elem_ComandaCard"><rect codeLine="58" fill="#F1F1F1" height="67.0679" id="ComandaCard" rx="2.5" ry="2.5" style="stroke:#181818;stroke-width:0.5;" width="126.4716" x="440" y="442.5"/><ellipse cx="455" cy="458.5" fill="#ADD1B2" rx="11" ry="11" style="stroke:#181818;stroke-width:1;"/><path d="M457.9688,464.1406 Q457.3906,464.4375 456.75,464.5781 Q456.1094,464.7344 455.4063,464.7344 Q452.9063,464.7344 451.5781,463.0938 Q450.2656,461.4375 450.2656,458.3125 Q450.2656,455.1875 451.5781,453.5313 Q452.9063,451.875 455.4063,451.875 Q456.1094,451.875 456.75,452.0313 Q457.4063,452.1875 457.9688,452.4844 L457.9688,455.2031 Q457.3438,454.625 456.75,454.3594 Q456.1563,454.0781 455.5313,454.0781 Q454.1875,454.0781 453.5,455.1563 Q452.8125,456.2188 452.8125,458.3125 Q452.8125,460.4063 453.5,461.4844 Q454.1875,462.5469 455.5313,462.5469 Q456.1563,462.5469 456.75,462.2813 Q457.3438,462 457.9688,461.4219 L457.9688,464.1406 Z " fill="#000000"/><text fill="#000000" font-family="sans-serif" font-size="14" lengthAdjust="spacing" textLength="94.4716" x="469" y="463.932">ComandaCard</text><line style="stroke:#181818;stroke-width:0.5;" x1="441" x2="565.4716" y1="474.5" y2="474.5"/><line style="stroke:#181818;stroke-width:0.5;" x1="441" x2="565.4716" y1="482.5" y2="482.5"/><ellipse cx="451" cy="497.534" fill="#84BE84" rx="3" ry="3" style="stroke:#038048;stroke-width:1;"/><text fill="#000000" font-family="sans-serif" font-size="14" lengthAdjust="spacing" textLength="88.2137" x="460" y="501.4659">render(): void</text></g><!--class CardComponent--><g id="elem_CardComponent"><rect codeLine="65" fill="#F1F1F1" height="67.0679" id="CardComponent" rx="2.5" ry="2.5" style="stroke:#181818;stroke-width:0.5;" width="140.8356" x="706.5" y="230"/><ellipse cx="721.5" cy="246" fill="#ADD1B2" rx="11" ry="11" style="stroke:#181818;stroke-width:1;"/><path d="M724.4688,251.6406 Q723.8906,251.9375 723.25,252.0781 Q722.6094,252.2344 721.9063,252.2344 Q719.4063,252.2344 718.0781,250.5938 Q716.7656,248.9375 716.7656,245.8125 Q716.7656,242.6875 718.0781,241.0313 Q719.4063,239.375 721.9063,239.375 Q722.6094,239.375 723.25,239.5313 Q723.9063,239.6875 724.4688,239.9844 L724.4688,242.7031 Q723.8438,242.125 723.25,241.8594 Q722.6563,241.5781 722.0313,241.5781 Q720.6875,241.5781 720,242.6563 Q719.3125,243.7188 719.3125,245.8125 Q719.3125,247.9063 720,248.9844 Q720.6875,250.0469 722.0313,250.0469 Q722.6563,250.0469 723.25,249.7813 Q723.8438,249.5 724.4688,248.9219 L724.4688,251.6406 Z " fill="#000000"/><text fill="#000000" font-family="sans-serif" font-size="14" lengthAdjust="spacing" textLength="108.8356" x="735.5" y="251.432">CardComponent</text><line style="stroke:#181818;stroke-width:0.5;" x1="707.5" x2="846.3356" y1="262" y2="262"/><line style="stroke:#181818;stroke-width:0.5;" x1="707.5" x2="846.3356" y1="270" y2="270"/><ellipse cx="717.5" cy="285.034" fill="#84BE84" rx="3" ry="3" style="stroke:#038048;stroke-width:1;"/><text fill="#000000" font-family="sans-serif" font-size="14" lengthAdjust="spacing" textLength="88.2137" x="726.5" y="288.9659">render(): void</text></g><!--class PizzaCard--><g id="elem_PizzaCard"><rect codeLine="69" fill="#F1F1F1" height="67.0679" id="PizzaCard" rx="2.5" ry="2.5" style="stroke:#181818;stroke-width:0.5;" width="114.2137" x="601" y="442.5"/><ellipse cx="624.1108" cy="458.5" fill="#ADD1B2" rx="11" ry="11" style="stroke:#181818;stroke-width:1;"/><path d="M627.0795,464.1406 Q626.5014,464.4375 625.8608,464.5781 Q625.2201,464.7344 624.517,464.7344 Q622.017,464.7344 620.6889,463.0938 Q619.3764,461.4375 619.3764,458.3125 Q619.3764,455.1875 620.6889,453.5313 Q622.017,451.875 624.517,451.875 Q625.2201,451.875 625.8608,452.0313 Q626.517,452.1875 627.0795,452.4844 L627.0795,455.2031 Q626.4545,454.625 625.8608,454.3594 Q625.267,454.0781 624.642,454.0781 Q623.2983,454.0781 622.6108,455.1563 Q621.9233,456.2188 621.9233,458.3125 Q621.9233,460.4063 622.6108,461.4844 Q623.2983,462.5469 624.642,462.5469 Q625.267,462.5469 625.8608,462.2813 Q626.4545,462 627.0795,461.4219 L627.0795,464.1406 Z " fill="#000000"/><text fill="#000000" font-family="sans-serif" font-size="14" lengthAdjust="spacing" textLength="64.1898" x="639.9131" y="463.932">PizzaCard</text><line style="stroke:#181818;stroke-width:0.5;" x1="602" x2="714.2137" y1="474.5" y2="474.5"/><line style="stroke:#181818;stroke-width:0.5;" x1="602" x2="714.2137" y1="482.5" y2="482.5"/><ellipse cx="612" cy="497.534" fill="#84BE84" rx="3" ry="3" style="stroke:#038048;stroke-width:1;"/><text fill="#000000" font-family="sans-serif" font-size="14" lengthAdjust="spacing" textLength="88.2137" x="621" y="501.4659">render(): void</text></g><!--class EntrantCard--><g id="elem_EntrantCard"><rect codeLine="73" fill="#F1F1F1" height="67.0679" id="EntrantCard" rx="2.5" ry="2.5" style="stroke:#181818;stroke-width:0.5;" width="114.2137" x="750" y="442.5"/><ellipse cx="766.0296" cy="458.5" fill="#ADD1B2" rx="11" ry="11" style="stroke:#181818;stroke-width:1;"/><path d="M768.9983,464.1406 Q768.4202,464.4375 767.7796,464.5781 Q767.139,464.7344 766.4358,464.7344 Q763.9358,464.7344 762.6077,463.0938 Q761.2952,461.4375 761.2952,458.3125 Q761.2952,455.1875 762.6077,453.5313 Q763.9358,451.875 766.4358,451.875 Q767.139,451.875 767.7796,452.0313 Q768.4358,452.1875 768.9983,452.4844 L768.9983,455.2031 Q768.3733,454.625 767.7796,454.3594 Q767.1858,454.0781 766.5608,454.0781 Q765.2171,454.0781 764.5296,455.1563 Q763.8421,456.2188 763.8421,458.3125 Q763.8421,460.4063 764.5296,461.4844 Q765.2171,462.5469 766.5608,462.5469 Q767.1858,462.5469 767.7796,462.2813 Q768.3733,462 768.9983,461.4219 L768.9983,464.1406 Z " fill="#000000"/><text fill="#000000" font-family="sans-serif" font-size="14" lengthAdjust="spacing" textLength="79.9257" x="780.2584" y="463.932">EntrantCard</text><line style="stroke:#181818;stroke-width:0.5;" x1="751" x2="863.2137" y1="474.5" y2="474.5"/><line style="stroke:#181818;stroke-width:0.5;" x1="751" x2="863.2137" y1="482.5" y2="482.5"/><ellipse cx="761" cy="497.534" fill="#84BE84" rx="3" ry="3" style="stroke:#038048;stroke-width:1;"/><text fill="#000000" font-family="sans-serif" font-size="14" lengthAdjust="spacing" textLength="88.2137" x="770" y="501.4659">render(): void</text></g><!--class BegudaCard--><g id="elem_BegudaCard"><rect codeLine="77" fill="#F1F1F1" height="67.0679" id="BegudaCard" rx="2.5" ry="2.5" style="stroke:#181818;stroke-width:0.5;" width="114.2137" x="899" y="442.5"/><ellipse cx="914.1791" cy="458.5" fill="#ADD1B2" rx="11" ry="11" style="stroke:#181818;stroke-width:1;"/><path d="M917.1478,464.1406 Q916.5697,464.4375 915.9291,464.5781 Q915.2885,464.7344 914.5853,464.7344 Q912.0853,464.7344 910.7572,463.0938 Q909.4447,461.4375 909.4447,458.3125 Q909.4447,455.1875 910.7572,453.5313 Q912.0853,451.875 914.5853,451.875 Q915.2885,451.875 915.9291,452.0313 Q916.5853,452.1875 917.1478,452.4844 L917.1478,455.2031 Q916.5228,454.625 915.9291,454.3594 Q915.3353,454.0781 914.7103,454.0781 Q913.3666,454.0781 912.6791,455.1563 Q911.9916,456.2188 911.9916,458.3125 Q911.9916,460.4063 912.6791,461.4844 Q913.3666,462.5469 914.7103,462.5469 Q915.3353,462.5469 915.9291,462.2813 Q916.5228,462 917.1478,461.4219 L917.1478,464.1406 Z " fill="#000000"/><text fill="#000000" font-family="sans-serif" font-size="14" lengthAdjust="spacing" textLength="81.8157" x="928.2189" y="463.932">BegudaCard</text><line style="stroke:#181818;stroke-width:0.5;" x1="900" x2="1012.2137" y1="474.5" y2="474.5"/><line style="stroke:#181818;stroke-width:0.5;" x1="900" x2="1012.2137" y1="482.5" y2="482.5"/><ellipse cx="910" cy="497.534" fill="#84BE84" rx="3" ry="3" style="stroke:#038048;stroke-width:1;"/><text fill="#000000" font-family="sans-serif" font-size="14" lengthAdjust="spacing" textLength="88.2137" x="919" y="501.4659">render(): void</text></g><!--class CounterComponent--><g id="elem_CounterComponent"><rect codeLine="86" fill="#F1F1F1" height="67.0679" id="CounterComponent" rx="2.5" ry="2.5" style="stroke:#181818;stroke-width:0.5;" width="163.0955" x="725.5" y="618"/><ellipse cx="740.5" cy="634" fill="#ADD1B2" rx="11" ry="11" style="stroke:#181818;stroke-width:1;"/><path d="M743.4688,639.6406 Q742.8906,639.9375 742.25,640.0781 Q741.6094,640.2344 740.9063,640.2344 Q738.4063,640.2344 737.0781,638.5938 Q735.7656,636.9375 735.7656,633.8125 Q735.7656,630.6875 737.0781,629.0313 Q738.4063,627.375 740.9063,627.375 Q741.6094,627.375 742.25,627.5313 Q742.9063,627.6875 743.4688,627.9844 L743.4688,630.7031 Q742.8438,630.125 742.25,629.8594 Q741.6563,629.5781 741.0313,629.5781 Q739.6875,629.5781 739,630.6563 Q738.3125,631.7188 738.3125,633.8125 Q738.3125,635.9063 739,636.9844 Q739.6875,638.0469 741.0313,638.0469 Q741.6563,638.0469 742.25,637.7813 Q742.8438,637.5 743.4688,636.9219 L743.4688,639.6406 Z " fill="#000000"/><text fill="#000000" font-family="sans-serif" font-size="14" lengthAdjust="spacing" textLength="131.0955" x="754.5" y="639.432">CounterComponent</text><line style="stroke:#181818;stroke-width:0.5;" x1="726.5" x2="887.5955" y1="650" y2="650"/><line style="stroke:#181818;stroke-width:0.5;" x1="726.5" x2="887.5955" y1="658" y2="658"/><ellipse cx="736.5" cy="673.034" fill="#84BE84" rx="3" ry="3" style="stroke:#038048;stroke-width:1;"/><text fill="#000000" font-family="sans-serif" font-size="14" lengthAdjust="spacing" textLength="90.2717" x="745.5" y="676.9659">update(): void</text></g><!--class CarretComponent--><g id="elem_CarretComponent"><rect codeLine="90" fill="#F1F1F1" height="86.1358" id="CarretComponent" rx="2.5" ry="2.5" style="stroke:#181818;stroke-width:0.5;" width="150.9576" x="16.5" y="26"/><ellipse cx="31.5" cy="42" fill="#ADD1B2" rx="11" ry="11" style="stroke:#181818;stroke-width:1;"/><path d="M34.4688,47.6406 Q33.8906,47.9375 33.25,48.0781 Q32.6094,48.2344 31.9063,48.2344 Q29.4063,48.2344 28.0781,46.5938 Q26.7656,44.9375 26.7656,41.8125 Q26.7656,38.6875 28.0781,37.0313 Q29.4063,35.375 31.9063,35.375 Q32.6094,35.375 33.25,35.5313 Q33.9063,35.6875 34.4688,35.9844 L34.4688,38.7031 Q33.8438,38.125 33.25,37.8594 Q32.6563,37.5781 32.0313,37.5781 Q30.6875,37.5781 30,38.6563 Q29.3125,39.7188 29.3125,41.8125 Q29.3125,43.9063 30,44.9844 Q30.6875,46.0469 32.0313,46.0469 Q32.6563,46.0469 33.25,45.7813 Q33.8438,45.5 34.4688,44.9219 L34.4688,47.6406 Z " fill="#000000"/><text fill="#000000" font-family="sans-serif" font-size="14" lengthAdjust="spacing" textLength="118.9576" x="45.5" y="47.432">CarretComponent</text><line style="stroke:#181818;stroke-width:0.5;" x1="17.5" x2="166.4576" y1="58" y2="58"/><line style="stroke:#181818;stroke-width:0.5;" x1="17.5" x2="166.4576" y1="66" y2="66"/><ellipse cx="27.5" cy="81.034" fill="#84BE84" rx="3" ry="3" style="stroke:#038048;stroke-width:1;"/><text fill="#000000" font-family="sans-serif" font-size="14" lengthAdjust="spacing" textLength="88.2137" x="36.5" y="84.9659">render(): void</text><ellipse cx="27.5" cy="100.1019" fill="#84BE84" rx="3" ry="3" style="stroke:#038048;stroke-width:1;"/><text fill="#000000" font-family="sans-serif" font-size="14" lengthAdjust="spacing" textLength="90.2717" x="36.5" y="104.0339">update(): void</text></g><!--class CarretStatusComponent--><g id="elem_CarretStatusComponent"><rect codeLine="95" fill="#F1F1F1" height="67.0679" id="CarretStatusComponent" rx="2.5" ry="2.5" style="stroke:#181818;stroke-width:0.5;" width="191.9634" x="203" y="35.5"/><ellipse cx="218" cy="51.5" fill="#ADD1B2" rx="11" ry="11" style="stroke:#181818;stroke-width:1;"/><path d="M220.9688,57.1406 Q220.3906,57.4375 219.75,57.5781 Q219.1094,57.7344 218.4063,57.7344 Q215.9063,57.7344 214.5781,56.0938 Q213.2656,54.4375 213.2656,51.3125 Q213.2656,48.1875 214.5781,46.5313 Q215.9063,44.875 218.4063,44.875 Q219.1094,44.875 219.75,45.0313 Q220.4063,45.1875 220.9688,45.4844 L220.9688,48.2031 Q220.3438,47.625 219.75,47.3594 Q219.1563,47.0781 218.5313,47.0781 Q217.1875,47.0781 216.5,48.1563 Q215.8125,49.2188 215.8125,51.3125 Q215.8125,53.4063 216.5,54.4844 Q217.1875,55.5469 218.5313,55.5469 Q219.1563,55.5469 219.75,55.2813 Q220.3438,55 220.9688,54.4219 L220.9688,57.1406 Z " fill="#000000"/><text fill="#000000" font-family="sans-serif" font-size="14" lengthAdjust="spacing" textLength="159.9634" x="232" y="56.932">CarretStatusComponent</text><line style="stroke:#181818;stroke-width:0.5;" x1="204" x2="393.9634" y1="67.5" y2="67.5"/><line style="stroke:#181818;stroke-width:0.5;" x1="204" x2="393.9634" y1="75.5" y2="75.5"/><ellipse cx="214" cy="90.534" fill="#84BE84" rx="3" ry="3" style="stroke:#038048;stroke-width:1;"/><text fill="#000000" font-family="sans-serif" font-size="14" lengthAdjust="spacing" textLength="90.2717" x="223" y="94.4659">update(): void</text></g><!--reverse link Producte to Pizza--><g id="link_Producte_Pizza"><path codeLine="25" d="M196.1772,551.4755 C178.1372,571.2755 170.44,579.73 153.1,598.78 " fill="transparent" id="Producte-backto-Pizza" style="stroke:#181818;stroke-width:1;"/><polygon fill="transparent" points="208.3,538.17,191.742,547.4346,200.6124,555.5165,208.3,538.17" style="stroke:#181818;stroke-width:1;"/></g><!--reverse link Producte to Entrant--><g id="link_Producte_Entrant"><path codeLine="26" d="M264,556.17 C264,587 264,604.56 264,627.27 " fill="transparent" id="Producte-backto-Entrant" style="stroke:#181818;stroke-width:1;"/><polygon fill="transparent" points="264,538.17,258,556.17,270,556.17,264,538.17" style="stroke:#181818;stroke-width:1;"/></g><!--reverse link Producte to Beguda--><g id="link_Producte_Beguda"><path codeLine="27" d="M325.8686,552.0599 C342.1886,571.8599 348.67,579.73 364.37,598.78 " fill="transparent" id="Producte-backto-Beguda" style="stroke:#181818;stroke-width:1;"/><polygon fill="transparent" points="314.42,538.17,321.2387,555.8761,330.4986,548.2437,314.42,538.17" style="stroke:#181818;stroke-width:1;"/></g><!--reverse link Carret to Producte--><g id="link_Carret_Producte"><path codeLine="38" d="M202.3609,346.911 C204.8709,363.261 206.7,368.54 212,384 C215.42,393.98 219.96,404.11 224.94,413.81 " fill="transparent" id="Carret-backto-Producte" style="stroke:#181818;stroke-width:1;"/><polygon fill="transparent" points="200.54,335.05,197.4968,341.5875,202.3609,346.911,205.4041,340.3736,200.54,335.05" style="stroke:#181818;stroke-width:1;"/><text fill="#000000" font-family="sans-serif" font-size="13" lengthAdjust="spacing" textLength="99.2941" x="213" y="379.897">cont&#233; productes</text></g><!--reverse link Comanda to Producte--><g id="link_Comanda_Producte"><path codeLine="56" d="M424.5448,333.6014 C389.4048,364.5514 356.21,393.78 322.71,423.29 " fill="transparent" id="Comanda-backto-Producte" style="stroke:#181818;stroke-width:1;"/><polygon fill="transparent" points="433.55,325.67,426.4036,326.634,424.5448,333.6014,431.6912,332.6374,433.55,325.67" style="stroke:#181818;stroke-width:1;"/><text fill="#000000" font-family="sans-serif" font-size="13" lengthAdjust="spacing" textLength="99.2941" x="385" y="379.897">cont&#233; productes</text></g><!--link Comanda to ComandaCard--><g id="link_Comanda_ComandaCard"><path codeLine="62" d="M503,325.67 C503,363.78 503,405.31 503,436.38 " fill="transparent" id="Comanda-to-ComandaCard" style="stroke:#181818;stroke-width:1;"/><polygon fill="#181818" points="503,442.38,507,433.38,503,437.38,499,433.38,503,442.38" style="stroke:#181818;stroke-width:1;"/><text fill="#000000" font-family="sans-serif" font-size="13" lengthAdjust="spacing" textLength="159.0291" x="504" y="379.897">genera targeta en el DOM</text></g><!--reverse link CardComponent to PizzaCard--><g id="link_CardComponent_PizzaCard"><path codeLine="81" d="M754.6835,313.3385 C743.3435,337.6985 734.46,355.3 718,384 C706.61,403.86 692.58,425.28 680.95,442.34 " fill="transparent" id="CardComponent-backto-PizzaCard" style="stroke:#181818;stroke-width:1;"/><polygon fill="transparent" points="762.28,297.02,749.244,310.8063,760.123,315.8707,762.28,297.02" style="stroke:#181818;stroke-width:1;"/></g><!--reverse link CardComponent to EntrantCard--><g id="link_CardComponent_EntrantCard"><path codeLine="82" d="M784.2268,315.2104 C789.8568,354.7604 796.72,402.9 802.35,442.34 " fill="transparent" id="CardComponent-backto-EntrantCard" style="stroke:#181818;stroke-width:1;"/><polygon fill="transparent" points="781.69,297.39,778.2866,316.0559,790.1669,314.3648,781.69,297.39" style="stroke:#181818;stroke-width:1;"/></g><!--reverse link CardComponent to BegudaCard--><g id="link_CardComponent_BegudaCard"><path codeLine="83" d="M816.6302,311.1028 C850.2602,350.6528 894.69,402.9 928.23,442.34 " fill="transparent" id="CardComponent-backto-BegudaCard" style="stroke:#181818;stroke-width:1;"/><polygon fill="transparent" points="804.97,297.39,812.0593,314.9895,821.2011,307.216,804.97,297.39" style="stroke:#181818;stroke-width:1;"/></g><!--reverse link CardComponent to ComandaCard--><g id="link_CardComponent_ComandaCard"><path codeLine="84" d="M744.4102,311.6134 C724.9002,338.3134 704.75,360.83 670,384 C636.32,406.46 619.71,394.93 584,414 C569.25,421.88 554.29,432.31 541.31,442.32 " fill="transparent" id="CardComponent-backto-ComandaCard" style="stroke:#181818;stroke-width:1;"/><polygon fill="transparent" points="755.03,297.08,739.5658,308.0735,749.2547,315.1534,755.03,297.08" style="stroke:#181818;stroke-width:1;"/></g><!--link PizzaCard to CounterComponent--><g id="link_PizzaCard_CounterComponent"><path codeLine="100" d="M686.03,509.63 C712.58,540.55 748.3407,582.1984 774.9407,613.1684 " fill="transparent" id="PizzaCard-to-CounterComponent" style="stroke:#181818;stroke-width:1;"/><polygon fill="#181818" points="778.85,617.72,776.0204,608.2864,775.5922,613.927,769.9516,613.4988,778.85,617.72" style="stroke:#181818;stroke-width:1;"/></g><!--link EntrantCard to CounterComponent--><g id="link_EntrantCard_CounterComponent"><path codeLine="101" d="M807,509.63 C807,540.55 807,580.75 807,611.72 " fill="transparent" id="EntrantCard-to-CounterComponent" style="stroke:#181818;stroke-width:1;"/><polygon fill="#181818" points="807,617.72,811,608.72,807,612.72,803,608.72,807,617.72" style="stroke:#181818;stroke-width:1;"/></g><!--link BegudaCard to CounterComponent--><g id="link_BegudaCard_CounterComponent"><path codeLine="102" d="M927.97,509.63 C901.42,540.55 865.6593,582.1984 839.0593,613.1684 " fill="transparent" id="BegudaCard-to-CounterComponent" style="stroke:#181818;stroke-width:1;"/><polygon fill="#181818" points="835.15,617.72,844.0484,613.4988,838.4078,613.927,837.9796,608.2864,835.15,617.72" style="stroke:#181818;stroke-width:1;"/></g><!--link CarretComponent to Carret--><g id="link_CarretComponent_Carret"><path codeLine="103" d="M114.6,112.24 C127.1,135.6 140.1191,159.9298 154.4391,186.6898 " fill="transparent" id="CarretComponent-to-Carret" style="stroke:#181818;stroke-width:1;"/><polygon fill="#181818" points="157.27,191.98,156.5504,182.1575,154.9109,187.5715,149.4968,185.932,157.27,191.98" style="stroke:#181818;stroke-width:1;"/></g><!--link CarretStatusComponent to Carret--><g id="link_CarretStatusComponent_Carret"><path codeLine="104" d="M281.36,102.66 C268.2,127 252.5915,155.9009 236.1115,186.4109 " fill="transparent" id="CarretStatusComponent-to-Carret" style="stroke:#181818;stroke-width:1;"/><polygon fill="#181818" points="233.26,191.69,241.0567,185.6724,235.6363,187.2908,234.0179,181.8703,233.26,191.69" style="stroke:#181818;stroke-width:1;"/></g><!--SRC=[ZLJ1Rjim3BtxAtXBYYu_O0m3jhJ7ejswsx038x6k05dA93a3clM3TjudzCT6Mx9bEzuINsoJ5Cdt7gaLtD2JCagejpyW2MehINl-qY1jpOv2QFGU7foLZGW4nmBusO2I9PYctf5B1cFh4dnmobJ9idVKp89KNGr1hqMVMxsyu91OaXUpH0UgAA1JQB24dRMQq2GNQd8L6T-V-FOzvxqrmQ49S1midwXgP2xb6-5edb7W4wcbGi8-MvtDd7GWvVslpIR2cDbI2pDhRACeLbFoDMpHEGgfsVWpD4kQQZA1aHwPsPYk77Hv1pyQBgG2XfvoU6KoshFNm90gvVhOzJwVkohXO9LCSQGLQuuNH0hcez7eFlTLlzg0UdqrqJk7FV0ep2EOm0JHjkpr39KWh0bllmUG_eGeyEGEfFneVeYduv6jIlGZUWqyD1-rxho-hTi9D70IlKcWpf- -Pn6TM351r6tmSuE2l4UtjJKQYMiHtoKa0n_vGdvlVS1aQK7FmMY4TB0NFlxzUzMUhSEJNKjaPS66FXqPIQu5a3Ulht6M-abBh9SSwCrfkxaO9TriFanEb4ob8OV0IznkCf3XKOER-xlJ7V0j6Njhsb67dxJBoo2tlUC_BOnkb3FDJkw8YsAZ_ESuc3IQBuRMlkGSDR3apZMNl2EIirAD2UHEkMhs4dcZJr357JpBxIL97laUQFmbfLUy61g5iiRpC0H78zMBh5uSf2cWOYpPOi18fqN_774N56_UPHoZWBy0]--></g></svg>