<svg xmlns="http://www.w3.org/2000/svg" xmlns:xlink="http://www.w3.org/1999/xlink" contentStyleType="text/css" data-diagram-type="SEQUENCE" height="523px" preserveAspectRatio="none" style="width:1080px;height:523px;background:#FFFFFF;" version="1.1" viewBox="0 0 1080 523" width="1080px" zoomAndPan="magnify"><defs/><g><rect fill="transparent" height="131.806" style="stroke:#000000;stroke-width:1.5;" width="673.4254" x="10" y="291.304"/><g><title>Usuari</title><rect fill="transparent" height="356.0421" width="8" x="40.4199" y="84.0679"/><line style="stroke:#181818;stroke-width:0.5;stroke-dasharray:5.0,5.0;" x1="44" x2="44" y1="84.0679" y2="440.11"/></g><g><title>CarretComponent</title><rect fill="transparent" height="356.0421" width="8" x="449.5193" y="84.0679"/><line style="stroke:#181818;stroke-width:0.5;stroke-dasharray:5.0,5.0;" x1="453.0405" x2="453.0405" y1="84.0679" y2="440.11"/></g><g><title>Carret</title><rect fill="transparent" height="356.0421" width="8" x="641.8174" y="84.0679"/><line style="stroke:#181818;stroke-width:0.5;stroke-dasharray:5.0,5.0;" x1="645.2095" x2="645.2095" y1="84.0679" y2="440.11"/></g><g><title>PizzeriaService</title><rect fill="transparent" height="356.0421" width="8" x="804.8655" y="84.0679"/><line style="stroke:#181818;stroke-width:0.5;stroke-dasharray:5.0,5.0;" x1="808.3207" x2="808.3207" y1="84.0679" y2="440.11"/></g><g><title>Servidor (API)</title><rect fill="transparent" height="356.0421" width="8" x="1018.5747" y="84.0679"/><line style="stroke:#181818;stroke-width:0.5;stroke-dasharray:5.0,5.0;" x1="1021.9989" x2="1021.9989" y1="84.0679" y2="440.11"/></g><text fill="#000000" font-family="sans-serif" font-size="14" lengthAdjust="spacing" textLength="42.8398" x="20" y="79.9659">Usuari</text><ellipse cx="44.4199" cy="13.5" fill="#E2E2F0" rx="8" ry="8" style="stroke:#181818;stroke-width:0.5;"/><path d="M44.4199,21.5 L44.4199,48.5 M31.4199,29.5 L57.4199,29.5 M44.4199,48.5 L31.4199,63.5 M44.4199,48.5 L57.4199,63.5 " fill="transparent" style="stroke:#181818;stroke-width:0.5;"/><text fill="#000000" font-family="sans-serif" font-size="14" lengthAdjust="spacing" textLength="42.8398" x="20" y="454.0759">Usuari</text><ellipse cx="44.4199" cy="466.6779" fill="#E2E2F0" rx="8" ry="8" style="stroke:#181818;stroke-width:0.5;"/><path d="M44.4199,474.6779 L44.4199,501.6779 M31.4199,482.6779 L57.4199,482.6779 M44.4199,501.6779 L31.4199,516.6779 M44.4199,501.6779 L57.4199,516.6779 " fill="transparent" style="stroke:#181818;stroke-width:0.5;"/><rect fill="#E2E2F0" height="33.0679" rx="2.5" ry="2.5" style="stroke:#181818;stroke-width:0.5;" width="132.9576" x="387.0405" y="50"/><text fill="#000000" font-family="sans-serif" font-size="14" lengthAdjust="spacing" textLength="118.9576" x="394.0405" y="71.9659">CarretComponent</text><rect fill="#E2E2F0" height="33.0679" rx="2.5" ry="2.5" style="stroke:#181818;stroke-width:0.5;" width="132.9576" x="387.0405" y="439.11"/><text fill="#000000" font-family="sans-serif" font-size="14" lengthAdjust="spacing" textLength="118.9576" x="394.0405" y="461.0759">CarretComponent</text><rect fill="#E2E2F0" height="33.0679" rx="2.5" ry="2.5" style="stroke:#181818;stroke-width:0.5;" width="55.2159" x="618.2095" y="50"/><text fill="#000000" font-family="sans-serif" font-size="14" lengthAdjust="spacing" textLength="41.2159" x="625.2095" y="71.9659">Carret</text><rect fill="#E2E2F0" height="33.0679" rx="2.5" ry="2.5" style="stroke:#181818;stroke-width:0.5;" width="55.2159" x="618.2095" y="439.11"/><text fill="#000000" font-family="sans-serif" font-size="14" lengthAdjust="spacing" textLength="41.2159" x="625.2095" y="461.0759">Carret</text><rect fill="#E2E2F0" height="33.0679" rx="2.5" ry="2.5" style="stroke:#181818;stroke-width:0.5;" width="111.0896" x="753.3207" y="50"/><text fill="#000000" font-family="sans-serif" font-size="14" lengthAdjust="spacing" textLength="97.0896" x="760.3207" y="71.9659">PizzeriaService</text><rect fill="#E2E2F0" height="33.0679" rx="2.5" ry="2.5" style="stroke:#181818;stroke-width:0.5;" width="111.0896" x="753.3207" y="439.11"/><text fill="#000000" font-family="sans-serif" font-size="14" lengthAdjust="spacing" textLength="97.0896" x="760.3207" y="461.0759">PizzeriaService</text><rect fill="#E2E2F0" height="33.0679" rx="2.5" ry="2.5" style="stroke:#181818;stroke-width:0.5;" width="103.1517" x="970.9989" y="50"/><text fill="#000000" font-family="sans-serif" font-size="14" lengthAdjust="spacing" textLength="89.1517" x="977.9989" y="71.9659">Servidor (API)</text><rect fill="#E2E2F0" height="33.0679" rx="2.5" ry="2.5" style="stroke:#181818;stroke-width:0.5;" width="103.1517" x="970.9989" y="439.11"/><text fill="#000000" font-family="sans-serif" font-size="14" lengthAdjust="spacing" textLength="89.1517" x="977.9989" y="461.0759">Servidor (API)</text><polygon fill="#181818" points="441.5193,113.7739,451.5193,117.7739,441.5193,121.7739,445.5193,117.7739" style="stroke:#181818;stroke-width:1;"/><line style="stroke:#181818;stroke-width:1;" x1="44.4199" x2="447.5193" y1="117.7739" y2="117.7739"/><text fill="#000000" font-family="sans-serif" font-size="13" lengthAdjust="spacing" textLength="173.9401" x="51.4199" y="111.9649">Clic en "Processar comanda"</text><polygon fill="#181818" points="633.8174,145.4799,643.8174,149.4799,633.8174,153.4799,637.8174,149.4799" style="stroke:#181818;stroke-width:1;"/><line style="stroke:#181818;stroke-width:1;" x1="453.5193" x2="639.8174" y1="149.4799" y2="149.4799"/><text fill="#000000" font-family="sans-serif" font-size="13" lengthAdjust="spacing" textLength="168.2982" x="460.5193" y="143.6709">Obt&#233; el contingut del carret</text><polygon fill="#181818" points="796.8655,177.186,806.8655,181.186,796.8655,185.186,800.8655,181.186" style="stroke:#181818;stroke-width:1;"/><line style="stroke:#181818;stroke-width:1;stroke-dasharray:2.0,2.0;" x1="645.8174" x2="802.8655" y1="181.186" y2="181.186"/><text fill="#000000" font-family="sans-serif" font-size="13" lengthAdjust="spacing" textLength="139.0481" x="652.8174" y="175.377">Enviar comanda a l'API</text><polygon fill="#181818" points="1010.5747,208.892,1020.5747,212.892,1010.5747,216.892,1014.5747,212.892" style="stroke:#181818;stroke-width:1;"/><line style="stroke:#181818;stroke-width:1;" x1="808.8655" x2="1016.5747" y1="212.892" y2="212.892"/><text fill="#000000" font-family="sans-serif" font-size="13" lengthAdjust="spacing" textLength="178.9711" x="815.8655" y="207.083">POST /api/pizzeria/comandes</text><line style="stroke:#181818;stroke-width:1;" x1="809.8655" x2="819.8655" y1="244.598" y2="240.598"/><line style="stroke:#181818;stroke-width:1;" x1="809.8655" x2="819.8655" y1="244.598" y2="248.598"/><line style="stroke:#181818;stroke-width:1;stroke-dasharray:2.0,2.0;" x1="808.8655" x2="1021.5747" y1="244.598" y2="244.598"/><text fill="#000000" font-family="sans-serif" font-size="13" lengthAdjust="spacing" textLength="189.7092" x="825.8655" y="238.789">Retorna confirmaci&#243; (OK/Error)</text><line style="stroke:#181818;stroke-width:1;" x1="454.5193" x2="464.5193" y1="276.304" y2="272.304"/><line style="stroke:#181818;stroke-width:1;" x1="454.5193" x2="464.5193" y1="276.304" y2="280.304"/><line style="stroke:#181818;stroke-width:1;stroke-dasharray:2.0,2.0;" x1="453.5193" x2="807.8655" y1="276.304" y2="276.304"/><text fill="#000000" font-family="sans-serif" font-size="13" lengthAdjust="spacing" textLength="113.6461" x="470.5193" y="270.495">Mostra la resposta</text><path d="M10,291.304 L72.459,291.304 L72.459,301.01 L62.459,311.01 L10,311.01 L10,291.304 " fill="#EEEEEE" style="stroke:#000000;stroke-width:1.5;"/><rect fill="transparent" height="131.806" style="stroke:#000000;stroke-width:1.5;" width="673.4254" x="10" y="291.304"/><text fill="#000000" font-family="sans-serif" font-size="13" font-weight="bold" lengthAdjust="spacing" textLength="17.459" x="25" y="306.201">alt</text><text fill="#000000" font-family="sans-serif" font-size="11" font-weight="bold" lengthAdjust="spacing" textLength="125.5861" x="87.459" y="305.0629">[Comanda confirmada]</text><polygon fill="#181818" points="633.8174,330.716,643.8174,334.716,633.8174,338.716,637.8174,334.716" style="stroke:#181818;stroke-width:1;"/><line style="stroke:#181818;stroke-width:1;" x1="453.5193" x2="639.8174" y1="334.716" y2="334.716"/><text fill="#000000" font-family="sans-serif" font-size="13" lengthAdjust="spacing" textLength="101.0881" x="460.5193" y="328.907">Esborra el carret</text><polygon fill="#181818" points="55.4199,362.4221,45.4199,366.4221,55.4199,370.4221,51.4199,366.4221" style="stroke:#181818;stroke-width:1;"/><line style="stroke:#181818;stroke-width:1;stroke-dasharray:2.0,2.0;" x1="49.4199" x2="452.5193" y1="366.4221" y2="366.4221"/><text fill="#000000" font-family="sans-serif" font-size="13" lengthAdjust="spacing" textLength="385.0993" x="61.4199" y="360.6131">Mostra confirmaci&#243; amb n&#250;mero de comanda i hora d&#8217;arribada</text><line style="stroke:#000000;stroke-width:1;stroke-dasharray:2.0,2.0;" x1="10" x2="683.4254" y1="375.4221" y2="375.4221"/><text fill="#000000" font-family="sans-serif" font-size="11" font-weight="bold" lengthAdjust="spacing" textLength="118.2821" x="15" y="387.181">[Error en la comanda]</text><polygon fill="#181818" points="55.4199,411.11,45.4199,415.11,55.4199,419.11,51.4199,415.11" style="stroke:#181818;stroke-width:1;"/><line style="stroke:#181818;stroke-width:1;stroke-dasharray:2.0,2.0;" x1="49.4199" x2="452.5193" y1="415.11" y2="415.11"/><text fill="#000000" font-family="sans-serif" font-size="13" lengthAdjust="spacing" textLength="146.8481" x="61.4199" y="409.301">Mostra missatge d&#8217;error</text><!--SRC=[TP6nJiD038RtUmeh2-s0idT0Gb47X50h2W_WN4onbDn5lck7Jhm6Zy3CnjetuKdmNPEMI90foNt-_Tc7Ddg1uZdiKBW03B0B9AP7YMovHnUXg524OkMxtZjoyKJnNqm-ilf_UhZcmu64SKEoPqkP2gVtAPY1HeLcj-kx-PbJ8PEquFf66yC2gfOjaDDayPP2G07hEtGD5aO1nPA4Wgiw7Z-0MZrsaTrs5w59NzdMPEXQwK562vPkpvSqG6YlLCMCmC2goWBMgyqJbDXpsG_pbQSo2cQ0DFjt-2FfiXqccHUM3YqVFs6skY-N8bxcbowfB0_wu4CKbK0G2hr-e37OHgW6lp6fGGFwJ6PVXjgB5b_c7P6qnf1d6F8dGjZLu8vV7OdNPPrNmV3g5Ms-tzurZUlKazf0aENJRRGumlztwbXlAsufvr2gDEIQ7m00]--></g></svg>