<svg xmlns="http://www.w3.org/2000/svg" xmlns:xlink="http://www.w3.org/1999/xlink" contentStyleType="text/css" data-diagram-type="SEQUENCE" height="532px" preserveAspectRatio="none" style="width:886px;height:532px;background:#FFFFFF;" version="1.1" viewBox="0 0 886 532" width="886px" zoomAndPan="magnify"><defs/><g><rect fill="transparent" height="140.8241" style="stroke:#000000;stroke-width:1.5;" width="590.7999" x="214.8442" y="259.598"/><g><title>Usuari</title><rect fill="transparent" height="365.0602" width="8" x="25.4199" y="84.0679"/><line style="stroke:#181818;stroke-width:0.5;stroke-dasharray:5.0,5.0;" x1="29" x2="29" y1="84.0679" y2="449.1281"/></g><g><title>Sistema</title><rect fill="transparent" height="365.0602" width="8" x="253.7931" y="84.0679"/><line style="stroke:#181818;stroke-width:0.5;stroke-dasharray:5.0,5.0;" x1="256.8442" x2="256.8442" y1="84.0679" y2="449.1281"/></g><g><title>PizzeriaService</title><rect fill="transparent" height="365.0602" width="8" x="556.7573" y="84.0679"/><line style="stroke:#181818;stroke-width:0.5;stroke-dasharray:5.0,5.0;" x1="560.2125" x2="560.2125" y1="84.0679" y2="449.1281"/></g><g><title>ComandaCard</title><rect fill="transparent" height="365.0602" width="8" x="676.538" y="84.0679"/><line style="stroke:#181818;stroke-width:0.5;stroke-dasharray:5.0,5.0;" x1="680.3021" x2="680.3021" y1="84.0679" y2="449.1281"/></g><g><title>Servidor (API)</title><rect fill="transparent" height="365.0602" width="8" x="825.2615" y="84.0679"/><line style="stroke:#181818;stroke-width:0.5;stroke-dasharray:5.0,5.0;" x1="828.6857" x2="828.6857" y1="84.0679" y2="449.1281"/></g><text fill="#000000" font-family="sans-serif" font-size="14" lengthAdjust="spacing" textLength="42.8398" x="5" y="79.9659">Usuari</text><ellipse cx="29.4199" cy="13.5" fill="#E2E2F0" rx="8" ry="8" style="stroke:#181818;stroke-width:0.5;"/><path d="M29.4199,21.5 L29.4199,48.5 M16.4199,29.5 L42.4199,29.5 M29.4199,48.5 L16.4199,63.5 M29.4199,48.5 L42.4199,63.5 " fill="transparent" style="stroke:#181818;stroke-width:0.5;"/><text fill="#000000" font-family="sans-serif" font-size="14" lengthAdjust="spacing" textLength="42.8398" x="5" y="463.094">Usuari</text><ellipse cx="29.4199" cy="475.696" fill="#E2E2F0" rx="8" ry="8" style="stroke:#181818;stroke-width:0.5;"/><path d="M29.4199,483.696 L29.4199,510.696 M16.4199,491.696 L42.4199,491.696 M29.4199,510.696 L16.4199,525.696 M29.4199,510.696 L42.4199,525.696 " fill="transparent" style="stroke:#181818;stroke-width:0.5;"/><rect fill="#E2E2F0" height="33.0679" rx="2.5" ry="2.5" style="stroke:#181818;stroke-width:0.5;" width="65.8978" x="224.8442" y="50"/><text fill="#000000" font-family="sans-serif" font-size="14" lengthAdjust="spacing" textLength="51.8978" x="231.8442" y="71.9659">Sistema</text><rect fill="#E2E2F0" height="33.0679" rx="2.5" ry="2.5" style="stroke:#181818;stroke-width:0.5;" width="65.8978" x="224.8442" y="448.1281"/><text fill="#000000" font-family="sans-serif" font-size="14" lengthAdjust="spacing" textLength="51.8978" x="231.8442" y="470.094">Sistema</text><rect fill="#E2E2F0" height="33.0679" rx="2.5" ry="2.5" style="stroke:#181818;stroke-width:0.5;" width="111.0896" x="505.2125" y="50"/><text fill="#000000" font-family="sans-serif" font-size="14" lengthAdjust="spacing" textLength="97.0896" x="512.2125" y="71.9659">PizzeriaService</text><rect fill="#E2E2F0" height="33.0679" rx="2.5" ry="2.5" style="stroke:#181818;stroke-width:0.5;" width="111.0896" x="505.2125" y="448.1281"/><text fill="#000000" font-family="sans-serif" font-size="14" lengthAdjust="spacing" textLength="97.0896" x="512.2125" y="470.094">PizzeriaService</text><rect fill="#E2E2F0" height="33.0679" rx="2.5" ry="2.5" style="stroke:#181818;stroke-width:0.5;" width="108.4716" x="626.3021" y="50"/><text fill="#000000" font-family="sans-serif" font-size="14" lengthAdjust="spacing" textLength="94.4716" x="633.3021" y="71.9659">ComandaCard</text><rect fill="#E2E2F0" height="33.0679" rx="2.5" ry="2.5" style="stroke:#181818;stroke-width:0.5;" width="108.4716" x="626.3021" y="448.1281"/><text fill="#000000" font-family="sans-serif" font-size="14" lengthAdjust="spacing" textLength="94.4716" x="633.3021" y="470.094">ComandaCard</text><rect fill="#E2E2F0" height="33.0679" rx="2.5" ry="2.5" style="stroke:#181818;stroke-width:0.5;" width="103.1517" x="777.6857" y="50"/><text fill="#000000" font-family="sans-serif" font-size="14" lengthAdjust="spacing" textLength="89.1517" x="784.6857" y="71.9659">Servidor (API)</text><rect fill="#E2E2F0" height="33.0679" rx="2.5" ry="2.5" style="stroke:#181818;stroke-width:0.5;" width="103.1517" x="777.6857" y="448.1281"/><text fill="#000000" font-family="sans-serif" font-size="14" lengthAdjust="spacing" textLength="89.1517" x="784.6857" y="470.094">Servidor (API)</text><polygon fill="#181818" points="245.7931,113.7739,255.7931,117.7739,245.7931,121.7739,249.7931,117.7739" style="stroke:#181818;stroke-width:1;"/><line style="stroke:#181818;stroke-width:1;" x1="29.4199" x2="251.7931" y1="117.7739" y2="117.7739"/><text fill="#000000" font-family="sans-serif" font-size="13" lengthAdjust="spacing" textLength="204.3732" x="36.4199" y="111.9649">Accedeix a l'hist&#242;ric de comandes</text><polygon fill="#181818" points="548.7573,145.4799,558.7573,149.4799,548.7573,153.4799,552.7573,149.4799" style="stroke:#181818;stroke-width:1;"/><line style="stroke:#181818;stroke-width:1;" x1="257.7931" x2="554.7573" y1="149.4799" y2="149.4799"/><text fill="#000000" font-family="sans-serif" font-size="13" lengthAdjust="spacing" textLength="144.0791" x="264.7931" y="143.6709">getHistorialComandes()</text><polygon fill="#181818" points="817.2615,177.186,827.2615,181.186,817.2615,185.186,821.2615,181.186" style="stroke:#181818;stroke-width:1;"/><line style="stroke:#181818;stroke-width:1;" x1="560.7573" x2="823.2615" y1="181.186" y2="181.186"/><text fill="#000000" font-family="sans-serif" font-size="13" lengthAdjust="spacing" textLength="170.5081" x="567.7573" y="175.377">GET /api/pizzeria/comandes</text><line style="stroke:#181818;stroke-width:1;" x1="561.7573" x2="571.7573" y1="212.892" y2="208.892"/><line style="stroke:#181818;stroke-width:1;" x1="561.7573" x2="571.7573" y1="212.892" y2="216.892"/><line style="stroke:#181818;stroke-width:1;stroke-dasharray:2.0,2.0;" x1="560.7573" x2="828.2615" y1="212.892" y2="212.892"/><text fill="#000000" font-family="sans-serif" font-size="13" lengthAdjust="spacing" textLength="244.5042" x="577.7573" y="207.083">Retorna JSON amb la llista de comandes</text><line style="stroke:#181818;stroke-width:1;" x1="258.7931" x2="268.7931" y1="244.598" y2="240.598"/><line style="stroke:#181818;stroke-width:1;" x1="258.7931" x2="268.7931" y1="244.598" y2="248.598"/><line style="stroke:#181818;stroke-width:1;stroke-dasharray:2.0,2.0;" x1="257.7931" x2="559.7573" y1="244.598" y2="244.598"/><text fill="#000000" font-family="sans-serif" font-size="13" lengthAdjust="spacing" textLength="164.9441" x="274.7931" y="238.789">Retorna array de Comanda</text><path d="M214.8442,259.598 L288.1322,259.598 L288.1322,269.304 L278.1322,279.304 L214.8442,279.304 L214.8442,259.598 " fill="#EEEEEE" style="stroke:#000000;stroke-width:1.5;"/><rect fill="transparent" height="140.8241" style="stroke:#000000;stroke-width:1.5;" width="590.7999" x="214.8442" y="259.598"/><text fill="#000000" font-family="sans-serif" font-size="13" font-weight="bold" lengthAdjust="spacing" textLength="28.288" x="229.8442" y="274.495">loop</text><text fill="#000000" font-family="sans-serif" font-size="11" font-weight="bold" lengthAdjust="spacing" textLength="108.0522" x="303.1322" y="273.3569">[Per cada comanda]</text><polygon fill="#181818" points="668.538,299.01,678.538,303.01,668.538,307.01,672.538,303.01" style="stroke:#181818;stroke-width:1;"/><line style="stroke:#181818;stroke-width:1;" x1="257.7931" x2="674.538" y1="303.01" y2="303.01"/><text fill="#000000" font-family="sans-serif" font-size="13" lengthAdjust="spacing" textLength="189.9952" x="264.7931" y="297.201">createElement('comanda-card')</text><line style="stroke:#181818;stroke-width:1;" x1="680.538" x2="722.538" y1="334.716" y2="334.716"/><line style="stroke:#181818;stroke-width:1;" x1="722.538" x2="722.538" y1="334.716" y2="347.716"/><line style="stroke:#181818;stroke-width:1;" x1="681.538" x2="722.538" y1="347.716" y2="347.716"/><polygon fill="#181818" points="691.538,343.716,681.538,347.716,691.538,351.716,687.538,347.716" style="stroke:#181818;stroke-width:1;"/><text fill="#000000" font-family="sans-serif" font-size="13" lengthAdjust="spacing" textLength="106.1061" x="687.538" y="328.907">render(comanda)</text><line style="stroke:#181818;stroke-width:1;" x1="257.7931" x2="299.7931" y1="379.4221" y2="379.4221"/><line style="stroke:#181818;stroke-width:1;" x1="299.7931" x2="299.7931" y1="379.4221" y2="392.4221"/><line style="stroke:#181818;stroke-width:1;" x1="258.7931" x2="299.7931" y1="392.4221" y2="392.4221"/><polygon fill="#181818" points="268.7931,388.4221,258.7931,392.4221,268.7931,396.4221,264.7931,392.4221" style="stroke:#181818;stroke-width:1;"/><text fill="#000000" font-family="sans-serif" font-size="13" lengthAdjust="spacing" textLength="288.9642" x="264.7931" y="373.6131">appendChild(card) // S'afegeix al div contenidor</text><line style="stroke:#181818;stroke-width:1;" x1="30.4199" x2="40.4199" y1="431.1281" y2="427.1281"/><line style="stroke:#181818;stroke-width:1;" x1="30.4199" x2="40.4199" y1="431.1281" y2="435.1281"/><line style="stroke:#181818;stroke-width:1;stroke-dasharray:2.0,2.0;" x1="29.4199" x2="256.7931" y1="431.1281" y2="431.1281"/><text fill="#000000" font-family="sans-serif" font-size="13" lengthAdjust="spacing" textLength="182.6112" x="46.4199" y="425.3191">Mostra l&#8217;hist&#242;ric de comandes</text><!--SRC=[RP5BJiCm48RtFiMecoIBAFikAbLHnKC2AW876EoXjUGuaUrMq1NNu1fSWPjm4iR6BGJLAql-_iUCKOR1mUpHxz3f6Q27dISdHdH1IpsY3J3hj0_KOthjKTlfwreV3kGqTkJsMbAY_Czz2hP3ZrPXYqubIFBbNr2KAUvJBjTNrSc9-uZO2kf5oeSvBAKaHVe544onvNwV7qvBK0GofP0NYMH5xiAY3OLBHWSkQzgCbPKu0fdbd3bSh1wWmL4tOvwkEVbcfguNVxtlYNqjmdLtTmlOFu7XPeRJS5Bgb1NLUPQZ59t3rqZdHGbXXc64DOT9L9XDK02Vut1nXsmX7M6WbQ6UR2YBJDRnjQYI886_0aTSnvKPh2QUkHQE8qFjLXjLHbK5JGDTWS-qIOiteFIUIzb0DdwQO5hahSVfqe_DuMRmmV4kljxUp_xJDm00]--></g></svg>