<svg xmlns="http://www.w3.org/2000/svg" xmlns:xlink="http://www.w3.org/1999/xlink" contentStyleType="text/css" data-diagram-type="CLASS" height="709px" preserveAspectRatio="none" style="width:858px;height:709px;background:#FFFFFF;" version="1.1" viewBox="0 0 858 709" width="858px" zoomAndPan="magnify"><defs/><g><!--class Comanda--><g id="elem_Comanda"><rect codeLine="4" fill="#F1F1F1" height="124.2717" id="Comanda" rx="2.5" ry="2.5" style="stroke:#181818;stroke-width:0.5;" width="168.7575" x="418.5" y="403.5"/><ellipse cx="466.9399" cy="419.5" fill="#ADD1B2" rx="11" ry="11" style="stroke:#181818;stroke-width:1;"/><path d="M469.9086,425.1406 Q469.3305,425.4375 468.6899,425.5781 Q468.0492,425.7344 467.3461,425.7344 Q464.8461,425.7344 463.518,424.0938 Q462.2055,422.4375 462.2055,419.3125 Q462.2055,416.1875 463.518,414.5313 Q464.8461,412.875 467.3461,412.875 Q468.0492,412.875 468.6899,413.0313 Q469.3461,413.1875 469.9086,413.4844 L469.9086,416.2031 Q469.2836,415.625 468.6899,415.3594 Q468.0961,415.0781 467.4711,415.0781 Q466.1274,415.0781 465.4399,416.1563 Q464.7524,417.2188 464.7524,419.3125 Q464.7524,421.4063 465.4399,422.4844 Q466.1274,423.5469 467.4711,423.5469 Q468.0961,423.5469 468.6899,423.2813 Q469.2836,423 469.9086,422.4219 L469.9086,425.1406 Z " fill="#000000"/><text fill="#000000" font-family="sans-serif" font-size="14" lengthAdjust="spacing" textLength="63.3778" x="487.4399" y="424.932">Comanda</text><line style="stroke:#181818;stroke-width:0.5;" x1="419.5" x2="586.2575" y1="435.5" y2="435.5"/><rect fill="transparent" height="6" style="stroke:#C82930;stroke-width:1;" width="6" x="426.5" y="447.534"/><text fill="#000000" font-family="sans-serif" font-size="14" lengthAdjust="spacing" textLength="72.2957" x="438.5" y="454.4659">id: number</text><rect fill="transparent" height="6" style="stroke:#C82930;stroke-width:1;" width="6" x="426.5" y="466.6019"/><text fill="#000000" font-family="sans-serif" font-size="14" lengthAdjust="spacing" textLength="76.5657" x="438.5" y="473.5339">hora: string</text><rect fill="transparent" height="6" style="stroke:#C82930;stroke-width:1;" width="6" x="426.5" y="485.6698"/><text fill="#000000" font-family="sans-serif" font-size="14" lengthAdjust="spacing" textLength="142.7575" x="438.5" y="492.6018">productes: Producte[]</text><line style="stroke:#181818;stroke-width:0.5;" x1="419.5" x2="586.2575" y1="500.7038" y2="500.7038"/><ellipse cx="429.5" cy="515.7377" fill="#84BE84" rx="3" ry="3" style="stroke:#038048;stroke-width:1;"/><text fill="#000000" font-family="sans-serif" font-size="14" lengthAdjust="spacing" textLength="98.8256" x="438.5" y="519.6697">render(): string</text></g><!--class Producte--><g id="elem_Producte"><rect fill="#F1F1F1" height="48" id="Producte" rx="2.5" ry="2.5" style="stroke:#181818;stroke-width:0.5;" width="91.6538" x="277" y="644.5"/><ellipse cx="292" cy="660.5" fill="#ADD1B2" rx="11" ry="11" style="stroke:#181818;stroke-width:1;"/><path d="M294.9688,666.1406 Q294.3906,666.4375 293.75,666.5781 Q293.1094,666.7344 292.4063,666.7344 Q289.9063,666.7344 288.5781,665.0938 Q287.2656,663.4375 287.2656,660.3125 Q287.2656,657.1875 288.5781,655.5313 Q289.9063,653.875 292.4063,653.875 Q293.1094,653.875 293.75,654.0313 Q294.4063,654.1875 294.9688,654.4844 L294.9688,657.2031 Q294.3438,656.625 293.75,656.3594 Q293.1563,656.0781 292.5313,656.0781 Q291.1875,656.0781 290.5,657.1563 Q289.8125,658.2188 289.8125,660.3125 Q289.8125,662.4063 290.5,663.4844 Q291.1875,664.5469 292.5313,664.5469 Q293.1563,664.5469 293.75,664.2813 Q294.3438,664 294.9688,663.4219 L294.9688,666.1406 Z " fill="#000000"/><text fill="#000000" font-family="sans-serif" font-size="14" lengthAdjust="spacing" textLength="59.6538" x="306" y="665.932">Producte</text><line style="stroke:#181818;stroke-width:0.5;" x1="278" x2="367.6538" y1="676.5" y2="676.5"/><line style="stroke:#181818;stroke-width:0.5;" x1="278" x2="367.6538" y1="684.5" y2="684.5"/></g><!--class Carret--><g id="elem_Carret"><rect codeLine="14" fill="#F1F1F1" height="181.4754" id="Carret" rx="2.5" ry="2.5" style="stroke:#181818;stroke-width:0.5;" width="376.0267" x="7" y="375"/><ellipse cx="170.1554" cy="391" fill="#ADD1B2" rx="11" ry="11" style="stroke:#181818;stroke-width:1;"/><path d="M173.1242,396.6406 Q172.5461,396.9375 171.9054,397.0781 Q171.2648,397.2344 170.5617,397.2344 Q168.0617,397.2344 166.7336,395.5938 Q165.4211,393.9375 165.4211,390.8125 Q165.4211,387.6875 166.7336,386.0313 Q168.0617,384.375 170.5617,384.375 Q171.2648,384.375 171.9054,384.5313 Q172.5617,384.6875 173.1242,384.9844 L173.1242,387.7031 Q172.4992,387.125 171.9054,386.8594 Q171.3117,386.5781 170.6867,386.5781 Q169.3429,386.5781 168.6554,387.6563 Q167.9679,388.7188 167.9679,390.8125 Q167.9679,392.9063 168.6554,393.9844 Q169.3429,395.0469 170.6867,395.0469 Q171.3117,395.0469 171.9054,394.7813 Q172.4992,394.5 173.1242,393.9219 L173.1242,396.6406 Z " fill="#000000"/><text fill="#000000" font-family="sans-serif" font-size="14" lengthAdjust="spacing" textLength="41.2159" x="190.6554" y="396.432">Carret</text><line style="stroke:#181818;stroke-width:0.5;" x1="8" x2="382.0267" y1="407" y2="407"/><rect fill="transparent" height="6" style="stroke:#C82930;stroke-width:1;" width="6" x="15" y="419.034"/><text fill="#000000" font-family="sans-serif" font-size="14" lengthAdjust="spacing" textLength="350.0267" x="27" y="425.9659">elements: { producte: Producte, quantitat: number }[]</text><line style="stroke:#181818;stroke-width:0.5;" x1="8" x2="382.0267" y1="434.0679" y2="434.0679"/><ellipse cx="18" cy="449.1019" fill="#84BE84" rx="3" ry="3" style="stroke:#038048;stroke-width:1;"/><text fill="#000000" font-family="sans-serif" font-size="14" lengthAdjust="spacing" textLength="217.4752" x="27" y="453.0339">afegirProducte(p: Producte): void</text><ellipse cx="18" cy="468.1698" fill="#84BE84" rx="3" ry="3" style="stroke:#038048;stroke-width:1;"/><text fill="#000000" font-family="sans-serif" font-size="14" lengthAdjust="spacing" textLength="233.0151" x="27" y="472.1018">eliminarProducte(p: Producte): void</text><ellipse cx="18" cy="487.2377" fill="#84BE84" rx="3" ry="3" style="stroke:#038048;stroke-width:1;"/><text fill="#000000" font-family="sans-serif" font-size="14" lengthAdjust="spacing" textLength="214.7732" x="27" y="491.1697">calcularQuantitatTotal(): number</text><ellipse cx="18" cy="506.3056" fill="#84BE84" rx="3" ry="3" style="stroke:#038048;stroke-width:1;"/><text fill="#000000" font-family="sans-serif" font-size="14" lengthAdjust="spacing" textLength="182.8533" x="27" y="510.2376">calcularPreuTotal(): number</text><ellipse cx="18" cy="525.3735" fill="#84BE84" rx="3" ry="3" style="stroke:#038048;stroke-width:1;"/><text fill="#000000" font-family="sans-serif" font-size="14" lengthAdjust="spacing" textLength="137.9555" x="27" y="529.3055">guardarCarret(): void</text><ellipse cx="18" cy="544.4415" fill="#84BE84" rx="3" ry="3" style="stroke:#038048;stroke-width:1;"/><text fill="#000000" font-family="sans-serif" font-size="14" lengthAdjust="spacing" textLength="141.0915" x="27" y="548.3734">carregarCarret(): void</text></g><!--class GestorPersist?ncia--><g id="elem_GestorPersist&#232;ncia"><rect codeLine="27" fill="#F1F1F1" height="124.2717" id="GestorPersist&#232;ncia" rx="2.5" ry="2.5" style="stroke:#181818;stroke-width:0.5;" width="340.8448" x="292.5" y="172"/><ellipse cx="397.1427" cy="188" fill="#ADD1B2" rx="11" ry="11" style="stroke:#181818;stroke-width:1;"/><path d="M400.1114,193.6406 Q399.5333,193.9375 398.8927,194.0781 Q398.252,194.2344 397.5489,194.2344 Q395.0489,194.2344 393.7208,192.5938 Q392.4083,190.9375 392.4083,187.8125 Q392.4083,184.6875 393.7208,183.0313 Q395.0489,181.375 397.5489,181.375 Q398.252,181.375 398.8927,181.5313 Q399.5489,181.6875 400.1114,181.9844 L400.1114,184.7031 Q399.4864,184.125 398.8927,183.8594 Q398.2989,183.5781 397.6739,183.5781 Q396.3302,183.5781 395.6427,184.6563 Q394.9552,185.7188 394.9552,187.8125 Q394.9552,189.9063 395.6427,190.9844 Q396.3302,192.0469 397.6739,192.0469 Q398.2989,192.0469 398.8927,191.7813 Q399.4864,191.5 400.1114,190.9219 L400.1114,193.6406 Z " fill="#000000"/><text fill="#000000" font-family="sans-serif" font-size="14" lengthAdjust="spacing" textLength="123.0595" x="417.6427" y="193.432">GestorPersist&#232;ncia</text><line style="stroke:#181818;stroke-width:0.5;" x1="293.5" x2="632.3448" y1="204" y2="204"/><line style="stroke:#181818;stroke-width:0.5;" x1="293.5" x2="632.3448" y1="212" y2="212"/><ellipse cx="303.5" cy="227.034" fill="#84BE84" rx="3" ry="3" style="stroke:#038048;stroke-width:1;"/><text fill="#000000" font-family="sans-serif" font-size="14" lengthAdjust="spacing" textLength="314.8448" x="312.5" y="230.9659">guardarComandes(comandes: Comanda[]): void</text><ellipse cx="303.5" cy="246.1019" fill="#84BE84" rx="3" ry="3" style="stroke:#038048;stroke-width:1;"/><text fill="#000000" font-family="sans-serif" font-size="14" lengthAdjust="spacing" textLength="214.7872" x="312.5" y="250.0339">carregarComandes(): Comanda[]</text><ellipse cx="303.5" cy="265.1698" fill="#84BE84" rx="3" ry="3" style="stroke:#038048;stroke-width:1;"/><text fill="#000000" font-family="sans-serif" font-size="14" lengthAdjust="spacing" textLength="225.6512" x="312.5" y="269.1018">guardarCarret(carret: Carret): void</text><ellipse cx="303.5" cy="284.2377" fill="#84BE84" rx="3" ry="3" style="stroke:#038048;stroke-width:1;"/><text fill="#000000" font-family="sans-serif" font-size="14" lengthAdjust="spacing" textLength="154.5034" x="312.5" y="288.1697">carregarCarret(): Carret</text></g><!--class ComandaCard--><g id="elem_ComandaCard"><rect codeLine="37" fill="#F1F1F1" height="67.0679" id="ComandaCard" rx="2.5" ry="2.5" style="stroke:#181818;stroke-width:0.5;" width="126.4716" x="473" y="635"/><ellipse cx="488" cy="651" fill="#ADD1B2" rx="11" ry="11" style="stroke:#181818;stroke-width:1;"/><path d="M490.9688,656.6406 Q490.3906,656.9375 489.75,657.0781 Q489.1094,657.2344 488.4063,657.2344 Q485.9063,657.2344 484.5781,655.5938 Q483.2656,653.9375 483.2656,650.8125 Q483.2656,647.6875 484.5781,646.0313 Q485.9063,644.375 488.4063,644.375 Q489.1094,644.375 489.75,644.5313 Q490.4063,644.6875 490.9688,644.9844 L490.9688,647.7031 Q490.3438,647.125 489.75,646.8594 Q489.1563,646.5781 488.5313,646.5781 Q487.1875,646.5781 486.5,647.6563 Q485.8125,648.7188 485.8125,650.8125 Q485.8125,652.9063 486.5,653.9844 Q487.1875,655.0469 488.5313,655.0469 Q489.1563,655.0469 489.75,654.7813 Q490.3438,654.5 490.9688,653.9219 L490.9688,656.6406 Z " fill="#000000"/><text fill="#000000" font-family="sans-serif" font-size="14" lengthAdjust="spacing" textLength="94.4716" x="502" y="656.432">ComandaCard</text><line style="stroke:#181818;stroke-width:0.5;" x1="474" x2="598.4716" y1="667" y2="667"/><line style="stroke:#181818;stroke-width:0.5;" x1="474" x2="598.4716" y1="675" y2="675"/><ellipse cx="484" cy="690.034" fill="#84BE84" rx="3" ry="3" style="stroke:#038048;stroke-width:1;"/><text fill="#000000" font-family="sans-serif" font-size="14" lengthAdjust="spacing" textLength="88.2137" x="493" y="693.9659">render(): void</text></g><!--class HistorialComponent--><g id="elem_HistorialComponent"><rect codeLine="43" fill="#F1F1F1" height="86.1358" id="HistorialComponent" rx="2.5" ry="2.5" style="stroke:#181818;stroke-width:0.5;" width="176.2054" x="487" y="7"/><ellipse cx="507.1246" cy="23" fill="#ADD1B2" rx="11" ry="11" style="stroke:#181818;stroke-width:1;"/><path d="M510.0933,28.6406 Q509.5152,28.9375 508.8746,29.0781 Q508.2339,29.2344 507.5308,29.2344 Q505.0308,29.2344 503.7027,27.5938 Q502.3902,25.9375 502.3902,22.8125 Q502.3902,19.6875 503.7027,18.0313 Q505.0308,16.375 507.5308,16.375 Q508.2339,16.375 508.8746,16.5313 Q509.5308,16.6875 510.0933,16.9844 L510.0933,19.7031 Q509.4683,19.125 508.8746,18.8594 Q508.2808,18.5781 507.6558,18.5781 Q506.3121,18.5781 505.6246,19.6563 Q504.9371,20.7188 504.9371,22.8125 Q504.9371,24.9063 505.6246,25.9844 Q506.3121,27.0469 507.6558,27.0469 Q508.2808,27.0469 508.8746,26.7813 Q509.4683,26.5 510.0933,25.9219 L510.0933,28.6406 Z " fill="#000000"/><text fill="#000000" font-family="sans-serif" font-size="14" lengthAdjust="spacing" textLength="132.8175" x="522.2634" y="28.432">HistorialComponent</text><line style="stroke:#181818;stroke-width:0.5;" x1="488" x2="662.2054" y1="39" y2="39"/><line style="stroke:#181818;stroke-width:0.5;" x1="488" x2="662.2054" y1="47" y2="47"/><ellipse cx="498" cy="62.034" fill="#84BE84" rx="3" ry="3" style="stroke:#038048;stroke-width:1;"/><text fill="#000000" font-family="sans-serif" font-size="14" lengthAdjust="spacing" textLength="88.2137" x="507" y="65.9659">render(): void</text><ellipse cx="498" cy="81.1019" fill="#84BE84" rx="3" ry="3" style="stroke:#038048;stroke-width:1;"/><text fill="#000000" font-family="sans-serif" font-size="14" lengthAdjust="spacing" textLength="150.2054" x="507" y="85.0339">carregarHist&#242;ric(): void</text></g><!--reverse link Comanda to Producte--><g id="link_Comanda_Producte"><path codeLine="11" d="M433.5663,536.4342 C415.8163,554.8242 404.99,566.62 388,586 C371.3,605.05 353.42,627.64 340.66,644.2 " fill="transparent" id="Comanda-backto-Producte" style="stroke:#181818;stroke-width:1;"/><polygon fill="transparent" points="441.9,527.8,434.8551,529.3392,433.5663,536.4342,440.6112,534.895,441.9,527.8" style="stroke:#181818;stroke-width:1;"/><text fill="#000000" font-family="sans-serif" font-size="13" lengthAdjust="spacing" textLength="99.2941" x="389" y="600.897">cont&#233; productes</text></g><!--reverse link Carret to Producte--><g id="link_Carret_Producte"><path codeLine="24" d="M195.8227,568.0179 C198.8627,585.2679 202.36,590.61 212,605 C227.2,627.69 253.56,643.04 276.79,652.84 " fill="transparent" id="Carret-backto-Producte" style="stroke:#181818;stroke-width:1;"/><polygon fill="transparent" points="193.74,556.2,190.842,562.8032,195.8227,568.0179,198.7206,561.4147,193.74,556.2" style="stroke:#181818;stroke-width:1;"/><text fill="#000000" font-family="sans-serif" font-size="13" lengthAdjust="spacing" textLength="99.2941" x="213" y="600.897">cont&#233; productes</text></g><!--reverse link GestorPersist?ncia to Comanda--><g id="link_GestorPersist&#232;ncia_Comanda"><path codeLine="34" d="M475.7282,308.0222 C481.5082,341.2222 486.58,370.3 492.36,403.47 " fill="transparent" id="GestorPersist&#232;ncia-backto-Comanda" style="stroke:#181818;stroke-width:1;"/><polygon fill="transparent" points="473.67,296.2,470.7584,302.7972,475.7282,308.0222,478.6398,301.425,473.67,296.2" style="stroke:#181818;stroke-width:1;"/><text fill="#000000" font-family="sans-serif" font-size="13" lengthAdjust="spacing" textLength="92.4951" x="483" y="340.897">guarda hist&#242;ric</text></g><!--reverse link GestorPersist?ncia to Carret--><g id="link_GestorPersist&#232;ncia_Carret"><path codeLine="35" d="M382.416,304.006 C354.196,328.176 330.32,348.62 299.52,375 " fill="transparent" id="GestorPersist&#232;ncia-backto-Carret" style="stroke:#181818;stroke-width:1;"/><polygon fill="transparent" points="391.53,296.2,384.371,297.065,382.416,304.006,389.575,303.141,391.53,296.2" style="stroke:#181818;stroke-width:1;"/><text fill="#000000" font-family="sans-serif" font-size="13" lengthAdjust="spacing" textLength="83.6551" x="355" y="340.897">guarda carret</text></g><!--link Comanda to ComandaCard--><g id="link_Comanda_ComandaCard"><path codeLine="41" d="M494.36,527.72 C492.79,552.13 493.38,580.26 500,605 C502.75,615.28 504.648,620.4292 509.958,629.6592 " fill="transparent" id="Comanda-to-ComandaCard" style="stroke:#181818;stroke-width:1;"/><polygon fill="#181818" points="512.95,634.86,511.9292,625.0642,510.4567,630.526,504.9948,629.0535,512.95,634.86" style="stroke:#181818;stroke-width:1;"/><text fill="#000000" font-family="sans-serif" font-size="13" lengthAdjust="spacing" textLength="159.0291" x="501" y="600.897">genera targeta en el DOM</text></g><!--link HistorialComponent to GestorPersist?ncia--><g id="link_HistorialComponent_GestorPersist&#232;ncia"><path codeLine="48" d="M513.13,93.31 C503.57,102.16 494.68,112.15 488,123 C479.02,137.6 474.556,149.2016 470.866,165.8816 " fill="transparent" id="HistorialComponent-to-GestorPersist&#232;ncia" style="stroke:#181818;stroke-width:1;"/><polygon fill="#181818" points="469.57,171.74,475.4196,163.8165,470.65,166.858,467.6084,162.0885,469.57,171.74" style="stroke:#181818;stroke-width:1;"/><text fill="#000000" font-family="sans-serif" font-size="13" lengthAdjust="spacing" textLength="171.7691" x="489" y="137.897">Guarda/recupera comandes</text></g><!--link HistorialComponent to ComandaCard--><g id="link_HistorialComponent_ComandaCard"><path codeLine="49" d="M642.46,93.11 C651.58,101.83 659.63,111.82 665,123 C757.8,316.08 778.76,423.48 665,605 C650.33,628.41 629.7512,641.1719 604.7812,650.4919 " fill="transparent" id="HistorialComponent-to-ComandaCard" style="stroke:#181818;stroke-width:1;"/><polygon fill="#181818" points="599.16,652.59,608.9905,653.1903,603.8443,650.8416,606.1931,645.6954,599.16,652.59" style="stroke:#181818;stroke-width:1;"/><text fill="#000000" font-family="sans-serif" font-size="13" lengthAdjust="spacing" textLength="109.7591" x="741" y="340.897">Mostra comandes</text></g><!--SRC=[bLGzJyCm4DtpAsvhAuZOCx2qKbagYiHMTRWwrzIIOuUBmrBr_y0AFw5_3Bk9ym6fW4osxzxTUy_dJ611UwcbaETFI0aKWZ0vwXGZeR0iOLxlu1Y1-sAGQGAwodV4pS71C2PGMfOwQuuADcabB9K9h9lbPdk9tG2JJecdinPoYgBGmyHn2u344T7s_DvLYwB9aAs2EJAJ1SntK12NihJdDoraIxuE1-waA2Tj7QrZMxMZU0il5MehBTeW4KujRznJ9ZdaJeiEvwIy6fasUQHaBZN-8LEW4fL2VWfTdur5vPtf-TkbhPcgyOoiGawHQx7JxqtSOVOZw4sllVclvtv2ngnUKcaDh_kHnlUEuEMQgPoAPf64wTfihx0EY5alTLJr1U7khTx-va6zyYwCqVQMX95CcZvmyF4Fbk8wf3QqHTIKek4xSabfwqlt5jfBQTh6yVq0uOgI9aQmo1bP1D9kqc3nk0hr7wHd9L4vM66q6_DhROQcF0HTVHeZnJoZCUK9B2zoxvX4LNYAuNQlLHdgMXdt7-Y1lW00]--></g></svg>