<svg xmlns="http://www.w3.org/2000/svg" xmlns:xlink="http://www.w3.org/1999/xlink" contentStyleType="text/css" data-diagram-type="SEQUENCE" height="255px" preserveAspectRatio="none" style="width:392px;height:255px;background:#FFFFFF;" version="1.1" viewBox="0 0 392 255" width="392px" zoomAndPan="magnify"><defs/><g><g><title>Comanda</title><rect fill="#FFFFFF" height="63.412" style="stroke:#181818;stroke-width:1;" width="10" x="342.5431" y="104.4799"/></g><g><title>Usuari</title><rect fill="transparent" height="178.5301" width="8" x="29.4199" y="39.0679"/><line style="stroke:#181818;stroke-width:0.5;stroke-dasharray:5.0,5.0;" x1="33" x2="33" y1="39.0679" y2="217.598"/></g><g><title>Sistema</title><rect fill="transparent" height="178.5301" width="8" x="201.802" y="39.0679"/><line style="stroke:#181818;stroke-width:0.5;stroke-dasharray:5.0,5.0;" x1="204.8531" x2="204.8531" y1="39.0679" y2="217.598"/></g><g><title>Comanda</title><rect fill="transparent" height="178.5301" width="8" x="343.5431" y="39.0679"/><line style="stroke:#181818;stroke-width:0.5;stroke-dasharray:5.0,5.0;" x1="346.8542" x2="346.8542" y1="39.0679" y2="217.598"/></g><rect fill="#E2E2F0" height="33.0679" rx="2.5" ry="2.5" style="stroke:#181818;stroke-width:0.5;" width="56.8398" x="5" y="5"/><text fill="#000000" font-family="sans-serif" font-size="14" lengthAdjust="spacing" textLength="42.8398" x="12" y="26.9659">Usuari</text><rect fill="#E2E2F0" height="33.0679" rx="2.5" ry="2.5" style="stroke:#181818;stroke-width:0.5;" width="56.8398" x="5" y="216.598"/><text fill="#000000" font-family="sans-serif" font-size="14" lengthAdjust="spacing" textLength="42.8398" x="12" y="238.5639">Usuari</text><rect fill="#E2E2F0" height="33.0679" rx="2.5" ry="2.5" style="stroke:#181818;stroke-width:0.5;" width="65.8978" x="172.8531" y="5"/><text fill="#000000" font-family="sans-serif" font-size="14" lengthAdjust="spacing" textLength="51.8978" x="179.8531" y="26.9659">Sistema</text><rect fill="#E2E2F0" height="33.0679" rx="2.5" ry="2.5" style="stroke:#181818;stroke-width:0.5;" width="65.8978" x="172.8531" y="216.598"/><text fill="#000000" font-family="sans-serif" font-size="14" lengthAdjust="spacing" textLength="51.8978" x="179.8531" y="238.5639">Sistema</text><rect fill="#E2E2F0" height="33.0679" rx="2.5" ry="2.5" style="stroke:#181818;stroke-width:0.5;" width="77.3778" x="308.8542" y="5"/><text fill="#000000" font-family="sans-serif" font-size="14" lengthAdjust="spacing" textLength="63.3778" x="315.8542" y="26.9659">Comanda</text><rect fill="#E2E2F0" height="33.0679" rx="2.5" ry="2.5" style="stroke:#181818;stroke-width:0.5;" width="77.3778" x="308.8542" y="216.598"/><text fill="#000000" font-family="sans-serif" font-size="14" lengthAdjust="spacing" textLength="63.3778" x="315.8542" y="238.5639">Comanda</text><g><title>Comanda</title><rect fill="#FFFFFF" height="63.412" style="stroke:#181818;stroke-width:1;" width="10" x="342.5431" y="104.4799"/></g><polygon fill="#181818" points="193.802,68.7739,203.802,72.7739,193.802,76.7739,197.802,72.7739" style="stroke:#181818;stroke-width:1;"/><line style="stroke:#181818;stroke-width:1;" x1="33.4199" x2="199.802" y1="72.7739" y2="72.7739"/><text fill="#000000" font-family="sans-serif" font-size="13" lengthAdjust="spacing" textLength="148.3821" x="40.4199" y="66.9649">Crea una nova comanda</text><polygon fill="#181818" points="330.5431,100.4799,340.5431,104.4799,330.5431,108.4799,334.5431,104.4799" style="stroke:#181818;stroke-width:1;"/><line style="stroke:#181818;stroke-width:1;" x1="205.802" x2="336.5431" y1="104.4799" y2="104.4799"/><text fill="#000000" font-family="sans-serif" font-size="13" lengthAdjust="spacing" textLength="117.7411" x="212.802" y="98.6709">Inicialitza comanda</text><polygon fill="#181818" points="330.5431,132.186,340.5431,136.186,330.5431,140.186,334.5431,136.186" style="stroke:#181818;stroke-width:1;"/><line style="stroke:#181818;stroke-width:1;" x1="205.802" x2="336.5431" y1="136.186" y2="136.186"/><text fill="#000000" font-family="sans-serif" font-size="13" lengthAdjust="spacing" textLength="89.0761" x="212.802" y="130.377">Guarda detalls</text><polygon fill="#181818" points="335.5431,163.892,345.5431,167.892,335.5431,171.892,339.5431,167.892" style="stroke:#181818;stroke-width:1;"/><line style="stroke:#181818;stroke-width:1;" x1="205.802" x2="341.5431" y1="167.892" y2="167.892"/><text fill="#000000" font-family="sans-serif" font-size="13" lengthAdjust="spacing" textLength="110.4871" x="212.802" y="162.083">Finalitza comanda</text><line style="stroke:#181818;stroke-width:1;" x1="34.4199" x2="44.4199" y1="199.598" y2="195.598"/><line style="stroke:#181818;stroke-width:1;" x1="34.4199" x2="44.4199" y1="199.598" y2="203.598"/><line style="stroke:#181818;stroke-width:1;stroke-dasharray:2.0,2.0;" x1="33.4199" x2="204.802" y1="199.598" y2="199.598"/><text fill="#000000" font-family="sans-serif" font-size="13" lengthAdjust="spacing" textLength="134.4461" x="50.4199" y="193.789">Comanda completada</text><!--SRC=[TOyx3iCm34Dtdq8No0KwU0dGedFH0n2s1m6EOjXAXfw-AkhqXtGJg4SIBAZAWGj4wTeML7RbGxfmqpJXInld2HBXt9EdmMyO7MYi2RG8IEOL53gw_GtjRaFFOed8hBStYA2yGjEhPDTvibuxObBatFQP8yjFTap_qmVl-_p7XXvYnfAj8-8E]--></g></svg>