<svg xmlns="http://www.w3.org/2000/svg" xmlns:xlink="http://www.w3.org/1999/xlink" contentStyleType="text/css" data-diagram-type="SEQUENCE" height="536px" preserveAspectRatio="none" style="width:455px;height:536px;background:#FFFFFF;" version="1.1" viewBox="0 0 455 536" width="455px" zoomAndPan="magnify"><defs/><g><g><title>Usuari</title><rect fill="transparent" height="368.7662" width="8" x="25.4199" y="84.0679"/><line style="stroke:#181818;stroke-width:0.5;stroke-dasharray:5.0,5.0;" x1="29" x2="29" y1="84.0679" y2="452.8341"/></g><g><title>Sistema e-Commerce</title><rect fill="transparent" height="368.7662" width="8" x="207.695" y="84.0679"/><line style="stroke:#181818;stroke-width:0.5;stroke-dasharray:5.0,5.0;" x1="210.8283" x2="210.8283" y1="84.0679" y2="452.8341"/></g><g><title>Base de Dades</title><rect fill="transparent" height="368.7662" width="8" x="389.7492" y="84.0679"/><line style="stroke:#181818;stroke-width:0.5;stroke-dasharray:5.0,5.0;" x1="393.4353" x2="393.4353" y1="84.0679" y2="452.8341"/></g><text fill="#000000" font-family="sans-serif" font-size="14" lengthAdjust="spacing" textLength="42.8398" x="5" y="79.9659">Usuari</text><ellipse cx="29.4199" cy="13.5" fill="#E2E2F0" rx="8" ry="8" style="stroke:#181818;stroke-width:0.5;"/><path d="M29.4199,21.5 L29.4199,48.5 M16.4199,29.5 L42.4199,29.5 M29.4199,48.5 L16.4199,63.5 M29.4199,48.5 L42.4199,63.5 " fill="transparent" style="stroke:#181818;stroke-width:0.5;"/><text fill="#000000" font-family="sans-serif" font-size="14" lengthAdjust="spacing" textLength="42.8398" x="5" y="466.8">Usuari</text><ellipse cx="29.4199" cy="479.402" fill="#E2E2F0" rx="8" ry="8" style="stroke:#181818;stroke-width:0.5;"/><path d="M29.4199,487.402 L29.4199,514.402 M16.4199,495.402 L42.4199,495.402 M29.4199,514.402 L16.4199,529.402 M29.4199,514.402 L42.4199,529.402 " fill="transparent" style="stroke:#181818;stroke-width:0.5;"/><rect fill="#E2E2F0" height="33.0679" rx="2.5" ry="2.5" style="stroke:#181818;stroke-width:0.5;" width="153.7335" x="134.8283" y="50"/><text fill="#000000" font-family="sans-serif" font-size="14" lengthAdjust="spacing" textLength="139.7335" x="141.8283" y="71.9659">Sistema e-Commerce</text><rect fill="#E2E2F0" height="33.0679" rx="2.5" ry="2.5" style="stroke:#181818;stroke-width:0.5;" width="153.7335" x="134.8283" y="451.8341"/><text fill="#000000" font-family="sans-serif" font-size="14" lengthAdjust="spacing" textLength="139.7335" x="141.8283" y="473.8">Sistema e-Commerce</text><rect fill="#E2E2F0" height="33.0679" rx="2.5" ry="2.5" style="stroke:#181818;stroke-width:0.5;" width="110.6276" x="338.4353" y="50"/><text fill="#000000" font-family="sans-serif" font-size="14" lengthAdjust="spacing" textLength="96.6276" x="345.4353" y="71.9659">Base de Dades</text><rect fill="#E2E2F0" height="33.0679" rx="2.5" ry="2.5" style="stroke:#181818;stroke-width:0.5;" width="110.6276" x="338.4353" y="451.8341"/><text fill="#000000" font-family="sans-serif" font-size="14" lengthAdjust="spacing" textLength="96.6276" x="345.4353" y="473.8">Base de Dades</text><polygon fill="#181818" points="199.695,113.7739,209.695,117.7739,199.695,121.7739,203.695,117.7739" style="stroke:#181818;stroke-width:1;"/><line style="stroke:#181818;stroke-width:1;" x1="29.4199" x2="205.695" y1="117.7739" y2="117.7739"/><text fill="#000000" font-family="sans-serif" font-size="13" lengthAdjust="spacing" textLength="73.2941" x="36.4199" y="111.9649">Inicia sessi&#243;</text><polygon fill="#181818" points="381.7492,145.4799,391.7492,149.4799,381.7492,153.4799,385.7492,149.4799" style="stroke:#181818;stroke-width:1;"/><line style="stroke:#181818;stroke-width:1;" x1="211.695" x2="387.7492" y1="149.4799" y2="149.4799"/><text fill="#000000" font-family="sans-serif" font-size="13" lengthAdjust="spacing" textLength="117.3641" x="218.695" y="143.6709">Verifica credencials</text><line style="stroke:#181818;stroke-width:1;" x1="212.695" x2="222.695" y1="181.186" y2="177.186"/><line style="stroke:#181818;stroke-width:1;" x1="212.695" x2="222.695" y1="181.186" y2="185.186"/><line style="stroke:#181818;stroke-width:1;stroke-dasharray:2.0,2.0;" x1="211.695" x2="392.7492" y1="181.186" y2="181.186"/><text fill="#000000" font-family="sans-serif" font-size="13" lengthAdjust="spacing" textLength="116.2851" x="228.695" y="175.377">Credencials v&#224;lides</text><line style="stroke:#181818;stroke-width:1;" x1="30.4199" x2="40.4199" y1="212.892" y2="208.892"/><line style="stroke:#181818;stroke-width:1;" x1="30.4199" x2="40.4199" y1="212.892" y2="216.892"/><line style="stroke:#181818;stroke-width:1;stroke-dasharray:2.0,2.0;" x1="29.4199" x2="210.695" y1="212.892" y2="212.892"/><text fill="#000000" font-family="sans-serif" font-size="13" lengthAdjust="spacing" textLength="89.4791" x="46.4199" y="207.083">Acc&#233;s concedit</text><polygon fill="#181818" points="199.695,240.598,209.695,244.598,199.695,248.598,203.695,244.598" style="stroke:#181818;stroke-width:1;"/><line style="stroke:#181818;stroke-width:1;" x1="29.4199" x2="205.695" y1="244.598" y2="244.598"/><text fill="#000000" font-family="sans-serif" font-size="13" lengthAdjust="spacing" textLength="158.2751" x="36.4199" y="238.789">Afegeix producte al carret</text><polygon fill="#181818" points="381.7492,272.304,391.7492,276.304,381.7492,280.304,385.7492,276.304" style="stroke:#181818;stroke-width:1;"/><line style="stroke:#181818;stroke-width:1;" x1="211.695" x2="387.7492" y1="276.304" y2="276.304"/><text fill="#000000" font-family="sans-serif" font-size="13" lengthAdjust="spacing" textLength="158.0541" x="218.695" y="270.495">Guarda producte al carret</text><line style="stroke:#181818;stroke-width:1;" x1="212.695" x2="222.695" y1="308.01" y2="304.01"/><line style="stroke:#181818;stroke-width:1;" x1="212.695" x2="222.695" y1="308.01" y2="312.01"/><line style="stroke:#181818;stroke-width:1;stroke-dasharray:2.0,2.0;" x1="211.695" x2="392.7492" y1="308.01" y2="308.01"/><text fill="#000000" font-family="sans-serif" font-size="13" lengthAdjust="spacing" textLength="74.2171" x="228.695" y="302.201">Confirmaci&#243;</text><polygon fill="#181818" points="199.695,335.716,209.695,339.716,199.695,343.716,203.695,339.716" style="stroke:#181818;stroke-width:1;"/><line style="stroke:#181818;stroke-width:1;" x1="29.4199" x2="205.695" y1="339.716" y2="339.716"/><text fill="#000000" font-family="sans-serif" font-size="13" lengthAdjust="spacing" textLength="100.5291" x="36.4199" y="333.907">Finalitza compra</text><polygon fill="#181818" points="381.7492,367.4221,391.7492,371.4221,381.7492,375.4221,385.7492,371.4221" style="stroke:#181818;stroke-width:1;"/><line style="stroke:#181818;stroke-width:1;" x1="211.695" x2="387.7492" y1="371.4221" y2="371.4221"/><text fill="#000000" font-family="sans-serif" font-size="13" lengthAdjust="spacing" textLength="105.7031" x="218.695" y="365.6131">Guarda comanda</text><line style="stroke:#181818;stroke-width:1;" x1="212.695" x2="222.695" y1="403.1281" y2="399.1281"/><line style="stroke:#181818;stroke-width:1;" x1="212.695" x2="222.695" y1="403.1281" y2="407.1281"/><line style="stroke:#181818;stroke-width:1;stroke-dasharray:2.0,2.0;" x1="211.695" x2="392.7492" y1="403.1281" y2="403.1281"/><text fill="#000000" font-family="sans-serif" font-size="13" lengthAdjust="spacing" textLength="74.2171" x="228.695" y="397.3191">Confirmaci&#243;</text><line style="stroke:#181818;stroke-width:1;" x1="30.4199" x2="40.4199" y1="434.8341" y2="430.8341"/><line style="stroke:#181818;stroke-width:1;" x1="30.4199" x2="40.4199" y1="434.8341" y2="438.8341"/><line style="stroke:#181818;stroke-width:1;stroke-dasharray:2.0,2.0;" x1="29.4199" x2="210.695" y1="434.8341" y2="434.8341"/><text fill="#000000" font-family="sans-serif" font-size="13" lengthAdjust="spacing" textLength="124.4881" x="46.4199" y="429.0251">Compra completada</text><!--SRC=[XP1BJiCm48RtFiMe-roWYqfD8X1h1FlHU896yYEQSH7YDDrspH5oCTpGgY2CsFh__iSOgMI59pkWYfjHYv3Cc0fi7iKAHmJkXXmZA_46qE3o_9FjqHWymuYURSNwqRclLEXsLnDiuI5L4uAncImVxYfKfX-h_Cmgan02ANjE5Gtcgj9rk-yfmqs5r-KOfDRUiixifNiBUwBbP40v4NifxLNxYLzOtc3Mx0zK6300eIgNNmllgzjZYspCp6aIZKZdKvl5Tv8mI7cl1-SuA_vLLrLC7l_hQ7_1i4Ql3O4BUlm4]--></g></svg>