<?xml version="1.0" encoding="UTF-8" standalone="no"?>
<!-- Created with Inkscape (http://www.inkscape.org/) -->

<svg
   width="56.937801mm"
   height="69.657036mm"
   viewBox="0 0 56.937801 69.657036"
   version="1.1"
   id="svg5020"
   inkscape:version="1.2.2 (b0a8486541, 2022-12-01)"
   sodipodi:docname="logo.svg"
   xmlns:inkscape="http://www.inkscape.org/namespaces/inkscape"
   xmlns:sodipodi="http://sodipodi.sourceforge.net/DTD/sodipodi-0.dtd"
   xmlns="http://www.w3.org/2000/svg"
   xmlns:svg="http://www.w3.org/2000/svg">
  <sodipodi:namedview
     id="namedview5022"
     pagecolor="#ffffff"
     bordercolor="#000000"
     borderopacity="0.25"
     inkscape:showpageshadow="2"
     inkscape:pageopacity="0.0"
     inkscape:pagecheckerboard="0"
     inkscape:deskcolor="#d1d1d1"
     inkscape:document-units="mm"
     showgrid="false"
     inkscape:zoom="0.71179153"
     inkscape:cx="280.27869"
     inkscape:cy="217.05794"
     inkscape:window-width="1920"
     inkscape:window-height="980"
     inkscape:window-x="0"
     inkscape:window-y="36"
     inkscape:window-maximized="1"
     inkscape:current-layer="layer1" />
  <defs
     id="defs5017" />
  <g
     inkscape:label="Capa 1"
     inkscape:groupmode="layer"
     id="layer1"
     transform="translate(-31.005441,-91.182744)">
    <g
       id="g2307"
       transform="matrix(0.26725589,0,0,0.26725589,-17.4542,87.93344)"
       inkscape:export-filename="docs/img/logo.png"
       inkscape:export-xdpi="83.419998"
       inkscape:export-ydpi="83.419998">
	<g
   id="g2411">
  <g
     id="g2400"
     transform="matrix(3.7417324,0,0,3.7417324,35.845972,-407.28)">
    <polygon
       fill="#fbbd16"
       points="221.937,113.84 181.323,94.391 181.323,221.04 208.096,234.496 208.096,158.167 222.729,240.603 246.553,252.477 261.867,183.949 261.867,258.923 288.753,272.151 288.753,145.616 247.914,126.278 234.982,186.663 "
       id="polygon2253"
       transform="matrix(0.26725589,0,0,0.26725589,-9.580047,108.84798)" />
    <polygon
       fill="#452e7f"
       points="292.611,272.796 292.496,145.583 335.152,123.418 335.152,215.238 394.142,184.709 394.369,219.31 "
       id="polygon2255"
       transform="matrix(0.26725589,0,0,0.26725589,-9.580047,108.84798)" />
    <path
       fill="#962444"
       d="m 63.994965,112.09728 -8.061239,7.12744 c 0,0 15.728276,8.0845 17.638888,9.03993 1.91088,0.95518 4.630209,2.79256 1.690394,5.51216 -2.939815,2.71933 -6.173611,2.35185 -8.378472,1.24942 -2.204861,-1.10243 -18.520833,-9.33391 -18.520833,-9.33391 l -8.30471,7.05529 c 0,0 16.021723,8.15798 18.667824,9.55439 2.645833,1.39668 12.494213,4.8507 21.828125,-2.42534 9.333912,-7.27605 8.011262,-9.92188 8.011262,-10.43635 0,-0.51446 -0.220486,-3.23379 -1.837384,-4.92419 -1.617165,-1.69039 -6.320602,-4.11574 -8.304977,-5.14467 -1.984375,-1.02894 -14.428878,-7.27417 -14.428878,-7.27417 z"
       id="path2257"
       style="stroke-width:0.267256" />
  </g>
  <path
     fill="#6d6e71"
     d="m 393.104,167.064 c 0,4.471 -3.509,7.979 -8.076,7.979 -4.519,0 -8.123,-3.509 -8.123,-7.979 0,-4.375 3.604,-7.884 8.123,-7.884 4.568,0.001 8.076,3.509 8.076,7.884 z m -14.18,0 c 0,3.509 2.596,6.298 6.153,6.298 3.461,0 6.009,-2.789 6.009,-6.25 0,-3.51 -2.548,-6.346 -6.058,-6.346 -3.508,0.001 -6.104,2.837 -6.104,6.298 z m 4.855,4.134 h -1.827 v -7.883 c 0.722,-0.146 1.731,-0.241 3.029,-0.241 1.489,0 2.163,0.241 2.739,0.577 0.433,0.336 0.769,0.961 0.769,1.73 0,0.864 -0.672,1.538 -1.634,1.827 v 0.096 c 0.77,0.289 1.202,0.864 1.442,1.923 0.24,1.202 0.385,1.683 0.576,1.971 h -1.97 c -0.241,-0.288 -0.385,-1.01 -0.626,-1.923 -0.144,-0.865 -0.625,-1.25 -1.635,-1.25 h -0.864 v 3.173 z m 0.048,-4.47 h 0.865 c 1.01,0 1.827,-0.336 1.827,-1.153 0,-0.721 -0.528,-1.202 -1.683,-1.202 -0.481,0 -0.817,0.048 -1.01,0.097 v 2.258 z"
     id="path2305" />
</g>

</g>
  </g>
</svg>
